P3
# Created by Paint Shop Pro 6
46 21
255
255 255 240 255 255 240 255 255 240 0 0 0 0 0 0 0 0 0 0 0 0 0 0 0 0 0 0 
0 0 0 0 0 0 0 0 0 0 0 0 0 0 0 0 0 0 0 0 0 0 0 0 0 0 0 0 0 0 0 0 0 0 0 0 
0 0 0 0 0 0 0 0 0 0 0 0 0 0 0 0 0 0 0 0 0 0 0 0 0 0 0 0 0 0 0 0 0 0 0 0 
0 0 0 0 0 0 0 0 0 0 0 0 0 0 0 0 0 0 0 0 0 0 0 0 0 0 0 0 0 0 255 255 240 
255 255 240 255 255 240 255 255 240 255 255 240 0 0 0 221 221 221 221 221 221 
221 221 221 221 221 221 221 221 221 221 221 221 221 221 221 221 221 221 
221 221 221 221 221 221 221 221 221 221 221 221 221 221 221 221 221 221 
221 221 221 221 221 221 221 221 221 221 221 221 221 221 221 221 221 221 
221 221 221 221 221 221 221 221 221 221 221 221 221 221 221 221 221 221 
221 221 221 221 221 221 221 221 221 221 221 221 221 221 221 221 221 221 
221 221 221 221 221 221 221 221 221 221 221 221 221 221 221 221 221 221 
221 221 221 221 221 221 0 0 0 255 255 240 255 255 240 255 255 240 0 0 0 
221 221 221 221 221 221 0 0 0 0 0 0 0 0 0 0 0 0 0 0 0 0 0 0 0 0 0 0 0 0 
0 0 0 0 0 0 0 0 0 0 0 0 0 0 0 0 0 0 0 0 0 0 0 0 0 0 0 0 0 0 0 0 0 0 0 0 
0 0 0 0 0 0 0 0 0 0 0 0 0 0 0 0 0 0 0 0 0 0 0 0 0 0 0 0 0 0 0 0 0 0 0 0 
0 0 0 0 0 0 0 0 0 0 0 0 0 0 0 0 0 0 221 221 221 221 221 221 0 0 0 255 255 240 
0 0 0 221 221 221 221 221 221 0 0 0 255 255 255 255 255 255 255 255 255 
255 255 255 255 255 255 255 255 255 255 255 255 255 255 255 255 255 255 
255 255 255 255 255 255 255 255 255 255 255 255 255 255 255 255 255 255 
255 255 255 255 255 255 255 255 255 255 255 255 255 255 255 255 255 255 
255 255 255 255 255 255 255 255 255 255 255 255 255 255 255 255 255 255 
255 255 255 255 255 255 255 255 255 255 255 255 255 255 255 255 255 255 
255 255 255 255 255 255 255 255 255 255 255 255 255 255 255 0 0 0 221 221 221 
221 221 221 0 0 0 0 0 0 221 221 221 0 0 0 255 255 255 204 204 204 204 204 204 
204 204 204 204 204 204 204 204 204 204 204 204 204 204 204 204 204 204 
204 204 204 204 204 204 204 204 204 204 204 204 204 204 204 204 204 204 
204 204 204 204 204 204 204 204 204 204 204 204 204 204 204 204 204 204 
204 204 204 204 204 204 204 204 204 204 204 204 204 204 204 204 204 204 
204 204 204 204 204 204 204 204 204 204 204 204 204 204 204 204 204 204 
204 204 204 204 204 204 204 204 204 204 204 204 204 204 204 204 204 204 
119 119 119 0 0 0 221 221 221 0 0 0 0 0 0 221 221 221 0 0 0 255 255 255 
204 204 204 204 204 204 204 204 204 204 204 204 204 204 204 204 204 204 
204 204 204 204 204 204 204 204 204 204 204 204 204 204 204 204 204 204 
204 204 204 204 204 204 204 204 204 204 204 204 204 204 204 204 204 204 
204 204 204 204 204 204 204 204 204 204 204 204 204 204 204 204 204 204 
204 204 204 204 204 204 204 204 204 204 204 204 204 204 204 204 204 204 
204 204 204 204 204 204 204 204 204 204 204 204 204 204 204 204 204 204 
204 204 204 204 204 204 119 119 119 0 0 0 221 221 221 0 0 0 0 0 0 221 221 221 
0 0 0 255 255 255 204 204 204 204 204 204 204 204 204 204 204 204 204 204 204 
204 204 204 204 204 204 204 204 204 204 204 204 204 204 204 204 204 204 
204 204 204 0 0 0 204 204 204 204 204 204 204 204 204 0 0 0 204 204 204 
204 204 204 204 204 204 204 204 204 0 0 0 0 0 0 204 204 204 204 204 204 
204 204 204 0 0 0 204 204 204 204 204 204 204 204 204 204 204 204 204 204 204 
204 204 204 204 204 204 204 204 204 204 204 204 204 204 204 204 204 204 
119 119 119 0 0 0 221 221 221 0 0 0 0 0 0 221 221 221 0 0 0 255 255 255 
204 204 204 204 204 204 204 204 204 204 204 204 204 204 204 204 204 204 
204 204 204 204 204 204 204 204 204 204 204 204 0 0 0 0 0 0 0 0 0 0 0 0 
0 0 0 204 204 204 0 0 0 204 204 204 204 204 204 204 204 204 0 0 0 204 204 204 
204 204 204 0 0 0 204 204 204 204 204 204 0 0 0 204 204 204 204 204 204 
204 204 204 204 204 204 204 204 204 204 204 204 204 204 204 204 204 204 
204 204 204 204 204 204 204 204 204 119 119 119 0 0 0 221 221 221 0 0 0 
0 0 0 221 221 221 0 0 0 255 255 255 204 204 204 204 204 204 204 204 204 
204 204 204 204 204 204 204 204 204 204 204 204 204 204 204 204 204 204 
204 204 204 204 204 204 0 0 0 204 204 204 0 0 0 204 204 204 204 204 204 
0 0 0 204 204 204 204 204 204 204 204 204 0 0 0 204 204 204 204 204 204 
0 0 0 204 204 204 204 204 204 0 0 0 204 204 204 204 204 204 204 204 204 
204 204 204 204 204 204 204 204 204 204 204 204 204 204 204 204 204 204 
204 204 204 204 204 204 119 119 119 0 0 0 221 221 221 0 0 0 0 0 0 221 221 221 
0 0 0 255 255 255 204 204 204 204 204 204 204 204 204 204 204 204 204 204 204 
204 204 204 204 204 204 204 204 204 204 204 204 204 204 204 0 0 0 204 204 204 
204 204 204 204 204 204 0 0 0 204 204 204 0 0 0 204 204 204 204 204 204 
204 204 204 0 0 0 204 204 204 204 204 204 0 0 0 204 204 204 204 204 204 
0 0 0 204 204 204 204 204 204 204 204 204 204 204 204 204 204 204 204 204 204 
204 204 204 204 204 204 204 204 204 204 204 204 204 204 204 119 119 119 
0 0 0 221 221 221 0 0 0 0 0 0 221 221 221 0 0 0 255 255 255 204 204 204 
204 204 204 204 204 204 204 204 204 204 204 204 204 204 204 204 204 204 
204 204 204 204 204 204 204 204 204 204 204 204 0 0 0 0 0 0 0 0 0 204 204 204 
204 204 204 0 0 0 0 0 0 204 204 204 204 204 204 0 0 0 204 204 204 204 204 204 
0 0 0 204 204 204 204 204 204 0 0 0 204 204 204 204 204 204 204 204 204 
204 204 204 204 204 204 204 204 204 204 204 204 204 204 204 204 204 204 
204 204 204 204 204 204 119 119 119 0 0 0 221 221 221 0 0 0 0 0 0 221 221 221 
0 0 0 255 255 255 204 204 204 204 204 204 204 204 204 204 204 204 204 204 204 
204 204 204 204 204 204 204 204 204 204 204 204 204 204 204 204 204 204 
204 204 204 0 0 0 204 204 204 204 204 204 204 204 204 0 0 0 204 204 204 
204 204 204 204 204 204 204 204 204 0 0 0 0 0 0 204 204 204 204 204 204 
204 204 204 0 0 0 204 204 204 204 204 204 204 204 204 204 204 204 204 204 204 
204 204 204 204 204 204 204 204 204 204 204 204 204 204 204 204 204 204 
119 119 119 0 0 0 221 221 221 0 0 0 0 0 0 221 221 221 0 0 0 255 255 255 
204 204 204 204 204 204 204 204 204 204 204 204 204 204 204 204 204 204 
204 204 204 204 204 204 204 204 204 204 204 204 0 0 0 0 0 0 0 0 0 0 0 0 
0 0 0 204 204 204 0 0 0 204 204 204 204 204 204 204 204 204 204 204 204 
204 204 204 204 204 204 204 204 204 204 204 204 204 204 204 0 0 0 204 204 204 
204 204 204 204 204 204 204 204 204 204 204 204 204 204 204 204 204 204 
204 204 204 204 204 204 204 204 204 204 204 204 119 119 119 0 0 0 221 221 221 
0 0 0 0 0 0 221 221 221 0 0 0 255 255 255 204 204 204 204 204 204 204 204 204 
204 204 204 204 204 204 204 204 204 204 204 204 204 204 204 204 204 204 
204 204 204 204 204 204 204 204 204 204 204 204 204 204 204 204 204 204 
204 204 204 204 204 204 204 204 204 204 204 204 204 204 204 204 204 204 
0 0 0 204 204 204 204 204 204 204 204 204 204 204 204 204 204 204 204 204 204 
204 204 204 204 204 204 204 204 204 204 204 204 204 204 204 204 204 204 
204 204 204 204 204 204 204 204 204 204 204 204 119 119 119 0 0 0 221 221 221 
0 0 0 0 0 0 221 221 221 0 0 0 255 255 255 204 204 204 204 204 204 204 204 204 
204 204 204 204 204 204 204 204 204 204 204 204 204 204 204 204 204 204 
204 204 204 204 204 204 0 0 0 0 0 0 0 0 0 0 0 0 0 0 0 0 0 0 204 204 204 
204 204 204 204 204 204 204 204 204 0 0 0 204 204 204 204 204 204 204 204 204 
204 204 204 204 204 204 204 204 204 204 204 204 204 204 204 204 204 204 
204 204 204 204 204 204 204 204 204 204 204 204 204 204 204 204 204 204 
204 204 204 119 119 119 0 0 0 221 221 221 0 0 0 0 0 0 221 221 221 0 0 0 
255 255 255 204 204 204 204 204 204 204 204 204 204 204 204 204 204 204 
204 204 204 204 204 204 204 204 204 204 204 204 204 204 204 204 204 204 
204 204 204 204 204 204 204 204 204 204 204 204 204 204 204 0 0 0 204 204 204 
204 204 204 204 204 204 204 204 204 204 204 204 0 0 0 0 0 0 0 0 0 0 0 0 
0 0 0 204 204 204 204 204 204 204 204 204 204 204 204 204 204 204 204 204 204 
204 204 204 204 204 204 204 204 204 204 204 204 204 204 204 119 119 119 
0 0 0 221 221 221 0 0 0 0 0 0 221 221 221 0 0 0 255 255 255 204 204 204 
204 204 204 204 204 204 204 204 204 204 204 204 204 204 204 204 204 204 
204 204 204 204 204 204 204 204 204 204 204 204 204 204 204 204 204 204 
204 204 204 204 204 204 204 204 204 204 204 204 204 204 204 204 204 204 
204 204 204 204 204 204 204 204 204 204 204 204 204 204 204 204 204 204 
204 204 204 204 204 204 204 204 204 204 204 204 204 204 204 204 204 204 
204 204 204 204 204 204 204 204 204 204 204 204 204 204 204 204 204 204 
204 204 204 119 119 119 0 0 0 221 221 221 0 0 0 0 0 0 221 221 221 221 221 221 
0 0 0 119 119 119 119 119 119 119 119 119 119 119 119 119 119 119 119 119 119 
119 119 119 119 119 119 119 119 119 119 119 119 119 119 119 119 119 119 
119 119 119 119 119 119 119 119 119 119 119 119 119 119 119 119 119 119 
119 119 119 119 119 119 119 119 119 119 119 119 119 119 119 119 119 119 
119 119 119 119 119 119 119 119 119 119 119 119 119 119 119 119 119 119 
119 119 119 119 119 119 119 119 119 119 119 119 119 119 119 119 119 119 
119 119 119 119 119 119 0 0 0 221 221 221 221 221 221 0 0 0 255 255 240 
0 0 0 221 221 221 221 221 221 0 0 0 0 0 0 0 0 0 0 0 0 0 0 0 0 0 0 0 0 0 
0 0 0 0 0 0 0 0 0 0 0 0 0 0 0 0 0 0 0 0 0 0 0 0 0 0 0 0 0 0 0 0 0 0 0 0 
0 0 0 0 0 0 0 0 0 0 0 0 0 0 0 0 0 0 0 0 0 0 0 0 0 0 0 0 0 0 0 0 0 0 0 0 
0 0 0 0 0 0 0 0 0 0 0 0 0 0 0 0 0 0 0 0 0 221 221 221 221 221 221 0 0 0 
255 255 240 255 255 240 255 255 240 0 0 0 221 221 221 221 221 221 221 221 221 
221 221 221 221 221 221 221 221 221 221 221 221 221 221 221 221 221 221 
221 221 221 221 221 221 221 221 221 221 221 221 221 221 221 221 221 221 
221 221 221 221 221 221 221 221 221 221 221 221 221 221 221 221 221 221 
221 221 221 221 221 221 221 221 221 221 221 221 221 221 221 221 221 221 
221 221 221 221 221 221 221 221 221 221 221 221 221 221 221 221 221 221 
221 221 221 221 221 221 221 221 221 221 221 221 221 221 221 221 221 221 
221 221 221 0 0 0 255 255 240 255 255 240 255 255 240 255 255 240 255 255 240 
0 0 0 0 0 0 0 0 0 0 0 0 0 0 0 0 0 0 0 0 0 0 0 0 0 0 0 0 0 0 0 0 0 0 0 0 
0 0 0 0 0 0 0 0 0 0 0 0 0 0 0 0 0 0 0 0 0 0 0 0 0 0 0 0 0 0 0 0 0 0 0 0 
0 0 0 0 0 0 0 0 0 0 0 0 0 0 0 0 0 0 0 0 0 0 0 0 0 0 0 0 0 0 0 0 0 0 0 0 
0 0 0 0 0 0 0 0 0 0 0 0 255 255 240 255 255 240 255 255 240 
