P3
# Created by Paint Shop Pro 7
128 19
255
159 227 255 153 225 255 153 224 255 153 224 255 153 224 254 152 224 254 
152 224 254 151 223 254 151 223 254 151 223 254 151 222 254 151 222 254 
150 222 254 150 222 254 150 221 254 150 221 253 149 221 253 148 221 253 
148 220 253 148 220 253 148 219 253 147 219 253 147 219 253 147 218 252 
146 218 252 146 218 252 145 218 252 145 217 251 145 217 251 144 217 251 
144 216 251 144 215 251 143 215 251 142 215 251 142 214 250 142 214 250 
141 214 250 141 213 250 141 213 250 140 212 250 140 212 249 140 212 249 
139 211 249 138 211 249 138 210 248 138 210 248 137 209 248 137 209 248 
136 208 248 136 208 248 135 208 247 135 207 247 134 206 247 134 206 247 
134 206 247 133 205 247 132 205 246 132 204 246 131 204 246 131 203 246 
131 203 246 130 202 246 129 202 245 129 202 245 129 201 245 128 201 244 
128 200 244 127 200 244 127 199 244 126 199 244 126 198 243 125 198 243 
125 198 243 124 197 243 124 196 243 124 196 243 123 196 242 122 195 242 
122 195 242 121 194 241 121 194 241 121 193 241 120 193 241 119 192 241 
119 192 241 119 192 240 118 191 240 118 190 240 118 190 240 117 190 240 
116 189 240 116 189 240 116 189 239 115 188 239 115 188 239 115 187 238 
114 187 238 113 187 238 113 186 238 113 186 238 112 186 238 112 185 238 
112 185 237 111 185 237 111 184 237 111 184 237 110 183 237 110 183 237 
109 183 237 109 182 237 109 182 236 109 182 236 108 182 236 108 181 236 
108 181 235 107 180 235 107 180 235 106 180 235 106 180 235 106 179 235 
106 179 235 106 179 235 105 179 235 105 179 235 105 178 235 105 178 234 
105 178 234 17 133 222 117 214 255 83 204 255 82 203 255 82 203 255 82 203 254 
81 202 254 81 202 254 80 201 254 80 201 254 79 201 254 79 200 253 79 200 253 
78 199 253 78 199 253 77 198 253 77 198 252 76 197 252 75 197 252 75 196 252 
74 196 251 74 195 251 73 195 251 73 194 251 72 193 250 71 193 250 71 192 250 
70 192 250 69 191 249 69 190 249 68 190 249 68 189 248 67 188 248 66 188 248 
65 187 248 65 186 247 64 186 247 63 185 247 63 184 246 62 184 246 61 183 246 
60 182 245 60 182 245 59 181 245 58 180 245 57 179 244 57 179 244 56 178 244 
55 177 243 54 176 243 54 176 243 53 175 242 52 174 242 51 173 242 50 173 241 
50 172 241 49 171 241 48 170 240 47 169 240 46 169 240 46 168 239 45 167 239 
44 166 239 43 166 238 42 165 238 42 164 238 41 163 237 40 162 237 39 162 236 
38 161 236 37 160 236 37 159 235 36 159 235 35 158 235 34 157 234 33 156 234 
33 155 234 32 155 233 31 154 233 30 153 233 29 152 232 29 152 232 28 151 232 
27 150 231 26 149 231 26 149 231 25 148 230 24 147 230 23 146 230 23 146 230 
22 145 229 21 144 229 20 144 229 20 143 228 19 142 228 18 142 228 18 141 227 
17 140 227 16 140 227 15 139 227 15 138 226 14 138 226 14 137 226 13 136 225 
12 136 225 12 135 225 11 135 225 10 134 224 10 133 224 9 133 224 9 132 224 
8 132 223 8 131 223 7 131 223 6 130 223 6 130 222 5 129 222 5 129 222 4 128 222 
4 128 222 4 127 221 3 127 221 3 127 221 2 126 221 2 126 221 1 125 221 1 125 220 
1 125 220 0 101 191 117 214 255 83 204 255 82 203 255 82 203 255 82 203 254 
81 202 254 81 202 254 80 201 254 80 201 254 79 201 254 79 200 253 79 200 253 
78 199 253 78 199 253 77 198 253 77 198 252 76 197 252 75 197 252 75 196 252 
74 196 251 74 195 251 73 195 251 73 194 251 72 193 250 71 193 250 71 192 250 
70 192 250 69 191 249 69 190 249 68 190 249 68 189 248 67 188 248 66 188 248 
65 187 248 65 186 247 64 186 247 63 185 247 63 184 246 62 184 246 61 183 246 
60 182 245 60 182 245 59 181 245 58 180 245 57 179 244 57 179 244 56 178 244 
55 177 243 54 176 243 54 176 243 53 175 242 52 174 242 51 173 242 50 173 241 
50 172 241 49 171 241 48 170 240 47 169 240 46 169 240 46 168 239 45 167 239 
44 166 239 43 166 238 42 165 238 42 164 238 41 163 237 40 162 237 39 162 236 
38 161 236 37 160 236 37 159 235 36 159 235 35 158 235 34 157 234 33 156 234 
33 155 234 32 155 233 31 154 233 30 153 233 29 152 232 29 152 232 28 151 232 
27 150 231 26 149 231 26 149 231 25 148 230 24 147 230 23 146 230 23 146 230 
22 145 229 21 144 229 20 144 229 20 143 228 19 142 228 18 142 228 18 141 227 
17 140 227 16 140 227 15 139 227 15 138 226 14 138 226 14 137 226 13 136 225 
12 136 225 12 135 225 11 135 225 10 134 224 10 133 224 9 133 224 9 132 224 
8 132 223 8 131 223 7 131 223 6 130 223 6 130 222 5 129 222 5 129 222 4 128 222 
4 128 222 4 127 221 3 127 221 3 127 221 2 126 221 2 126 221 1 125 221 1 125 220 
1 125 220 0 101 191 117 214 255 83 204 255 82 203 255 82 203 255 82 203 254 
81 202 254 81 202 254 80 201 254 80 201 254 79 201 254 79 200 253 79 200 253 
78 199 253 78 199 253 77 198 253 77 198 252 76 197 252 75 197 252 75 196 252 
74 196 251 74 195 251 73 195 251 73 194 251 72 193 250 71 193 250 71 192 250 
70 192 250 69 191 249 69 190 249 68 190 249 68 189 248 67 188 248 66 188 248 
65 187 248 65 186 247 64 186 247 63 185 247 63 184 246 62 184 246 61 183 246 
60 182 245 60 182 245 59 181 245 58 180 245 57 179 244 57 179 244 56 178 244 
55 177 243 54 176 243 54 176 243 53 175 242 52 174 242 51 173 242 50 173 241 
50 172 241 49 171 241 48 170 240 47 169 240 46 169 240 46 168 239 45 167 239 
44 166 239 43 166 238 42 165 238 42 164 238 41 163 237 40 162 237 39 162 236 
38 161 236 37 160 236 37 159 235 36 159 235 35 158 235 34 157 234 33 156 234 
33 155 234 32 155 233 31 154 233 30 153 233 29 152 232 29 152 232 28 151 232 
27 150 231 26 149 231 26 149 231 25 148 230 24 147 230 23 146 230 23 146 230 
22 145 229 21 144 229 20 144 229 20 143 228 19 142 228 18 142 228 18 141 227 
17 140 227 16 140 227 15 139 227 15 138 226 14 138 226 14 137 226 13 136 225 
12 136 225 12 135 225 11 135 225 10 134 224 10 133 224 9 133 224 9 132 224 
8 132 223 8 131 223 7 131 223 6 130 223 6 130 222 5 129 222 5 129 222 4 128 222 
4 128 222 4 127 221 3 127 221 3 127 221 2 126 221 2 126 221 1 125 221 1 125 220 
1 125 220 0 101 191 117 214 255 83 204 255 82 203 255 82 203 255 82 203 254 
81 202 254 81 202 254 80 201 254 80 201 254 79 201 254 79 200 253 79 200 253 
78 199 253 78 199 253 77 198 253 77 198 252 76 197 252 75 197 252 75 196 252 
74 196 251 74 195 251 73 195 251 73 194 251 72 193 250 71 193 250 71 192 250 
70 192 250 69 191 249 69 190 249 68 190 249 68 189 248 67 188 248 66 188 248 
65 187 248 65 186 247 64 186 247 63 185 247 63 184 246 62 184 246 61 183 246 
60 182 245 60 182 245 59 181 245 58 180 245 57 179 244 57 179 244 56 178 244 
55 177 243 54 176 243 54 176 243 53 175 242 52 174 242 51 173 242 50 173 241 
50 172 241 49 171 241 48 170 240 47 169 240 46 169 240 46 168 239 45 167 239 
44 166 239 43 166 238 42 165 238 42 164 238 41 163 237 40 162 237 39 162 236 
38 161 236 37 160 236 37 159 235 36 159 235 35 158 235 34 157 234 33 156 234 
33 155 234 32 155 233 31 154 233 30 153 233 29 152 232 29 152 232 28 151 232 
27 150 231 26 149 231 26 149 231 25 148 230 24 147 230 23 146 230 23 146 230 
22 145 229 21 144 229 20 144 229 20 143 228 19 142 228 18 142 228 18 141 227 
17 140 227 16 140 227 15 139 227 15 138 226 14 138 226 14 137 226 13 136 225 
12 136 225 12 135 225 11 135 225 10 134 224 10 133 224 9 133 224 9 132 224 
8 132 223 8 131 223 7 131 223 6 130 223 6 130 222 5 129 222 5 129 222 4 128 222 
4 128 222 4 127 221 3 127 221 3 127 221 2 126 221 2 126 221 1 125 221 1 125 220 
1 125 220 0 101 191 117 214 255 83 204 255 82 203 255 82 203 255 82 203 254 
81 202 254 81 202 254 80 201 254 80 201 254 79 201 254 79 200 253 79 200 253 
78 199 253 78 199 253 77 198 253 77 198 252 76 197 252 75 197 252 75 196 252 
74 196 251 74 195 251 73 195 251 73 194 251 72 193 250 71 193 250 71 192 250 
70 192 250 69 191 249 69 190 249 68 190 249 68 189 248 67 188 248 66 188 248 
65 187 248 65 186 247 64 186 247 63 185 247 63 184 246 62 184 246 61 183 246 
60 182 245 60 182 245 59 181 245 58 180 245 57 179 244 57 179 244 56 178 244 
55 177 243 54 176 243 54 176 243 53 175 242 52 174 242 51 173 242 50 173 241 
50 172 241 49 171 241 48 170 240 47 169 240 46 169 240 46 168 239 45 167 239 
44 166 239 43 166 238 42 165 238 42 164 238 41 163 237 40 162 237 39 162 236 
38 161 236 37 160 236 37 159 235 36 159 235 35 158 235 34 157 234 33 156 234 
33 155 234 32 155 233 31 154 233 30 153 233 29 152 232 29 152 232 28 151 232 
27 150 231 26 149 231 26 149 231 25 148 230 24 147 230 23 146 230 23 146 230 
22 145 229 21 144 229 20 144 229 20 143 228 19 142 228 18 142 228 18 141 227 
17 140 227 16 140 227 15 139 227 15 138 226 14 138 226 14 137 226 13 136 225 
12 136 225 12 135 225 11 135 225 10 134 224 10 133 224 9 133 224 9 132 224 
8 132 223 8 131 223 7 131 223 6 130 223 6 130 222 5 129 222 5 129 222 4 128 222 
4 128 222 4 127 221 3 127 221 3 127 221 2 126 221 2 126 221 1 125 221 1 125 220 
1 125 220 0 101 191 117 214 255 83 204 255 82 203 255 82 203 255 82 203 254 
81 202 254 81 202 254 80 201 254 80 201 254 79 201 254 79 200 253 79 200 253 
78 199 253 78 199 253 77 198 253 77 198 252 76 197 252 75 197 252 75 196 252 
74 196 251 74 195 251 73 195 251 73 194 251 72 193 250 71 193 250 71 192 250 
70 192 250 69 191 249 69 190 249 68 190 249 68 189 248 67 188 248 66 188 248 
65 187 248 65 186 247 64 186 247 63 185 247 63 184 246 62 184 246 61 183 246 
60 182 245 60 182 245 59 181 245 58 180 245 57 179 244 57 179 244 56 178 244 
55 177 243 54 176 243 54 176 243 53 175 242 52 174 242 51 173 242 50 173 241 
50 172 241 49 171 241 48 170 240 47 169 240 46 169 240 46 168 239 45 167 239 
44 166 239 43 166 238 42 165 238 42 164 238 41 163 237 40 162 237 39 162 236 
38 161 236 37 160 236 37 159 235 36 159 235 35 158 235 34 157 234 33 156 234 
33 155 234 32 155 233 31 154 233 30 153 233 29 152 232 29 152 232 28 151 232 
27 150 231 26 149 231 26 149 231 25 148 230 24 147 230 23 146 230 23 146 230 
22 145 229 21 144 229 20 144 229 20 143 228 19 142 228 18 142 228 18 141 227 
17 140 227 16 140 227 15 139 227 15 138 226 14 138 226 14 137 226 13 136 225 
12 136 225 12 135 225 11 135 225 10 134 224 10 133 224 9 133 224 9 132 224 
8 132 223 8 131 223 7 131 223 6 130 223 6 130 222 5 129 222 5 129 222 4 128 222 
4 128 222 4 127 221 3 127 221 3 127 221 2 126 221 2 126 221 1 125 221 1 125 220 
1 125 220 0 101 191 117 214 255 83 204 255 82 203 255 82 203 255 82 203 254 
81 202 254 81 202 254 80 201 254 80 201 254 79 201 254 79 200 253 79 200 253 
78 199 253 78 199 253 77 198 253 77 198 252 76 197 252 75 197 252 75 196 252 
74 196 251 74 195 251 73 195 251 73 194 251 72 193 250 71 193 250 71 192 250 
70 192 250 69 191 249 69 190 249 68 190 249 68 189 248 67 188 248 66 188 248 
65 187 248 65 186 247 64 186 247 63 185 247 63 184 246 62 184 246 61 183 246 
60 182 245 60 182 245 59 181 245 58 180 245 57 179 244 57 179 244 56 178 244 
55 177 243 54 176 243 54 176 243 53 175 242 52 174 242 51 173 242 50 173 241 
50 172 241 49 171 241 48 170 240 47 169 240 46 169 240 46 168 239 45 167 239 
44 166 239 43 166 238 42 165 238 42 164 238 41 163 237 40 162 237 39 162 236 
38 161 236 37 160 236 37 159 235 36 159 235 35 158 235 34 157 234 33 156 234 
33 155 234 32 155 233 31 154 233 30 153 233 29 152 232 29 152 232 28 151 232 
27 150 231 26 149 231 26 149 231 25 148 230 24 147 230 23 146 230 23 146 230 
22 145 229 21 144 229 20 144 229 20 143 228 19 142 228 18 142 228 18 141 227 
17 140 227 16 140 227 15 139 227 15 138 226 14 138 226 14 137 226 13 136 225 
12 136 225 12 135 225 11 135 225 10 134 224 10 133 224 9 133 224 9 132 224 
8 132 223 8 131 223 7 131 223 6 130 223 6 130 222 5 129 222 5 129 222 4 128 222 
4 128 222 4 127 221 3 127 221 3 127 221 2 126 221 2 126 221 1 125 221 1 125 220 
1 125 220 0 101 191 117 214 255 83 204 255 82 203 255 82 203 255 82 203 254 
81 202 254 81 202 254 80 201 254 80 201 254 79 201 254 79 200 253 79 200 253 
78 199 253 78 199 253 77 198 253 77 198 252 76 197 252 75 197 252 75 196 252 
74 196 251 74 195 251 73 195 251 73 194 251 72 193 250 71 193 250 71 192 250 
70 192 250 69 191 249 69 190 249 68 190 249 68 189 248 67 188 248 66 188 248 
65 187 248 65 186 247 64 186 247 63 185 247 63 184 246 62 184 246 61 183 246 
60 182 245 60 182 245 59 181 245 58 180 245 57 179 244 57 179 244 56 178 244 
55 177 243 54 176 243 54 176 243 53 175 242 52 174 242 51 173 242 50 173 241 
50 172 241 49 171 241 48 170 240 47 169 240 46 169 240 46 168 239 45 167 239 
44 166 239 43 166 238 42 165 238 42 164 238 41 163 237 40 162 237 39 162 236 
38 161 236 37 160 236 37 159 235 36 159 235 35 158 235 34 157 234 33 156 234 
33 155 234 32 155 233 31 154 233 30 153 233 29 152 232 29 152 232 28 151 232 
27 150 231 26 149 231 26 149 231 25 148 230 24 147 230 23 146 230 23 146 230 
22 145 229 21 144 229 20 144 229 20 143 228 19 142 228 18 142 228 18 141 227 
17 140 227 16 140 227 15 139 227 15 138 226 14 138 226 14 137 226 13 136 225 
12 136 225 12 135 225 11 135 225 10 134 224 10 133 224 9 133 224 9 132 224 
8 132 223 8 131 223 7 131 223 6 130 223 6 130 222 5 129 222 5 129 222 4 128 222 
4 128 222 4 127 221 3 127 221 3 127 221 2 126 221 2 126 221 1 125 221 1 125 220 
1 125 220 0 101 191 117 214 255 83 204 255 82 203 255 82 203 255 82 203 254 
81 202 254 81 202 254 80 201 254 80 201 254 79 201 254 79 200 253 79 200 253 
78 199 253 78 199 253 77 198 253 77 198 252 76 197 252 75 197 252 75 196 252 
74 196 251 74 195 251 73 195 251 73 194 251 72 193 250 71 193 250 71 192 250 
70 192 250 69 191 249 69 190 249 68 190 249 68 189 248 67 188 248 66 188 248 
65 187 248 65 186 247 64 186 247 63 185 247 63 184 246 62 184 246 61 183 246 
60 182 245 60 182 245 59 181 245 58 180 245 57 179 244 57 179 244 56 178 244 
55 177 243 54 176 243 54 176 243 53 175 242 52 174 242 51 173 242 50 173 241 
50 172 241 49 171 241 48 170 240 47 169 240 46 169 240 46 168 239 45 167 239 
44 166 239 43 166 238 42 165 238 42 164 238 41 163 237 40 162 237 39 162 236 
38 161 236 37 160 236 37 159 235 36 159 235 35 158 235 34 157 234 33 156 234 
33 155 234 32 155 233 31 154 233 30 153 233 29 152 232 29 152 232 28 151 232 
27 150 231 26 149 231 26 149 231 25 148 230 24 147 230 23 146 230 23 146 230 
22 145 229 21 144 229 20 144 229 20 143 228 19 142 228 18 142 228 18 141 227 
17 140 227 16 140 227 15 139 227 15 138 226 14 138 226 14 137 226 13 136 225 
12 136 225 12 135 225 11 135 225 10 134 224 10 133 224 9 133 224 9 132 224 
8 132 223 8 131 223 7 131 223 6 130 223 6 130 222 5 129 222 5 129 222 4 128 222 
4 128 222 4 127 221 3 127 221 3 127 221 2 126 221 2 126 221 1 125 221 1 125 220 
1 125 220 0 101 191 117 214 255 83 204 255 82 203 255 82 203 255 82 203 254 
81 202 254 81 202 254 80 201 254 80 201 254 79 201 254 79 200 253 79 200 253 
78 199 253 78 199 253 77 198 253 77 198 252 76 197 252 75 197 252 75 196 252 
74 196 251 74 195 251 73 195 251 73 194 251 72 193 250 71 193 250 71 192 250 
70 192 250 69 191 249 69 190 249 68 190 249 68 189 248 67 188 248 66 188 248 
65 187 248 65 186 247 64 186 247 63 185 247 63 184 246 62 184 246 61 183 246 
60 182 245 60 182 245 59 181 245 58 180 245 57 179 244 57 179 244 56 178 244 
55 177 243 54 176 243 54 176 243 53 175 242 52 174 242 51 173 242 50 173 241 
50 172 241 49 171 241 48 170 240 47 169 240 46 169 240 46 168 239 45 167 239 
44 166 239 43 166 238 42 165 238 42 164 238 41 163 237 40 162 237 39 162 236 
38 161 236 37 160 236 37 159 235 36 159 235 35 158 235 34 157 234 33 156 234 
33 155 234 32 155 233 31 154 233 30 153 233 29 152 232 29 152 232 28 151 232 
27 150 231 26 149 231 26 149 231 25 148 230 24 147 230 23 146 230 23 146 230 
22 145 229 21 144 229 20 144 229 20 143 228 19 142 228 18 142 228 18 141 227 
17 140 227 16 140 227 15 139 227 15 138 226 14 138 226 14 137 226 13 136 225 
12 136 225 12 135 225 11 135 225 10 134 224 10 133 224 9 133 224 9 132 224 
8 132 223 8 131 223 7 131 223 6 130 223 6 130 222 5 129 222 5 129 222 4 128 222 
4 128 222 4 127 221 3 127 221 3 127 221 2 126 221 2 126 221 1 125 221 1 125 220 
1 125 220 0 101 191 117 214 255 83 204 255 82 203 255 82 203 255 82 203 254 
81 202 254 81 202 254 80 201 254 80 201 254 79 201 254 79 200 253 79 200 253 
78 199 253 78 199 253 77 198 253 77 198 252 76 197 252 75 197 252 75 196 252 
74 196 251 74 195 251 73 195 251 73 194 251 72 193 250 71 193 250 71 192 250 
70 192 250 69 191 249 69 190 249 68 190 249 68 189 248 67 188 248 66 188 248 
65 187 248 65 186 247 64 186 247 63 185 247 63 184 246 62 184 246 61 183 246 
60 182 245 60 182 245 59 181 245 58 180 245 57 179 244 57 179 244 56 178 244 
55 177 243 54 176 243 54 176 243 53 175 242 52 174 242 51 173 242 50 173 241 
50 172 241 49 171 241 48 170 240 47 169 240 46 169 240 46 168 239 45 167 239 
44 166 239 43 166 238 42 165 238 42 164 238 41 163 237 40 162 237 39 162 236 
38 161 236 37 160 236 37 159 235 36 159 235 35 158 235 34 157 234 33 156 234 
33 155 234 32 155 233 31 154 233 30 153 233 29 152 232 29 152 232 28 151 232 
27 150 231 26 149 231 26 149 231 25 148 230 24 147 230 23 146 230 23 146 230 
22 145 229 21 144 229 20 144 229 20 143 228 19 142 228 18 142 228 18 141 227 
17 140 227 16 140 227 15 139 227 15 138 226 14 138 226 14 137 226 13 136 225 
12 136 225 12 135 225 11 135 225 10 134 224 10 133 224 9 133 224 9 132 224 
8 132 223 8 131 223 7 131 223 6 130 223 6 130 222 5 129 222 5 129 222 4 128 222 
4 128 222 4 127 221 3 127 221 3 127 221 2 126 221 2 126 221 1 125 221 1 125 220 
1 125 220 0 101 191 117 214 255 83 204 255 82 203 255 82 203 255 82 203 254 
81 202 254 81 202 254 80 201 254 80 201 254 79 201 254 79 200 253 79 200 253 
78 199 253 78 199 253 77 198 253 77 198 252 76 197 252 75 197 252 75 196 252 
74 196 251 74 195 251 73 195 251 73 194 251 72 193 250 71 193 250 71 192 250 
70 192 250 69 191 249 69 190 249 68 190 249 68 189 248 67 188 248 66 188 248 
65 187 248 65 186 247 64 186 247 63 185 247 63 184 246 62 184 246 61 183 246 
60 182 245 60 182 245 59 181 245 58 180 245 57 179 244 57 179 244 56 178 244 
55 177 243 54 176 243 54 176 243 53 175 242 52 174 242 51 173 242 50 173 241 
50 172 241 49 171 241 48 170 240 47 169 240 46 169 240 46 168 239 45 167 239 
44 166 239 43 166 238 42 165 238 42 164 238 41 163 237 40 162 237 39 162 236 
38 161 236 37 160 236 37 159 235 36 159 235 35 158 235 34 157 234 33 156 234 
33 155 234 32 155 233 31 154 233 30 153 233 29 152 232 29 152 232 28 151 232 
27 150 231 26 149 231 26 149 231 25 148 230 24 147 230 23 146 230 23 146 230 
22 145 229 21 144 229 20 144 229 20 143 228 19 142 228 18 142 228 18 141 227 
17 140 227 16 140 227 15 139 227 15 138 226 14 138 226 14 137 226 13 136 225 
12 136 225 12 135 225 11 135 225 10 134 224 10 133 224 9 133 224 9 132 224 
8 132 223 8 131 223 7 131 223 6 130 223 6 130 222 5 129 222 5 129 222 4 128 222 
4 128 222 4 127 221 3 127 221 3 127 221 2 126 221 2 126 221 1 125 221 1 125 220 
1 125 220 0 101 191 117 214 255 83 204 255 82 203 255 82 203 255 82 203 254 
81 202 254 81 202 254 80 201 254 80 201 254 79 201 254 79 200 253 79 200 253 
78 199 253 78 199 253 77 198 253 77 198 252 76 197 252 75 197 252 75 196 252 
74 196 251 74 195 251 73 195 251 73 194 251 72 193 250 71 193 250 71 192 250 
70 192 250 69 191 249 69 190 249 68 190 249 68 189 248 67 188 248 66 188 248 
65 187 248 65 186 247 64 186 247 63 185 247 63 184 246 62 184 246 61 183 246 
60 182 245 60 182 245 59 181 245 58 180 245 57 179 244 57 179 244 56 178 244 
55 177 243 54 176 243 54 176 243 53 175 242 52 174 242 51 173 242 50 173 241 
50 172 241 49 171 241 48 170 240 47 169 240 46 169 240 46 168 239 45 167 239 
44 166 239 43 166 238 42 165 238 42 164 238 41 163 237 40 162 237 39 162 236 
38 161 236 37 160 236 37 159 235 36 159 235 35 158 235 34 157 234 33 156 234 
33 155 234 32 155 233 31 154 233 30 153 233 29 152 232 29 152 232 28 151 232 
27 150 231 26 149 231 26 149 231 25 148 230 24 147 230 23 146 230 23 146 230 
22 145 229 21 144 229 20 144 229 20 143 228 19 142 228 18 142 228 18 141 227 
17 140 227 16 140 227 15 139 227 15 138 226 14 138 226 14 137 226 13 136 225 
12 136 225 12 135 225 11 135 225 10 134 224 10 133 224 9 133 224 9 132 224 
8 132 223 8 131 223 7 131 223 6 130 223 6 130 222 5 129 222 5 129 222 4 128 222 
4 128 222 4 127 221 3 127 221 3 127 221 2 126 221 2 126 221 1 125 221 1 125 220 
1 125 220 0 101 191 117 214 255 83 204 255 82 203 255 82 203 255 82 203 254 
81 202 254 81 202 254 80 201 254 80 201 254 79 201 254 79 200 253 79 200 253 
78 199 253 78 199 253 77 198 253 77 198 252 76 197 252 75 197 252 75 196 252 
74 196 251 74 195 251 73 195 251 73 194 251 72 193 250 71 193 250 71 192 250 
70 192 250 69 191 249 69 190 249 68 190 249 68 189 248 67 188 248 66 188 248 
65 187 248 65 186 247 64 186 247 63 185 247 63 184 246 62 184 246 61 183 246 
60 182 245 60 182 245 59 181 245 58 180 245 57 179 244 57 179 244 56 178 244 
55 177 243 54 176 243 54 176 243 53 175 242 52 174 242 51 173 242 50 173 241 
50 172 241 49 171 241 48 170 240 47 169 240 46 169 240 46 168 239 45 167 239 
44 166 239 43 166 238 42 165 238 42 164 238 41 163 237 40 162 237 39 162 236 
38 161 236 37 160 236 37 159 235 36 159 235 35 158 235 34 157 234 33 156 234 
33 155 234 32 155 233 31 154 233 30 153 233 29 152 232 29 152 232 28 151 232 
27 150 231 26 149 231 26 149 231 25 148 230 24 147 230 23 146 230 23 146 230 
22 145 229 21 144 229 20 144 229 20 143 228 19 142 228 18 142 228 18 141 227 
17 140 227 16 140 227 15 139 227 15 138 226 14 138 226 14 137 226 13 136 225 
12 136 225 12 135 225 11 135 225 10 134 224 10 133 224 9 133 224 9 132 224 
8 132 223 8 131 223 7 131 223 6 130 223 6 130 222 5 129 222 5 129 222 4 128 222 
4 128 222 4 127 221 3 127 221 3 127 221 2 126 221 2 126 221 1 125 221 1 125 220 
1 125 220 0 101 191 117 214 255 83 204 255 82 203 255 82 203 255 82 203 254 
81 202 254 81 202 254 80 201 254 80 201 254 79 201 254 79 200 253 79 200 253 
78 199 253 78 199 253 77 198 253 77 198 252 76 197 252 75 197 252 75 196 252 
74 196 251 74 195 251 73 195 251 73 194 251 72 193 250 71 193 250 71 192 250 
70 192 250 69 191 249 69 190 249 68 190 249 68 189 248 67 188 248 66 188 248 
65 187 248 65 186 247 64 186 247 63 185 247 63 184 246 62 184 246 61 183 246 
60 182 245 60 182 245 59 181 245 58 180 245 57 179 244 57 179 244 56 178 244 
55 177 243 54 176 243 54 176 243 53 175 242 52 174 242 51 173 242 50 173 241 
50 172 241 49 171 241 48 170 240 47 169 240 46 169 240 46 168 239 45 167 239 
44 166 239 43 166 238 42 165 238 42 164 238 41 163 237 40 162 237 39 162 236 
38 161 236 37 160 236 37 159 235 36 159 235 35 158 235 34 157 234 33 156 234 
33 155 234 32 155 233 31 154 233 30 153 233 29 152 232 29 152 232 28 151 232 
27 150 231 26 149 231 26 149 231 25 148 230 24 147 230 23 146 230 23 146 230 
22 145 229 21 144 229 20 144 229 20 143 228 19 142 228 18 142 228 18 141 227 
17 140 227 16 140 227 15 139 227 15 138 226 14 138 226 14 137 226 13 136 225 
12 136 225 12 135 225 11 135 225 10 134 224 10 133 224 9 133 224 9 132 224 
8 132 223 8 131 223 7 131 223 6 130 223 6 130 222 5 129 222 5 129 222 4 128 222 
4 128 222 4 127 221 3 127 221 3 127 221 2 126 221 2 126 221 1 125 221 1 125 220 
1 125 220 0 101 191 117 214 255 83 204 255 82 203 255 82 203 255 82 203 254 
81 202 254 81 202 254 80 201 254 80 201 254 79 201 254 79 200 253 79 200 253 
78 199 253 78 199 253 77 198 253 77 198 252 76 197 252 75 197 252 75 196 252 
74 196 251 74 195 251 73 195 251 73 194 251 72 193 250 71 193 250 71 192 250 
70 192 250 69 191 249 69 190 249 68 190 249 68 189 248 67 188 248 66 188 248 
65 187 248 65 186 247 64 186 247 63 185 247 63 184 246 62 184 246 61 183 246 
60 182 245 60 182 245 59 181 245 58 180 245 57 179 244 57 179 244 56 178 244 
55 177 243 54 176 243 54 176 243 53 175 242 52 174 242 51 173 242 50 173 241 
50 172 241 49 171 241 48 170 240 47 169 240 46 169 240 46 168 239 45 167 239 
44 166 239 43 166 238 42 165 238 42 164 238 41 163 237 40 162 237 39 162 236 
38 161 236 37 160 236 37 159 235 36 159 235 35 158 235 34 157 234 33 156 234 
33 155 234 32 155 233 31 154 233 30 153 233 29 152 232 29 152 232 28 151 232 
27 150 231 26 149 231 26 149 231 25 148 230 24 147 230 23 146 230 23 146 230 
22 145 229 21 144 229 20 144 229 20 143 228 19 142 228 18 142 228 18 141 227 
17 140 227 16 140 227 15 139 227 15 138 226 14 138 226 14 137 226 13 136 225 
12 136 225 12 135 225 11 135 225 10 134 224 10 133 224 9 133 224 9 132 224 
8 132 223 8 131 223 7 131 223 6 130 223 6 130 222 5 129 222 5 129 222 4 128 222 
4 128 222 4 127 221 3 127 221 3 127 221 2 126 221 2 126 221 1 125 221 1 125 220 
1 125 220 0 101 191 117 214 255 83 204 255 82 203 255 82 203 255 82 203 254 
81 202 254 81 202 254 80 201 254 80 201 254 79 201 254 79 200 253 79 200 253 
78 199 253 78 199 253 77 198 253 77 198 252 76 197 252 75 197 252 75 196 252 
74 196 251 74 195 251 73 195 251 73 194 251 72 193 250 71 193 250 71 192 250 
70 192 250 69 191 249 69 190 249 68 190 249 68 189 248 67 188 248 66 188 248 
65 187 248 65 186 247 64 186 247 63 185 247 63 184 246 62 184 246 61 183 246 
60 182 245 60 182 245 59 181 245 58 180 245 57 179 244 57 179 244 56 178 244 
55 177 243 54 176 243 54 176 243 53 175 242 52 174 242 51 173 242 50 173 241 
50 172 241 49 171 241 48 170 240 47 169 240 46 169 240 46 168 239 45 167 239 
44 166 239 43 166 238 42 165 238 42 164 238 41 163 237 40 162 237 39 162 236 
38 161 236 37 160 236 37 159 235 36 159 235 35 158 235 34 157 234 33 156 234 
33 155 234 32 155 233 31 154 233 30 153 233 29 152 232 29 152 232 28 151 232 
27 150 231 26 149 231 26 149 231 25 148 230 24 147 230 23 146 230 23 146 230 
22 145 229 21 144 229 20 144 229 20 143 228 19 142 228 18 142 228 18 141 227 
17 140 227 16 140 227 15 139 227 15 138 226 14 138 226 14 137 226 13 136 225 
12 136 225 12 135 225 11 135 225 10 134 224 10 133 224 9 133 224 9 132 224 
8 132 223 8 131 223 7 131 223 6 130 223 6 130 222 5 129 222 5 129 222 4 128 222 
4 128 222 4 127 221 3 127 221 3 127 221 2 126 221 2 126 221 1 125 221 1 125 220 
1 125 220 0 101 191 70 182 235 49 144 202 49 144 202 49 144 202 49 144 201 
48 143 201 48 143 201 47 143 201 47 143 201 47 143 201 47 142 200 47 142 200 
46 141 200 46 141 200 46 140 200 46 140 199 45 139 199 44 139 199 44 139 199 
44 139 198 44 138 198 43 138 198 43 138 198 43 137 198 42 137 198 42 136 198 
41 136 198 41 136 197 41 135 197 40 135 197 40 134 196 40 133 196 39 133 196 
38 133 196 38 132 195 38 132 195 37 131 195 37 131 195 37 131 195 36 130 195 
36 129 194 36 129 194 35 128 194 34 128 194 34 127 193 34 127 193 33 126 193 
33 126 192 32 125 192 32 125 192 31 124 191 31 123 191 30 123 191 30 123 190 
30 122 190 29 121 190 28 121 190 28 120 190 27 120 190 27 119 189 27 118 189 
26 118 189 25 118 188 25 117 188 25 116 188 24 116 187 24 115 187 23 115 187 
23 114 187 22 114 187 22 113 186 21 113 186 21 112 186 20 111 185 20 111 185 
20 110 185 19 110 184 18 109 184 18 109 184 17 108 183 17 108 183 17 107 183 
16 106 182 15 106 182 15 106 182 15 105 182 14 104 182 14 104 182 14 104 182 
13 103 181 12 102 181 12 102 181 12 101 180 11 101 180 11 101 180 11 100 179 
10 99 179 9 99 179 9 99 179 9 98 179 8 98 179 8 97 179 8 96 178 7 96 178 
7 96 178 7 96 178 6 95 177 6 94 177 5 94 177 5 94 177 5 94 176 5 93 176 
4 93 176 4 92 176 4 92 176 3 91 176 3 91 176 2 91 176 2 91 176 2 90 175 
2 90 175 2 90 175 1 89 175 1 89 175 1 89 175 1 89 174 1 89 174 0 86 172 

