P3
# Created by Paint Shop Pro 5
96 48
255
240 240 224 240 240 224 240 240 224 240 240 224 240 240 224 240 240 224 
240 240 224 240 240 224 240 240 224 240 240 224 240 240 224 240 240 224 
240 240 224 240 240 224 240 240 224 240 240 224 240 240 224 240 240 224 
240 240 224 240 240 224 240 240 224 240 240 224 240 240 224 240 240 224 
240 240 224 240 240 224 240 240 224 240 240 224 240 240 224 240 240 224 
240 240 224 240 240 224 240 240 224 240 240 224 240 240 224 240 240 224 
240 240 224 240 240 224 240 240 224 240 240 224 240 240 224 240 240 224 
240 240 224 240 240 224 240 240 224 240 240 224 240 240 224 240 240 224 
240 240 224 240 240 224 240 240 224 240 240 224 240 240 224 240 240 224 
240 240 224 240 240 224 240 240 224 240 240 224 240 240 224 240 240 224 
240 240 224 240 240 224 240 240 224 240 240 224 240 240 224 240 240 224 
240 240 224 240 240 224 240 240 224 240 240 224 240 240 224 240 240 224 
240 240 224 240 240 224 240 240 224 240 240 224 240 240 224 240 240 224 
240 240 224 240 240 224 240 240 224 240 240 224 240 240 224 240 240 224 
240 240 224 240 240 224 240 240 224 240 240 224 240 240 224 240 240 224 
240 240 224 240 240 224 240 240 224 240 240 224 240 240 224 240 240 224 
240 240 224 240 240 224 240 240 224 240 240 224 0 0 128 0 0 128 0 0 128 
0 0 128 0 0 128 0 0 128 0 0 128 0 0 128 240 240 224 240 240 224 240 240 224 
240 240 224 240 240 224 240 240 224 240 240 224 240 240 224 240 240 224 
240 240 224 0 0 128 240 240 224 240 240 224 240 240 224 240 240 224 240 240 224 
240 240 224 240 240 224 240 240 224 240 240 224 240 240 224 240 240 224 
0 0 128 0 0 128 0 0 128 0 0 128 0 0 128 0 0 128 0 0 128 0 0 128 240 240 224 
240 240 224 240 240 224 240 240 224 240 240 224 240 240 224 240 240 224 
240 240 224 240 240 224 0 0 128 0 0 128 0 0 128 0 0 128 240 240 224 240 240 224 
240 240 224 240 240 224 240 240 224 240 240 224 240 240 224 240 240 224 
240 240 224 0 0 128 0 0 128 0 0 128 0 0 128 0 0 128 0 0 128 0 0 128 0 0 128 
240 240 224 240 240 224 240 240 224 240 240 224 240 240 224 240 240 224 
240 240 224 240 240 224 0 0 128 0 0 128 0 0 128 0 0 128 0 0 128 240 240 224 
240 240 224 240 240 224 240 240 224 240 240 224 240 240 224 240 240 224 
240 240 224 240 240 224 240 240 224 240 240 224 240 240 224 240 240 224 
240 240 224 0 0 128 0 0 128 0 0 128 0 0 128 0 0 128 240 240 224 0 0 128 
0 0 128 0 0 128 0 0 128 240 240 224 240 240 224 240 240 224 240 240 224 
240 240 224 240 240 224 240 240 224 240 240 224 240 240 224 0 0 128 240 240 224 
240 240 224 240 240 224 240 240 224 240 240 224 240 240 224 240 240 224 
240 240 224 240 240 224 240 240 224 0 0 128 0 0 128 0 0 128 240 240 224 
240 240 224 240 240 224 240 240 224 0 0 128 0 0 128 0 0 128 240 240 224 
240 240 224 240 240 224 240 240 224 240 240 224 240 240 224 0 0 128 0 0 128 
0 0 128 0 0 128 0 0 128 0 0 128 0 0 128 0 0 128 240 240 224 240 240 224 
240 240 224 240 240 224 240 240 224 240 240 224 0 0 128 0 0 128 0 0 128 
240 240 224 240 240 224 240 240 224 240 240 224 0 0 128 0 0 128 0 0 128 
240 240 224 240 240 224 240 240 224 240 240 224 240 240 224 0 0 128 0 0 128 
240 240 224 240 240 224 240 240 224 240 240 224 240 240 224 0 0 128 0 0 128 
240 240 224 240 240 224 240 240 224 240 240 224 240 240 224 240 240 224 
240 240 224 240 240 224 240 240 224 240 240 224 240 240 224 240 240 224 
0 0 128 0 0 128 0 0 128 0 0 128 240 240 224 240 240 224 0 0 128 0 0 128 
0 0 128 0 0 128 240 240 224 240 240 224 240 240 224 240 240 224 240 240 224 
240 240 224 240 240 224 240 240 224 0 0 128 0 0 128 0 0 128 240 240 224 
240 240 224 240 240 224 240 240 224 240 240 224 240 240 224 240 240 224 
240 240 224 240 240 224 0 0 128 0 0 128 240 240 224 0 0 128 0 0 128 0 0 128 
0 0 128 240 240 224 0 0 128 0 0 128 240 240 224 240 240 224 240 240 224 
240 240 224 240 240 224 240 240 224 0 0 128 0 0 128 0 0 128 0 0 128 0 0 128 
0 0 128 0 0 128 0 0 128 240 240 224 240 240 224 240 240 224 240 240 224 
240 240 224 240 240 224 0 0 128 0 0 128 240 240 224 0 0 128 0 0 128 0 0 128 
0 0 128 240 240 224 0 0 128 0 0 128 240 240 224 240 240 224 240 240 224 
240 240 224 240 240 224 0 0 128 240 240 224 240 240 224 240 240 224 240 240 224 
240 240 224 240 240 224 240 240 224 0 0 128 240 240 224 240 240 224 240 240 224 
240 240 224 240 240 224 240 240 224 240 240 224 240 240 224 240 240 224 
240 240 224 240 240 224 240 240 224 0 0 128 0 0 128 0 0 128 0 0 128 0 0 128 
240 240 224 0 0 128 0 0 128 0 0 128 0 0 128 240 240 224 240 240 224 240 240 224 
240 240 224 240 240 224 240 240 224 240 240 224 240 240 224 0 0 128 0 0 128 
0 0 128 240 240 224 240 240 224 240 240 224 240 240 224 240 240 224 240 240 224 
240 240 224 240 240 224 240 240 224 0 0 128 0 0 128 0 0 128 0 0 128 0 0 128 
0 0 128 0 0 128 240 240 224 0 0 128 0 0 128 240 240 224 240 240 224 240 240 224 
240 240 224 240 240 224 0 0 128 0 0 128 0 0 128 0 0 128 0 0 128 0 0 128 
0 0 128 0 0 128 0 0 128 0 0 128 240 240 224 240 240 224 240 240 224 240 240 224 
240 240 224 0 0 128 0 0 128 240 240 224 0 0 128 0 0 128 0 0 128 0 0 128 
240 240 224 0 0 128 0 0 128 240 240 224 240 240 224 240 240 224 240 240 224 
0 0 128 240 240 224 240 240 224 240 240 224 0 0 128 0 0 128 0 0 128 240 240 224 
240 240 224 240 240 224 0 0 128 240 240 224 240 240 224 240 240 224 240 240 224 
240 240 224 240 240 224 240 240 224 240 240 224 240 240 224 240 240 224 
240 240 224 0 0 128 0 0 128 0 0 128 0 0 128 0 0 128 240 240 224 0 0 128 
0 0 128 0 0 128 0 0 128 240 240 224 240 240 224 240 240 224 240 240 224 
0 0 128 0 0 128 0 0 128 0 0 128 0 0 128 0 0 128 0 0 128 0 0 128 0 0 128 
0 0 128 0 0 128 240 240 224 240 240 224 240 240 224 240 240 224 240 240 224 
0 0 128 0 0 128 0 0 128 0 0 128 0 0 128 0 0 128 0 0 128 240 240 224 0 0 128 
0 0 128 240 240 224 240 240 224 240 240 224 240 240 224 240 240 224 0 0 128 
0 0 128 0 0 128 0 0 128 0 0 128 0 0 128 0 0 128 0 0 128 0 0 128 0 0 128 
240 240 224 240 240 224 240 240 224 240 240 224 240 240 224 0 0 128 0 0 128 
0 0 128 0 0 128 0 0 128 240 240 224 240 240 224 0 0 128 0 0 128 0 0 128 
240 240 224 240 240 224 240 240 224 240 240 224 0 0 128 240 240 224 240 240 224 
0 0 128 0 0 128 0 0 128 0 0 128 0 0 128 240 240 224 240 240 224 0 0 128 
240 240 224 240 240 224 240 240 224 240 240 224 240 240 224 240 240 224 
240 240 224 240 240 224 240 240 224 240 240 224 240 240 224 0 0 128 0 0 128 
0 0 128 0 0 128 0 0 128 240 240 224 0 0 128 0 0 128 0 0 128 0 0 128 240 240 224 
240 240 224 240 240 224 240 240 224 240 240 224 0 0 128 0 0 128 0 0 128 
0 0 128 0 0 128 0 0 128 0 0 128 0 0 128 0 0 128 240 240 224 240 240 224 
240 240 224 240 240 224 240 240 224 240 240 224 0 0 128 0 0 128 0 0 128 
240 240 224 240 240 224 240 240 224 240 240 224 0 0 128 0 0 128 0 0 128 
240 240 224 240 240 224 240 240 224 240 240 224 240 240 224 0 0 128 0 0 128 
0 0 128 0 0 128 0 0 128 0 0 128 0 0 128 0 0 128 0 0 128 0 0 128 240 240 224 
240 240 224 240 240 224 240 240 224 240 240 224 0 0 128 0 0 128 0 0 128 
0 0 128 0 0 128 0 0 128 0 0 128 240 240 224 0 0 128 0 0 128 240 240 224 
240 240 224 240 240 224 240 240 224 0 0 128 240 240 224 240 240 224 0 0 128 
0 0 128 0 0 128 0 0 128 0 0 128 240 240 224 240 240 224 0 0 128 240 240 224 
240 240 224 240 240 224 240 240 224 240 240 224 240 240 224 240 240 224 
240 240 224 240 240 224 240 240 224 240 240 224 0 0 128 0 0 128 0 0 128 
0 0 128 0 0 128 240 240 224 0 0 128 0 0 128 0 0 128 0 0 128 240 240 224 
240 240 224 240 240 224 240 240 224 240 240 224 240 240 224 0 0 128 0 0 128 
0 0 128 0 0 128 0 0 128 0 0 128 0 0 128 240 240 224 240 240 224 240 240 224 
240 240 224 240 240 224 240 240 224 240 240 224 0 0 128 0 0 128 240 240 224 
0 0 128 0 0 128 0 0 128 0 0 128 0 0 128 0 0 128 0 0 128 240 240 224 240 240 224 
240 240 224 240 240 224 240 240 224 0 0 128 0 0 128 0 0 128 0 0 128 0 0 128 
0 0 128 0 0 128 0 0 128 0 0 128 0 0 128 240 240 224 240 240 224 240 240 224 
240 240 224 240 240 224 0 0 128 0 0 128 0 0 128 0 0 128 0 0 128 0 0 128 
0 0 128 240 240 224 0 0 128 0 0 128 240 240 224 240 240 224 240 240 224 
240 240 224 0 0 128 240 240 224 240 240 224 0 0 128 0 0 128 0 0 128 0 0 128 
0 0 128 240 240 224 240 240 224 0 0 128 240 240 224 240 240 224 240 240 224 
240 240 224 240 240 224 240 240 224 240 240 224 240 240 224 240 240 224 
240 240 224 240 240 224 0 0 128 0 0 128 0 0 128 0 0 128 0 0 128 240 240 224 
0 0 128 0 0 128 0 0 128 0 0 128 240 240 224 240 240 224 240 240 224 240 240 224 
240 240 224 240 240 224 0 0 128 0 0 128 0 0 128 240 240 224 0 0 128 0 0 128 
0 0 128 240 240 224 240 240 224 240 240 224 240 240 224 240 240 224 240 240 224 
240 240 224 0 0 128 0 0 128 240 240 224 0 0 128 0 0 128 0 0 128 0 0 128 
0 0 128 0 0 128 0 0 128 240 240 224 240 240 224 240 240 224 240 240 224 
240 240 224 240 240 224 0 0 128 0 0 128 0 0 128 0 0 128 0 0 128 0 0 128 
0 0 128 0 0 128 240 240 224 240 240 224 240 240 224 240 240 224 240 240 224 
240 240 224 0 0 128 0 0 128 240 240 224 0 0 128 0 0 128 0 0 128 0 0 128 
240 240 224 0 0 128 0 0 128 240 240 224 240 240 224 240 240 224 240 240 224 
0 0 128 240 240 224 240 240 224 240 240 224 0 0 128 0 0 128 0 0 128 240 240 224 
240 240 224 240 240 224 0 0 128 240 240 224 240 240 224 240 240 224 240 240 224 
240 240 224 240 240 224 240 240 224 240 240 224 240 240 224 240 240 224 
240 240 224 0 0 128 0 0 128 0 0 128 0 0 128 0 0 128 240 240 224 0 0 128 
0 0 128 0 0 128 0 0 128 240 240 224 240 240 224 240 240 224 240 240 224 
240 240 224 0 0 128 0 0 128 0 0 128 240 240 224 240 240 224 240 240 224 
0 0 128 0 0 128 0 0 128 240 240 224 240 240 224 240 240 224 240 240 224 
240 240 224 240 240 224 0 0 128 0 0 128 240 240 224 240 240 224 240 240 224 
240 240 224 240 240 224 240 240 224 0 0 128 0 0 128 240 240 224 240 240 224 
240 240 224 240 240 224 240 240 224 240 240 224 0 0 128 0 0 128 0 0 128 
0 0 128 0 0 128 0 0 128 0 0 128 0 0 128 240 240 224 240 240 224 240 240 224 
240 240 224 240 240 224 240 240 224 0 0 128 0 0 128 0 0 128 240 240 224 
240 240 224 240 240 224 240 240 224 0 0 128 0 0 128 0 0 128 240 240 224 
240 240 224 240 240 224 240 240 224 240 240 224 0 0 128 240 240 224 240 240 224 
240 240 224 240 240 224 240 240 224 240 240 224 240 240 224 0 0 128 240 240 224 
240 240 224 240 240 224 240 240 224 240 240 224 240 240 224 240 240 224 
240 240 224 240 240 224 240 240 224 240 240 224 240 240 224 240 240 224 
0 0 128 0 0 128 0 0 128 0 0 128 0 0 128 0 0 128 0 0 128 0 0 128 240 240 224 
240 240 224 240 240 224 240 240 224 240 240 224 240 240 224 0 0 128 0 0 128 
240 240 224 240 240 224 240 240 224 240 240 224 240 240 224 0 0 128 0 0 128 
240 240 224 240 240 224 240 240 224 240 240 224 240 240 224 240 240 224 
240 240 224 0 0 128 0 0 128 0 0 128 0 0 128 0 0 128 0 0 128 0 0 128 0 0 128 
240 240 224 240 240 224 240 240 224 240 240 224 240 240 224 240 240 224 
240 240 224 240 240 224 240 240 224 0 0 128 0 0 128 0 0 128 0 0 128 240 240 224 
240 240 224 240 240 224 240 240 224 240 240 224 240 240 224 240 240 224 
240 240 224 240 240 224 0 0 128 0 0 128 0 0 128 0 0 128 0 0 128 0 0 128 
0 0 128 0 0 128 240 240 224 240 240 224 240 240 224 240 240 224 240 240 224 
240 240 224 0 0 128 0 0 128 240 240 224 240 240 224 240 240 224 240 240 224 
240 240 224 0 0 128 0 0 128 240 240 224 240 240 224 240 240 224 240 240 224 
240 240 224 240 240 224 240 240 224 240 240 224 240 240 224 240 240 224 
240 240 224 240 240 224 240 240 224 240 240 224 240 240 224 240 240 224 
240 240 224 240 240 224 240 240 224 240 240 224 240 240 224 240 240 224 
240 240 224 240 240 224 240 240 224 240 240 224 240 240 224 0 0 128 240 240 224 
240 240 224 240 240 224 240 240 224 240 240 224 240 240 224 240 240 224 
0 0 128 240 240 224 240 240 224 240 240 224 240 240 224 240 240 224 240 240 224 
240 240 224 240 240 224 240 240 224 240 240 224 240 240 224 240 240 224 
240 240 224 240 240 224 240 240 224 240 240 224 240 240 224 240 240 224 
240 240 224 240 240 224 240 240 224 240 240 224 240 240 224 240 240 224 
240 240 224 240 240 224 240 240 224 240 240 224 240 240 224 240 240 224 
240 240 224 240 240 224 240 240 224 240 240 224 240 240 224 240 240 224 
240 240 224 240 240 224 240 240 224 240 240 224 240 240 224 240 240 224 
240 240 224 240 240 224 240 240 224 240 240 224 240 240 224 240 240 224 
240 240 224 240 240 224 240 240 224 240 240 224 240 240 224 0 0 128 0 0 128 
0 0 128 0 0 128 0 0 128 240 240 224 240 240 224 240 240 224 240 240 224 
240 240 224 240 240 224 240 240 224 240 240 224 240 240 224 240 240 224 
240 240 224 240 240 224 240 240 224 240 240 224 240 240 224 240 240 224 
240 240 224 240 240 224 240 240 224 240 240 224 240 240 224 240 240 224 
240 240 224 240 240 224 240 240 224 240 240 224 240 240 224 240 240 224 
240 240 224 240 240 224 240 240 224 240 240 224 240 240 224 240 240 224 
240 240 224 240 240 224 240 240 224 240 240 224 240 240 224 240 240 224 
240 240 224 240 240 224 240 240 224 240 240 224 240 240 224 240 240 224 
240 240 224 240 240 224 240 240 224 240 240 224 240 240 224 240 240 224 
240 240 224 240 240 224 240 240 224 240 240 224 240 240 224 240 240 224 
240 240 224 240 240 224 240 240 224 240 240 224 240 240 224 240 240 224 
240 240 224 240 240 224 240 240 224 240 240 224 240 240 224 240 240 224 
240 240 224 240 240 224 240 240 224 240 240 224 240 240 224 240 240 224 
240 240 224 240 240 224 240 240 224 240 240 224 240 240 224 240 240 224 
240 240 224 240 240 224 240 240 224 240 240 224 240 240 224 240 240 224 
240 240 224 240 240 224 240 240 224 240 240 224 240 240 224 240 240 224 
240 240 224 240 240 224 240 240 224 240 240 224 240 240 224 240 240 224 
240 240 224 240 240 224 240 240 224 240 240 224 240 240 224 240 240 224 
240 240 224 240 240 224 240 240 224 240 240 224 240 240 224 0 0 128 0 0 128 
0 0 128 0 0 128 0 0 128 0 0 128 0 0 128 0 0 128 240 240 224 240 240 224 
240 240 224 240 240 224 240 240 224 240 240 224 240 240 224 240 240 224 
240 240 224 240 240 224 0 0 128 240 240 224 240 240 224 240 240 224 240 240 224 
240 240 224 240 240 224 240 240 224 240 240 224 240 240 224 240 240 224 
240 240 224 0 0 128 0 0 128 0 0 128 0 0 128 0 0 128 0 0 128 0 0 128 0 0 128 
240 240 224 240 240 224 240 240 224 240 240 224 240 240 224 240 240 224 
240 240 224 240 240 224 240 240 224 240 240 224 240 240 224 240 240 224 
240 240 224 240 240 224 240 240 224 240 240 224 240 240 224 240 240 224 
240 240 224 240 240 224 240 240 224 240 240 224 0 0 128 0 0 128 0 0 128 
0 0 128 0 0 128 0 0 128 0 0 128 0 0 128 240 240 224 240 240 224 240 240 224 
240 240 224 240 240 224 240 240 224 240 240 224 240 240 224 240 240 224 
240 240 224 0 0 128 240 240 224 240 240 224 240 240 224 240 240 224 240 240 224 
240 240 224 240 240 224 240 240 224 240 240 224 240 240 224 240 240 224 
240 240 224 240 240 224 240 240 224 240 240 224 240 240 224 0 0 128 0 0 128 
0 0 128 0 0 128 0 0 128 0 0 128 240 240 224 0 0 128 0 0 128 0 0 128 240 240 224 
240 240 224 240 240 224 240 240 224 240 240 224 240 240 224 240 240 224 
240 240 224 0 0 128 0 0 128 0 0 128 240 240 224 240 240 224 240 240 224 
240 240 224 240 240 224 240 240 224 240 240 224 240 240 224 240 240 224 
0 0 128 0 0 128 240 240 224 240 240 224 240 240 224 240 240 224 240 240 224 
240 240 224 0 0 128 0 0 128 240 240 224 240 240 224 240 240 224 240 240 224 
240 240 224 0 0 128 0 0 128 0 0 128 0 0 128 0 0 128 0 0 128 0 0 128 0 0 128 
0 0 128 240 240 224 240 240 224 240 240 224 240 240 224 240 240 224 240 240 224 
0 0 128 0 0 128 0 0 128 240 240 224 240 240 224 240 240 224 240 240 224 
0 0 128 0 0 128 0 0 128 240 240 224 240 240 224 240 240 224 240 240 224 
240 240 224 240 240 224 240 240 224 240 240 224 240 240 224 0 0 128 240 240 224 
240 240 224 240 240 224 240 240 224 240 240 224 240 240 224 240 240 224 
240 240 224 240 240 224 240 240 224 240 240 224 240 240 224 240 240 224 
240 240 224 240 240 224 240 240 224 0 0 128 0 0 128 0 0 128 0 0 128 0 0 128 
240 240 224 240 240 224 0 0 128 0 0 128 0 0 128 240 240 224 240 240 224 
240 240 224 240 240 224 240 240 224 240 240 224 240 240 224 0 0 128 0 0 128 
0 0 128 0 0 128 0 0 128 240 240 224 240 240 224 240 240 224 240 240 224 
240 240 224 240 240 224 240 240 224 240 240 224 0 0 128 0 0 128 240 240 224 
0 0 128 0 0 128 0 0 128 0 0 128 0 0 128 0 0 128 0 0 128 240 240 224 240 240 224 
240 240 224 240 240 224 240 240 224 0 0 128 0 0 128 0 0 128 0 0 128 0 0 128 
0 0 128 0 0 128 0 0 128 0 0 128 240 240 224 240 240 224 240 240 224 240 240 224 
240 240 224 240 240 224 0 0 128 0 0 128 240 240 224 0 0 128 0 0 128 0 0 128 
0 0 128 0 0 128 0 0 128 0 0 128 240 240 224 240 240 224 240 240 224 240 240 224 
240 240 224 240 240 224 240 240 224 240 240 224 0 0 128 0 0 128 0 0 128 
240 240 224 240 240 224 240 240 224 240 240 224 240 240 224 240 240 224 
240 240 224 240 240 224 240 240 224 240 240 224 240 240 224 240 240 224 
240 240 224 240 240 224 240 240 224 0 0 128 0 0 128 0 0 128 0 0 128 240 240 224 
0 0 128 240 240 224 0 0 128 0 0 128 0 0 128 240 240 224 240 240 224 240 240 224 
240 240 224 240 240 224 240 240 224 0 0 128 0 0 128 0 0 128 0 0 128 0 0 128 
0 0 128 0 0 128 240 240 224 240 240 224 240 240 224 240 240 224 240 240 224 
240 240 224 240 240 224 0 0 128 0 0 128 240 240 224 0 0 128 0 0 128 0 0 128 
0 0 128 0 0 128 0 0 128 0 0 128 240 240 224 240 240 224 240 240 224 240 240 224 
240 240 224 0 0 128 0 0 128 0 0 128 0 0 128 0 0 128 0 0 128 0 0 128 0 0 128 
0 0 128 240 240 224 240 240 224 240 240 224 240 240 224 240 240 224 240 240 224 
0 0 128 0 0 128 240 240 224 0 0 128 0 0 128 0 0 128 0 0 128 0 0 128 0 0 128 
0 0 128 240 240 224 240 240 224 240 240 224 240 240 224 240 240 224 240 240 224 
240 240 224 240 240 224 0 0 128 0 0 128 0 0 128 240 240 224 240 240 224 
240 240 224 240 240 224 240 240 224 240 240 224 240 240 224 240 240 224 
240 240 224 240 240 224 240 240 224 240 240 224 240 240 224 240 240 224 
240 240 224 0 0 128 0 0 128 0 0 128 240 240 224 0 0 128 0 0 128 240 240 224 
0 0 128 0 0 128 0 0 128 240 240 224 240 240 224 240 240 224 240 240 224 
240 240 224 0 0 128 0 0 128 0 0 128 0 0 128 0 0 128 0 0 128 0 0 128 0 0 128 
0 0 128 240 240 224 240 240 224 240 240 224 240 240 224 240 240 224 240 240 224 
0 0 128 0 0 128 240 240 224 240 240 224 240 240 224 240 240 224 240 240 224 
0 0 128 0 0 128 0 0 128 240 240 224 240 240 224 240 240 224 240 240 224 
240 240 224 0 0 128 0 0 128 0 0 128 0 0 128 0 0 128 0 0 128 0 0 128 0 0 128 
0 0 128 240 240 224 240 240 224 240 240 224 240 240 224 240 240 224 240 240 224 
0 0 128 0 0 128 240 240 224 240 240 224 240 240 224 240 240 224 240 240 224 
0 0 128 0 0 128 0 0 128 240 240 224 240 240 224 240 240 224 240 240 224 
240 240 224 240 240 224 240 240 224 0 0 128 0 0 128 0 0 128 0 0 128 0 0 128 
240 240 224 240 240 224 240 240 224 240 240 224 240 240 224 240 240 224 
240 240 224 240 240 224 240 240 224 240 240 224 240 240 224 240 240 224 
240 240 224 240 240 224 0 0 128 0 0 128 240 240 224 0 0 128 0 0 128 0 0 128 
240 240 224 0 0 128 0 0 128 0 0 128 240 240 224 240 240 224 240 240 224 
240 240 224 0 0 128 0 0 128 0 0 128 0 0 128 0 0 128 0 0 128 0 0 128 0 0 128 
0 0 128 0 0 128 0 0 128 240 240 224 240 240 224 240 240 224 240 240 224 
240 240 224 0 0 128 0 0 128 0 0 128 0 0 128 0 0 128 0 0 128 0 0 128 240 240 224 
0 0 128 0 0 128 240 240 224 240 240 224 240 240 224 240 240 224 240 240 224 
0 0 128 0 0 128 0 0 128 0 0 128 0 0 128 0 0 128 0 0 128 0 0 128 0 0 128 
240 240 224 240 240 224 240 240 224 240 240 224 240 240 224 240 240 224 
0 0 128 0 0 128 240 240 224 0 0 128 0 0 128 0 0 128 0 0 128 240 240 224 
0 0 128 0 0 128 240 240 224 240 240 224 240 240 224 240 240 224 240 240 224 
240 240 224 240 240 224 0 0 128 0 0 128 0 0 128 0 0 128 0 0 128 240 240 224 
240 240 224 240 240 224 240 240 224 240 240 224 240 240 224 240 240 224 
240 240 224 240 240 224 240 240 224 240 240 224 240 240 224 240 240 224 
240 240 224 0 0 128 0 0 128 240 240 224 0 0 128 0 0 128 0 0 128 240 240 224 
0 0 128 0 0 128 0 0 128 240 240 224 240 240 224 240 240 224 240 240 224 
240 240 224 0 0 128 0 0 128 0 0 128 0 0 128 0 0 128 0 0 128 0 0 128 0 0 128 
0 0 128 240 240 224 240 240 224 240 240 224 240 240 224 240 240 224 240 240 224 
0 0 128 0 0 128 0 0 128 0 0 128 0 0 128 0 0 128 0 0 128 240 240 224 0 0 128 
0 0 128 240 240 224 240 240 224 240 240 224 240 240 224 240 240 224 0 0 128 
0 0 128 0 0 128 0 0 128 0 0 128 0 0 128 0 0 128 0 0 128 0 0 128 240 240 224 
240 240 224 240 240 224 240 240 224 240 240 224 240 240 224 0 0 128 0 0 128 
240 240 224 0 0 128 0 0 128 0 0 128 0 0 128 240 240 224 0 0 128 0 0 128 
240 240 224 240 240 224 240 240 224 240 240 224 240 240 224 240 240 224 
0 0 128 0 0 128 0 0 128 0 0 128 0 0 128 0 0 128 0 0 128 240 240 224 240 240 224 
240 240 224 240 240 224 240 240 224 240 240 224 240 240 224 240 240 224 
240 240 224 240 240 224 240 240 224 240 240 224 240 240 224 0 0 128 0 0 128 
240 240 224 240 240 224 240 240 224 240 240 224 240 240 224 240 240 224 
0 0 128 0 0 128 240 240 224 240 240 224 240 240 224 240 240 224 240 240 224 
240 240 224 0 0 128 0 0 128 0 0 128 0 0 128 0 0 128 0 0 128 0 0 128 240 240 224 
240 240 224 240 240 224 240 240 224 240 240 224 240 240 224 240 240 224 
0 0 128 0 0 128 240 240 224 0 0 128 0 0 128 0 0 128 0 0 128 240 240 224 
0 0 128 0 0 128 240 240 224 240 240 224 240 240 224 240 240 224 240 240 224 
0 0 128 0 0 128 0 0 128 0 0 128 0 0 128 0 0 128 0 0 128 0 0 128 0 0 128 
240 240 224 240 240 224 240 240 224 240 240 224 240 240 224 240 240 224 
0 0 128 0 0 128 240 240 224 0 0 128 0 0 128 0 0 128 0 0 128 240 240 224 
0 0 128 0 0 128 240 240 224 240 240 224 240 240 224 240 240 224 240 240 224 
240 240 224 0 0 128 0 0 128 0 0 128 0 0 128 0 0 128 0 0 128 0 0 128 240 240 224 
240 240 224 240 240 224 240 240 224 240 240 224 240 240 224 240 240 224 
240 240 224 240 240 224 240 240 224 240 240 224 240 240 224 240 240 224 
0 0 128 0 0 128 0 0 128 0 0 128 0 0 128 0 0 128 240 240 224 0 0 128 0 0 128 
0 0 128 240 240 224 240 240 224 240 240 224 240 240 224 240 240 224 240 240 224 
240 240 224 0 0 128 0 0 128 0 0 128 0 0 128 0 0 128 240 240 224 240 240 224 
240 240 224 240 240 224 240 240 224 240 240 224 240 240 224 240 240 224 
0 0 128 0 0 128 0 0 128 240 240 224 240 240 224 240 240 224 240 240 224 
0 0 128 0 0 128 0 0 128 240 240 224 240 240 224 240 240 224 240 240 224 
240 240 224 0 0 128 0 0 128 0 0 128 0 0 128 0 0 128 0 0 128 0 0 128 0 0 128 
0 0 128 240 240 224 240 240 224 240 240 224 240 240 224 240 240 224 240 240 224 
0 0 128 0 0 128 0 0 128 240 240 224 240 240 224 240 240 224 240 240 224 
0 0 128 0 0 128 0 0 128 240 240 224 240 240 224 240 240 224 240 240 224 
240 240 224 0 0 128 0 0 128 0 0 128 0 0 128 0 0 128 0 0 128 0 0 128 0 0 128 
0 0 128 240 240 224 240 240 224 240 240 224 240 240 224 240 240 224 240 240 224 
240 240 224 240 240 224 240 240 224 240 240 224 240 240 224 240 240 224 
240 240 224 0 0 128 0 0 128 0 0 128 0 0 128 0 0 128 0 0 128 0 0 128 0 0 128 
240 240 224 240 240 224 240 240 224 240 240 224 240 240 224 240 240 224 
240 240 224 240 240 224 240 240 224 0 0 128 0 0 128 0 0 128 240 240 224 
240 240 224 240 240 224 240 240 224 240 240 224 240 240 224 240 240 224 
240 240 224 240 240 224 240 240 224 0 0 128 0 0 128 0 0 128 0 0 128 0 0 128 
0 0 128 0 0 128 0 0 128 240 240 224 240 240 224 240 240 224 240 240 224 
240 240 224 240 240 224 0 0 128 0 0 128 0 0 128 0 0 128 0 0 128 0 0 128 
0 0 128 0 0 128 0 0 128 240 240 224 240 240 224 240 240 224 240 240 224 
240 240 224 240 240 224 240 240 224 0 0 128 0 0 128 0 0 128 0 0 128 0 0 128 
0 0 128 0 0 128 0 0 128 240 240 224 240 240 224 240 240 224 240 240 224 
240 240 224 240 240 224 0 0 128 0 0 128 0 0 128 0 0 128 0 0 128 0 0 128 
0 0 128 0 0 128 0 0 128 240 240 224 240 240 224 240 240 224 240 240 224 
240 240 224 240 240 224 240 240 224 240 240 224 240 240 224 240 240 224 
240 240 224 240 240 224 240 240 224 240 240 224 240 240 224 240 240 224 
240 240 224 240 240 224 240 240 224 240 240 224 240 240 224 240 240 224 
240 240 224 240 240 224 240 240 224 240 240 224 240 240 224 240 240 224 
240 240 224 240 240 224 240 240 224 0 0 128 240 240 224 240 240 224 240 240 224 
240 240 224 240 240 224 240 240 224 240 240 224 240 240 224 240 240 224 
240 240 224 240 240 224 240 240 224 240 240 224 240 240 224 240 240 224 
240 240 224 240 240 224 240 240 224 240 240 224 240 240 224 240 240 224 
240 240 224 240 240 224 240 240 224 240 240 224 240 240 224 240 240 224 
240 240 224 240 240 224 240 240 224 240 240 224 240 240 224 240 240 224 
240 240 224 240 240 224 240 240 224 240 240 224 240 240 224 240 240 224 
240 240 224 240 240 224 240 240 224 240 240 224 240 240 224 240 240 224 
240 240 224 240 240 224 240 240 224 240 240 224 240 240 224 240 240 224 
240 240 224 240 240 224 240 240 224 240 240 224 240 240 224 240 240 224 
240 240 224 240 240 224 240 240 224 240 240 224 240 240 224 240 240 224 
240 240 224 240 240 224 240 240 224 240 240 224 240 240 224 240 240 224 
240 240 224 240 240 224 240 240 224 240 240 224 240 240 224 240 240 224 
240 240 224 240 240 224 240 240 224 240 240 224 240 240 224 240 240 224 
240 240 224 240 240 224 240 240 224 240 240 224 240 240 224 240 240 224 
240 240 224 240 240 224 240 240 224 240 240 224 240 240 224 240 240 224 
240 240 224 240 240 224 240 240 224 240 240 224 240 240 224 240 240 224 
240 240 224 240 240 224 240 240 224 240 240 224 240 240 224 240 240 224 
240 240 224 240 240 224 240 240 224 240 240 224 240 240 224 240 240 224 
240 240 224 240 240 224 240 240 224 240 240 224 240 240 224 240 240 224 
240 240 224 240 240 224 240 240 224 240 240 224 240 240 224 240 240 224 
240 240 224 240 240 224 240 240 224 240 240 224 240 240 224 240 240 224 
240 240 224 240 240 224 240 240 224 240 240 224 240 240 224 240 240 224 
240 240 224 240 240 224 240 240 224 240 240 224 240 240 224 240 240 224 
240 240 224 240 240 224 240 240 224 240 240 224 240 240 224 240 240 224 
240 240 224 240 240 224 240 240 224 240 240 224 240 240 224 240 240 224 
240 240 224 240 240 224 240 240 224 240 240 224 240 240 224 240 240 224 
240 240 224 240 240 224 240 240 224 240 240 224 240 240 224 240 240 224 
240 240 224 240 240 224 240 240 224 240 240 224 240 240 224 240 240 224 
240 240 224 240 240 224 0 0 128 0 0 128 0 0 128 0 0 128 0 0 128 0 0 128 
0 0 128 0 0 128 240 240 224 240 240 224 240 240 224 240 240 224 240 240 224 
240 240 224 0 0 128 0 0 128 0 0 128 0 0 128 0 0 128 0 0 128 0 0 128 0 0 128 
0 0 128 240 240 224 240 240 224 240 240 224 240 240 224 240 240 224 240 240 224 
240 240 224 0 0 128 0 0 128 0 0 128 0 0 128 0 0 128 0 0 128 0 0 128 0 0 128 
240 240 224 240 240 224 240 240 224 240 240 224 240 240 224 240 240 224 
240 240 224 240 240 224 240 240 224 240 240 224 240 240 224 240 240 224 
240 240 224 240 240 224 240 240 224 0 0 128 240 240 224 240 240 224 240 240 224 
240 240 224 240 240 224 240 240 224 0 0 128 0 0 128 0 0 128 0 0 128 0 0 128 
0 0 128 0 0 128 0 0 128 240 240 224 240 240 224 240 240 224 240 240 224 
240 240 224 240 240 224 0 0 128 240 240 224 240 240 224 240 240 224 240 240 224 
240 240 224 240 240 224 240 240 224 240 240 224 240 240 224 240 240 224 
240 240 224 240 240 224 240 240 224 240 240 224 240 240 224 240 240 224 
240 240 224 240 240 224 240 240 224 240 240 224 0 0 128 0 0 128 240 240 224 
240 240 224 240 240 224 240 240 224 240 240 224 240 240 224 0 0 128 0 0 128 
240 240 224 240 240 224 240 240 224 240 240 224 240 240 224 0 0 128 0 0 128 
0 0 128 0 0 128 0 0 128 0 0 128 0 0 128 0 0 128 0 0 128 240 240 224 240 240 224 
240 240 224 240 240 224 240 240 224 240 240 224 0 0 128 0 0 128 0 0 128 
240 240 224 240 240 224 240 240 224 240 240 224 0 0 128 0 0 128 0 0 128 
240 240 224 240 240 224 240 240 224 240 240 224 240 240 224 240 240 224 
240 240 224 240 240 224 240 240 224 240 240 224 240 240 224 240 240 224 
0 0 128 0 0 128 0 0 128 240 240 224 240 240 224 240 240 224 240 240 224 
240 240 224 0 0 128 0 0 128 0 0 128 240 240 224 240 240 224 240 240 224 
240 240 224 0 0 128 0 0 128 0 0 128 240 240 224 240 240 224 240 240 224 
240 240 224 240 240 224 0 0 128 0 0 128 0 0 128 240 240 224 240 240 224 
240 240 224 240 240 224 240 240 224 240 240 224 240 240 224 240 240 224 
240 240 224 240 240 224 240 240 224 240 240 224 240 240 224 240 240 224 
240 240 224 240 240 224 240 240 224 240 240 224 0 0 128 0 0 128 0 0 128 
0 0 128 0 0 128 0 0 128 0 0 128 240 240 224 0 0 128 0 0 128 240 240 224 
240 240 224 240 240 224 240 240 224 240 240 224 240 240 224 0 0 128 0 0 128 
0 0 128 0 0 128 0 0 128 0 0 128 0 0 128 240 240 224 240 240 224 240 240 224 
240 240 224 240 240 224 240 240 224 240 240 224 0 0 128 0 0 128 240 240 224 
0 0 128 0 0 128 0 0 128 0 0 128 240 240 224 0 0 128 0 0 128 240 240 224 
240 240 224 240 240 224 240 240 224 240 240 224 240 240 224 240 240 224 
240 240 224 240 240 224 240 240 224 0 0 128 0 0 128 0 0 128 0 0 128 0 0 128 
240 240 224 240 240 224 240 240 224 240 240 224 240 240 224 0 0 128 0 0 128 
240 240 224 0 0 128 0 0 128 0 0 128 0 0 128 240 240 224 0 0 128 0 0 128 
240 240 224 240 240 224 240 240 224 240 240 224 240 240 224 0 0 128 0 0 128 
0 0 128 0 0 128 0 0 128 240 240 224 240 240 224 240 240 224 240 240 224 
240 240 224 240 240 224 240 240 224 240 240 224 240 240 224 240 240 224 
240 240 224 240 240 224 240 240 224 240 240 224 240 240 224 240 240 224 
0 0 128 0 0 128 0 0 128 0 0 128 0 0 128 0 0 128 240 240 224 0 0 128 0 0 128 
0 0 128 240 240 224 240 240 224 240 240 224 240 240 224 240 240 224 240 240 224 
0 0 128 0 0 128 0 0 128 0 0 128 0 0 128 0 0 128 0 0 128 240 240 224 240 240 224 
240 240 224 240 240 224 240 240 224 240 240 224 240 240 224 0 0 128 0 0 128 
240 240 224 0 0 128 0 0 128 0 0 128 0 0 128 240 240 224 0 0 128 0 0 128 
240 240 224 240 240 224 240 240 224 240 240 224 240 240 224 240 240 224 
240 240 224 240 240 224 0 0 128 0 0 128 0 0 128 0 0 128 0 0 128 0 0 128 
0 0 128 240 240 224 240 240 224 240 240 224 240 240 224 240 240 224 0 0 128 
0 0 128 240 240 224 0 0 128 0 0 128 0 0 128 0 0 128 240 240 224 0 0 128 
0 0 128 240 240 224 240 240 224 240 240 224 240 240 224 240 240 224 0 0 128 
0 0 128 0 0 128 0 0 128 0 0 128 0 0 128 0 0 128 240 240 224 240 240 224 
240 240 224 240 240 224 240 240 224 240 240 224 240 240 224 240 240 224 
240 240 224 240 240 224 240 240 224 240 240 224 240 240 224 240 240 224 
0 0 128 0 0 128 0 0 128 0 0 128 0 0 128 240 240 224 0 0 128 0 0 128 0 0 128 
0 0 128 240 240 224 240 240 224 240 240 224 240 240 224 240 240 224 240 240 224 
240 240 224 0 0 128 0 0 128 0 0 128 0 0 128 0 0 128 240 240 224 240 240 224 
240 240 224 240 240 224 240 240 224 240 240 224 240 240 224 240 240 224 
0 0 128 0 0 128 0 0 128 240 240 224 240 240 224 240 240 224 240 240 224 
0 0 128 0 0 128 0 0 128 240 240 224 240 240 224 240 240 224 240 240 224 
240 240 224 240 240 224 0 0 128 0 0 128 0 0 128 0 0 128 0 0 128 0 0 128 
0 0 128 0 0 128 0 0 128 240 240 224 240 240 224 240 240 224 240 240 224 
240 240 224 0 0 128 0 0 128 240 240 224 0 0 128 0 0 128 0 0 128 0 0 128 
240 240 224 0 0 128 0 0 128 240 240 224 240 240 224 240 240 224 240 240 224 
240 240 224 0 0 128 0 0 128 0 0 128 0 0 128 0 0 128 0 0 128 0 0 128 0 0 128 
0 0 128 240 240 224 240 240 224 240 240 224 240 240 224 240 240 224 240 240 224 
240 240 224 240 240 224 240 240 224 240 240 224 240 240 224 240 240 224 
0 0 128 0 0 128 0 0 128 0 0 128 240 240 224 0 0 128 0 0 128 0 0 128 0 0 128 
0 0 128 240 240 224 240 240 224 240 240 224 240 240 224 240 240 224 240 240 224 
240 240 224 0 0 128 0 0 128 0 0 128 0 0 128 0 0 128 240 240 224 240 240 224 
240 240 224 240 240 224 240 240 224 240 240 224 240 240 224 240 240 224 
0 0 128 0 0 128 240 240 224 0 0 128 0 0 128 0 0 128 0 0 128 240 240 224 
0 0 128 0 0 128 240 240 224 240 240 224 240 240 224 240 240 224 0 0 128 
0 0 128 0 0 128 0 0 128 0 0 128 0 0 128 0 0 128 0 0 128 0 0 128 0 0 128 
0 0 128 240 240 224 240 240 224 240 240 224 240 240 224 240 240 224 0 0 128 
0 0 128 0 0 128 240 240 224 240 240 224 240 240 224 240 240 224 240 240 224 
0 0 128 0 0 128 240 240 224 240 240 224 240 240 224 240 240 224 240 240 224 
0 0 128 0 0 128 0 0 128 0 0 128 0 0 128 0 0 128 0 0 128 0 0 128 0 0 128 
0 0 128 0 0 128 240 240 224 240 240 224 240 240 224 240 240 224 240 240 224 
240 240 224 240 240 224 240 240 224 240 240 224 240 240 224 0 0 128 0 0 128 
0 0 128 0 0 128 240 240 224 0 0 128 0 0 128 0 0 128 0 0 128 0 0 128 240 240 224 
240 240 224 240 240 224 240 240 224 240 240 224 240 240 224 240 240 224 
240 240 224 0 0 128 0 0 128 0 0 128 240 240 224 240 240 224 240 240 224 
240 240 224 240 240 224 240 240 224 240 240 224 240 240 224 240 240 224 
0 0 128 0 0 128 240 240 224 0 0 128 0 0 128 0 0 128 0 0 128 240 240 224 
0 0 128 0 0 128 240 240 224 240 240 224 240 240 224 240 240 224 240 240 224 
240 240 224 0 0 128 0 0 128 0 0 128 0 0 128 0 0 128 0 0 128 0 0 128 0 0 128 
0 0 128 240 240 224 240 240 224 240 240 224 240 240 224 240 240 224 0 0 128 
0 0 128 0 0 128 0 0 128 0 0 128 0 0 128 0 0 128 240 240 224 0 0 128 0 0 128 
240 240 224 240 240 224 240 240 224 240 240 224 240 240 224 0 0 128 0 0 128 
0 0 128 0 0 128 0 0 128 0 0 128 0 0 128 0 0 128 0 0 128 240 240 224 240 240 224 
240 240 224 240 240 224 240 240 224 240 240 224 240 240 224 240 240 224 
240 240 224 240 240 224 240 240 224 240 240 224 0 0 128 0 0 128 0 0 128 
0 0 128 240 240 224 0 0 128 0 0 128 0 0 128 0 0 128 0 0 128 240 240 224 
240 240 224 240 240 224 240 240 224 240 240 224 240 240 224 240 240 224 
240 240 224 0 0 128 0 0 128 0 0 128 240 240 224 240 240 224 240 240 224 
240 240 224 240 240 224 240 240 224 240 240 224 240 240 224 240 240 224 
0 0 128 0 0 128 240 240 224 0 0 128 0 0 128 0 0 128 0 0 128 240 240 224 
0 0 128 0 0 128 240 240 224 240 240 224 240 240 224 240 240 224 240 240 224 
240 240 224 240 240 224 240 240 224 0 0 128 0 0 128 0 0 128 0 0 128 0 0 128 
0 0 128 0 0 128 240 240 224 240 240 224 240 240 224 240 240 224 240 240 224 
0 0 128 0 0 128 0 0 128 0 0 128 0 0 128 0 0 128 0 0 128 240 240 224 0 0 128 
0 0 128 240 240 224 240 240 224 240 240 224 240 240 224 240 240 224 0 0 128 
0 0 128 0 0 128 0 0 128 0 0 128 0 0 128 0 0 128 240 240 224 240 240 224 
240 240 224 240 240 224 240 240 224 240 240 224 240 240 224 240 240 224 
240 240 224 240 240 224 240 240 224 240 240 224 240 240 224 240 240 224 
0 0 128 0 0 128 0 0 128 0 0 128 240 240 224 0 0 128 0 0 128 0 0 128 0 0 128 
0 0 128 240 240 224 240 240 224 240 240 224 240 240 224 240 240 224 240 240 224 
240 240 224 240 240 224 240 240 224 0 0 128 240 240 224 240 240 224 240 240 224 
240 240 224 240 240 224 240 240 224 240 240 224 240 240 224 240 240 224 
240 240 224 0 0 128 0 0 128 0 0 128 240 240 224 240 240 224 240 240 224 
240 240 224 0 0 128 0 0 128 0 0 128 240 240 224 240 240 224 240 240 224 
240 240 224 240 240 224 240 240 224 240 240 224 240 240 224 240 240 224 
240 240 224 0 0 128 0 0 128 0 0 128 0 0 128 0 0 128 240 240 224 240 240 224 
240 240 224 240 240 224 240 240 224 0 0 128 0 0 128 0 0 128 240 240 224 
240 240 224 240 240 224 240 240 224 0 0 128 0 0 128 0 0 128 240 240 224 
240 240 224 240 240 224 240 240 224 240 240 224 0 0 128 0 0 128 0 0 128 
0 0 128 0 0 128 240 240 224 240 240 224 240 240 224 240 240 224 240 240 224 
240 240 224 240 240 224 240 240 224 240 240 224 240 240 224 240 240 224 
240 240 224 240 240 224 240 240 224 240 240 224 240 240 224 240 240 224 
0 0 128 0 0 128 0 0 128 0 0 128 0 0 128 0 0 128 0 0 128 0 0 128 240 240 224 
240 240 224 240 240 224 240 240 224 240 240 224 240 240 224 240 240 224 
240 240 224 240 240 224 240 240 224 0 0 128 240 240 224 240 240 224 240 240 224 
240 240 224 240 240 224 240 240 224 240 240 224 240 240 224 240 240 224 
240 240 224 240 240 224 0 0 128 0 0 128 0 0 128 0 0 128 0 0 128 0 0 128 
0 0 128 0 0 128 240 240 224 240 240 224 240 240 224 240 240 224 240 240 224 
240 240 224 240 240 224 240 240 224 240 240 224 240 240 224 240 240 224 
240 240 224 240 240 224 0 0 128 0 0 128 0 0 128 240 240 224 240 240 224 
240 240 224 240 240 224 240 240 224 240 240 224 0 0 128 0 0 128 0 0 128 
0 0 128 0 0 128 0 0 128 0 0 128 0 0 128 240 240 224 240 240 224 240 240 224 
240 240 224 240 240 224 240 240 224 0 0 128 0 0 128 0 0 128 240 240 224 
240 240 224 240 240 224 240 240 224 240 240 224 240 240 224 240 240 224 
240 240 224 240 240 224 240 240 224 240 240 224 240 240 224 240 240 224 
240 240 224 240 240 224 240 240 224 240 240 224 240 240 224 240 240 224 
240 240 224 240 240 224 240 240 224 240 240 224 240 240 224 240 240 224 
240 240 224 240 240 224 240 240 224 240 240 224 240 240 224 240 240 224 
240 240 224 240 240 224 240 240 224 240 240 224 240 240 224 240 240 224 
240 240 224 240 240 224 240 240 224 240 240 224 240 240 224 240 240 224 
240 240 224 240 240 224 240 240 224 240 240 224 240 240 224 240 240 224 
240 240 224 240 240 224 240 240 224 240 240 224 240 240 224 240 240 224 
240 240 224 240 240 224 240 240 224 240 240 224 240 240 224 240 240 224 
240 240 224 240 240 224 240 240 224 240 240 224 240 240 224 240 240 224 
240 240 224 240 240 224 240 240 224 240 240 224 240 240 224 0 0 128 240 240 224 
240 240 224 240 240 224 240 240 224 240 240 224 240 240 224 240 240 224 
240 240 224 240 240 224 240 240 224 240 240 224 240 240 224 240 240 224 
240 240 224 240 240 224 240 240 224 240 240 224 240 240 224 240 240 224 
240 240 224 0 0 128 240 240 224 240 240 224 240 240 224 240 240 224 240 240 224 
240 240 224 240 240 224 240 240 224 240 240 224 240 240 224 240 240 224 
240 240 224 240 240 224 240 240 224 240 240 224 240 240 224 240 240 224 
240 240 224 240 240 224 240 240 224 240 240 224 240 240 224 240 240 224 
240 240 224 240 240 224 240 240 224 240 240 224 240 240 224 240 240 224 
240 240 224 240 240 224 240 240 224 240 240 224 240 240 224 240 240 224 
240 240 224 240 240 224 240 240 224 240 240 224 240 240 224 240 240 224 
240 240 224 240 240 224 240 240 224 240 240 224 240 240 224 240 240 224 
240 240 224 240 240 224 240 240 224 240 240 224 240 240 224 240 240 224 
240 240 224 240 240 224 240 240 224 240 240 224 240 240 224 240 240 224 
240 240 224 240 240 224 240 240 224 240 240 224 240 240 224 240 240 224 
240 240 224 240 240 224 240 240 224 240 240 224 240 240 224 240 240 224 
240 240 224 240 240 224 240 240 224 240 240 224 240 240 224 240 240 224 
240 240 224 240 240 224 240 240 224 240 240 224 240 240 224 240 240 224 
240 240 224 240 240 224 240 240 224 240 240 224 240 240 224 240 240 224 
240 240 224 240 240 224 240 240 224 240 240 224 240 240 224 240 240 224 
240 240 224 240 240 224 240 240 224 240 240 224 240 240 224 240 240 224 
240 240 224 240 240 224 240 240 224 240 240 224 240 240 224 240 240 224 
240 240 224 240 240 224 240 240 224 240 240 224 240 240 224 240 240 224 
240 240 224 240 240 224 240 240 224 240 240 224 0 0 128 0 0 128 0 0 128 
0 0 128 0 0 128 0 0 128 0 0 128 0 0 128 240 240 224 240 240 224 240 240 224 
240 240 224 240 240 224 240 240 224 240 240 224 240 240 224 240 240 224 
240 240 224 0 0 128 240 240 224 240 240 224 240 240 224 240 240 224 240 240 224 
240 240 224 240 240 224 240 240 224 240 240 224 240 240 224 240 240 224 
0 0 128 0 0 128 0 0 128 0 0 128 0 0 128 0 0 128 0 0 128 0 0 128 240 240 224 
240 240 224 240 240 224 240 240 224 240 240 224 240 240 224 240 240 224 
0 0 128 0 0 128 240 240 224 240 240 224 240 240 224 0 0 128 0 0 128 240 240 224 
240 240 224 240 240 224 240 240 224 240 240 224 240 240 224 240 240 224 
240 240 224 0 0 128 0 0 128 0 0 128 0 0 128 0 0 128 0 0 128 0 0 128 0 0 128 
240 240 224 240 240 224 240 240 224 240 240 224 240 240 224 240 240 224 
240 240 224 240 240 224 240 240 224 0 0 128 0 0 128 0 0 128 240 240 224 
240 240 224 240 240 224 240 240 224 240 240 224 240 240 224 240 240 224 
240 240 224 240 240 224 240 240 224 240 240 224 240 240 224 240 240 224 
240 240 224 240 240 224 0 0 128 0 0 128 0 0 128 0 0 128 0 0 128 0 0 128 
0 0 128 0 0 128 0 0 128 0 0 128 240 240 224 240 240 224 240 240 224 240 240 224 
240 240 224 240 240 224 240 240 224 240 240 224 0 0 128 0 0 128 0 0 128 
240 240 224 240 240 224 240 240 224 240 240 224 240 240 224 240 240 224 
240 240 224 240 240 224 240 240 224 0 0 128 0 0 128 0 0 128 240 240 224 
240 240 224 240 240 224 240 240 224 0 0 128 0 0 128 0 0 128 240 240 224 
240 240 224 240 240 224 240 240 224 240 240 224 0 0 128 0 0 128 0 0 128 
0 0 128 240 240 224 0 0 128 0 0 128 0 0 128 0 0 128 240 240 224 240 240 224 
240 240 224 240 240 224 240 240 224 240 240 224 0 0 128 0 0 128 0 0 128 
0 0 128 0 0 128 0 0 128 0 0 128 240 240 224 0 0 128 0 0 128 240 240 224 
240 240 224 240 240 224 240 240 224 240 240 224 240 240 224 240 240 224 
0 0 128 0 0 128 0 0 128 0 0 128 0 0 128 240 240 224 240 240 224 240 240 224 
240 240 224 240 240 224 240 240 224 240 240 224 240 240 224 240 240 224 
240 240 224 240 240 224 240 240 224 240 240 224 240 240 224 0 0 128 240 240 224 
0 0 128 0 0 128 240 240 224 240 240 224 0 0 128 0 0 128 240 240 224 0 0 128 
240 240 224 240 240 224 240 240 224 240 240 224 240 240 224 240 240 224 
240 240 224 0 0 128 0 0 128 0 0 128 0 0 128 0 0 128 240 240 224 240 240 224 
240 240 224 240 240 224 240 240 224 240 240 224 240 240 224 240 240 224 
0 0 128 0 0 128 240 240 224 0 0 128 0 0 128 0 0 128 0 0 128 240 240 224 
0 0 128 0 0 128 240 240 224 240 240 224 240 240 224 240 240 224 0 0 128 
0 0 128 0 0 128 0 0 128 0 0 128 0 0 128 0 0 128 0 0 128 0 0 128 0 0 128 
0 0 128 240 240 224 240 240 224 240 240 224 240 240 224 240 240 224 0 0 128 
0 0 128 0 0 128 240 240 224 0 0 128 0 0 128 240 240 224 240 240 224 240 240 224 
0 0 128 240 240 224 240 240 224 240 240 224 240 240 224 240 240 224 240 240 224 
240 240 224 0 0 128 0 0 128 0 0 128 0 0 128 0 0 128 240 240 224 240 240 224 
240 240 224 240 240 224 240 240 224 240 240 224 240 240 224 240 240 224 
240 240 224 240 240 224 240 240 224 240 240 224 240 240 224 240 240 224 
0 0 128 240 240 224 240 240 224 0 0 128 240 240 224 240 240 224 0 0 128 
240 240 224 240 240 224 0 0 128 240 240 224 240 240 224 240 240 224 240 240 224 
240 240 224 240 240 224 0 0 128 0 0 128 0 0 128 0 0 128 0 0 128 0 0 128 
0 0 128 240 240 224 240 240 224 240 240 224 240 240 224 240 240 224 240 240 224 
240 240 224 0 0 128 0 0 128 240 240 224 0 0 128 0 0 128 0 0 128 0 0 128 
240 240 224 0 0 128 0 0 128 240 240 224 240 240 224 240 240 224 240 240 224 
0 0 128 0 0 128 0 0 128 0 0 128 0 0 128 0 0 128 0 0 128 0 0 128 0 0 128 
0 0 128 0 0 128 240 240 224 240 240 224 240 240 224 240 240 224 240 240 224 
0 0 128 0 0 128 0 0 128 240 240 224 240 240 224 240 240 224 240 240 224 
240 240 224 0 0 128 0 0 128 240 240 224 240 240 224 240 240 224 240 240 224 
240 240 224 0 0 128 0 0 128 240 240 224 0 0 128 0 0 128 0 0 128 240 240 224 
0 0 128 0 0 128 240 240 224 240 240 224 240 240 224 240 240 224 240 240 224 
240 240 224 240 240 224 240 240 224 240 240 224 240 240 224 240 240 224 
240 240 224 0 0 128 0 0 128 240 240 224 240 240 224 240 240 224 240 240 224 
240 240 224 240 240 224 0 0 128 0 0 128 240 240 224 240 240 224 240 240 224 
240 240 224 240 240 224 0 0 128 0 0 128 0 0 128 0 0 128 0 0 128 0 0 128 
0 0 128 0 0 128 0 0 128 240 240 224 240 240 224 240 240 224 240 240 224 
240 240 224 240 240 224 0 0 128 0 0 128 240 240 224 0 0 128 0 0 128 0 0 128 
0 0 128 240 240 224 0 0 128 0 0 128 240 240 224 240 240 224 240 240 224 
240 240 224 0 0 128 0 0 128 0 0 128 0 0 128 0 0 128 0 0 128 0 0 128 0 0 128 
0 0 128 0 0 128 0 0 128 240 240 224 240 240 224 240 240 224 240 240 224 
240 240 224 0 0 128 0 0 128 240 240 224 240 240 224 240 240 224 0 0 128 
0 0 128 240 240 224 0 0 128 0 0 128 240 240 224 240 240 224 240 240 224 
240 240 224 0 0 128 0 0 128 0 0 128 0 0 128 0 0 128 0 0 128 0 0 128 0 0 128 
0 0 128 0 0 128 0 0 128 240 240 224 240 240 224 240 240 224 240 240 224 
240 240 224 240 240 224 240 240 224 240 240 224 240 240 224 240 240 224 
240 240 224 0 0 128 0 0 128 0 0 128 240 240 224 240 240 224 240 240 224 
240 240 224 0 0 128 0 0 128 0 0 128 240 240 224 240 240 224 240 240 224 
240 240 224 0 0 128 0 0 128 0 0 128 0 0 128 0 0 128 0 0 128 0 0 128 0 0 128 
0 0 128 0 0 128 0 0 128 240 240 224 240 240 224 240 240 224 240 240 224 
240 240 224 0 0 128 0 0 128 240 240 224 0 0 128 0 0 128 0 0 128 0 0 128 
240 240 224 0 0 128 0 0 128 240 240 224 240 240 224 240 240 224 240 240 224 
240 240 224 0 0 128 0 0 128 0 0 128 0 0 128 0 0 128 0 0 128 0 0 128 0 0 128 
0 0 128 240 240 224 240 240 224 240 240 224 240 240 224 240 240 224 240 240 224 
0 0 128 0 0 128 0 0 128 240 240 224 0 0 128 0 0 128 240 240 224 240 240 224 
240 240 224 0 0 128 240 240 224 240 240 224 240 240 224 240 240 224 0 0 128 
0 0 128 0 0 128 0 0 128 0 0 128 0 0 128 0 0 128 0 0 128 0 0 128 0 0 128 
0 0 128 240 240 224 240 240 224 240 240 224 240 240 224 240 240 224 240 240 224 
240 240 224 240 240 224 240 240 224 240 240 224 240 240 224 0 0 128 0 0 128 
240 240 224 240 240 224 240 240 224 240 240 224 240 240 224 240 240 224 
0 0 128 0 0 128 240 240 224 240 240 224 240 240 224 240 240 224 0 0 128 
0 0 128 0 0 128 0 0 128 0 0 128 0 0 128 0 0 128 0 0 128 0 0 128 0 0 128 
0 0 128 240 240 224 240 240 224 240 240 224 240 240 224 240 240 224 0 0 128 
0 0 128 240 240 224 0 0 128 0 0 128 0 0 128 0 0 128 240 240 224 0 0 128 
0 0 128 240 240 224 240 240 224 240 240 224 240 240 224 240 240 224 0 0 128 
0 0 128 0 0 128 0 0 128 0 0 128 0 0 128 0 0 128 0 0 128 0 0 128 240 240 224 
240 240 224 240 240 224 240 240 224 240 240 224 240 240 224 0 0 128 0 0 128 
0 0 128 240 240 224 240 240 224 240 240 224 240 240 224 240 240 224 0 0 128 
0 0 128 240 240 224 240 240 224 240 240 224 240 240 224 0 0 128 0 0 128 
0 0 128 0 0 128 0 0 128 0 0 128 0 0 128 0 0 128 0 0 128 0 0 128 0 0 128 
240 240 224 240 240 224 240 240 224 240 240 224 240 240 224 240 240 224 
240 240 224 240 240 224 240 240 224 240 240 224 240 240 224 0 0 128 240 240 224 
240 240 224 0 0 128 240 240 224 240 240 224 0 0 128 240 240 224 240 240 224 
0 0 128 240 240 224 240 240 224 240 240 224 240 240 224 0 0 128 0 0 128 
0 0 128 0 0 128 240 240 224 0 0 128 240 240 224 0 0 128 0 0 128 0 0 128 
0 0 128 240 240 224 240 240 224 240 240 224 240 240 224 240 240 224 0 0 128 
0 0 128 240 240 224 0 0 128 0 0 128 0 0 128 0 0 128 240 240 224 0 0 128 
0 0 128 240 240 224 240 240 224 240 240 224 240 240 224 240 240 224 240 240 224 
0 0 128 0 0 128 0 0 128 0 0 128 0 0 128 0 0 128 0 0 128 240 240 224 240 240 224 
240 240 224 240 240 224 240 240 224 240 240 224 240 240 224 0 0 128 0 0 128 
240 240 224 240 240 224 240 240 224 0 0 128 0 0 128 240 240 224 0 0 128 
0 0 128 240 240 224 240 240 224 240 240 224 240 240 224 240 240 224 0 0 128 
0 0 128 0 0 128 240 240 224 0 0 128 240 240 224 0 0 128 0 0 128 0 0 128 
240 240 224 240 240 224 240 240 224 240 240 224 240 240 224 240 240 224 
240 240 224 240 240 224 240 240 224 240 240 224 240 240 224 240 240 224 
0 0 128 240 240 224 0 0 128 0 0 128 240 240 224 240 240 224 0 0 128 0 0 128 
240 240 224 0 0 128 240 240 224 240 240 224 240 240 224 240 240 224 240 240 224 
0 0 128 0 0 128 240 240 224 240 240 224 0 0 128 240 240 224 240 240 224 
0 0 128 0 0 128 240 240 224 240 240 224 240 240 224 240 240 224 240 240 224 
240 240 224 0 0 128 0 0 128 0 0 128 240 240 224 240 240 224 240 240 224 
240 240 224 0 0 128 0 0 128 0 0 128 240 240 224 240 240 224 240 240 224 
240 240 224 240 240 224 240 240 224 240 240 224 0 0 128 0 0 128 0 0 128 
0 0 128 0 0 128 240 240 224 240 240 224 240 240 224 240 240 224 240 240 224 
240 240 224 240 240 224 240 240 224 0 0 128 0 0 128 0 0 128 240 240 224 
0 0 128 0 0 128 0 0 128 0 0 128 0 0 128 0 0 128 240 240 224 240 240 224 
240 240 224 240 240 224 240 240 224 240 240 224 240 240 224 240 240 224 
240 240 224 0 0 128 240 240 224 240 240 224 240 240 224 240 240 224 240 240 224 
240 240 224 240 240 224 240 240 224 240 240 224 240 240 224 240 240 224 
240 240 224 240 240 224 240 240 224 240 240 224 240 240 224 240 240 224 
0 0 128 0 0 128 0 0 128 0 0 128 0 0 128 0 0 128 0 0 128 0 0 128 240 240 224 
240 240 224 240 240 224 240 240 224 240 240 224 240 240 224 240 240 224 
240 240 224 240 240 224 0 0 128 0 0 128 0 0 128 240 240 224 240 240 224 
240 240 224 240 240 224 240 240 224 240 240 224 240 240 224 240 240 224 
240 240 224 240 240 224 0 0 128 0 0 128 0 0 128 0 0 128 0 0 128 0 0 128 
0 0 128 0 0 128 240 240 224 240 240 224 240 240 224 240 240 224 240 240 224 
240 240 224 240 240 224 240 240 224 240 240 224 0 0 128 0 0 128 0 0 128 
240 240 224 240 240 224 240 240 224 240 240 224 240 240 224 240 240 224 
240 240 224 240 240 224 240 240 224 240 240 224 0 0 128 0 0 128 0 0 128 
0 0 128 0 0 128 0 0 128 0 0 128 0 0 128 240 240 224 240 240 224 240 240 224 
240 240 224 240 240 224 240 240 224 240 240 224 240 240 224 240 240 224 
0 0 128 0 0 128 0 0 128 240 240 224 240 240 224 240 240 224 240 240 224 
240 240 224 240 240 224 240 240 224 240 240 224 240 240 224 240 240 224 
240 240 224 240 240 224 240 240 224 240 240 224 240 240 224 240 240 224 
240 240 224 240 240 224 240 240 224 240 240 224 240 240 224 240 240 224 
240 240 224 240 240 224 240 240 224 240 240 224 240 240 224 240 240 224 
240 240 224 240 240 224 240 240 224 240 240 224 0 0 128 0 0 128 0 0 128 
0 0 128 0 0 128 240 240 224 240 240 224 240 240 224 240 240 224 240 240 224 
240 240 224 240 240 224 240 240 224 240 240 224 240 240 224 240 240 224 
240 240 224 240 240 224 240 240 224 240 240 224 240 240 224 240 240 224 
240 240 224 240 240 224 240 240 224 240 240 224 240 240 224 240 240 224 
240 240 224 240 240 224 240 240 224 240 240 224 0 0 128 240 240 224 240 240 224 
240 240 224 240 240 224 240 240 224 240 240 224 240 240 224 240 240 224 
240 240 224 240 240 224 240 240 224 240 240 224 240 240 224 240 240 224 
240 240 224 240 240 224 240 240 224 240 240 224 240 240 224 240 240 224 
240 240 224 240 240 224 240 240 224 240 240 224 240 240 224 240 240 224 
240 240 224 0 0 128 0 0 128 0 0 128 0 0 128 0 0 128 240 240 224 240 240 224 
240 240 224 240 240 224 240 240 224 240 240 224 240 240 224 240 240 224 
240 240 224 240 240 224 240 240 224 
