P3
# Created by Paint Shop Pro 6
3 5
255
255 222 255 255 222 255 255 115 206 255 222 255 255 115 206 214 0 90 255 222 255 
255 115 206 214 0 90 255 222 255 255 115 206 214 0 90 255 115 206 214 0 90 
214 0 90 
