P3
# Created by Paint Shop Pro 6
77 52
255
255 255 240 255 255 240 255 255 240 255 255 240 255 255 240 255 255 240 
255 255 240 255 255 240 255 255 240 255 255 240 255 255 240 255 255 240 
255 255 240 255 255 240 255 255 240 255 255 240 255 255 240 255 255 240 
255 255 240 255 255 240 255 255 240 255 255 240 255 255 240 255 255 240 
255 255 240 255 255 240 255 255 240 255 255 240 255 255 240 255 255 240 
255 255 240 255 255 240 255 255 240 255 255 240 255 255 240 255 255 240 
255 255 240 255 255 240 255 255 240 255 255 240 255 255 240 255 255 240 
255 255 240 255 255 240 255 255 240 255 255 240 255 255 240 255 255 240 
255 255 240 255 255 240 255 255 240 255 255 240 255 255 240 234 234 234 
234 234 234 234 234 234 234 234 234 234 234 234 234 234 234 234 234 234 
234 234 234 234 234 234 234 234 234 255 255 240 255 255 240 255 255 240 
255 255 240 255 255 240 255 255 240 255 255 240 255 255 240 255 255 240 
255 255 240 255 255 240 255 255 240 255 255 240 255 255 240 255 255 240 
255 255 240 255 255 240 255 255 240 255 255 240 255 255 240 255 255 240 
255 255 240 255 255 240 255 255 240 255 255 240 255 255 240 255 255 240 
255 255 240 255 255 240 255 255 240 255 255 240 255 255 240 255 255 240 
255 255 240 255 255 240 255 255 240 255 255 240 255 255 240 255 255 240 
255 255 240 255 255 240 255 255 240 255 255 240 255 255 240 255 255 240 
255 255 240 255 255 240 255 255 240 255 255 240 255 255 240 255 255 240 
255 255 240 255 255 240 255 255 240 255 255 240 255 255 240 255 255 240 
255 255 240 255 255 240 255 255 240 255 255 240 255 255 240 255 255 240 
255 255 240 255 255 240 255 255 240 234 234 234 234 234 234 0 0 0 0 0 0 
0 0 0 0 0 0 0 0 0 0 0 0 0 0 0 0 0 0 234 234 234 234 234 234 234 234 234 
234 234 234 234 234 234 255 255 240 255 255 240 255 255 240 255 255 240 
255 255 240 255 255 240 255 255 240 255 255 240 255 255 240 255 255 240 
255 255 240 255 255 240 255 255 240 255 255 240 255 255 240 255 255 240 
255 255 240 255 255 240 255 255 240 255 255 240 255 255 240 255 255 240 
255 255 240 255 255 240 255 255 240 255 255 240 255 255 240 255 255 240 
255 255 240 255 255 240 255 255 240 255 255 240 255 255 240 255 255 240 
255 255 240 255 255 240 255 255 240 255 255 240 255 255 240 255 255 240 
255 255 240 255 255 240 255 255 240 255 255 240 255 255 240 255 255 240 
255 255 240 255 255 240 255 255 240 255 255 240 255 255 240 255 255 240 
255 255 240 255 255 240 255 255 240 255 255 240 255 255 240 255 255 240 
255 255 240 255 255 240 255 255 240 255 255 240 234 234 234 0 0 0 166 166 166 
166 166 166 166 166 166 166 166 166 166 166 166 166 166 166 166 166 166 
166 166 166 0 0 0 0 0 0 0 0 0 0 0 0 234 234 234 234 234 234 234 234 234 
234 234 234 255 255 240 255 255 240 255 255 240 255 255 240 255 255 240 
255 255 240 255 255 240 255 255 240 255 255 240 255 255 240 255 255 240 
255 255 240 255 255 240 255 255 240 255 255 240 255 255 240 255 255 240 
255 255 240 255 255 240 255 255 240 255 255 240 255 255 240 255 255 240 
255 255 240 255 255 240 255 255 240 255 255 240 255 255 240 255 255 240 
255 255 240 255 255 240 255 255 240 255 255 240 255 255 240 255 255 240 
255 255 240 255 255 240 255 255 240 255 255 240 255 255 240 255 255 240 
255 255 240 255 255 240 255 255 240 255 255 240 255 255 240 255 255 240 
255 255 240 255 255 240 255 255 240 255 255 240 255 255 240 255 255 240 
255 255 240 255 255 240 255 255 240 255 255 240 255 255 240 255 255 240 
234 234 234 0 0 0 196 196 196 196 196 196 196 196 196 166 166 166 166 166 166 
166 166 166 166 166 166 166 166 166 166 166 166 166 166 166 166 166 166 
166 166 166 0 0 0 0 0 0 0 0 0 234 234 234 234 234 234 234 234 234 255 255 240 
255 255 240 255 255 240 255 255 240 255 255 240 255 255 240 255 255 240 
255 255 240 255 255 240 255 255 240 255 255 240 255 255 240 255 255 240 
255 255 240 255 255 240 255 255 240 255 255 240 234 234 234 234 234 234 
234 234 234 234 234 234 234 234 234 255 255 240 255 255 240 255 255 240 
255 255 240 255 255 240 255 255 240 255 255 240 255 255 240 255 255 240 
255 255 240 255 255 240 255 255 240 255 255 240 255 255 240 255 255 240 
255 255 240 255 255 240 255 255 240 255 255 240 255 255 240 255 255 240 
255 255 240 255 255 240 255 255 240 255 255 240 255 255 240 255 255 240 
255 255 240 255 255 240 255 255 240 255 255 240 255 255 240 255 255 240 
255 255 240 255 255 240 234 234 234 0 0 0 255 255 255 255 255 255 255 255 255 
196 196 196 196 196 196 196 196 196 166 166 166 166 166 166 166 166 166 
166 166 166 166 166 166 166 166 166 166 166 166 166 166 166 121 121 121 
0 0 0 0 0 0 234 234 234 234 234 234 234 234 234 255 255 240 255 255 240 
255 255 240 255 255 240 255 255 240 255 255 240 255 255 240 255 255 240 
255 255 240 255 255 240 255 255 240 255 255 240 255 255 240 255 255 240 
255 255 240 234 234 234 31 31 191 31 31 191 31 31 191 234 234 234 234 234 234 
255 255 240 255 255 240 255 255 240 255 255 240 255 255 240 255 255 240 
255 255 240 255 255 240 255 255 240 255 255 240 255 255 240 255 255 240 
255 255 240 255 255 240 255 255 240 255 255 240 255 255 240 255 255 240 
255 255 240 255 255 240 255 255 240 255 255 240 255 255 240 255 255 240 
255 255 240 255 255 240 255 255 240 255 255 240 255 255 240 255 255 240 
255 255 240 255 255 240 255 255 240 255 255 240 234 234 234 0 0 0 211 211 211 
211 211 211 211 211 211 255 255 255 255 255 255 255 255 255 196 196 196 
196 196 196 166 166 166 166 166 166 166 166 166 166 166 166 166 166 166 
166 166 166 166 166 166 166 166 166 121 121 121 0 0 0 0 0 0 234 234 234 
234 234 234 234 234 234 255 255 240 255 255 240 255 255 240 255 255 240 
255 255 240 255 255 240 255 255 240 255 255 240 255 255 240 255 255 240 
255 255 240 234 234 234 234 234 234 234 234 234 234 234 234 234 234 234 
234 234 234 31 31 191 234 234 234 234 234 234 255 255 240 255 255 240 255 255 240 
255 255 240 255 255 240 255 255 240 255 255 240 255 255 240 255 255 240 
255 255 240 255 255 240 255 255 240 255 255 240 255 255 240 255 255 240 
255 255 240 255 255 240 255 255 240 255 255 240 255 255 240 255 255 240 
255 255 240 255 255 240 255 255 240 255 255 240 255 255 240 255 255 240 
255 255 240 255 255 240 255 255 240 255 255 240 255 255 240 255 255 240 
234 234 234 0 0 0 211 211 211 106 106 106 151 151 151 211 211 211 211 211 211 
211 211 211 255 255 255 255 255 255 196 196 196 196 196 196 166 166 166 
166 166 166 166 166 166 166 166 166 166 166 166 166 166 166 166 166 166 
166 166 166 121 121 121 0 0 0 0 0 0 234 234 234 234 234 234 255 255 240 
255 255 240 255 255 240 255 255 240 255 255 240 255 255 240 255 255 240 
255 255 240 255 255 240 255 255 240 234 234 234 31 31 191 31 31 191 31 31 191 
234 234 234 234 234 234 234 234 234 31 31 191 234 234 234 234 234 234 255 255 240 
255 255 240 255 255 240 255 255 240 255 255 240 255 255 240 255 255 240 
255 255 240 255 255 240 255 255 240 255 255 240 255 255 240 255 255 240 
255 255 240 255 255 240 255 255 240 255 255 240 255 255 240 255 255 240 
255 255 240 255 255 240 255 255 240 255 255 240 255 255 240 255 255 240 
255 255 240 255 255 240 255 255 240 255 255 240 255 255 240 255 255 240 
255 255 240 234 234 234 0 0 0 211 211 211 106 106 106 151 151 151 106 106 106 
151 151 151 211 211 211 211 211 211 211 211 211 255 255 255 255 255 255 
196 196 196 196 196 196 166 166 166 166 166 166 166 166 166 166 166 166 
166 166 166 166 166 166 166 166 166 166 166 166 121 121 121 0 0 0 234 234 234 
255 255 240 255 255 240 255 255 240 255 255 240 255 255 240 255 255 240 
255 255 240 255 255 240 255 255 240 255 255 240 234 234 234 234 234 234 
234 234 234 234 234 234 31 31 191 234 234 234 234 234 234 234 234 234 31 31 191 
234 234 234 255 255 240 255 255 240 255 255 240 255 255 240 255 255 240 
255 255 240 255 255 240 255 255 240 255 255 240 255 255 240 255 255 240 
255 255 240 255 255 240 255 255 240 255 255 240 255 255 240 255 255 240 
255 255 240 255 255 240 255 255 240 255 255 240 255 255 240 255 255 240 
255 255 240 255 255 240 255 255 240 255 255 240 255 255 240 255 255 240 
255 255 240 255 255 240 255 255 240 234 234 234 0 0 0 211 211 211 106 106 106 
181 227 255 181 227 255 151 151 151 106 106 106 151 151 151 211 211 211 
211 211 211 211 211 211 255 255 255 255 255 255 196 196 196 166 166 166 
121 121 121 121 121 121 121 121 121 121 121 121 166 166 166 166 166 166 
166 166 166 0 0 0 234 234 234 255 255 240 255 255 240 255 255 240 255 255 240 
255 255 240 255 255 240 255 255 240 255 255 240 255 255 240 255 255 240 
255 255 240 255 255 240 255 255 240 234 234 234 234 234 234 31 31 191 234 234 234 
234 234 234 31 31 191 234 234 234 255 255 240 255 255 240 255 255 240 255 255 240 
255 255 240 255 255 240 255 255 240 255 255 240 255 255 240 255 255 240 
255 255 240 255 255 240 255 255 240 255 255 240 255 255 240 255 255 240 
255 255 240 255 255 240 255 255 240 255 255 240 255 255 240 255 255 240 
255 255 240 255 255 240 255 255 240 255 255 240 255 255 240 255 255 240 
255 255 240 255 255 240 255 255 240 255 255 240 234 234 234 0 0 0 211 211 211 
106 106 106 136 181 255 136 181 255 181 227 255 181 227 255 151 151 151 
106 106 106 151 151 151 211 211 211 211 211 211 211 211 211 196 196 196 
121 121 121 121 121 121 121 121 121 121 121 121 121 121 121 121 121 121 
121 121 121 121 121 121 0 0 0 234 234 234 255 255 240 255 255 240 255 255 240 
255 255 240 255 255 240 255 255 240 255 255 240 255 255 240 255 255 240 
255 255 240 255 255 240 255 255 240 255 255 240 255 255 240 234 234 234 
234 234 234 31 31 191 234 234 234 31 31 191 234 234 234 255 255 240 255 255 240 
255 255 240 255 255 240 255 255 240 255 255 240 255 255 240 255 255 240 
255 255 240 255 255 240 255 255 240 255 255 240 255 255 240 255 255 240 
255 255 240 255 255 240 255 255 240 255 255 240 255 255 240 255 255 240 
255 255 240 255 255 240 255 255 240 255 255 240 255 255 240 234 234 234 
234 234 234 234 234 234 234 234 234 234 234 234 234 234 234 234 234 234 
234 234 234 0 0 0 211 211 211 106 106 106 136 181 255 136 181 255 136 181 255 
136 181 255 181 227 255 181 227 255 151 151 151 151 151 151 151 151 151 
211 211 211 196 196 196 121 121 121 121 121 121 121 121 121 121 121 121 
121 121 121 121 121 121 121 121 121 121 121 121 0 0 0 234 234 234 255 255 240 
255 255 240 255 255 240 255 255 240 234 234 234 234 234 234 234 234 234 
234 234 234 234 234 234 234 234 234 234 234 234 255 255 240 255 255 240 
255 255 240 255 255 240 234 234 234 31 31 191 234 234 234 234 234 234 234 234 234 
255 255 240 255 255 240 255 255 240 255 255 240 255 255 240 255 255 240 
255 255 240 255 255 240 255 255 240 255 255 240 255 255 240 255 255 240 
255 255 240 255 255 240 255 255 240 255 255 240 255 255 240 255 255 240 
255 255 240 255 255 240 255 255 240 255 255 240 255 255 240 234 234 234 
234 234 234 234 234 234 0 0 0 0 0 0 0 0 0 0 0 0 0 0 0 0 0 0 234 234 234 
0 0 0 211 211 211 106 106 106 136 181 255 136 181 255 136 181 255 136 181 255 
136 181 255 136 181 255 181 227 255 181 227 255 151 151 151 211 211 211 
166 166 166 121 121 121 121 121 121 121 121 121 121 121 121 121 121 121 
121 121 121 121 121 121 121 121 121 0 0 0 234 234 234 255 255 240 255 255 240 
234 234 234 234 234 234 234 234 234 20 20 46 20 20 46 20 20 46 20 20 46 
20 20 46 234 234 234 234 234 234 255 255 240 255 255 240 255 255 240 234 234 234 
31 31 191 234 234 234 255 255 240 255 255 240 255 255 240 255 255 240 255 255 240 
255 255 240 255 255 240 255 255 240 255 255 240 255 255 240 255 255 240 
255 255 240 255 255 240 255 255 240 255 255 240 255 255 240 255 255 240 
255 255 240 255 255 240 255 255 240 255 255 240 255 255 240 255 255 240 
234 234 234 234 234 234 234 234 234 0 0 0 0 0 0 7 68 211 7 68 211 7 68 211 
7 68 211 7 68 211 7 68 211 234 234 234 0 0 0 211 211 211 106 106 106 136 181 255 
136 181 255 136 181 255 136 181 255 136 181 255 136 181 255 136 181 255 
103 103 255 151 151 151 211 211 211 166 166 166 121 121 121 121 121 121 
121 121 121 121 121 121 121 121 121 121 121 121 121 121 121 121 121 121 
0 0 0 234 234 234 255 255 240 234 234 234 234 234 234 20 20 46 20 20 46 
223 255 255 223 255 255 63 159 255 223 255 255 223 255 255 20 20 46 234 234 234 
234 234 234 255 255 240 255 255 240 234 234 234 234 234 234 234 234 234 
255 255 240 255 255 240 255 255 240 255 255 240 255 255 240 255 255 240 
255 255 240 255 255 240 255 255 240 255 255 240 255 255 240 255 255 240 
255 255 240 255 255 240 255 255 240 255 255 240 255 255 240 255 255 240 
255 255 240 255 255 240 255 255 240 255 255 240 234 234 234 234 234 234 
0 0 0 0 0 0 7 68 211 7 124 211 7 124 211 7 124 211 7 124 211 7 124 211 
7 68 211 7 68 211 234 234 234 0 0 0 211 211 211 106 106 106 136 181 255 
136 181 255 136 181 255 136 181 255 136 181 255 136 181 255 136 181 255 
136 181 255 151 151 151 211 211 211 166 166 166 121 121 121 121 121 121 
121 121 121 121 121 121 121 121 121 121 121 121 121 121 121 121 121 121 
0 0 0 234 234 234 234 234 234 234 234 234 20 20 46 223 255 255 223 255 255 
223 255 255 223 255 255 223 255 255 223 255 255 223 255 255 223 255 255 
20 20 46 234 234 234 234 234 234 255 255 240 255 255 240 255 255 240 255 255 240 
255 255 240 255 255 240 255 255 240 255 255 240 255 255 240 255 255 240 
255 255 240 255 255 240 255 255 240 255 255 240 255 255 240 255 255 240 
255 255 240 255 255 240 255 255 240 255 255 240 255 255 240 255 255 240 
255 255 240 255 255 240 255 255 240 234 234 234 234 234 234 0 0 0 7 124 211 
7 124 211 7 124 211 7 124 211 210 211 7 219 254 219 7 124 211 7 68 211 
7 124 211 7 68 211 234 234 234 0 0 0 211 211 211 106 106 106 136 181 255 
136 181 255 136 181 255 136 181 255 136 181 255 136 181 255 136 181 255 
103 103 255 151 151 151 211 211 211 166 166 166 121 121 121 121 121 121 
121 121 121 121 121 121 121 121 121 121 121 121 121 121 121 121 121 121 
0 0 0 234 234 234 234 234 234 20 20 46 223 255 255 63 159 255 223 255 255 
223 255 255 63 159 255 63 159 255 223 255 255 223 255 255 223 255 255 223 255 255 
20 20 46 234 234 234 234 234 234 255 255 240 255 255 240 255 255 240 255 255 240 
255 255 240 255 255 240 255 255 240 255 255 240 255 255 240 255 255 240 
255 255 240 255 255 240 255 255 240 255 255 240 255 255 240 255 255 240 
255 255 240 255 255 240 255 255 240 255 255 240 255 255 240 255 255 240 
255 255 240 234 234 234 234 234 234 0 0 0 7 68 211 7 124 211 8 125 246 
7 124 211 210 211 7 8 246 8 8 125 246 219 254 219 8 125 246 7 124 211 7 124 211 
234 234 234 0 0 0 211 211 211 151 151 151 241 241 241 181 181 255 181 181 255 
136 181 255 136 181 255 136 181 255 136 181 255 136 181 255 151 151 151 
211 211 211 166 166 166 121 121 121 121 121 121 121 121 121 121 121 121 
121 121 121 121 121 121 121 121 121 121 121 121 0 0 0 234 234 234 234 234 234 
20 20 46 223 255 255 223 255 255 223 255 255 63 159 255 223 255 255 223 255 255 
63 159 255 223 255 255 223 255 255 223 255 255 223 255 255 20 20 46 234 234 234 
255 255 240 255 255 240 255 255 240 255 255 240 255 255 240 255 255 240 
255 255 240 255 255 240 255 255 240 255 255 240 255 255 240 255 255 240 
255 255 240 255 255 240 255 255 240 255 255 240 255 255 240 255 255 240 
255 255 240 255 255 240 255 255 240 255 255 240 255 255 240 234 234 234 
0 0 0 7 68 211 7 124 211 7 68 211 7 124 211 210 211 7 8 125 246 68 211 7 
68 211 7 6 170 6 68 211 7 7 124 211 219 254 219 234 234 234 0 0 0 211 211 211 
211 211 211 211 211 211 241 241 241 241 241 241 181 181 255 181 181 255 
136 181 255 136 181 255 103 103 255 151 151 151 211 211 211 166 166 166 
121 121 121 121 121 121 121 121 121 121 121 121 121 121 121 121 121 121 
121 121 121 121 121 121 0 0 0 234 234 234 234 234 234 20 20 46 223 255 255 
223 255 255 223 255 255 63 159 255 223 255 255 223 255 255 63 159 255 223 255 255 
223 255 255 223 255 255 223 255 255 20 20 46 234 234 234 234 234 234 255 255 240 
255 255 240 255 255 240 255 255 240 255 255 240 255 255 240 255 255 240 
255 255 240 255 255 240 255 255 240 255 255 240 255 255 240 255 255 240 
255 255 240 255 255 240 255 255 240 255 255 240 255 255 240 255 255 240 
255 255 240 255 255 240 234 234 234 234 234 234 0 0 0 7 124 211 7 68 211 
7 124 211 8 125 246 8 172 246 8 172 246 68 211 7 8 246 8 8 246 8 6 170 6 
8 246 8 8 246 8 234 234 234 0 0 0 211 211 211 211 211 211 211 211 211 211 211 211 
211 211 211 241 241 241 241 241 241 181 181 255 181 181 255 136 181 255 
151 151 151 211 211 211 166 166 166 121 121 121 121 121 121 121 121 121 
121 121 121 121 121 121 121 121 121 121 121 121 121 121 121 0 0 0 234 234 234 
234 234 234 20 20 46 223 255 255 223 255 255 223 255 255 223 255 255 63 159 255 
63 159 255 223 255 255 223 255 255 223 255 255 127 223 255 127 223 255 
223 255 255 20 20 46 234 234 234 255 255 240 255 255 240 255 255 240 255 255 240 
255 255 240 255 255 240 255 255 240 255 255 240 255 255 240 255 255 240 
255 255 240 255 255 240 255 255 240 255 255 240 255 255 240 255 255 240 
255 255 240 255 255 240 255 255 240 255 255 240 255 255 240 234 234 234 
0 0 0 7 68 211 7 68 211 7 124 211 8 125 246 68 211 7 8 125 246 68 211 7 
68 211 7 219 254 219 210 211 7 8 246 8 210 211 7 8 246 8 234 234 234 0 0 0 
211 211 211 0 229 0 211 211 211 211 211 211 211 211 211 211 211 211 211 211 211 
241 241 241 241 241 241 181 181 255 151 151 151 211 211 211 166 166 166 
121 121 121 121 121 121 121 121 121 121 121 121 121 121 121 121 121 121 
121 121 121 121 121 121 0 0 0 234 234 234 234 234 234 20 20 46 127 223 255 
223 255 255 223 255 255 223 255 255 223 255 255 223 255 255 223 255 255 
127 223 255 0 0 0 0 0 0 0 0 0 127 223 255 20 20 46 234 234 234 234 234 234 
255 255 240 255 255 240 255 255 240 255 255 240 255 255 240 255 255 240 
255 255 240 255 255 240 255 255 240 255 255 240 255 255 240 255 255 240 
255 255 240 255 255 240 255 255 240 255 255 240 255 255 240 255 255 240 
255 255 240 234 234 234 234 234 234 0 0 0 7 68 211 7 124 211 7 124 211 
210 211 7 8 246 8 68 211 7 68 211 7 219 254 219 210 211 7 8 246 8 210 211 7 
210 211 7 210 211 7 234 234 234 0 0 0 211 211 211 199 0 65 255 166 33 211 211 211 
211 211 211 211 211 211 211 211 211 211 211 211 211 211 211 241 241 241 
241 241 241 211 211 211 166 166 166 121 121 121 121 121 121 121 121 121 
121 121 121 121 121 121 121 121 121 121 121 121 121 121 121 0 0 0 234 234 234 
234 234 234 20 20 46 63 159 255 223 255 255 223 255 255 223 255 255 223 255 255 
127 223 255 0 0 0 0 0 0 255 237 219 255 237 219 255 159 127 0 0 0 223 255 255 
20 20 46 234 234 234 255 255 240 255 255 240 255 255 240 255 255 240 255 255 240 
255 255 240 255 255 240 255 255 240 255 255 240 255 255 240 255 255 240 
255 255 240 255 255 240 255 255 240 255 255 240 255 255 240 255 255 240 
255 255 240 255 255 240 234 234 234 0 0 0 7 68 211 7 124 211 7 68 211 7 124 211 
210 211 7 210 211 7 8 172 246 210 211 7 8 172 246 8 246 8 210 211 7 210 211 7 
250 215 130 250 215 130 234 234 234 0 0 0 211 211 211 211 211 211 211 211 211 
211 211 211 211 211 211 151 151 151 106 106 106 211 211 211 211 211 211 
211 211 211 211 211 211 211 211 211 166 166 166 121 121 121 121 121 121 
121 121 121 121 121 121 121 121 121 121 121 121 121 121 121 121 121 121 
0 0 0 234 234 234 234 234 234 20 20 46 80 144 224 223 255 255 223 255 255 
127 223 255 0 0 0 0 0 0 255 159 127 255 159 127 255 237 219 255 237 219 
255 159 127 0 0 0 127 223 255 20 20 46 234 234 234 234 234 234 255 255 240 
255 255 240 255 255 240 255 255 240 255 255 240 255 255 240 255 255 240 
255 255 240 255 255 240 255 255 240 255 255 240 255 255 240 255 255 240 
255 255 240 255 255 240 255 255 240 255 255 240 255 255 240 234 234 234 
0 0 0 7 68 211 7 68 211 8 125 246 8 125 246 7 124 211 8 172 246 8 172 246 
8 172 246 8 172 246 8 172 246 8 172 246 250 215 130 250 215 130 250 215 130 
234 234 234 234 234 234 0 0 0 76 76 76 211 211 211 211 211 211 211 211 211 
211 211 211 255 255 255 106 106 106 106 106 106 211 211 211 211 211 211 
211 211 211 166 166 166 121 121 121 121 121 121 121 121 121 121 121 121 
121 121 121 121 121 121 121 121 121 121 121 121 0 0 0 234 234 234 234 234 234 
20 20 46 80 144 224 80 144 224 223 255 255 0 0 0 255 237 219 255 237 219 
255 159 127 255 159 127 255 237 219 255 237 219 255 159 127 255 159 127 
0 0 0 223 255 255 20 20 46 234 234 234 255 255 240 255 255 240 255 255 240 
255 255 240 255 255 240 255 255 240 255 255 240 255 255 240 255 255 240 
255 255 240 255 255 240 255 255 240 255 255 240 255 255 240 255 255 240 
255 255 240 255 255 240 255 255 240 234 234 234 0 0 0 7 68 211 7 68 211 
7 68 211 8 125 246 8 125 246 213 174 71 213 174 71 213 174 71 8 172 246 
213 174 71 213 174 71 6 170 6 248 174 72 248 174 72 248 174 72 234 234 234 
234 234 234 0 0 0 0 0 0 0 0 0 211 211 211 211 211 211 211 211 211 255 255 255 
255 255 255 211 211 211 106 106 106 211 211 211 166 166 166 121 121 121 
121 121 121 121 121 121 121 121 121 121 121 121 121 121 121 121 121 121 
121 121 121 0 0 0 234 234 234 234 234 234 234 234 234 20 20 46 80 144 224 
127 223 255 0 0 0 255 237 219 255 237 219 255 159 127 255 159 127 255 237 219 
255 237 219 255 159 127 255 159 127 0 0 0 127 223 255 20 20 46 234 234 234 
234 234 234 255 255 240 255 255 240 255 255 240 255 255 240 255 255 240 
255 255 240 255 255 240 255 255 240 255 255 240 255 255 240 255 255 240 
255 255 240 255 255 240 255 255 240 255 255 240 255 255 240 255 255 240 
234 234 234 0 0 0 7 68 211 7 68 211 8 125 246 8 125 246 213 174 71 213 174 71 
250 215 130 213 174 71 250 215 130 213 174 71 250 215 130 213 174 71 7 124 211 
7 124 211 7 124 211 7 68 211 234 234 234 0 0 0 121 121 121 33 255 166 0 0 0 
0 0 0 211 211 211 211 211 211 211 211 211 255 255 255 255 255 255 211 211 211 
166 166 166 121 121 121 121 121 121 121 121 121 121 121 121 121 121 121 
121 121 121 121 121 121 121 121 121 0 0 0 234 234 234 255 255 240 234 234 234 
20 20 46 80 144 224 80 144 224 223 255 255 0 0 0 255 237 219 255 159 127 
255 159 127 255 237 219 255 237 219 255 159 127 255 159 127 255 237 219 
0 0 0 223 255 255 20 20 46 234 234 234 255 255 240 255 255 240 255 255 240 
255 255 240 255 255 240 255 255 240 255 255 240 255 255 240 255 255 240 
255 255 240 255 255 240 255 255 240 255 255 240 255 255 240 255 255 240 
255 255 240 255 255 240 234 234 234 0 0 0 7 68 211 7 68 211 7 68 211 7 124 211 
213 174 71 250 215 130 213 174 71 213 174 71 213 174 71 250 215 130 213 174 71 
250 215 130 211 124 7 248 174 72 7 68 211 7 68 211 234 234 234 0 0 0 0 0 0 
0 199 133 106 106 106 76 76 76 0 0 0 0 0 0 211 211 211 211 211 211 211 211 211 
211 211 211 166 166 166 121 121 121 121 121 121 121 121 121 121 121 121 
121 121 121 121 121 121 121 121 121 121 121 121 0 0 0 234 234 234 255 255 240 
234 234 234 234 234 234 20 20 46 80 144 224 127 223 255 0 0 0 255 237 219 
255 159 127 255 159 127 255 237 219 255 237 219 255 159 127 255 159 127 
255 237 219 0 0 0 127 223 255 20 20 46 234 234 234 234 234 234 255 255 240 
255 255 240 255 255 240 255 255 240 255 255 240 255 255 240 255 255 240 
255 255 240 255 255 240 255 255 240 255 255 240 255 255 240 255 255 240 
255 255 240 255 255 240 255 255 240 234 234 234 0 0 0 6 67 170 7 68 211 
8 125 246 7 68 211 68 211 7 68 211 7 68 211 7 210 211 7 68 211 7 210 211 7 
213 174 71 210 211 7 250 215 130 248 174 72 248 174 72 6 67 170 234 234 234 
234 234 234 234 234 234 0 0 0 0 0 0 106 106 106 106 106 106 76 76 76 0 0 0 
0 0 0 211 211 211 211 211 211 0 0 0 76 76 76 121 121 121 121 121 121 121 121 121 
121 121 121 121 121 121 0 0 0 0 0 0 234 234 234 234 234 234 255 255 240 
255 255 240 234 234 234 20 20 46 80 144 224 80 144 224 223 255 255 0 0 0 
255 159 127 255 237 219 255 237 219 255 237 219 255 159 127 255 159 127 
255 237 219 255 237 219 0 0 0 223 255 255 20 20 46 234 234 234 255 255 240 
255 255 240 255 255 240 255 255 240 255 255 240 255 255 240 255 255 240 
255 255 240 255 255 240 255 255 240 255 255 240 255 255 240 255 255 240 
255 255 240 255 255 240 255 255 240 234 234 234 0 0 0 6 67 170 7 68 211 
7 68 211 7 68 211 7 124 211 68 211 7 68 211 7 6 170 6 68 211 7 68 211 7 
68 211 7 213 174 71 213 174 71 211 124 7 7 68 211 7 68 211 6 67 170 7 7 211 
234 234 234 234 234 234 234 234 234 0 0 0 0 0 0 106 106 106 106 106 106 
76 76 76 0 0 0 0 0 0 76 76 76 76 76 76 121 121 121 121 121 121 121 121 121 
0 0 0 0 0 0 234 234 234 234 234 234 234 234 234 255 255 240 255 255 240 
255 255 240 234 234 234 234 234 234 20 20 46 80 144 224 127 223 255 0 0 0 
255 159 127 255 237 219 255 237 219 255 237 219 255 159 127 255 159 127 
255 237 219 255 237 219 0 0 0 127 223 255 20 20 46 234 234 234 234 234 234 
255 255 240 255 255 240 255 255 240 255 255 240 255 255 240 255 255 240 
255 255 240 255 255 240 255 255 240 255 255 240 255 255 240 255 255 240 
255 255 240 255 255 240 255 255 240 234 234 234 234 234 234 0 0 0 7 68 211 
6 67 170 7 124 211 7 68 211 7 68 211 7 68 211 8 125 246 68 211 7 6 170 6 
68 211 7 210 211 7 250 215 130 211 124 7 6 67 170 7 68 211 6 6 170 6 67 170 
6 6 170 4 4 122 234 234 234 234 234 234 234 234 234 0 0 0 0 0 0 106 106 106 
106 106 106 76 76 76 76 76 76 76 76 76 121 121 121 0 0 0 0 0 0 234 234 234 
234 234 234 234 234 234 255 255 240 255 255 240 255 255 240 255 255 240 
255 255 240 255 255 240 234 234 234 20 20 46 80 144 224 80 144 224 223 255 255 
0 0 0 255 237 219 255 237 219 255 237 219 255 237 219 255 159 127 255 237 219 
255 237 219 0 0 0 127 223 255 223 255 255 20 20 46 234 234 234 255 255 240 
255 255 240 255 255 240 255 255 240 255 255 240 255 255 240 255 255 240 
255 255 240 255 255 240 255 255 240 255 255 240 255 255 240 255 255 240 
255 255 240 255 255 240 255 255 240 234 234 234 0 0 0 6 6 170 7 68 211 
7 68 211 7 68 211 7 68 211 7 68 211 7 68 211 7 68 211 68 211 7 6 170 6 
68 211 7 211 124 7 6 67 170 7 68 211 6 67 170 7 7 211 6 6 170 6 67 170 
6 6 170 4 4 122 4 4 122 234 234 234 234 234 234 234 234 234 0 0 0 0 0 0 
106 106 106 76 76 76 0 0 0 0 0 0 234 234 234 234 234 234 234 234 234 255 255 240 
255 255 240 255 255 240 255 255 240 255 255 240 255 255 240 255 255 240 
255 255 240 234 234 234 234 234 234 20 20 46 80 144 224 127 223 255 0 0 0 
255 237 219 255 237 219 255 237 219 255 237 219 255 159 127 0 0 0 0 0 0 
127 223 255 223 255 255 223 255 255 20 20 46 234 234 234 234 234 234 255 255 240 
255 255 240 255 255 240 255 255 240 255 255 240 255 255 240 255 255 240 
255 255 240 255 255 240 255 255 240 255 255 240 255 255 240 255 255 240 
255 255 240 255 255 240 234 234 234 234 234 234 0 0 0 6 6 170 7 68 211 
6 67 170 7 68 211 6 67 170 6 6 170 6 67 170 210 211 7 68 211 7 210 211 7 
211 124 7 211 124 7 6 67 170 6 6 170 6 67 170 6 6 170 4 4 122 6 6 170 4 4 122 
0 0 0 234 234 234 234 234 234 234 234 234 234 234 234 234 234 234 0 0 0 
0 0 0 234 234 234 234 234 234 234 234 234 255 255 240 255 255 240 255 255 240 
255 255 240 255 255 240 255 255 240 255 255 240 255 255 240 255 255 240 
255 255 240 255 255 240 234 234 234 20 20 46 80 144 224 80 144 224 223 255 255 
0 0 0 255 237 219 255 237 219 0 0 0 0 0 0 127 223 255 223 255 255 223 255 255 
223 255 255 223 255 255 20 20 46 20 20 46 234 234 234 234 234 234 255 255 240 
255 255 240 255 255 240 255 255 240 255 255 240 255 255 240 255 255 240 
255 255 240 255 255 240 255 255 240 255 255 240 255 255 240 255 255 240 
255 255 240 255 255 240 234 234 234 0 0 0 6 6 170 6 6 170 7 68 211 6 6 170 
7 68 211 6 67 170 7 68 211 68 211 7 210 211 7 213 174 71 211 124 7 211 124 7 
6 6 170 248 174 72 6 6 170 4 4 122 7 7 211 4 4 122 4 4 122 0 0 0 234 234 234 
255 255 240 255 255 240 255 255 240 234 234 234 234 234 234 234 234 234 
234 234 234 255 255 240 255 255 240 255 255 240 255 255 240 255 255 240 
255 255 240 255 255 240 255 255 240 255 255 240 255 255 240 255 255 240 
255 255 240 255 255 240 234 234 234 234 234 234 20 20 46 80 144 224 127 223 255 
127 223 255 0 0 0 0 0 0 127 223 255 223 255 255 223 255 255 223 255 255 
223 255 255 223 255 255 20 20 46 223 255 255 223 255 255 20 20 46 234 234 234 
255 255 240 255 255 240 255 255 240 255 255 240 255 255 240 255 255 240 
255 255 240 255 255 240 255 255 240 255 255 240 255 255 240 255 255 240 
255 255 240 255 255 240 255 255 240 234 234 234 234 234 234 0 0 0 7 7 211 
6 6 170 6 6 170 7 68 211 6 6 170 6 67 170 7 7 211 250 215 130 211 124 7 
211 124 7 7 7 211 250 215 130 7 7 211 6 67 170 6 6 170 4 4 122 4 4 122 
0 0 0 234 234 234 234 234 234 255 255 240 255 255 240 255 255 240 255 255 240 
255 255 240 255 255 240 255 255 240 255 255 240 255 255 240 255 255 240 
255 255 240 255 255 240 255 255 240 255 255 240 255 255 240 255 255 240 
255 255 240 255 255 240 255 255 240 255 255 240 255 255 240 234 234 234 
20 20 46 80 144 224 80 144 224 223 255 255 223 255 255 223 255 255 223 255 255 
223 255 255 223 255 255 223 255 255 223 255 255 127 223 255 127 223 255 
20 20 46 127 223 255 20 20 46 234 234 234 234 234 234 255 255 240 255 255 240 
255 255 240 255 255 240 255 255 240 255 255 240 255 255 240 255 255 240 
255 255 240 255 255 240 255 255 240 255 255 240 255 255 240 255 255 240 
255 255 240 234 234 234 234 234 234 0 0 0 6 6 170 6 6 170 6 6 170 6 67 170 
6 6 170 6 67 170 213 174 71 211 124 7 6 67 170 6 6 170 6 6 170 6 6 170 
6 6 170 4 4 122 4 4 122 0 0 0 234 234 234 234 234 234 255 255 240 255 255 240 
255 255 240 255 255 240 255 255 240 255 255 240 255 255 240 255 255 240 
255 255 240 255 255 240 255 255 240 255 255 240 255 255 240 255 255 240 
255 255 240 255 255 240 255 255 240 255 255 240 255 255 240 255 255 240 
255 255 240 255 255 240 234 234 234 234 234 234 20 20 46 80 144 224 127 223 255 
223 255 255 223 255 255 223 255 255 223 255 255 223 255 255 127 223 255 
127 223 255 127 223 255 127 223 255 20 20 46 223 255 255 223 255 255 20 20 46 
234 234 234 234 234 234 234 234 234 255 255 240 255 255 240 255 255 240 
255 255 240 255 255 240 255 255 240 255 255 240 255 255 240 255 255 240 
255 255 240 255 255 240 255 255 240 255 255 240 255 255 240 234 234 234 
234 234 234 0 0 0 0 0 0 7 7 211 6 6 170 7 7 211 6 6 170 6 67 170 7 7 211 
6 6 170 6 67 170 6 6 170 4 4 122 4 4 122 0 0 0 0 0 0 234 234 234 234 234 234 
255 255 240 255 255 240 255 255 240 255 255 240 255 255 240 255 255 240 
255 255 240 255 255 240 255 255 240 255 255 240 255 255 240 255 255 240 
255 255 240 255 255 240 255 255 240 255 255 240 255 255 240 255 255 240 
255 255 240 255 255 240 255 255 240 255 255 240 255 255 240 255 255 240 
234 234 234 20 20 46 80 144 224 80 144 224 20 20 46 20 20 46 223 255 255 
127 223 255 127 223 255 127 223 255 127 223 255 80 144 224 80 144 224 223 255 255 
223 255 255 223 255 255 223 255 255 20 20 46 20 20 46 234 234 234 234 234 234 
234 234 234 255 255 240 255 255 240 255 255 240 255 255 240 255 255 240 
255 255 240 255 255 240 255 255 240 255 255 240 255 255 240 255 255 240 
255 255 240 255 255 240 234 234 234 234 234 234 234 234 234 0 0 0 0 0 0 
6 67 170 6 6 170 6 6 170 6 6 170 6 6 170 4 4 122 4 4 122 0 0 0 0 0 0 234 234 234 
234 234 234 234 234 234 255 255 240 255 255 240 255 255 240 255 255 240 
255 255 240 255 255 240 255 255 240 255 255 240 255 255 240 255 255 240 
255 255 240 255 255 240 255 255 240 255 255 240 255 255 240 255 255 240 
255 255 240 255 255 240 255 255 240 255 255 240 255 255 240 255 255 240 
255 255 240 255 255 240 175 175 175 175 175 175 175 175 175 20 20 46 80 144 224 
223 255 255 223 255 255 20 20 46 127 223 255 127 223 255 80 144 224 80 144 224 
223 255 255 223 255 255 223 255 255 80 144 224 80 144 224 223 255 255 223 255 255 
223 255 255 20 20 46 20 20 46 234 234 234 234 234 234 234 234 234 255 255 240 
255 255 240 255 255 240 255 255 240 255 255 240 255 255 240 255 255 240 
255 255 240 255 255 240 255 255 240 255 255 240 255 255 240 255 255 240 
234 234 234 234 234 234 234 234 234 0 0 0 0 0 0 0 0 0 0 0 0 0 0 0 0 0 0 
0 0 0 234 234 234 234 234 234 234 234 234 255 255 240 255 255 240 255 255 240 
255 255 240 255 255 240 255 255 240 255 255 240 255 255 240 255 255 240 
255 255 240 255 255 240 255 255 240 255 255 240 255 255 240 255 255 240 
255 255 240 255 255 240 255 255 240 255 255 240 255 255 240 255 255 240 
255 255 240 255 255 240 255 255 240 175 175 175 175 175 175 175 175 175 
175 175 175 175 175 175 175 175 175 20 20 46 80 144 224 127 223 255 20 20 46 
80 144 224 80 144 224 223 255 255 223 255 255 223 255 255 223 255 255 127 223 255 
127 223 255 127 223 255 80 144 224 223 255 255 223 255 255 223 255 255 
223 255 255 20 20 46 20 20 46 234 234 234 234 234 234 234 234 234 255 255 240 
255 255 240 255 255 240 255 255 240 255 255 240 255 255 240 255 255 240 
255 255 240 255 255 240 255 255 240 255 255 240 255 255 240 255 255 240 
234 234 234 234 234 234 234 234 234 234 234 234 234 234 234 234 234 234 
234 234 234 234 234 234 234 234 234 255 255 240 255 255 240 255 255 240 
255 255 240 255 255 240 255 255 240 255 255 240 255 255 240 255 255 240 
255 255 240 255 255 240 255 255 240 255 255 240 255 255 240 255 255 240 
255 255 240 255 255 240 255 255 240 255 255 240 255 255 240 255 255 240 
255 255 240 255 255 240 255 255 240 175 175 175 175 175 175 175 175 175 
175 175 175 175 175 175 175 175 175 175 175 175 175 175 175 20 20 46 80 144 224 
127 223 255 223 255 255 223 255 255 223 255 255 223 255 255 223 255 255 
80 144 224 127 223 255 127 223 255 127 223 255 80 144 224 80 144 224 223 255 255 
223 255 255 223 255 255 223 255 255 223 255 255 223 255 255 20 20 46 20 20 46 
234 234 234 234 234 234 234 234 234 255 255 240 255 255 240 255 255 240 
255 255 240 255 255 240 255 255 240 255 255 240 255 255 240 255 255 240 
255 255 240 255 255 240 255 255 240 255 255 240 255 255 240 255 255 240 
255 255 240 255 255 240 255 255 240 255 255 240 255 255 240 255 255 240 
255 255 240 255 255 240 255 255 240 255 255 240 255 255 240 255 255 240 
175 175 175 175 175 175 175 175 175 175 175 175 175 175 175 175 175 175 
175 175 175 175 175 175 175 175 175 175 175 175 255 255 240 255 255 240 
255 255 240 255 255 240 255 255 240 255 255 240 255 255 240 175 175 175 
175 175 175 175 175 175 175 175 175 175 175 175 175 175 175 175 175 175 
175 175 175 20 20 46 80 144 224 223 255 255 223 255 255 223 255 255 80 144 224 
80 144 224 223 255 255 80 144 224 80 144 224 80 144 224 80 144 224 223 255 255 
223 255 255 223 255 255 223 255 255 31 31 191 80 144 224 223 255 255 223 255 255 
223 255 255 223 255 255 20 20 46 20 20 46 234 234 234 234 234 234 234 234 234 
255 255 240 255 255 240 255 255 240 255 255 240 255 255 240 255 255 240 
255 255 240 255 255 240 255 255 240 175 175 175 175 175 175 175 175 175 
175 175 175 175 175 175 175 175 175 175 175 175 175 175 175 175 175 175 
255 255 240 255 255 240 255 255 240 255 255 240 175 175 175 175 175 175 
175 175 175 175 175 175 175 175 175 175 175 175 175 175 175 175 175 175 
175 175 175 175 175 175 175 175 175 175 175 175 175 175 175 175 175 175 
175 175 175 175 175 175 255 255 240 255 255 240 255 255 240 255 255 240 
255 255 240 255 255 240 175 175 175 175 175 175 175 175 175 175 175 175 
175 175 175 175 175 175 20 20 46 80 144 224 80 144 224 127 223 255 223 255 255 
223 255 255 223 255 255 223 255 255 223 255 255 223 255 255 223 255 255 
223 255 255 223 255 255 223 255 255 31 31 191 80 144 224 223 255 255 223 255 255 
31 31 191 80 144 224 223 255 255 223 255 255 223 255 255 223 255 255 20 20 46 
20 20 46 234 234 234 234 234 234 234 234 234 255 255 240 255 255 240 255 255 240 
255 255 240 175 175 175 175 175 175 175 175 175 175 175 175 175 175 175 
175 175 175 175 175 175 175 175 175 175 175 175 175 175 175 175 175 175 
175 175 175 175 175 175 175 175 175 175 175 175 175 175 175 175 175 175 
175 175 175 175 175 175 175 175 175 175 175 175 175 175 175 175 175 175 
175 175 175 175 175 175 175 175 175 175 175 175 175 175 175 175 175 175 
175 175 175 175 175 175 175 175 175 175 175 175 255 255 240 255 255 240 
255 255 240 255 255 240 255 255 240 255 255 240 255 255 240 255 255 240 
175 175 175 175 175 175 175 175 175 20 20 46 80 144 224 80 144 224 80 144 224 
80 144 224 127 223 255 223 255 255 223 255 255 223 255 255 223 255 255 
223 255 255 31 31 191 80 144 224 223 255 255 223 255 255 223 255 255 31 31 191 
80 144 224 223 255 255 223 255 255 31 31 191 80 144 224 223 255 255 223 255 255 
223 255 255 223 255 255 20 20 46 20 20 46 234 234 234 234 234 234 255 255 240 
255 255 240 255 255 240 175 175 175 175 175 175 175 175 175 175 175 175 
175 175 175 175 175 175 175 175 175 175 175 175 175 175 175 175 175 175 
175 175 175 175 175 175 175 175 175 175 175 175 175 175 175 175 175 175 
175 175 175 175 175 175 175 175 175 175 175 175 175 175 175 175 175 175 
175 175 175 175 175 175 175 175 175 175 175 175 175 175 175 175 175 175 
175 175 175 175 175 175 175 175 175 175 175 175 175 175 175 255 255 240 
255 255 240 255 255 240 255 255 240 255 255 240 255 255 240 255 255 240 
255 255 240 255 255 240 255 255 240 175 175 175 20 20 46 80 144 224 80 144 224 
80 144 224 80 144 224 80 144 224 80 144 224 127 223 255 223 255 255 223 255 255 
223 255 255 223 255 255 223 255 255 31 31 191 80 144 224 223 255 255 223 255 255 
223 255 255 31 31 191 80 144 224 223 255 255 223 255 255 31 31 191 80 144 224 
223 255 255 223 255 255 223 255 255 127 223 255 20 20 46 234 234 234 234 234 234 
255 255 240 255 255 240 255 255 240 255 255 240 255 255 240 175 175 175 
175 175 175 175 175 175 175 175 175 175 175 175 175 175 175 175 175 175 
175 175 175 175 175 175 255 255 240 255 255 240 255 255 240 255 255 240 
175 175 175 175 175 175 175 175 175 175 175 175 175 175 175 175 175 175 
175 175 175 175 175 175 175 175 175 175 175 175 175 175 175 175 175 175 
175 175 175 175 175 175 175 175 175 175 175 175 255 255 240 255 255 240 
255 255 240 255 255 240 255 255 240 255 255 240 255 255 240 255 255 240 
255 255 240 255 255 240 255 255 240 255 255 240 175 175 175 20 20 46 20 20 46 
80 144 224 80 144 224 80 144 224 80 144 224 80 144 224 80 144 224 127 223 255 
223 255 255 223 255 255 223 255 255 223 255 255 223 255 255 31 31 191 80 144 224 
223 255 255 223 255 255 223 255 255 31 31 191 80 144 224 223 255 255 223 255 255 
223 255 255 223 255 255 223 255 255 223 255 255 127 223 255 20 20 46 234 234 234 
255 255 240 255 255 240 255 255 240 255 255 240 255 255 240 255 255 240 
255 255 240 255 255 240 255 255 240 255 255 240 255 255 240 255 255 240 
255 255 240 255 255 240 255 255 240 255 255 240 255 255 240 255 255 240 
255 255 240 255 255 240 255 255 240 175 175 175 175 175 175 175 175 175 
175 175 175 175 175 175 175 175 175 175 175 175 175 175 175 175 175 175 
175 175 175 255 255 240 255 255 240 255 255 240 255 255 240 255 255 240 
255 255 240 255 255 240 255 255 240 255 255 240 255 255 240 255 255 240 
255 255 240 255 255 240 255 255 240 255 255 240 255 255 240 175 175 175 
175 175 175 20 20 46 20 20 46 80 144 224 80 144 224 80 144 224 80 144 224 
80 144 224 80 144 224 127 223 255 223 255 255 223 255 255 223 255 255 223 255 255 
223 255 255 31 31 191 80 144 224 223 255 255 223 255 255 223 255 255 223 255 255 
80 144 224 80 144 224 223 255 255 223 255 255 127 223 255 80 144 224 20 20 46 
234 234 234 255 255 240 255 255 240 255 255 240 255 255 240 255 255 240 
255 255 240 255 255 240 255 255 240 255 255 240 255 255 240 255 255 240 
255 255 240 255 255 240 255 255 240 255 255 240 255 255 240 255 255 240 
255 255 240 255 255 240 255 255 240 255 255 240 255 255 240 255 255 240 
255 255 240 255 255 240 255 255 240 255 255 240 255 255 240 255 255 240 
255 255 240 255 255 240 255 255 240 255 255 240 255 255 240 255 255 240 
255 255 240 255 255 240 255 255 240 255 255 240 255 255 240 255 255 240 
255 255 240 255 255 240 255 255 240 255 255 240 255 255 240 255 255 240 
255 255 240 255 255 240 175 175 175 175 175 175 20 20 46 20 20 46 80 144 224 
80 144 224 80 144 224 80 144 224 80 144 224 80 144 224 127 223 255 223 255 255 
223 255 255 223 255 255 223 255 255 223 255 255 223 255 255 223 255 255 
223 255 255 80 144 224 223 255 255 223 255 255 127 223 255 80 144 224 80 144 224 
80 144 224 20 20 46 234 234 234 255 255 240 255 255 240 255 255 240 255 255 240 
255 255 240 255 255 240 255 255 240 255 255 240 255 255 240 255 255 240 
255 255 240 255 255 240 255 255 240 255 255 240 255 255 240 255 255 240 
255 255 240 255 255 240 255 255 240 255 255 240 255 255 240 255 255 240 
255 255 240 255 255 240 255 255 240 255 255 240 255 255 240 255 255 240 
255 255 240 255 255 240 255 255 240 255 255 240 255 255 240 255 255 240 
255 255 240 255 255 240 255 255 240 255 255 240 255 255 240 255 255 240 
255 255 240 255 255 240 255 255 240 255 255 240 255 255 240 255 255 240 
255 255 240 255 255 240 255 255 240 255 255 240 255 255 240 175 175 175 
175 175 175 20 20 46 20 20 46 80 144 224 80 144 224 80 144 224 80 144 224 
80 144 224 80 144 224 127 223 255 223 255 255 223 255 255 223 255 255 223 255 255 
223 255 255 223 255 255 223 255 255 127 223 255 80 144 224 80 144 224 80 144 224 
80 144 224 80 144 224 20 20 46 234 234 234 255 255 240 255 255 240 255 255 240 
255 255 240 255 255 240 255 255 240 255 255 240 255 255 240 255 255 240 
255 255 240 255 255 240 255 255 240 255 255 240 255 255 240 255 255 240 
255 255 240 255 255 240 255 255 240 255 255 240 255 255 240 255 255 240 
255 255 240 255 255 240 255 255 240 255 255 240 255 255 240 255 255 240 
255 255 240 255 255 240 255 255 240 255 255 240 255 255 240 255 255 240 
255 255 240 255 255 240 255 255 240 255 255 240 255 255 240 255 255 240 
255 255 240 255 255 240 255 255 240 255 255 240 255 255 240 255 255 240 
255 255 240 255 255 240 255 255 240 255 255 240 255 255 240 255 255 240 
255 255 240 255 255 240 175 175 175 175 175 175 20 20 46 20 20 46 80 144 224 
80 144 224 80 144 224 80 144 224 80 144 224 80 144 224 127 223 255 127 223 255 
127 223 255 127 223 255 127 223 255 80 144 224 80 144 224 80 144 224 80 144 224 
80 144 224 80 144 224 80 144 224 20 20 46 234 234 234 255 255 240 255 255 240 
255 255 240 255 255 240 255 255 240 255 255 240 255 255 240 255 255 240 
255 255 240 255 255 240 255 255 240 255 255 240 255 255 240 255 255 240 
255 255 240 255 255 240 255 255 240 255 255 240 255 255 240 255 255 240 
255 255 240 255 255 240 255 255 240 255 255 240 255 255 240 255 255 240 
255 255 240 255 255 240 255 255 240 255 255 240 255 255 240 255 255 240 
255 255 240 255 255 240 255 255 240 255 255 240 255 255 240 255 255 240 
255 255 240 255 255 240 255 255 240 255 255 240 255 255 240 255 255 240 
255 255 240 255 255 240 255 255 240 255 255 240 255 255 240 255 255 240 
255 255 240 255 255 240 255 255 240 255 255 240 255 255 240 175 175 175 
175 175 175 20 20 46 20 20 46 80 144 224 80 144 224 80 144 224 80 144 224 
80 144 224 80 144 224 80 144 224 80 144 224 80 144 224 80 144 224 80 144 224 
80 144 224 80 144 224 80 144 224 20 20 46 20 20 46 175 175 175 255 255 240 
255 255 240 255 255 240 255 255 240 255 255 240 255 255 240 255 255 240 
255 255 240 255 255 240 255 255 240 255 255 240 255 255 240 255 255 240 
255 255 240 255 255 240 255 255 240 255 255 240 255 255 240 255 255 240 
255 255 240 255 255 240 255 255 240 255 255 240 255 255 240 255 255 240 
255 255 240 255 255 240 255 255 240 255 255 240 255 255 240 255 255 240 
255 255 240 255 255 240 255 255 240 255 255 240 255 255 240 255 255 240 
255 255 240 255 255 240 255 255 240 255 255 240 255 255 240 255 255 240 
255 255 240 255 255 240 255 255 240 255 255 240 255 255 240 255 255 240 
255 255 240 255 255 240 255 255 240 255 255 240 255 255 240 255 255 240 
255 255 240 255 255 240 255 255 240 175 175 175 175 175 175 20 20 46 20 20 46 
80 144 224 80 144 224 80 144 224 80 144 224 80 144 224 80 144 224 80 144 224 
80 144 224 80 144 224 80 144 224 20 20 46 20 20 46 175 175 175 175 175 175 
255 255 240 255 255 240 255 255 240 255 255 240 255 255 240 255 255 240 
255 255 240 255 255 240 255 255 240 255 255 240 255 255 240 255 255 240 
255 255 240 255 255 240 255 255 240 255 255 240 255 255 240 255 255 240 
255 255 240 255 255 240 255 255 240 255 255 240 255 255 240 255 255 240 
255 255 240 255 255 240 255 255 240 255 255 240 255 255 240 255 255 240 
255 255 240 255 255 240 255 255 240 255 255 240 255 255 240 255 255 240 
255 255 240 255 255 240 255 255 240 255 255 240 255 255 240 255 255 240 
255 255 240 255 255 240 255 255 240 255 255 240 255 255 240 255 255 240 
255 255 240 255 255 240 255 255 240 255 255 240 255 255 240 255 255 240 
255 255 240 255 255 240 255 255 240 255 255 240 255 255 240 255 255 240 
255 255 240 175 175 175 175 175 175 20 20 46 20 20 46 80 144 224 80 144 224 
80 144 224 80 144 224 80 144 224 80 144 224 20 20 46 20 20 46 175 175 175 
175 175 175 255 255 240 255 255 240 255 255 240 255 255 240 255 255 240 
255 255 240 255 255 240 255 255 240 255 255 240 255 255 240 255 255 240 
255 255 240 255 255 240 255 255 240 255 255 240 255 255 240 255 255 240 
255 255 240 255 255 240 255 255 240 255 255 240 255 255 240 255 255 240 
255 255 240 255 255 240 255 255 240 255 255 240 255 255 240 255 255 240 
255 255 240 255 255 240 255 255 240 255 255 240 255 255 240 255 255 240 
255 255 240 255 255 240 255 255 240 255 255 240 255 255 240 255 255 240 
255 255 240 255 255 240 255 255 240 255 255 240 255 255 240 255 255 240 
255 255 240 255 255 240 255 255 240 255 255 240 255 255 240 255 255 240 
255 255 240 255 255 240 255 255 240 255 255 240 255 255 240 255 255 240 
255 255 240 255 255 240 255 255 240 255 255 240 255 255 240 255 255 240 
175 175 175 175 175 175 20 20 46 20 20 46 20 20 46 20 20 46 20 20 46 20 20 46 
175 175 175 175 175 175 255 255 240 255 255 240 255 255 240 255 255 240 
255 255 240 255 255 240 255 255 240 255 255 240 255 255 240 255 255 240 
255 255 240 255 255 240 255 255 240 255 255 240 255 255 240 255 255 240 
255 255 240 255 255 240 255 255 240 255 255 240 255 255 240 255 255 240 
255 255 240 255 255 240 255 255 240 255 255 240 255 255 240 255 255 240 
255 255 240 255 255 240 255 255 240 255 255 240 255 255 240 255 255 240 
255 255 240 255 255 240 255 255 240 255 255 240 255 255 240 255 255 240 
255 255 240 255 255 240 255 255 240 255 255 240 255 255 240 255 255 240 
255 255 240 255 255 240 255 255 240 255 255 240 255 255 240 255 255 240 
255 255 240 255 255 240 255 255 240 255 255 240 255 255 240 255 255 240 
255 255 240 255 255 240 255 255 240 255 255 240 255 255 240 255 255 240 
255 255 240 255 255 240 255 255 240 255 255 240 255 255 240 175 175 175 
175 175 175 175 175 175 175 175 175 175 175 175 175 175 175 255 255 240 
255 255 240 255 255 240 255 255 240 255 255 240 255 255 240 255 255 240 
255 255 240 255 255 240 255 255 240 255 255 240 255 255 240 255 255 240 
255 255 240 255 255 240 255 255 240 255 255 240 255 255 240 255 255 240 
255 255 240 255 255 240 255 255 240 255 255 240 255 255 240 255 255 240 
255 255 240 255 255 240 255 255 240 255 255 240 255 255 240 255 255 240 
255 255 240 255 255 240 255 255 240 255 255 240 255 255 240 255 255 240 
255 255 240 255 255 240 255 255 240 255 255 240 255 255 240 255 255 240 
255 255 240 255 255 240 
