P3
# Created by Paint Shop Pro 6
67 35
255
255 255 240 105 105 105 105 105 105 105 105 105 105 105 105 105 105 105 
105 105 105 105 105 105 105 105 105 105 105 105 105 105 105 105 105 105 
105 105 105 105 105 105 105 105 105 105 105 105 105 105 105 105 105 105 
105 105 105 105 105 105 105 105 105 105 105 105 105 105 105 105 105 105 
105 105 105 105 105 105 105 105 105 105 105 105 105 105 105 105 105 105 
105 105 105 105 105 105 105 105 105 105 105 105 105 105 105 105 105 105 
105 105 105 105 105 105 105 105 105 105 105 105 105 105 105 105 105 105 
105 105 105 105 105 105 105 105 105 105 105 105 105 105 105 105 105 105 
105 105 105 105 105 105 105 105 105 105 105 105 105 105 105 105 105 105 
105 105 105 105 105 105 105 105 105 105 105 105 105 105 105 105 105 105 
105 105 105 105 105 105 105 105 105 105 105 105 105 105 105 105 105 105 
255 255 240 105 105 105 220 253 253 215 252 253 215 252 253 215 252 253 
215 252 253 215 252 253 215 252 253 215 252 253 214 252 253 214 252 253 
214 252 253 214 252 253 214 252 253 213 252 253 213 252 253 213 252 253 
213 252 253 213 252 253 212 252 253 212 252 253 212 252 253 211 252 253 
211 252 253 211 252 253 211 252 253 211 252 253 210 252 253 210 252 253 
210 252 253 209 252 253 209 252 252 209 252 252 209 252 252 208 252 252 
208 252 252 208 252 252 207 252 252 206 252 252 205 252 252 205 252 252 
204 252 252 202 252 252 202 251 252 201 251 252 200 251 252 199 251 252 
198 251 252 197 251 252 196 250 251 196 250 251 194 250 251 194 250 251 
193 250 251 192 250 251 191 250 251 190 249 250 189 249 250 188 249 250 
186 248 249 185 248 249 184 248 249 182 248 249 181 248 248 180 248 248 
96 239 241 105 105 105 105 105 105 190 251 252 164 249 250 163 249 250 
164 249 250 163 249 250 163 249 250 162 249 250 162 249 250 161 249 250 
161 249 250 160 249 250 160 249 250 159 249 250 159 248 250 159 248 250 
158 248 250 158 248 250 157 248 250 157 248 250 156 248 250 155 249 250 
155 249 250 154 249 250 153 249 250 153 248 250 152 248 250 152 248 250 
151 248 250 150 248 250 150 248 249 149 248 249 149 248 249 148 248 249 
147 247 249 147 247 249 145 247 249 143 247 249 141 247 249 140 247 249 
138 247 249 135 247 249 134 246 248 131 246 248 129 246 248 127 245 247 
126 245 247 123 245 247 121 244 246 119 244 246 117 244 246 115 244 246 
112 244 246 111 243 245 108 243 245 106 242 244 104 242 244 100 241 243 
98 241 242 95 240 242 92 240 242 89 240 241 86 239 241 83 238 240 80 237 239 
48 201 202 105 105 105 105 105 105 189 251 251 163 249 250 164 249 250 
163 249 250 163 249 250 163 249 250 162 249 250 161 249 250 161 249 250 
160 249 250 160 249 250 160 249 250 159 248 250 159 248 250 158 248 250 
158 248 250 157 248 250 157 248 250 157 248 250 156 249 250 155 249 250 
155 249 250 154 249 250 154 248 250 153 248 250 152 248 250 152 248 250 
151 248 250 151 248 249 150 248 249 149 248 249 148 248 249 147 248 249 
147 247 249 145 247 249 144 247 249 142 247 249 140 247 249 138 247 249 
136 247 249 134 246 248 132 246 248 130 246 248 128 245 247 126 245 247 
124 245 247 122 244 246 119 244 246 117 244 246 116 244 246 113 244 246 
111 243 245 109 243 245 107 242 244 104 242 244 101 241 243 99 241 243 
96 240 242 93 240 242 90 240 242 87 239 241 84 238 240 81 238 239 78 237 238 
48 200 202 105 105 105 105 105 105 189 251 251 164 249 250 163 249 250 
163 249 250 163 249 250 162 249 250 161 249 250 161 249 250 161 249 250 
160 249 250 160 249 250 159 248 250 159 248 250 158 248 250 158 248 250 
158 248 250 157 248 250 157 248 250 156 248 250 155 249 250 155 249 250 
154 249 250 154 248 250 153 248 250 152 248 250 152 248 250 151 248 250 
150 248 250 150 248 249 149 248 249 149 248 249 148 248 249 147 247 249 
146 247 249 145 247 249 143 247 249 140 247 249 139 247 249 137 247 249 
134 247 248 133 246 248 131 246 248 129 246 248 126 245 247 125 245 247 
122 244 246 120 244 246 118 244 246 116 244 246 114 244 246 112 244 246 
110 243 245 108 243 245 105 242 244 102 242 243 100 241 243 97 240 242 
94 240 242 91 240 242 88 239 241 85 239 240 82 238 239 79 237 239 76 236 238 
46 200 201 105 105 105 105 105 105 189 251 251 164 249 250 163 249 250 
163 249 250 162 249 250 162 249 250 161 249 250 161 249 250 160 249 250 
160 249 250 159 249 250 159 248 250 159 248 250 158 248 250 158 248 250 
157 248 250 157 248 250 156 248 250 155 249 250 155 249 250 154 249 250 
153 249 250 153 248 250 152 248 250 152 248 250 151 248 250 150 248 250 
150 248 249 149 248 249 149 248 249 148 248 249 147 247 249 147 247 249 
145 247 249 143 247 249 141 247 249 139 247 249 138 247 249 135 247 248 
133 246 248 131 246 248 129 246 248 127 245 247 125 245 247 123 245 247 
121 244 246 119 244 246 116 244 246 115 244 246 112 244 246 110 243 245 
108 243 245 106 242 244 103 242 244 100 241 243 98 241 242 95 240 242 92 240 242 
89 240 241 86 239 240 83 238 240 80 237 239 76 237 238 73 236 237 44 199 201 
105 105 105 105 105 105 189 251 251 163 249 250 163 249 250 163 249 250 
162 249 250 161 249 250 161 249 250 160 249 250 160 249 250 160 249 250 
159 248 250 159 248 250 158 248 250 158 248 250 157 248 250 157 248 250 
156 248 250 156 249 250 155 249 250 155 249 250 154 249 250 154 248 250 
153 248 250 152 248 250 152 248 250 151 248 250 151 248 249 149 248 249 
149 248 249 148 248 249 147 248 249 147 247 249 145 247 249 144 247 249 
142 247 249 140 247 249 138 247 249 136 247 249 134 246 248 132 246 248 
130 246 248 128 245 247 126 245 247 124 245 247 122 244 246 119 244 246 
117 244 246 116 244 246 113 244 246 111 243 245 109 243 245 107 242 244 
104 242 244 101 241 243 99 241 243 95 240 242 93 240 242 90 240 241 87 239 241 
84 238 240 81 238 239 77 237 238 75 236 237 71 235 237 43 199 201 105 105 105 
105 105 105 189 251 251 163 249 250 163 249 250 162 249 250 161 249 250 
161 249 250 161 249 250 160 249 250 160 249 250 159 248 250 159 248 250 
158 248 250 157 248 250 158 248 250 157 248 250 157 248 250 156 248 250 
155 249 250 155 249 250 154 249 250 154 248 250 153 248 250 152 248 250 
152 248 250 151 248 250 150 248 250 150 248 249 149 248 249 149 248 249 
148 248 249 147 247 249 146 247 249 144 247 249 143 247 249 140 247 249 
139 247 249 137 247 249 134 247 248 132 246 248 131 246 248 129 246 247 
126 245 247 124 245 247 122 244 246 120 244 246 118 244 246 116 244 246 
114 244 246 112 243 246 109 243 245 108 243 245 104 242 244 102 242 243 
100 241 243 96 240 242 94 240 242 91 240 242 88 239 241 85 239 240 81 238 239 
79 237 239 76 236 238 72 236 237 69 235 237 41 199 200 105 105 105 105 105 105 
189 251 251 163 249 250 162 249 250 161 249 250 161 249 250 161 249 250 
160 249 250 160 249 250 159 249 250 159 248 250 159 248 250 158 248 250 
158 248 250 157 248 250 157 248 250 156 248 250 155 249 250 155 249 250 
154 249 250 153 249 250 153 248 250 152 248 250 152 248 250 151 248 250 
150 248 250 150 248 249 149 248 249 149 248 249 148 248 249 147 247 249 
147 247 249 145 247 249 143 247 249 141 247 249 139 247 249 138 247 249 
135 247 248 133 246 248 131 246 248 129 246 248 127 245 247 125 245 247 
123 245 247 121 244 246 119 244 246 116 244 246 115 244 246 112 244 246 
110 243 245 108 243 245 105 242 244 103 242 244 100 241 243 98 240 242 
95 240 242 92 240 242 89 239 241 86 239 240 83 238 240 80 237 239 76 237 238 
73 236 237 70 235 237 67 235 236 41 198 200 105 105 105 105 105 105 189 251 251 
162 249 250 162 249 250 161 249 250 161 249 250 160 249 250 160 249 250 
160 249 250 159 248 250 159 248 250 158 248 250 158 248 250 157 248 250 
157 248 250 156 248 250 155 249 250 155 249 250 155 249 250 154 249 250 
154 248 250 153 248 250 152 248 250 152 248 250 151 248 250 150 248 249 
149 248 249 149 248 249 148 248 249 147 248 249 147 247 249 145 247 249 
143 247 249 142 247 249 140 247 249 138 247 249 136 247 249 134 246 248 
131 246 248 130 246 248 128 245 247 126 245 247 123 245 247 122 244 246 
119 244 246 117 244 246 115 244 246 113 244 246 111 243 245 108 243 245 
106 242 244 104 242 244 101 241 243 99 241 243 95 240 242 93 240 242 90 240 241 
86 239 241 84 238 240 81 238 239 77 237 238 74 236 237 71 235 237 68 235 237 
64 235 236 39 198 199 105 105 105 105 105 105 189 251 251 162 249 250 161 249 250 
161 249 250 161 249 250 160 249 250 160 249 250 159 248 250 159 248 250 
158 248 250 157 248 250 158 248 250 157 248 250 157 248 250 156 248 250 
155 249 250 155 249 250 154 249 250 154 248 250 153 248 250 152 248 250 
152 248 250 151 248 250 150 248 250 150 248 249 149 248 249 149 248 249 
148 248 249 147 247 249 146 247 249 144 247 249 143 247 249 140 247 249 
138 247 249 137 247 249 134 247 248 132 246 248 131 246 248 129 246 247 
126 245 247 124 245 247 122 244 246 120 244 246 118 244 246 116 244 246 
114 244 246 112 243 245 109 243 245 107 243 245 104 242 244 102 241 243 
100 241 243 96 240 242 94 240 242 91 240 242 88 239 241 85 239 240 81 238 239 
78 237 239 76 236 238 72 235 237 69 235 237 65 235 236 62 234 235 37 197 199 
105 105 105 105 105 105 188 251 251 161 249 250 161 249 250 161 249 250 
160 249 250 160 249 250 159 249 250 159 248 250 159 248 250 158 248 250 
158 248 250 157 248 250 157 248 250 156 248 250 155 249 250 155 249 250 
154 249 250 153 249 250 153 248 250 152 248 250 152 248 250 151 248 250 
150 248 250 150 248 249 149 248 249 149 248 249 148 248 249 147 247 249 
147 247 249 145 247 249 143 247 249 141 247 249 139 247 249 138 247 249 
135 247 248 133 246 248 131 246 248 129 246 248 127 245 247 125 245 247 
122 245 247 121 244 246 119 244 246 116 244 246 114 244 246 112 244 246 
110 243 245 108 243 245 105 242 244 103 242 244 100 241 243 97 240 242 
95 240 242 91 240 242 89 239 241 86 239 240 82 238 240 80 237 239 76 236 238 
73 236 237 70 235 237 66 235 236 64 234 236 60 234 235 37 197 199 105 105 105 
105 105 105 188 251 251 161 249 250 161 249 250 160 249 250 160 249 250 
160 249 250 159 248 250 159 248 250 158 248 250 158 248 250 157 248 250 
157 248 250 156 248 250 155 249 250 155 249 250 154 249 250 153 249 250 
153 248 250 153 248 250 152 248 250 151 248 250 150 248 250 150 248 249 
149 248 249 149 248 249 148 248 249 147 248 249 147 247 249 145 247 249 
143 247 249 142 247 249 140 247 249 137 247 249 136 247 249 134 246 248 
131 246 248 129 246 248 128 245 247 126 245 247 123 245 247 121 244 246 
119 244 246 117 244 246 115 244 246 113 244 246 111 243 245 108 243 245 
106 242 244 104 242 244 101 241 243 98 241 243 95 240 242 92 240 242 90 240 241 
86 239 241 84 238 240 81 237 239 77 237 238 74 236 237 70 235 237 68 235 237 
64 235 236 61 234 235 58 233 234 36 197 199 105 105 105 105 105 105 187 251 251 
161 249 250 161 249 250 160 249 250 160 249 250 159 248 250 159 248 250 
158 248 250 157 248 250 157 248 250 157 248 250 157 248 250 156 248 250 
155 249 250 155 249 250 154 249 250 154 248 250 153 248 250 152 248 250 
152 248 250 151 248 250 150 248 250 150 248 249 149 248 249 149 248 249 
148 248 249 147 247 249 146 247 249 144 247 249 143 247 249 140 247 249 
138 247 249 137 247 249 134 246 248 132 246 248 130 246 248 129 246 247 
126 245 247 124 245 247 122 244 246 120 244 246 118 244 246 116 244 246 
113 244 246 112 243 245 109 243 245 107 243 245 104 242 244 102 241 243 
100 241 243 96 240 242 94 240 242 91 240 242 87 239 241 85 238 240 81 238 239 
78 237 238 75 236 238 72 235 237 69 235 237 65 235 236 62 234 235 58 233 234 
57 233 234 34 196 198 105 105 105 105 105 105 187 251 251 161 249 250 160 249 250 
160 249 250 159 249 250 159 248 250 159 248 250 158 248 250 158 248 250 
157 248 250 157 248 250 156 248 250 155 249 250 155 249 250 154 249 250 
153 249 250 153 248 250 152 248 250 152 248 250 151 248 250 150 248 250 
150 248 249 149 248 249 149 248 249 148 248 249 147 247 249 146 247 249 
145 247 249 143 247 249 141 247 249 139 247 249 137 247 249 135 247 248 
133 246 248 131 246 248 129 246 248 127 245 247 125 245 247 122 245 247 
120 244 246 119 244 246 116 244 246 114 244 246 112 244 246 110 243 245 
108 243 245 105 242 244 103 242 244 100 241 243 97 240 242 95 240 242 91 240 242 
89 239 241 86 239 240 82 238 240 79 237 239 76 236 238 73 236 237 70 235 237 
66 235 236 63 234 235 60 234 235 58 233 234 55 232 233 33 196 198 105 105 105 
105 105 105 187 251 251 160 249 250 160 249 250 160 249 250 159 248 250 
159 248 250 158 248 250 158 248 250 157 248 250 157 248 250 156 248 250 
155 249 250 155 249 250 154 249 250 153 249 250 153 248 250 152 248 250 
152 248 250 151 248 250 150 248 250 150 248 249 149 248 249 149 248 249 
148 248 249 147 248 249 147 247 249 145 247 249 143 247 249 142 247 249 
140 247 249 137 247 249 135 247 249 134 246 248 131 246 248 129 246 248 
128 245 247 126 245 247 123 245 247 121 244 246 119 244 246 117 244 246 
115 244 246 112 244 246 111 243 245 108 243 245 106 242 244 104 242 244 
101 241 243 98 241 242 95 240 242 92 240 242 90 240 241 86 239 241 83 238 240 
81 237 239 77 237 238 74 236 237 70 235 237 67 235 237 64 235 236 61 234 235 
58 233 234 56 233 234 53 232 233 32 196 197 105 105 105 105 105 105 186 251 251 
160 249 250 160 249 250 159 248 250 159 248 250 158 248 250 157 248 250 
157 248 250 157 248 250 157 248 250 156 249 250 155 249 250 155 249 250 
154 249 250 154 248 250 153 248 250 152 248 250 152 248 250 151 248 250 
150 248 249 150 248 249 149 248 249 149 248 249 147 248 249 147 247 249 
146 247 249 144 247 249 142 247 249 140 247 249 138 247 249 136 247 249 
134 246 248 132 246 248 130 246 248 128 245 247 126 245 247 124 245 247 
122 244 246 119 244 246 118 244 246 116 244 246 113 244 246 112 243 245 
109 243 245 107 243 244 104 242 244 102 241 243 99 241 243 96 240 242 93 240 242 
91 240 242 87 239 241 84 238 240 81 238 239 78 237 238 75 236 238 71 235 237 
68 235 237 65 235 236 62 234 235 58 233 234 57 233 234 54 232 233 52 232 233 
32 195 197 105 105 105 105 105 105 186 251 251 160 249 250 159 248 250 
159 248 250 159 248 250 158 248 250 158 248 250 157 248 250 157 248 250 
156 248 250 155 249 250 155 249 250 154 249 250 154 249 250 153 248 250 
152 248 250 152 248 250 151 248 250 150 248 250 150 248 249 149 248 249 
149 248 249 148 248 249 147 247 249 146 247 249 145 247 249 143 247 249 
141 247 249 139 247 249 137 247 249 135 247 248 133 246 248 131 246 248 
129 246 248 127 245 247 125 245 247 122 245 247 120 244 246 119 244 246 
116 244 246 114 244 246 112 244 246 110 243 245 108 243 245 105 242 244 
103 242 244 100 241 243 97 240 242 95 240 242 91 240 242 88 239 241 86 239 240 
82 238 239 79 237 239 76 236 238 73 236 237 70 235 237 66 235 236 63 234 235 
59 234 235 58 233 234 55 232 233 52 232 233 50 231 232 30 195 197 105 105 105 
105 105 105 186 251 251 160 249 250 159 248 250 159 248 250 158 248 250 
158 248 250 157 248 250 157 248 250 156 248 250 155 249 250 155 249 250 
154 249 250 153 249 250 153 248 250 152 248 250 152 248 250 151 248 250 
150 248 250 150 248 249 149 248 249 149 248 249 148 248 249 147 247 249 
147 247 249 145 247 249 143 247 249 141 247 249 140 247 249 138 247 249 
135 247 249 134 246 248 131 246 248 129 246 248 127 245 247 126 245 247 
123 245 247 121 244 246 119 244 246 117 244 246 115 244 246 112 244 246 
111 243 245 108 243 245 106 242 244 104 242 244 100 241 243 98 241 242 
95 240 242 92 240 242 89 240 241 86 239 241 83 238 240 80 237 239 77 237 238 
74 236 237 70 235 237 67 235 237 64 235 236 61 234 235 58 233 234 56 233 234 
53 232 233 51 232 232 49 231 232 30 195 196 105 105 105 105 105 105 186 251 251 
159 248 250 159 248 250 158 248 250 157 248 250 157 248 250 157 248 250 
157 248 250 156 249 250 155 249 250 155 249 250 154 249 250 154 248 250 
153 248 250 152 248 250 152 248 250 151 248 250 151 248 249 150 248 249 
149 248 249 148 248 249 147 248 249 147 247 249 145 247 249 144 247 249 
142 247 249 140 247 249 138 247 249 136 247 249 135 246 248 132 246 248 
130 246 248 128 245 247 126 245 247 124 245 247 122 244 246 119 244 246 
118 244 246 116 244 246 113 244 246 111 243 245 109 243 245 107 242 244 
104 242 244 102 241 243 99 241 243 96 240 242 93 240 242 91 240 242 87 239 241 
84 238 240 81 238 239 78 237 238 75 236 238 71 235 237 68 235 237 64 235 236 
62 234 235 58 233 234 57 233 234 54 232 233 51 232 233 50 231 232 47 231 231 
29 195 196 105 105 105 105 105 105 186 250 251 159 248 250 158 248 250 
158 248 250 158 248 250 157 248 250 157 248 250 156 248 250 155 249 250 
155 249 250 154 249 250 154 249 250 153 248 250 152 248 250 152 248 250 
151 248 250 150 248 250 150 248 249 149 248 249 149 248 249 148 248 249 
147 247 249 146 247 249 145 247 249 143 247 249 140 247 249 139 247 249 
137 247 249 134 247 248 133 246 248 131 246 248 129 246 248 126 245 247 
125 245 247 122 245 247 120 244 246 118 244 246 116 244 246 114 244 246 
112 244 246 110 243 245 108 243 245 105 242 244 102 242 243 100 241 243 
97 240 242 94 240 242 91 240 242 88 239 241 85 239 240 82 238 239 79 237 239 
76 236 238 72 236 237 70 235 237 66 235 236 63 234 235 59 233 235 57 233 234 
55 232 233 52 232 233 50 231 232 48 231 232 46 230 231 27 195 195 105 105 105 
105 105 105 186 250 251 159 248 250 158 248 250 158 248 250 157 248 250 
157 248 250 156 248 250 155 249 250 155 249 250 154 249 250 153 249 250 
153 248 250 152 248 250 152 248 250 151 248 250 150 248 250 150 248 249 
149 248 249 149 248 249 148 248 249 147 247 249 147 247 249 145 247 249 
143 247 249 141 247 249 140 247 249 138 247 249 135 247 249 133 246 248 
131 246 248 129 246 248 127 245 247 126 245 247 123 245 247 121 244 246 
119 244 246 117 244 246 115 244 246 112 244 246 110 243 245 108 243 245 
106 242 244 104 242 244 100 241 243 98 241 242 95 240 242 92 240 242 89 240 241 
86 239 240 83 238 240 80 237 239 76 237 238 74 236 237 70 235 237 67 235 237 
64 234 236 60 234 235 58 233 234 56 233 234 53 232 233 51 231 232 49 231 232 
47 230 231 44 230 231 27 194 195 105 105 105 105 105 105 186 250 251 158 248 250 
158 248 250 157 248 250 157 248 250 156 248 250 156 249 250 155 249 250 
155 249 250 154 249 250 154 248 250 153 248 250 152 248 250 152 248 250 
151 248 250 151 248 249 150 248 249 149 248 249 148 248 249 147 248 249 
147 247 249 145 247 249 144 247 249 142 247 249 140 247 249 138 247 249 
136 247 249 134 246 248 132 246 248 130 246 248 128 245 247 126 245 247 
124 245 247 122 244 246 119 244 246 117 244 246 116 244 246 113 244 246 
111 243 245 109 243 245 107 242 244 104 242 244 101 241 243 99 241 243 
96 240 242 93 240 242 90 240 241 87 239 241 84 238 240 81 238 239 78 237 238 
75 236 237 71 235 237 68 235 237 64 235 236 61 234 235 58 233 234 56 233 234 
54 232 233 51 232 233 50 231 232 47 231 231 45 230 231 42 230 230 25 194 195 
105 105 105 105 105 105 185 250 251 158 248 250 158 248 250 157 248 250 
157 248 250 156 248 250 155 249 250 155 249 250 154 249 250 154 248 250 
153 248 250 152 248 250 152 248 250 151 248 250 150 248 250 150 248 249 
149 248 249 149 248 249 148 248 249 147 247 249 146 247 249 144 247 249 
143 247 249 140 247 249 139 247 249 137 247 249 134 247 248 132 246 248 
131 246 248 129 246 247 126 245 247 125 245 247 122 244 246 120 244 246 
118 244 246 116 244 246 114 244 246 112 244 246 109 243 245 108 243 245 
105 242 244 102 242 243 100 241 243 97 240 242 94 240 242 91 240 242 88 239 241 
85 239 240 81 238 239 79 237 239 76 236 238 72 236 237 69 235 237 65 235 236 
63 234 235 59 233 235 57 233 234 55 232 233 52 232 233 50 231 232 48 231 232 
46 230 231 43 230 230 42 229 230 25 194 195 105 105 105 105 105 105 185 250 251 
158 248 250 157 248 250 157 248 250 156 248 250 155 249 250 155 249 250 
154 249 250 153 249 250 153 248 250 152 248 250 152 248 250 151 248 250 
150 248 250 150 248 249 149 248 249 149 248 249 148 248 249 147 247 249 
147 247 249 145 247 249 143 247 249 141 247 249 139 247 249 138 247 249 
135 247 248 133 246 248 131 246 248 129 246 248 127 245 247 125 245 247 
123 245 247 121 244 246 119 244 246 116 244 246 115 244 246 112 244 246 
110 243 245 108 243 245 105 242 244 103 242 244 100 241 243 98 241 242 
95 240 242 92 240 242 89 240 241 86 239 240 83 238 240 80 237 239 76 237 238 
73 236 237 70 235 237 67 235 236 64 234 236 60 234 235 58 233 234 55 233 233 
53 232 233 50 231 232 49 231 232 46 230 231 44 230 231 42 229 230 40 229 230 
24 193 195 105 105 105 105 105 105 185 250 251 157 248 250 157 248 250 
156 248 250 155 249 250 155 249 250 155 249 250 154 249 250 154 248 250 
153 248 250 152 248 250 152 248 250 151 248 250 151 248 249 149 248 249 
149 248 249 148 248 249 147 248 249 147 247 249 145 247 249 143 247 249 
142 247 249 140 247 249 138 247 249 136 247 249 134 246 248 131 246 248 
130 246 248 128 245 247 126 245 247 123 245 247 122 244 246 119 244 246 
117 244 246 116 244 246 113 244 246 111 243 245 108 243 245 106 242 244 
104 242 244 101 241 243 99 241 243 95 240 242 93 240 242 90 240 241 87 239 241 
84 238 240 81 238 239 77 237 238 74 236 237 71 235 237 68 235 237 64 235 236 
61 234 235 58 233 234 56 233 234 54 232 233 51 232 232 50 231 232 47 231 231 
45 230 231 42 230 230 40 229 230 39 229 230 23 193 195 105 105 105 105 105 105 
185 250 251 157 248 250 157 248 250 156 248 250 155 249 250 155 249 250 
154 249 250 154 248 250 153 248 250 152 248 250 152 248 250 151 248 250 
150 248 250 150 248 249 149 248 249 149 248 249 148 248 249 147 247 249 
146 247 249 144 247 249 143 247 249 140 247 249 138 247 249 137 247 249 
134 247 248 132 246 248 131 246 248 129 246 247 126 245 247 124 245 247 
122 244 246 120 244 246 118 244 246 116 244 246 114 244 246 112 243 245 
109 243 245 107 243 245 104 242 244 102 241 243 100 241 243 96 240 242 
94 240 242 91 240 242 88 239 241 85 239 240 81 238 239 78 237 239 76 236 238 
72 236 237 69 235 237 65 235 236 62 234 235 59 233 234 57 233 234 54 232 233 
52 232 233 50 231 232 48 231 232 45 230 231 43 230 230 42 229 230 39 229 230 
37 228 230 22 193 194 105 105 105 105 105 105 184 250 251 157 248 250 156 248 250 
155 249 250 155 249 250 154 249 250 153 249 250 153 248 250 152 248 250 
152 248 250 151 248 250 150 248 250 150 248 249 149 248 249 149 248 249 
148 248 249 147 247 249 147 247 249 145 247 249 143 247 249 141 247 249 
139 247 249 138 247 249 135 247 248 133 246 248 131 246 248 129 246 248 
127 245 247 125 245 247 122 245 247 121 244 246 119 244 246 116 244 246 
115 244 246 112 244 246 110 243 245 108 243 245 105 242 244 103 242 244 
100 241 243 98 240 242 95 240 242 91 240 242 89 239 241 86 239 240 82 238 240 
80 237 239 76 237 238 73 236 237 70 235 237 66 235 236 64 234 236 60 234 235 
58 233 234 55 232 233 53 232 233 50 231 232 49 231 232 46 230 231 44 230 231 
42 229 230 40 229 230 38 228 230 35 228 229 21 192 194 105 105 105 105 105 105 
184 250 251 156 248 250 155 249 250 155 249 250 155 249 250 154 249 250 
154 248 250 153 248 250 152 248 250 152 248 250 150 248 250 150 248 249 
149 248 249 149 248 249 148 248 249 147 248 249 147 247 249 145 247 249 
143 247 249 142 247 249 140 247 249 137 247 249 136 247 249 134 246 248 
131 246 248 130 246 248 128 245 247 126 245 247 123 245 247 122 244 246 
119 244 246 117 244 246 115 244 246 113 244 246 111 243 245 108 243 245 
106 242 244 104 242 244 101 241 243 99 241 243 95 240 242 93 240 242 90 240 241 
86 239 241 84 238 240 81 237 239 77 237 238 74 236 237 70 235 237 68 235 237 
64 235 236 61 234 235 58 233 234 56 233 234 54 232 233 51 232 232 49 231 232 
47 231 231 45 230 231 42 230 230 40 229 230 38 229 230 36 228 230 34 228 229 
20 192 194 105 105 105 105 105 105 184 250 251 156 248 250 155 249 250 
155 249 250 154 249 250 154 248 250 153 248 250 152 248 250 152 248 250 
151 248 250 150 248 250 150 248 249 149 248 249 149 248 249 148 248 249 
147 247 249 146 247 249 144 247 249 143 247 249 140 247 249 138 247 249 
137 247 249 134 247 248 132 246 248 130 246 248 129 246 247 126 245 247 
124 245 247 122 244 246 120 244 246 118 244 246 116 244 246 114 244 246 
112 243 245 109 243 245 107 243 245 104 242 244 102 241 243 100 241 243 
96 240 242 94 240 242 91 240 242 88 239 241 85 238 240 81 238 239 78 237 238 
75 236 238 72 235 237 69 235 237 65 235 236 62 234 235 58 233 234 57 233 234 
54 232 233 52 232 233 50 231 232 48 231 231 45 230 231 43 230 230 42 229 230 
39 229 230 37 228 230 35 228 229 33 227 229 19 192 193 105 105 105 105 105 105 
184 250 251 155 249 250 155 249 250 154 249 250 153 249 250 153 248 250 
152 248 250 152 248 250 151 248 250 150 248 250 150 248 249 149 248 249 
149 248 249 148 248 249 147 247 249 147 247 249 145 247 249 143 247 249 
141 247 249 139 247 249 137 247 249 135 247 248 133 246 248 131 246 248 
129 246 248 127 245 247 125 245 247 122 245 247 121 244 246 119 244 246 
116 244 246 114 244 246 112 244 246 110 243 245 108 243 245 105 242 244 
103 242 244 100 241 243 97 240 242 95 240 242 91 240 242 89 239 241 86 239 240 
82 238 240 80 237 239 76 236 238 73 236 237 70 235 237 66 235 236 63 234 236 
60 234 235 58 233 234 55 232 233 53 232 233 50 231 232 49 231 232 46 230 231 
44 230 231 42 229 230 40 229 230 38 228 230 35 228 229 33 227 229 32 227 228 
18 192 193 105 105 105 105 105 105 183 251 251 155 249 250 154 249 250 
153 249 250 153 248 250 152 248 250 152 248 250 151 248 250 150 248 250 
150 248 249 149 248 249 149 248 249 148 248 249 147 248 249 147 247 249 
145 247 249 143 247 249 142 247 249 140 247 249 137 247 249 136 247 249 
134 246 248 131 246 248 129 246 248 128 245 247 126 245 247 123 245 247 
121 244 246 119 244 246 117 244 246 115 244 246 113 244 246 111 243 245 
108 243 245 106 242 244 104 242 244 101 241 243 98 241 243 95 240 242 92 240 242 
90 240 241 86 239 241 83 238 240 81 237 239 77 237 238 74 236 237 70 235 237 
67 235 237 64 235 236 61 234 235 58 233 234 56 233 234 53 232 233 51 232 232 
49 231 232 47 231 231 44 230 231 42 229 230 40 229 230 38 228 230 36 228 230 
34 228 229 32 227 229 30 227 228 17 192 193 105 105 105 105 105 105 183 251 251 
155 249 250 154 249 250 154 248 250 153 248 250 152 248 250 152 248 250 
151 248 250 150 248 250 150 248 249 149 248 249 149 248 249 148 248 249 
147 247 249 146 247 249 144 247 249 142 247 249 140 247 249 138 247 249 
136 247 249 134 246 248 132 246 248 130 246 248 129 245 247 126 245 247 
124 245 247 122 244 246 120 244 246 118 244 246 116 244 246 113 244 246 
112 243 245 109 243 245 107 243 244 104 242 244 102 241 243 99 241 243 
96 240 242 94 240 242 91 240 242 87 239 241 85 238 240 81 238 239 78 237 238 
75 236 238 71 235 237 69 235 237 65 235 236 62 234 235 58 233 234 57 233 234 
54 232 233 52 232 233 50 231 232 48 231 231 45 230 231 43 230 230 40 229 230 
39 229 230 37 228 230 35 228 229 32 227 229 30 227 228 27 227 228 15 192 193 
105 105 105 105 105 105 122 226 228 65 188 190 64 188 190 64 187 190 64 187 190 
64 187 190 63 187 190 63 187 190 63 187 189 63 187 189 63 187 189 62 187 189 
62 186 189 61 186 189 61 186 189 60 186 189 59 186 189 58 186 189 57 186 189 
57 186 188 56 186 188 55 186 188 54 186 188 53 185 187 52 185 187 51 185 187 
50 184 187 50 184 187 49 184 187 48 184 187 47 184 187 46 183 186 45 183 186 
44 183 185 43 183 185 42 182 184 41 181 183 40 181 183 38 181 183 37 180 183 
36 180 182 34 179 182 33 179 182 32 178 181 31 178 180 29 177 180 28 177 179 
26 177 178 25 177 178 24 176 178 23 175 177 22 175 177 21 174 176 20 174 176 
19 174 175 18 174 174 18 173 174 17 173 174 16 172 174 15 172 174 14 171 174 
13 171 173 12 171 173 11 171 172 9 168 170 105 105 105 255 255 240 105 105 105 
105 105 105 105 105 105 105 105 105 105 105 105 105 105 105 105 105 105 
105 105 105 105 105 105 105 105 105 105 105 105 105 105 105 105 105 105 
105 105 105 105 105 105 105 105 105 105 105 105 105 105 105 105 105 105 
105 105 105 105 105 105 105 105 105 105 105 105 105 105 105 105 105 105 
105 105 105 105 105 105 105 105 105 105 105 105 105 105 105 105 105 105 
105 105 105 105 105 105 105 105 105 105 105 105 105 105 105 105 105 105 
105 105 105 105 105 105 105 105 105 105 105 105 105 105 105 105 105 105 
105 105 105 105 105 105 105 105 105 105 105 105 105 105 105 105 105 105 
105 105 105 105 105 105 105 105 105 105 105 105 105 105 105 105 105 105 
105 105 105 105 105 105 105 105 105 105 105 105 105 105 105 105 105 105 
105 105 105 105 105 105 105 105 105 105 105 105 255 255 240 
