P3
# Created by Paint Shop Pro 6
47 58
255
255 255 247 255 255 247 255 255 247 255 255 247 255 255 247 255 255 247 
255 255 247 255 255 247 255 255 247 255 255 247 255 255 247 255 255 247 
255 255 247 255 255 247 255 255 247 255 255 247 255 255 247 255 255 247 
255 255 247 255 255 247 255 255 247 255 255 247 255 255 247 255 255 247 
255 255 247 255 255 247 255 255 247 255 255 247 255 255 247 255 255 247 
255 255 247 231 231 231 231 231 231 231 231 231 231 231 231 231 231 231 
231 231 231 231 231 231 231 231 231 231 231 231 255 255 247 255 255 247 
255 255 247 255 255 247 255 255 247 255 255 247 255 255 247 255 255 247 
255 255 247 255 255 247 255 255 247 255 255 247 255 255 247 255 255 247 
255 255 247 255 255 247 255 255 247 255 255 247 255 255 247 255 255 247 
255 255 247 255 255 247 255 255 247 255 255 247 255 255 247 255 255 247 
255 255 247 255 255 247 255 255 247 255 255 247 255 255 247 255 255 247 
255 255 247 255 255 247 255 255 247 231 231 231 231 231 231 239 239 239 
231 231 231 0 0 0 0 0 0 0 0 0 0 0 0 0 0 0 0 0 0 0 0 0 239 239 239 231 231 231 
231 231 231 231 231 231 255 255 247 255 255 247 255 255 247 255 255 247 
255 255 247 255 255 247 255 255 247 255 255 247 255 255 247 255 255 247 
255 255 247 255 255 247 255 255 247 255 255 247 255 255 247 255 255 247 
255 255 247 255 255 247 255 255 247 255 255 247 255 255 247 255 255 247 
255 255 247 255 255 247 255 255 247 255 255 247 255 255 247 255 255 247 
255 255 247 255 255 247 231 231 231 239 239 239 231 231 231 0 0 0 0 0 0 
0 0 0 255 255 255 255 255 255 255 255 255 255 255 255 255 255 255 255 255 255 
255 255 255 0 0 0 0 0 0 0 0 0 239 239 239 231 231 231 231 231 231 255 255 247 
255 255 247 255 255 247 255 255 247 255 255 247 255 255 247 255 255 247 
255 255 247 255 255 247 255 255 247 255 255 247 255 255 247 255 255 247 
255 255 247 255 255 247 255 255 247 255 255 247 255 255 247 255 255 247 
255 255 247 255 255 247 255 255 247 255 255 247 255 255 247 255 255 247 
255 255 247 255 255 247 231 231 231 231 231 231 0 0 0 0 0 0 255 255 255 
255 255 255 255 255 255 255 255 255 255 255 255 255 255 255 255 255 255 
255 255 255 255 255 255 255 255 255 255 255 255 255 255 255 255 255 255 
0 0 0 0 0 0 231 231 231 231 231 231 255 255 247 255 255 247 255 255 247 
255 255 247 255 255 247 255 255 247 255 255 247 255 255 247 255 255 247 
255 255 247 255 255 247 255 255 247 255 255 247 255 255 247 255 255 247 
255 255 247 255 255 247 255 255 247 255 255 247 255 255 247 255 255 247 
255 255 247 255 255 247 255 255 247 255 255 247 255 255 247 231 231 231 
0 0 0 255 255 255 255 255 255 255 255 255 255 255 255 255 255 255 255 255 255 
33 123 255 33 123 255 33 123 255 33 123 255 255 255 255 255 255 255 255 255 255 
255 255 255 255 255 255 255 255 255 255 255 255 0 0 0 239 239 239 255 255 247 
255 255 247 255 255 247 255 255 247 255 255 247 255 255 247 255 255 247 
255 255 247 255 255 247 255 255 247 255 255 247 255 255 247 255 255 247 
255 255 247 255 255 247 255 255 247 255 255 247 255 255 247 255 255 247 
255 255 247 255 255 247 255 255 247 255 255 247 255 255 247 255 255 247 
231 231 231 231 231 231 0 0 0 255 255 255 255 255 255 255 255 255 255 255 255 
255 255 255 33 123 255 33 123 255 33 123 255 33 123 255 33 123 255 33 123 255 
255 255 255 255 255 255 255 255 255 255 255 255 255 255 255 255 255 255 
0 0 0 231 231 231 231 231 231 255 255 247 255 255 247 255 255 247 255 255 247 
255 255 247 255 255 247 255 255 247 255 255 247 255 255 247 255 255 247 
255 255 247 255 255 247 255 255 247 255 255 247 255 255 247 255 255 247 
255 255 247 255 255 247 255 255 247 255 255 247 255 255 247 255 255 247 
255 255 247 255 255 247 231 231 231 0 0 0 255 255 255 255 255 255 255 255 255 
255 255 255 255 255 255 255 255 255 33 123 255 33 123 255 255 255 255 255 255 255 
33 123 255 33 123 255 255 255 255 255 255 255 255 255 255 255 255 255 255 255 255 
255 255 255 255 255 255 0 0 0 239 239 239 255 255 247 255 255 247 255 255 247 
255 255 247 255 255 247 255 255 247 255 255 247 255 255 247 255 255 247 
255 255 247 255 255 247 255 255 247 255 255 247 255 255 247 255 255 247 
255 255 247 255 255 247 255 255 247 255 255 247 255 255 247 255 255 247 
255 255 247 255 255 247 255 255 247 231 231 231 0 0 0 255 255 255 255 255 255 
255 255 255 255 255 255 255 255 255 255 255 255 255 255 255 255 255 255 
255 255 255 255 255 255 33 123 255 33 123 255 255 255 255 255 255 255 255 255 255 
255 255 255 255 255 255 255 255 255 255 255 255 0 0 0 231 231 231 255 255 247 
255 255 247 255 255 247 255 255 247 255 255 247 255 255 247 255 255 247 
255 255 247 255 255 247 255 255 247 255 255 247 255 255 247 255 255 247 
255 255 247 255 255 247 255 255 247 255 255 247 255 255 247 255 255 247 
255 255 247 255 255 247 255 255 247 255 255 247 255 255 247 231 231 231 
0 0 0 255 255 255 255 255 255 255 255 255 255 255 255 255 255 255 255 255 255 
255 255 255 255 255 255 33 123 255 33 123 255 33 123 255 255 255 255 255 255 255 
255 255 255 255 255 255 255 255 255 255 255 255 255 255 255 255 255 255 
0 0 0 231 231 231 255 255 247 255 255 247 255 255 247 255 255 247 255 255 247 
255 255 247 255 255 247 255 255 247 255 255 247 255 255 247 255 255 247 
255 255 247 255 255 247 255 255 247 255 255 247 255 255 247 255 255 247 
255 255 247 255 255 247 255 255 247 255 255 247 255 255 247 255 255 247 
255 255 247 231 231 231 0 0 0 255 255 255 255 255 255 255 255 255 255 255 255 
255 255 255 255 255 255 255 255 255 255 255 255 33 123 255 33 123 255 255 255 255 
255 255 255 255 255 255 255 255 255 255 255 255 255 255 255 255 255 255 
255 255 255 255 255 255 0 0 0 231 231 231 255 255 247 255 255 247 255 255 247 
255 255 247 255 255 247 255 255 247 255 255 247 255 255 247 255 255 247 
255 255 247 255 255 247 255 255 247 255 255 247 255 255 247 255 255 247 
255 255 247 255 255 247 255 255 247 255 255 247 255 255 247 255 255 247 
255 255 247 255 255 247 255 255 247 231 231 231 0 0 0 255 255 255 255 255 255 
255 255 255 255 255 255 255 255 255 255 255 255 255 255 255 255 255 255 
255 255 255 255 255 255 255 255 255 255 255 255 255 255 255 255 255 255 
255 255 255 255 255 255 255 255 255 255 255 255 255 255 255 0 0 0 231 231 231 
255 255 247 255 255 247 255 255 247 255 255 247 255 255 247 255 255 247 
255 255 247 255 255 247 255 255 247 255 255 247 255 255 247 255 255 247 
255 255 247 255 255 247 255 255 247 255 255 247 255 255 247 255 255 247 
255 255 247 255 255 247 255 255 247 255 255 247 255 255 247 255 255 247 
231 231 231 231 231 231 0 0 0 255 255 255 255 255 255 255 255 255 255 255 255 
255 255 255 255 255 255 255 255 255 33 123 255 33 123 255 255 255 255 255 255 255 
255 255 255 255 255 255 255 255 255 255 255 255 255 255 255 255 255 255 
0 0 0 231 231 231 239 239 239 255 255 247 255 255 247 255 255 247 255 255 247 
255 255 247 255 255 247 255 255 247 255 255 247 255 255 247 255 255 247 
255 255 247 255 255 247 255 255 247 255 255 247 231 231 231 231 231 231 
231 231 231 231 231 231 231 231 231 231 231 231 255 255 247 255 255 247 
255 255 247 255 255 247 255 255 247 231 231 231 0 0 0 255 255 255 255 255 255 
255 255 255 255 255 255 255 255 255 255 255 255 255 255 255 33 123 255 
33 123 255 255 255 255 255 255 255 255 255 255 255 255 255 255 255 255 
255 255 255 255 255 255 255 255 255 0 0 0 231 231 231 255 255 247 255 255 247 
255 255 247 255 255 247 255 255 247 255 255 247 255 255 247 255 255 247 
255 255 247 255 255 247 255 255 247 255 255 247 255 255 247 255 255 247 
231 231 231 239 239 239 0 0 0 0 0 0 0 0 0 0 0 0 239 239 239 231 231 231 
231 231 231 231 231 231 231 231 231 231 231 231 239 239 239 231 231 231 
0 0 0 0 0 0 255 255 255 255 255 255 255 255 255 255 255 255 255 255 255 
255 255 255 255 255 255 255 255 255 255 255 255 255 255 255 255 255 255 
255 255 255 255 255 255 0 0 0 0 0 0 231 231 231 231 231 231 255 255 247 
255 255 247 255 255 247 255 255 247 255 255 247 255 255 247 255 255 247 
255 255 247 255 255 247 255 255 247 255 255 247 255 255 247 255 255 247 
231 231 231 239 239 239 0 0 0 255 173 140 255 173 140 247 41 0 247 41 0 
0 0 0 0 0 0 0 0 0 0 0 0 0 0 0 0 0 0 0 0 0 0 0 0 0 0 0 0 0 0 0 0 0 0 0 0 
255 255 255 255 255 255 255 255 255 255 255 255 255 255 255 255 255 255 
255 255 255 255 255 255 0 0 0 0 0 0 0 0 0 231 231 231 231 231 231 239 239 239 
255 255 247 255 255 247 255 255 247 255 255 247 255 255 247 255 255 247 
255 255 247 255 255 247 255 255 247 255 255 247 255 255 247 255 255 247 
255 255 247 231 231 231 239 239 239 0 0 0 255 173 140 132 24 0 132 24 0 
0 0 0 247 41 0 247 41 0 247 41 0 247 41 0 247 41 0 247 41 0 247 41 0 247 41 0 
247 41 0 247 41 0 247 41 0 247 41 0 247 41 0 0 0 0 255 255 255 255 255 255 
255 255 255 0 0 0 0 0 0 0 0 0 0 0 0 247 41 0 0 0 0 231 231 231 239 239 239 
255 255 247 255 255 247 255 255 247 255 255 247 255 255 247 255 255 247 
255 255 247 255 255 247 255 255 247 255 255 247 255 255 247 255 255 247 
255 255 247 255 255 247 231 231 231 231 231 231 0 0 0 255 173 140 247 41 0 
132 24 0 255 255 255 0 0 0 0 0 0 0 0 0 0 0 0 0 0 0 0 0 0 0 0 0 0 0 0 0 0 0 
0 0 0 0 0 0 0 0 0 0 0 0 0 0 0 0 0 0 255 255 255 255 255 255 0 0 0 0 0 0 
0 0 0 0 0 0 247 41 0 247 41 0 0 0 0 231 231 231 255 255 247 255 255 247 
255 255 247 255 255 247 255 255 247 255 255 247 255 255 247 255 255 247 
255 255 247 255 255 247 255 255 247 255 255 247 255 255 247 255 255 247 
231 231 231 239 239 239 0 0 0 255 173 140 247 41 0 132 24 0 255 255 255 
0 0 0 255 156 8 181 107 0 255 239 189 255 239 189 255 239 189 255 239 189 
255 239 189 255 239 189 255 239 189 255 239 189 255 239 189 255 239 189 
255 239 189 255 239 189 0 0 0 255 255 255 0 0 0 0 0 0 181 107 0 181 107 0 
0 0 0 247 41 0 247 41 0 0 0 0 231 231 231 255 255 247 255 255 247 255 255 247 
255 255 247 255 255 247 255 255 247 255 255 247 255 255 247 255 255 247 
255 255 247 255 255 247 255 255 247 255 255 247 231 231 231 239 239 239 
0 0 0 255 173 140 247 41 0 132 24 0 255 255 255 0 0 0 255 156 8 255 156 8 
181 107 0 255 214 132 255 239 189 255 214 132 255 239 189 255 214 132 255 239 189 
255 214 132 255 239 189 255 214 132 255 239 189 255 214 132 255 239 189 
0 0 0 0 0 0 255 214 132 0 0 0 181 107 0 181 107 0 0 0 0 247 41 0 247 41 0 
0 0 0 231 231 231 255 255 247 255 255 247 255 255 247 255 255 247 255 255 247 
255 255 247 255 255 247 255 255 247 255 255 247 255 255 247 255 255 247 
255 255 247 231 231 231 239 239 239 0 0 0 255 173 140 247 41 0 132 24 0 
255 255 255 0 0 0 255 156 8 255 156 8 255 156 8 181 107 0 255 214 132 255 214 132 
255 214 132 255 214 132 255 214 132 255 214 132 255 214 132 255 214 132 
255 214 132 255 214 132 255 214 132 255 214 132 0 0 0 255 214 132 255 214 132 
0 0 0 0 0 0 181 107 0 0 0 0 247 41 0 247 41 0 0 0 0 231 231 231 255 255 247 
255 255 247 255 255 247 255 255 247 255 255 247 255 255 247 255 255 247 
255 255 247 255 255 247 255 255 247 255 255 247 231 231 231 239 239 239 
0 0 0 255 173 140 247 41 0 132 24 0 255 255 255 0 0 0 255 156 8 255 156 8 
255 156 8 255 156 8 0 0 0 0 0 0 255 214 132 255 214 132 255 214 132 255 214 132 
255 214 132 255 214 132 255 214 132 255 214 132 255 214 132 255 214 132 
255 214 132 255 214 132 255 214 132 255 214 132 255 239 189 255 239 189 
0 0 0 0 0 0 247 41 0 247 41 0 0 0 0 231 231 231 255 255 247 255 255 247 
255 255 247 255 255 247 255 255 247 255 255 247 255 255 247 255 255 247 
255 255 247 255 255 247 231 231 231 239 239 239 0 0 0 255 173 140 247 41 0 
132 24 0 255 255 255 0 0 0 255 156 8 255 156 8 255 156 8 255 156 8 0 0 0 
181 107 0 255 214 132 255 214 132 255 214 132 181 107 0 181 107 0 255 214 132 
181 107 0 181 107 0 181 107 0 255 214 132 255 214 132 255 214 132 255 214 132 
255 214 132 255 214 132 255 214 132 255 239 189 0 0 0 0 0 0 247 41 0 247 41 0 
0 0 0 231 231 231 255 255 247 255 255 247 255 255 247 255 255 247 255 255 247 
255 255 247 255 255 247 255 255 247 255 255 247 255 255 247 231 231 231 
0 0 0 255 173 140 247 41 0 132 24 0 255 255 255 0 0 0 255 156 8 255 156 8 
255 156 8 255 156 8 0 0 0 255 156 8 181 107 0 255 214 132 255 214 132 255 214 132 
255 214 132 255 214 132 255 214 132 255 214 132 255 214 132 255 214 132 
255 214 132 255 214 132 255 214 132 255 214 132 255 214 132 255 214 132 
255 214 132 255 214 132 0 0 0 0 0 0 247 41 0 247 41 0 0 0 0 231 231 231 
255 255 247 255 255 247 255 255 247 255 255 247 255 255 247 255 255 247 
255 255 247 255 255 247 255 255 247 255 255 247 231 231 231 0 0 0 247 41 0 
0 0 0 255 255 255 0 0 0 255 156 8 255 156 8 255 156 8 255 156 8 255 156 8 
255 156 8 255 156 8 181 107 0 255 214 132 255 214 132 255 214 132 255 214 132 
255 214 132 255 214 132 255 214 132 255 214 132 255 214 132 255 214 132 
255 214 132 255 214 132 255 214 132 255 214 132 255 214 132 255 214 132 
255 214 132 0 0 0 0 0 0 247 41 0 247 41 0 0 0 0 231 231 231 255 255 247 
255 255 247 255 255 247 255 255 247 255 255 247 255 255 247 255 255 247 
255 255 247 255 255 247 255 255 247 231 231 231 0 0 0 247 41 0 0 0 0 255 255 255 
0 0 0 255 156 8 255 156 8 255 156 8 255 156 8 255 156 8 255 156 8 255 156 8 
181 107 0 255 214 132 255 214 132 255 214 132 255 214 132 255 214 132 255 214 132 
255 214 132 255 214 132 255 214 132 255 214 132 255 214 132 255 214 132 
255 214 132 255 214 132 255 214 132 255 214 132 255 214 132 0 0 0 181 107 0 
0 0 0 247 41 0 0 0 0 231 231 231 255 255 247 255 255 247 255 255 247 255 255 247 
255 255 247 255 255 247 255 255 247 255 255 247 255 255 247 255 255 247 
231 231 231 0 0 0 247 41 0 0 0 0 255 255 255 0 0 0 255 156 8 255 156 8 
255 156 8 255 156 8 255 156 8 255 156 8 255 156 8 0 0 0 0 0 0 255 214 132 
255 214 132 181 107 0 181 107 0 181 107 0 181 107 0 181 107 0 181 107 0 
181 107 0 255 214 132 255 214 132 255 214 132 255 214 132 255 214 132 255 214 132 
255 214 132 0 0 0 181 107 0 0 0 0 247 41 0 0 0 0 231 231 231 255 255 247 
255 255 247 255 255 247 255 255 247 255 255 247 255 255 247 255 255 247 
255 255 247 255 255 247 255 255 247 231 231 231 0 0 0 247 41 0 0 0 0 255 255 255 
0 0 0 255 156 8 255 156 8 255 156 8 255 156 8 255 156 8 255 156 8 0 0 0 
181 107 0 255 214 132 255 214 132 255 214 132 255 214 132 255 214 132 255 214 132 
255 214 132 255 214 132 255 214 132 255 214 132 255 214 132 255 214 132 
255 214 132 255 214 132 255 214 132 255 214 132 255 214 132 0 0 0 181 107 0 
0 0 0 247 41 0 0 0 0 231 231 231 255 255 247 255 255 247 255 255 247 255 255 247 
255 255 247 255 255 247 255 255 247 255 255 247 255 255 247 255 255 247 
231 231 231 0 0 0 247 41 0 0 0 0 255 255 255 0 0 0 255 156 8 255 156 8 
255 156 8 255 156 8 255 156 8 255 156 8 255 156 8 181 107 0 255 214 132 
255 214 132 255 214 132 181 107 0 181 107 0 181 107 0 181 107 0 181 107 0 
181 107 0 181 107 0 181 107 0 181 107 0 181 107 0 255 214 132 255 214 132 
255 214 132 255 214 132 0 0 0 181 107 0 0 0 0 247 41 0 0 0 0 231 231 231 
255 255 247 255 255 247 255 255 247 255 255 247 255 255 247 255 255 247 
255 255 247 255 255 247 255 255 247 255 255 247 231 231 231 0 0 0 247 41 0 
0 0 0 255 255 255 0 0 0 255 156 8 255 156 8 255 156 8 255 156 8 255 156 8 
255 156 8 255 156 8 181 107 0 255 214 132 255 214 132 255 214 132 255 214 132 
255 214 132 255 214 132 255 214 132 255 214 132 255 214 132 255 214 132 
255 214 132 255 214 132 255 214 132 255 214 132 255 214 132 0 0 0 0 0 0 
181 107 0 181 107 0 0 0 0 247 41 0 0 0 0 231 231 231 255 255 247 255 255 247 
255 255 247 255 255 247 255 255 247 255 255 247 255 255 247 255 255 247 
255 255 247 255 255 247 231 231 231 0 0 0 247 41 0 0 0 0 255 255 255 0 0 0 
255 156 8 255 156 8 255 156 8 255 156 8 255 156 8 255 156 8 255 156 8 181 107 0 
255 214 132 255 214 132 255 214 132 255 214 132 255 214 132 255 214 132 
255 214 132 255 214 132 255 214 132 255 214 132 255 214 132 255 214 132 
255 214 132 255 214 132 255 214 132 0 0 0 181 107 0 181 107 0 181 107 0 
0 0 0 247 41 0 0 0 0 231 231 231 255 255 247 255 255 247 255 255 247 255 255 247 
255 255 247 255 255 247 255 255 247 255 255 247 255 255 247 255 255 247 
231 231 231 0 0 0 247 41 0 0 0 0 255 255 255 0 0 0 255 156 8 255 156 8 
255 156 8 255 156 8 255 156 8 255 156 8 255 156 8 0 0 0 0 0 0 255 214 132 
255 214 132 255 214 132 255 214 132 255 214 132 255 214 132 255 214 132 
255 214 132 255 214 132 255 214 132 255 214 132 255 214 132 255 214 132 
255 214 132 0 0 0 181 107 0 181 107 0 181 107 0 0 0 0 247 41 0 0 0 0 231 231 231 
255 255 247 255 255 247 255 255 247 255 255 247 255 255 247 255 255 247 
255 255 247 255 255 247 255 255 247 255 255 247 231 231 231 0 0 0 247 41 0 
0 0 0 255 255 255 0 0 0 255 156 8 255 156 8 255 156 8 255 156 8 255 156 8 
255 156 8 0 0 0 181 107 0 255 214 132 255 214 132 255 214 132 255 214 132 
255 214 132 255 214 132 255 214 132 255 214 132 255 214 132 255 214 132 
255 214 132 255 214 132 255 214 132 255 214 132 255 214 132 0 0 0 181 107 0 
181 107 0 181 107 0 0 0 0 247 41 0 0 0 0 231 231 231 255 255 247 255 255 247 
255 255 247 255 255 247 255 255 247 255 255 247 255 255 247 255 255 247 
255 255 247 255 255 247 231 231 231 0 0 0 247 41 0 0 0 0 255 255 255 0 0 0 
255 156 8 255 156 8 255 156 8 255 156 8 255 156 8 255 156 8 255 156 8 181 107 0 
255 214 132 255 214 132 255 214 132 255 214 132 255 214 132 255 214 132 
255 214 132 255 214 132 255 214 132 255 214 132 255 214 132 255 214 132 
255 214 132 255 214 132 255 214 132 0 0 0 181 107 0 181 107 0 0 0 0 247 41 0 
247 41 0 0 0 0 231 231 231 255 255 247 255 255 247 255 255 247 255 255 247 
255 255 247 255 255 247 255 255 247 255 255 247 255 255 247 255 255 247 
231 231 231 0 0 0 247 41 0 0 0 0 255 255 255 0 0 0 255 156 8 255 156 8 
255 156 8 255 156 8 255 156 8 255 156 8 255 156 8 181 107 0 255 214 132 
255 214 132 255 214 132 181 107 0 181 107 0 181 107 0 181 107 0 181 107 0 
181 107 0 181 107 0 255 214 132 181 107 0 181 107 0 255 255 255 255 214 132 
0 0 0 181 107 0 181 107 0 0 0 0 247 41 0 247 41 0 0 0 0 231 231 231 255 255 247 
255 255 247 255 255 247 255 255 247 255 255 247 255 255 247 255 255 247 
255 255 247 255 255 247 255 255 247 231 231 231 0 0 0 247 41 0 0 0 0 255 255 255 
0 0 0 255 156 8 255 156 8 255 156 8 255 156 8 255 156 8 255 156 8 255 156 8 
181 107 0 255 214 132 255 214 132 255 214 132 255 214 132 255 214 132 255 214 132 
255 214 132 255 214 132 255 214 132 255 214 132 0 0 0 0 0 0 0 0 0 0 0 0 
0 0 0 0 0 0 181 107 0 181 107 0 0 0 0 247 41 0 247 41 0 0 0 0 231 231 231 
255 255 247 255 255 247 255 255 247 255 255 247 255 255 247 255 255 247 
255 255 247 255 255 247 255 255 247 255 255 247 231 231 231 0 0 0 247 41 0 
0 0 0 255 255 255 0 0 0 255 156 8 255 156 8 255 156 8 255 156 8 255 156 8 
255 156 8 255 156 8 0 0 0 0 0 0 255 214 132 255 214 132 255 214 132 255 214 132 
255 214 132 255 214 132 255 214 132 0 0 0 0 0 0 255 255 255 255 255 255 
255 255 255 181 107 0 181 107 0 0 0 0 0 0 0 181 107 0 0 0 0 247 41 0 247 41 0 
0 0 0 231 231 231 255 255 247 255 255 247 255 255 247 255 255 247 255 255 247 
255 255 247 255 255 247 255 255 247 255 255 247 255 255 247 231 231 231 
0 0 0 247 41 0 0 0 0 255 255 255 0 0 0 255 156 8 255 156 8 255 156 8 255 156 8 
255 156 8 255 156 8 0 0 0 181 107 0 255 214 132 255 214 132 255 214 132 
255 214 132 255 214 132 255 214 132 255 214 132 0 0 0 239 198 123 239 198 123 
255 214 132 255 214 132 255 214 132 255 255 255 255 255 255 181 107 0 0 0 0 
0 0 0 0 0 0 247 41 0 247 41 0 0 0 0 239 239 239 255 255 247 255 255 247 
255 255 247 255 255 247 255 255 247 255 255 247 255 255 247 255 255 247 
255 255 247 255 255 247 231 231 231 0 0 0 247 41 0 0 0 0 255 255 255 0 0 0 
255 156 8 255 156 8 255 156 8 255 156 8 255 156 8 255 156 8 255 156 8 181 107 0 
255 214 132 255 214 132 255 214 132 255 214 132 255 214 132 255 214 132 
0 0 0 239 198 123 255 214 132 255 214 132 255 214 132 255 214 132 255 214 132 
255 214 132 255 214 132 255 255 255 181 107 0 181 107 0 0 0 0 0 0 0 0 0 0 
255 156 8 231 231 231 255 255 247 255 255 247 255 255 247 255 255 247 255 255 247 
255 255 247 255 255 247 255 255 247 255 255 247 255 255 247 231 231 231 
0 0 0 247 41 0 0 0 0 255 255 255 0 0 0 255 156 8 255 156 8 255 156 8 255 156 8 
255 156 8 255 156 8 255 156 8 181 107 0 255 214 132 255 214 132 255 214 132 
255 214 132 255 214 132 255 214 132 0 0 0 255 214 132 255 214 132 255 214 132 
255 214 132 255 214 132 255 214 132 255 214 132 255 214 132 255 214 132 
255 255 255 0 0 0 0 0 0 255 156 8 255 156 8 231 231 231 231 231 231 255 255 247 
255 255 247 255 255 247 255 255 247 255 255 247 255 255 247 255 255 247 
255 255 247 255 255 247 255 255 247 231 231 231 0 0 0 247 41 0 0 0 0 255 255 255 
0 0 0 255 156 8 255 156 8 255 156 8 255 156 8 255 156 8 255 156 8 0 0 0 
0 0 0 0 0 0 0 0 0 0 0 0 0 0 0 0 0 0 0 0 0 0 0 0 0 0 0 0 0 0 0 0 0 0 0 0 
0 0 0 0 0 0 0 0 0 0 0 0 255 255 255 0 0 0 255 255 255 255 255 255 0 0 0 
231 231 231 239 239 239 255 255 247 255 255 247 255 255 247 255 255 247 
255 255 247 255 255 247 255 255 247 255 255 247 255 255 247 255 255 247 
156 156 156 82 82 82 0 0 0 247 41 0 0 0 0 255 255 255 0 0 0 255 156 8 255 156 8 
255 156 8 255 156 8 255 156 8 0 0 0 255 156 8 231 231 231 231 231 231 231 231 231 
231 231 231 231 231 231 231 231 231 0 0 0 255 156 8 255 255 255 255 255 255 
255 255 255 255 255 255 255 255 255 255 255 255 255 255 255 255 255 255 
255 255 255 255 255 255 255 255 255 255 255 255 0 0 0 231 231 231 255 255 247 
255 255 247 255 255 247 255 255 247 255 255 247 255 255 247 255 255 247 
255 255 247 255 255 247 206 206 206 148 148 148 82 82 82 156 156 156 0 0 0 
247 41 0 0 0 0 255 255 255 0 0 0 255 156 8 255 156 8 255 156 8 255 156 8 
0 0 0 255 156 8 231 231 231 231 231 239 255 255 247 255 255 247 255 255 247 
255 255 247 231 231 231 0 0 0 255 156 8 255 255 255 255 255 255 255 255 255 
255 255 255 255 255 255 255 255 255 255 255 255 255 255 255 255 255 255 
255 255 255 255 255 255 255 255 255 0 0 0 231 231 231 255 255 247 255 255 247 
255 255 247 255 255 247 255 255 247 255 255 247 255 255 247 156 156 156 
198 198 198 156 156 156 206 206 206 156 156 156 82 82 82 0 0 0 247 41 0 
0 0 0 255 255 255 0 0 0 255 156 8 255 156 8 255 156 8 0 0 0 255 156 8 231 231 231 
231 231 231 255 255 247 255 255 247 255 255 247 255 255 247 255 255 247 
239 239 239 0 0 0 255 156 8 255 255 255 255 255 255 255 255 255 255 255 255 
255 255 255 255 255 255 255 255 255 255 255 255 255 255 255 255 255 255 
255 255 255 255 255 255 0 0 0 231 231 231 255 255 247 255 255 247 255 255 247 
255 255 247 255 255 247 255 255 247 255 255 247 255 255 247 255 255 247 
206 206 206 148 148 148 82 82 82 156 156 156 0 0 0 247 41 0 0 0 0 255 255 255 
0 0 0 255 156 8 255 156 8 0 0 0 255 156 8 231 231 231 231 231 239 255 255 247 
255 255 247 255 255 247 255 255 247 255 255 247 255 255 247 231 231 231 
0 0 0 255 156 8 255 255 255 255 255 255 255 255 255 255 255 255 255 255 255 
255 255 255 255 255 255 255 255 255 255 255 255 255 255 255 255 255 255 
255 255 255 0 0 0 231 231 231 255 255 247 255 255 247 255 255 247 255 255 247 
255 255 247 255 255 247 255 255 247 255 255 247 255 255 247 255 255 247 
255 255 247 255 255 247 82 82 82 0 0 0 0 0 0 0 0 0 0 0 0 0 0 0 0 0 0 0 0 0 
255 156 8 231 231 231 231 231 231 255 255 247 255 255 247 255 255 247 255 255 247 
255 255 247 255 255 247 255 255 247 231 231 231 0 0 0 0 0 0 255 156 8 255 255 255 
255 255 255 255 255 255 255 255 255 255 255 255 255 255 255 255 255 255 
255 255 255 255 255 255 148 148 148 0 0 0 231 231 231 239 239 239 255 255 247 
255 255 247 255 255 247 255 255 247 255 255 247 255 255 247 255 255 247 
255 255 247 255 255 247 255 255 247 255 255 247 255 255 247 231 231 231 
231 231 231 231 231 231 231 231 231 231 231 231 231 231 231 231 231 231 
231 231 231 231 231 231 239 239 239 255 255 247 255 255 247 255 255 247 
255 255 247 255 255 247 255 255 247 255 255 247 255 255 247 231 231 231 
231 231 231 0 0 0 0 0 0 255 156 8 255 255 255 255 255 255 255 255 255 255 255 255 
255 255 255 255 255 255 255 255 255 255 255 255 0 0 0 0 0 0 231 231 231 
231 231 231 255 255 247 255 255 247 255 255 247 255 255 247 255 255 247 
255 255 247 255 255 247 255 255 247 255 255 247 255 255 247 255 255 247 
255 255 247 255 255 247 255 255 247 255 255 247 255 255 247 255 255 247 
255 255 247 255 255 247 255 255 247 255 255 247 255 255 247 255 255 247 
255 255 247 255 255 247 255 255 247 255 255 247 255 255 247 255 255 247 
255 255 247 255 255 247 231 231 231 0 0 0 0 0 0 255 156 8 255 156 8 255 255 255 
255 255 255 255 255 255 255 255 255 255 255 255 255 255 255 255 255 255 
0 0 0 0 0 0 0 0 0 239 239 239 231 231 231 255 255 247 255 255 247 255 255 247 
255 255 247 255 255 247 255 255 247 255 255 247 255 255 247 255 255 247 
255 255 247 255 255 247 255 255 247 255 255 247 255 255 247 255 255 247 
255 255 247 255 255 247 255 255 247 255 255 247 255 255 247 255 255 247 
255 255 247 255 255 247 255 255 247 255 255 247 255 255 247 255 255 247 
255 255 247 255 255 247 255 255 247 231 231 231 231 231 231 0 0 0 0 0 0 
0 0 0 255 156 8 255 156 8 255 156 8 255 156 8 255 156 8 0 0 0 0 0 0 0 0 0 
255 255 255 255 156 8 0 0 0 231 231 231 231 231 231 255 255 247 255 255 247 
255 255 247 255 255 247 255 255 247 255 255 247 255 255 247 255 255 247 
255 255 247 255 255 247 255 255 247 255 255 247 255 255 247 255 255 247 
255 255 247 255 255 247 255 255 247 255 255 247 255 255 247 255 255 247 
255 255 247 255 255 247 255 255 247 255 255 247 255 255 247 255 255 247 
255 255 247 255 255 247 255 255 247 255 255 247 231 231 231 231 231 231 
0 0 0 0 0 0 0 0 0 0 0 0 0 0 0 0 0 0 0 0 0 0 0 0 181 107 0 181 107 0 255 156 8 
255 255 255 255 156 8 0 0 0 231 231 231 231 231 231 255 255 247 255 255 247 
255 255 247 255 255 247 255 255 247 255 255 247 255 255 247 255 255 247 
255 255 247 255 255 247 255 255 247 255 255 247 255 255 247 255 255 247 
255 255 247 255 255 247 255 255 247 255 255 247 255 255 247 255 255 247 
255 255 247 255 255 247 255 255 247 255 255 247 255 255 247 255 255 247 
255 255 247 255 255 247 255 255 247 255 255 247 231 231 231 231 231 231 
231 231 231 0 0 0 0 0 0 0 0 0 0 0 0 0 0 0 0 0 0 0 0 0 181 107 0 181 107 0 
255 156 8 255 255 255 255 156 8 0 0 0 231 231 231 239 239 239 255 255 247 
255 255 247 255 255 247 255 255 247 255 255 247 255 255 247 255 255 247 
255 255 247 255 255 247 255 255 247 255 255 247 255 255 247 255 255 247 
255 255 247 255 255 247 255 255 247 255 255 247 255 255 247 255 255 247 
255 255 247 255 255 247 255 255 247 255 255 247 255 255 247 255 255 247 
255 255 247 255 255 247 255 255 247 255 255 247 255 255 247 255 255 247 
231 231 231 231 231 231 231 231 231 231 231 231 231 231 231 231 231 231 
231 231 231 0 0 0 0 0 0 181 107 0 181 107 0 255 156 8 255 255 255 255 156 8 
0 0 0 231 231 231 231 231 231 255 255 247 255 255 247 255 255 247 255 255 247 
255 255 247 255 255 247 255 255 247 255 255 247 255 255 247 255 255 247 
255 255 247 255 255 247 255 255 247 255 255 247 255 255 247 255 255 247 
255 255 247 255 255 247 255 255 247 255 255 247 255 255 247 255 255 247 
255 255 247 255 255 247 255 255 247 255 255 247 255 255 247 255 255 247 
255 255 247 255 255 247 255 255 247 255 255 247 255 255 247 255 255 247 
255 255 247 255 255 247 231 231 231 231 231 231 0 0 0 0 0 0 181 107 0 181 107 0 
255 156 8 255 255 255 255 156 8 0 0 0 231 231 231 231 231 231 255 255 247 
255 255 247 255 255 247 255 255 247 255 255 247 255 255 247 255 255 247 
255 255 247 255 255 247 255 255 247 255 255 247 255 255 247 255 255 247 
255 255 247 255 255 247 255 255 247 255 255 247 255 255 247 255 255 247 
255 255 247 255 255 247 255 255 247 255 255 247 255 255 247 255 255 247 
255 255 247 255 255 247 255 255 247 255 255 247 255 255 247 255 255 247 
255 255 247 255 255 247 255 255 247 255 255 247 255 255 247 231 231 231 
231 231 231 0 0 0 0 0 0 181 107 0 181 107 0 255 156 8 255 255 255 255 156 8 
0 0 0 231 231 231 239 239 239 255 255 247 255 255 247 255 255 247 255 255 247 
255 255 247 255 255 247 255 255 247 255 255 247 255 255 247 255 255 247 
255 255 247 255 255 247 255 255 247 255 255 247 255 255 247 255 255 247 
255 255 247 255 255 247 255 255 247 255 255 247 255 255 247 255 255 247 
255 255 247 255 255 247 255 255 247 255 255 247 255 255 247 255 255 247 
255 255 247 255 255 247 255 255 247 255 255 247 255 255 247 255 255 247 
255 255 247 255 255 247 231 231 231 231 231 231 0 0 0 0 0 0 181 107 0 181 107 0 
255 156 8 255 255 255 255 156 8 0 0 0 231 231 231 255 255 247 255 255 247 
255 255 247 255 255 247 255 255 247 255 255 247 255 255 247 255 255 247 
255 255 247 255 255 247 255 255 247 255 255 247 255 255 247 255 255 247 
255 255 247 255 255 247 255 255 247 255 255 247 255 255 247 255 255 247 
255 255 247 255 255 247 255 255 247 255 255 247 255 255 247 255 255 247 
255 255 247 255 255 247 255 255 247 255 255 247 255 255 247 255 255 247 
255 255 247 255 255 247 255 255 247 255 255 247 255 255 247 231 231 231 
231 231 231 0 0 0 0 0 0 181 107 0 181 107 0 181 107 0 0 0 0 0 0 0 231 231 231 
255 255 247 255 255 247 255 255 247 255 255 247 255 255 247 255 255 247 
255 255 247 255 255 247 255 255 247 255 255 247 255 255 247 255 255 247 
255 255 247 255 255 247 255 255 247 255 255 247 255 255 247 255 255 247 
255 255 247 255 255 247 255 255 247 255 255 247 255 255 247 255 255 247 
255 255 247 255 255 247 255 255 247 255 255 247 255 255 247 255 255 247 
255 255 247 255 255 247 255 255 247 255 255 247 255 255 247 255 255 247 
255 255 247 255 255 247 239 239 239 231 231 231 0 0 0 0 0 0 181 107 0 0 0 0 
0 0 0 231 231 231 231 231 231 255 255 247 255 255 247 255 255 247 255 255 247 
255 255 247 255 255 247 255 255 247 255 255 247 255 255 247 255 255 247 
255 255 247 255 255 247 255 255 247 255 255 247 255 255 247 255 255 247 
255 255 247 255 255 247 255 255 247 255 255 247 255 255 247 255 255 247 
255 255 247 255 255 247 255 255 247 255 255 247 255 255 247 255 255 247 
255 255 247 255 255 247 255 255 247 255 255 247 255 255 247 255 255 247 
255 255 247 255 255 247 255 255 247 255 255 247 255 255 247 231 231 231 
231 231 231 0 0 0 0 0 0 0 0 0 231 231 231 239 239 239 255 247 222 255 255 247 
255 255 247 255 255 247 255 255 247 255 255 247 255 255 247 255 255 247 
255 255 247 255 255 247 255 255 247 255 255 247 255 255 247 255 255 247 
255 255 247 255 255 247 255 255 247 255 255 247 255 255 247 255 255 247 
255 255 247 255 255 247 255 255 247 255 255 247 255 255 247 255 255 247 
255 255 247 255 255 247 255 255 247 255 255 247 255 255 247 255 255 247 
255 255 247 255 255 247 255 255 247 255 255 247 255 255 247 255 255 247 
255 255 247 255 255 247 255 255 247 231 231 231 231 231 231 231 231 231 
239 239 239 231 231 231 255 247 222 255 247 222 
