P3
# Created by Paint Shop Pro 6
26 46
255
255 255 247 255 255 247 255 255 247 255 255 247 255 255 247 255 255 247 
255 255 247 255 255 247 0 0 0 0 0 0 0 0 0 0 0 0 0 0 0 255 247 222 255 255 222 
255 255 247 255 255 247 255 255 247 255 255 247 255 255 247 255 255 247 
255 255 247 255 255 247 255 255 247 255 255 247 255 255 247 255 255 247 
255 255 247 255 255 247 255 255 247 255 255 247 255 255 247 0 0 0 0 0 0 
255 255 255 255 255 255 255 255 255 255 255 255 255 255 255 0 0 0 0 0 0 
255 255 247 255 255 247 255 255 247 255 255 247 255 255 247 255 255 247 
255 255 247 255 255 247 255 255 247 255 255 247 255 255 247 255 255 247 
255 255 247 255 255 247 255 255 247 255 255 247 0 0 0 255 255 255 255 255 255 
189 189 189 189 189 189 189 189 189 189 189 189 189 189 189 189 189 189 
189 189 189 0 0 0 255 255 247 255 255 247 255 255 247 255 255 247 255 255 247 
255 255 247 255 255 247 255 255 247 255 255 247 255 255 247 255 255 247 
255 255 247 255 255 247 255 255 247 0 0 0 255 255 255 189 189 189 189 189 189 
0 0 0 0 0 0 0 0 0 0 0 0 0 0 0 198 198 198 189 189 189 132 132 132 0 0 0 
255 255 247 255 255 247 255 255 247 255 255 247 255 255 247 255 255 247 
255 255 247 255 255 247 255 255 247 255 255 247 255 255 247 255 255 247 
0 0 0 255 255 255 189 189 189 198 198 198 0 0 0 255 255 247 255 255 247 
255 255 247 255 255 247 255 255 247 0 0 0 189 189 189 189 189 189 132 132 132 
0 0 0 255 255 247 255 255 247 255 255 247 255 255 247 255 255 247 255 255 247 
255 255 247 255 255 247 255 255 247 255 255 247 255 255 247 0 0 0 255 255 255 
189 189 189 0 0 0 255 255 247 255 255 247 255 255 247 255 255 247 255 255 247 
255 255 247 255 255 247 0 0 0 189 189 189 132 132 132 0 0 0 255 255 247 
255 255 247 255 255 247 255 255 247 255 255 247 255 255 247 255 255 247 
255 255 247 255 255 247 255 255 247 255 255 247 0 0 0 255 255 255 189 189 189 
0 0 0 255 255 247 255 255 247 255 255 247 255 255 247 255 255 247 255 255 247 
255 255 247 0 0 0 189 189 189 132 132 132 0 0 0 255 255 247 255 255 247 
255 255 247 255 255 247 255 255 247 255 255 247 255 255 247 255 255 247 
255 255 247 255 255 247 255 255 247 0 0 0 255 255 255 189 189 189 0 0 0 
255 255 247 255 255 247 255 255 247 255 255 247 255 255 247 255 255 247 
255 255 247 0 0 0 189 189 189 132 132 132 0 0 0 255 255 247 255 255 247 
255 255 247 255 255 247 255 255 247 255 255 247 255 255 247 255 255 247 
255 255 247 255 255 247 255 255 247 0 0 0 255 255 255 189 189 189 0 0 0 
255 255 247 255 255 247 255 255 247 255 255 247 255 255 247 255 255 247 
255 255 247 0 0 0 189 189 189 132 132 132 0 0 0 255 255 247 255 255 247 
255 255 247 255 255 247 255 255 247 255 255 247 255 255 247 255 255 247 
255 255 247 255 255 247 255 255 247 0 0 0 255 255 255 189 189 189 0 0 0 
255 255 247 255 255 247 255 255 247 255 255 247 255 255 247 255 255 247 
255 255 247 0 0 0 189 189 189 132 132 132 0 0 0 255 255 247 255 255 247 
255 255 247 255 255 247 255 255 247 255 255 247 255 255 247 255 255 247 
255 255 247 0 0 0 0 0 0 222 222 222 255 255 255 189 189 189 0 0 0 0 0 0 
0 0 0 0 0 0 0 0 0 0 0 0 0 0 0 0 0 0 0 0 0 189 189 189 132 132 132 132 132 132 
0 0 0 0 0 0 255 255 247 255 255 247 255 255 247 255 255 247 255 255 247 
255 255 247 0 0 0 255 255 255 255 255 255 222 222 222 255 255 255 189 189 189 
255 255 255 255 255 255 255 255 255 255 255 255 255 255 255 255 255 255 
255 255 255 255 255 255 255 255 255 189 189 189 132 132 132 132 132 132 
247 247 247 255 255 255 0 0 0 255 255 247 255 255 247 255 255 247 255 255 247 
255 255 247 0 0 0 255 255 255 255 255 255 255 255 255 255 255 255 255 255 255 
255 255 255 255 255 255 255 255 255 255 255 255 255 255 255 255 255 255 
255 255 255 255 255 255 255 255 255 255 255 255 255 255 255 255 255 255 
255 255 255 255 255 255 0 0 0 255 255 247 255 255 247 255 255 247 255 255 247 
255 255 247 0 0 0 222 222 222 132 132 132 132 132 132 132 132 132 132 132 132 
132 132 132 132 132 132 132 132 132 132 132 132 132 132 132 132 132 132 
132 132 132 132 132 132 132 132 132 132 132 132 132 132 132 132 132 132 
132 132 132 189 189 189 0 0 0 255 255 247 255 255 247 255 255 247 255 255 247 
255 255 247 0 0 0 222 222 222 189 189 189 189 189 189 189 189 189 189 189 189 
189 189 189 189 189 189 189 189 189 189 189 189 189 189 189 189 189 189 
189 189 189 189 189 189 189 189 189 189 189 189 189 189 189 189 189 189 
189 189 189 132 132 132 0 0 0 255 255 247 255 255 247 255 255 247 255 255 247 
255 255 247 0 0 0 222 222 222 189 189 189 189 189 189 189 189 189 189 189 189 
189 189 189 189 189 189 189 189 189 189 189 189 189 189 189 189 189 189 
189 189 189 189 189 189 189 189 189 189 189 189 189 189 189 189 189 189 
189 189 189 132 132 132 0 0 0 255 255 247 255 255 247 255 255 247 255 255 247 
255 255 247 0 0 0 222 222 222 255 255 255 255 255 255 255 255 255 132 132 132 
189 189 189 198 198 198 255 255 255 255 255 255 255 255 255 132 132 132 
189 189 189 198 198 198 255 255 255 255 255 255 255 255 255 132 132 132 
189 189 189 132 132 132 0 0 0 255 255 247 255 255 247 255 255 247 255 255 247 
255 255 247 0 0 0 222 222 222 255 255 255 255 255 255 255 255 255 132 132 132 
189 189 189 189 189 189 255 255 255 255 255 255 255 255 255 132 132 132 
189 189 189 189 189 189 255 255 255 255 255 255 255 255 255 132 132 132 
189 189 189 132 132 132 0 0 0 255 255 247 255 255 247 255 255 247 255 255 247 
255 255 247 0 0 0 222 222 222 107 107 107 0 0 0 0 0 0 0 0 0 189 189 189 
189 189 189 107 107 107 0 0 0 0 0 0 0 0 0 189 189 189 189 189 189 107 107 107 
0 0 0 0 0 0 0 0 0 189 189 189 132 132 132 0 0 0 255 255 247 255 255 247 
255 255 247 255 255 247 255 255 247 0 0 0 222 222 222 189 189 189 189 189 189 
189 189 189 189 189 189 198 198 198 189 189 189 189 189 189 189 189 189 
189 189 189 189 189 189 198 198 198 189 189 189 189 189 189 189 189 189 
189 189 189 189 189 189 198 198 198 132 132 132 0 0 0 255 255 247 255 255 247 
255 255 247 255 255 247 255 255 247 0 0 0 222 222 222 255 255 255 255 255 255 
255 255 255 132 132 132 189 189 189 189 189 189 255 255 255 255 255 255 
255 255 255 132 132 132 189 189 189 0 0 0 0 0 0 156 156 156 255 255 255 
132 132 132 189 189 189 132 132 132 0 0 0 255 255 247 255 255 247 255 255 247 
255 255 247 255 255 247 0 0 0 222 222 222 255 255 255 255 255 255 255 255 255 
132 132 132 189 189 189 189 189 189 255 255 255 255 255 255 255 255 255 
132 132 132 0 0 0 247 214 198 189 123 57 0 0 0 132 132 132 132 132 132 
189 189 189 132 132 132 0 0 0 255 255 247 255 255 247 255 255 247 255 255 247 
255 255 247 0 0 0 222 222 222 107 107 107 0 0 0 0 0 0 0 0 0 189 189 189 
189 189 189 107 107 107 0 0 0 0 0 0 0 0 0 0 0 0 255 255 255 247 214 165 
189 123 57 0 0 0 0 0 0 189 189 189 132 132 132 0 0 0 255 255 247 255 255 247 
255 255 247 255 255 247 255 255 247 0 0 0 222 222 222 189 189 189 189 189 189 
189 189 189 189 189 189 198 198 198 189 189 189 189 189 189 189 189 189 
189 189 189 189 189 189 0 0 0 255 255 255 247 214 165 189 123 57 0 0 0 
189 189 189 198 198 198 132 132 132 0 0 0 255 255 247 255 255 247 255 255 247 
255 255 247 255 255 247 0 0 0 222 222 222 255 255 255 255 255 255 255 255 255 
132 132 132 189 189 189 189 189 189 255 255 255 255 255 255 255 255 255 
132 132 132 0 0 0 255 255 255 247 214 165 189 123 57 0 0 0 189 189 189 
189 189 189 132 132 132 0 0 0 255 255 247 255 255 247 255 255 247 255 255 247 
255 255 247 0 0 0 222 222 222 255 255 255 255 255 255 255 255 255 132 132 132 
189 189 189 189 189 189 255 255 255 255 255 255 255 255 255 132 132 132 
0 0 0 255 255 255 247 214 165 189 123 57 0 0 0 132 132 132 189 189 189 
132 132 132 0 0 0 255 255 247 255 255 247 255 255 247 255 255 247 255 255 247 
0 0 0 222 222 222 107 107 107 0 0 0 0 0 0 0 0 0 189 189 189 189 189 189 
107 107 107 0 0 0 0 0 0 0 0 0 0 0 0 255 255 255 247 214 165 189 123 57 
0 0 0 0 0 0 255 255 255 0 0 0 0 0 0 255 255 247 255 255 247 255 255 247 
255 255 247 255 255 247 0 0 0 222 222 222 189 189 189 189 189 189 189 189 189 
189 189 189 198 198 198 189 189 189 189 189 189 189 189 189 189 189 189 
189 189 189 0 0 0 255 255 255 247 214 165 189 123 57 247 214 198 189 123 57 
0 0 0 247 214 198 189 123 57 0 0 0 0 0 0 0 0 0 255 255 247 255 255 247 
0 0 0 222 222 222 189 189 189 198 198 198 189 189 189 189 189 189 189 189 189 
198 198 198 189 189 189 198 198 198 189 189 189 0 0 0 0 0 0 255 255 255 
247 214 165 189 123 57 255 255 255 247 214 165 189 123 57 255 255 255 247 214 165 
189 123 57 247 214 198 189 123 57 0 0 0 255 255 247 0 0 0 189 189 189 132 132 132 
132 132 132 132 132 132 132 132 132 132 132 132 132 132 132 0 0 0 0 0 0 
0 0 0 132 132 132 0 0 0 255 255 255 247 214 165 189 123 57 255 255 255 
247 214 165 189 123 57 255 255 255 247 214 165 189 123 57 255 255 255 247 214 165 
189 123 57 0 0 0 255 255 247 0 0 0 0 0 0 0 0 0 0 0 0 0 0 0 0 0 0 0 0 0 
247 214 198 189 123 57 189 123 57 0 0 0 0 0 0 255 255 255 247 214 165 189 123 57 
255 255 255 247 214 165 189 123 57 255 255 255 247 214 165 189 123 57 255 255 255 
247 214 165 189 123 57 0 0 0 255 255 247 255 255 247 255 255 247 255 255 247 
255 255 247 255 255 247 255 255 247 0 0 0 255 255 255 231 189 132 189 123 57 
189 123 57 247 214 165 255 255 255 247 214 165 189 123 57 255 255 255 247 214 165 
189 123 57 255 255 255 247 214 165 189 123 57 255 255 255 247 214 165 189 123 57 
0 0 0 255 255 247 255 255 247 255 255 247 255 255 247 255 255 247 255 255 247 
255 255 247 255 255 247 0 0 0 255 255 255 231 189 132 247 214 165 247 214 165 
255 255 255 247 214 165 247 214 165 247 214 165 247 214 165 247 214 165 
247 214 165 247 214 165 247 214 165 247 214 165 247 214 165 189 123 57 
0 0 0 255 255 247 255 255 247 255 255 247 255 255 247 255 255 247 255 255 247 
255 255 247 255 255 247 255 255 247 0 0 0 255 255 255 231 189 132 247 214 165 
247 214 165 247 214 165 247 214 165 247 214 165 247 214 165 247 214 165 
247 214 165 247 214 165 247 214 165 247 214 165 247 214 165 189 123 57 
0 0 0 255 255 247 255 255 247 255 255 247 255 255 247 255 255 247 255 255 247 
255 255 247 255 255 247 255 255 247 255 255 247 0 0 0 255 255 255 231 189 132 
247 214 165 247 214 165 247 214 165 247 214 165 247 214 165 247 214 165 
247 214 165 247 214 165 247 214 165 247 214 165 231 189 132 189 123 57 
0 0 0 255 255 247 255 255 247 255 255 247 255 255 247 255 255 247 255 255 247 
255 255 247 255 255 247 255 255 247 255 255 247 0 0 0 255 255 255 231 189 132 
247 214 165 247 214 165 247 214 165 247 214 165 247 214 165 247 214 165 
247 214 165 247 214 165 247 214 165 247 214 165 231 189 132 189 123 57 
0 0 0 255 255 247 255 255 247 255 255 247 255 255 247 255 255 247 255 255 247 
255 255 247 255 255 247 255 255 247 255 255 247 255 255 247 0 0 0 255 255 255 
231 189 132 247 214 165 247 214 165 247 214 165 247 214 165 247 214 165 
247 214 165 247 214 165 247 214 165 247 214 165 189 123 57 189 123 57 0 0 0 
255 255 247 255 255 247 255 255 247 255 255 247 255 255 247 255 255 247 
255 255 247 255 255 247 255 255 247 255 255 247 255 255 247 0 0 0 255 255 255 
231 189 132 247 214 165 247 214 165 247 214 165 247 214 165 247 214 165 
247 214 165 247 214 165 247 214 165 231 189 132 189 123 57 0 0 0 255 255 222 
255 255 247 255 255 247 255 255 247 255 255 247 255 255 247 255 255 247 
255 255 247 255 255 247 255 255 247 255 255 247 255 255 247 255 255 247 
0 0 0 189 123 57 231 189 132 247 214 165 247 214 165 247 214 165 247 214 165 
247 214 165 247 214 165 247 214 165 231 189 132 189 123 57 0 0 0 255 247 222 
255 255 247 255 255 247 255 255 247 255 255 247 255 255 247 255 255 247 
255 255 247 255 255 247 255 255 247 255 255 247 255 255 247 255 255 247 
0 0 0 189 123 57 231 189 132 247 214 165 247 214 165 247 214 165 247 214 165 
247 214 165 247 214 165 231 189 132 189 123 57 0 0 0 255 247 222 255 247 222 
255 255 247 255 255 247 255 255 247 255 255 247 255 255 247 255 255 247 
255 255 247 255 255 247 255 255 247 255 255 247 255 255 247 255 255 247 
0 0 0 0 0 0 0 0 0 0 0 0 0 0 0 0 0 0 0 0 0 0 0 0 0 0 0 0 0 0 0 0 0 0 0 0 
255 247 222 255 247 222 255 255 247 255 255 247 255 255 247 255 255 247 
255 255 247 255 255 247 255 255 247 255 255 247 255 255 247 255 255 247 
255 255 247 0 0 0 206 206 206 206 206 206 239 239 239 239 239 239 255 255 255 
255 255 255 255 255 255 255 255 255 255 255 255 255 255 255 255 255 255 
206 206 206 0 0 0 255 247 222 255 255 247 255 255 247 255 255 247 255 255 247 
255 255 247 255 255 247 255 255 247 255 255 247 255 255 247 255 255 247 
255 255 247 0 0 0 214 214 214 206 206 206 239 239 239 239 239 239 255 255 255 
255 255 255 255 255 255 255 255 255 255 255 255 0 0 0 0 0 0 206 206 206 
0 0 0 255 247 222 255 255 247 255 255 247 255 255 247 255 255 247 255 255 247 
255 255 247 255 255 247 255 255 247 255 255 247 255 255 247 255 255 247 
0 0 0 206 206 206 206 206 206 239 239 239 239 239 239 255 255 255 255 255 255 
255 255 255 255 255 255 255 255 255 0 0 0 255 255 255 206 206 206 0 0 0 
255 247 222 255 255 247 255 255 247 255 255 247 255 255 247 255 255 247 
255 255 247 255 255 247 255 255 247 255 255 247 255 255 247 255 255 247 
0 0 0 214 214 214 206 206 206 239 239 239 231 231 231 255 255 255 255 255 255 
255 255 255 255 255 255 255 255 255 255 247 222 255 247 222 206 206 206 
0 0 0 255 247 222 255 255 247 255 255 247 255 255 247 255 255 247 255 255 247 
255 255 247 255 255 247 255 255 247 255 255 247 255 255 247 255 255 247 
0 0 0 0 0 0 0 0 0 0 0 0 0 0 0 0 0 0 0 0 0 0 0 0 0 0 0 0 0 0 0 0 0 0 0 0 
0 0 0 0 0 0 255 247 222 
