P3
# Created by Paint Shop Pro 6
48 47
255
255 255 240 255 255 240 255 255 240 255 255 240 255 255 240 234 234 234 
234 234 234 234 234 234 234 234 234 234 234 234 234 234 234 234 234 234 
234 234 234 255 255 240 255 255 240 255 255 240 255 255 240 255 255 240 
255 255 240 255 255 240 255 255 240 255 255 240 255 255 240 255 255 240 
255 255 240 255 255 240 255 255 240 255 255 240 255 255 240 255 255 240 
255 255 240 255 255 240 255 255 240 255 255 240 255 255 240 255 255 240 
255 255 240 255 255 240 255 255 240 255 255 240 255 255 240 255 255 240 
255 255 240 255 255 240 255 255 240 255 255 240 255 255 240 255 255 240 
255 255 240 255 255 240 255 255 240 234 234 234 234 234 234 234 234 234 
0 0 0 0 0 0 0 0 0 0 0 0 0 0 0 0 0 0 234 234 234 234 234 234 234 234 234 
255 255 240 255 255 240 255 255 240 255 255 240 255 255 240 255 255 240 
255 255 240 255 255 240 255 255 240 255 255 240 255 255 240 255 255 240 
255 255 240 255 255 240 255 255 240 255 255 240 255 255 240 255 255 240 
255 255 240 255 255 240 255 255 240 255 255 240 255 255 240 255 255 240 
255 255 240 255 255 240 255 255 240 255 255 240 255 255 240 255 255 240 
255 255 240 255 255 240 255 255 240 255 255 240 255 255 240 234 234 234 
234 234 234 0 0 0 0 0 0 223 255 255 223 255 255 223 255 255 223 255 255 
63 159 255 223 255 255 0 0 0 0 0 0 234 234 234 234 234 234 255 255 240 
255 255 240 255 255 240 255 255 240 255 255 240 255 255 240 255 255 240 
255 255 240 255 255 240 255 255 240 255 255 240 255 255 240 255 255 240 
255 255 240 255 255 240 255 255 240 255 255 240 255 255 240 255 255 240 
255 255 240 255 255 240 255 255 240 255 255 240 255 255 240 255 255 240 
255 255 240 255 255 240 255 255 240 255 255 240 255 255 240 255 255 240 
255 255 240 255 255 240 234 234 234 234 234 234 0 0 0 223 255 255 223 255 255 
223 255 255 223 255 255 223 255 255 223 255 255 223 255 255 223 255 255 
223 255 255 223 255 255 0 0 0 234 234 234 234 234 234 255 255 240 255 255 240 
255 255 240 255 255 240 255 255 240 255 255 240 255 255 240 255 255 240 
255 255 240 255 255 240 255 255 240 255 255 240 255 255 240 255 255 240 
255 255 240 255 255 240 255 255 240 255 255 240 255 255 240 255 255 240 
255 255 240 255 255 240 255 255 240 255 255 240 255 255 240 255 255 240 
255 255 240 255 255 240 255 255 240 255 255 240 255 255 240 255 255 240 
234 234 234 0 0 0 223 255 255 63 159 255 223 255 255 223 255 255 223 255 255 
63 159 255 63 159 255 223 255 255 223 255 255 223 255 255 223 255 255 223 255 255 
0 0 0 234 234 234 234 234 234 255 255 240 255 255 240 255 255 240 255 255 240 
255 255 240 255 255 240 255 255 240 255 255 240 255 255 240 255 255 240 
255 255 240 255 255 240 255 255 240 255 255 240 255 255 240 255 255 240 
255 255 240 255 255 240 255 255 240 255 255 240 255 255 240 255 255 240 
255 255 240 255 255 240 255 255 240 255 255 240 255 255 240 255 255 240 
255 255 240 255 255 240 255 255 240 234 234 234 0 0 0 223 255 255 223 255 255 
223 255 255 223 255 255 63 159 255 223 255 255 223 255 255 63 159 255 223 255 255 
223 255 255 223 255 255 223 255 255 223 255 255 0 0 0 234 234 234 234 234 234 
255 255 240 255 255 240 255 255 240 255 255 240 255 255 240 255 255 240 
255 255 240 255 255 240 255 255 240 255 255 240 255 255 240 255 255 240 
255 255 240 255 255 240 255 255 240 255 255 240 255 255 240 255 255 240 
255 255 240 255 255 240 255 255 240 255 255 240 255 255 240 255 255 240 
255 255 240 255 255 240 255 255 240 255 255 240 255 255 240 234 234 234 
234 234 234 0 0 0 223 255 255 223 255 255 223 255 255 223 255 255 63 159 255 
223 255 255 223 255 255 63 159 255 223 255 255 223 255 255 223 255 255 
223 255 255 223 255 255 223 255 255 0 0 0 234 234 234 255 255 240 255 255 240 
255 255 240 255 255 240 255 255 240 255 255 240 255 255 240 255 255 240 
255 255 240 255 255 240 255 255 240 255 255 240 255 255 240 255 255 240 
255 255 240 255 255 240 255 255 240 255 255 240 255 255 240 255 255 240 
255 255 240 255 255 240 255 255 240 255 255 240 255 255 240 255 255 240 
255 255 240 255 255 240 255 255 240 234 234 234 0 0 0 127 223 255 223 255 255 
223 255 255 223 255 255 223 255 255 223 255 255 63 159 255 63 159 255 223 255 255 
223 255 255 127 223 255 127 223 255 127 223 255 127 223 255 223 255 255 
0 0 0 234 234 234 234 234 234 255 255 240 255 255 240 255 255 240 255 255 240 
255 255 240 255 255 240 255 255 240 255 255 240 255 255 240 255 255 240 
255 255 240 255 255 240 255 255 240 255 255 240 255 255 240 255 255 240 
255 255 240 255 255 240 255 255 240 255 255 240 255 255 240 255 255 240 
255 255 240 255 255 240 255 255 240 255 255 240 255 255 240 255 255 240 
234 234 234 0 0 0 80 144 224 223 255 255 223 255 255 223 255 255 223 255 255 
223 255 255 223 255 255 223 255 255 223 255 255 127 223 255 0 0 0 0 0 0 
0 0 0 0 0 0 127 223 255 223 255 255 0 0 0 234 234 234 255 255 240 255 255 240 
255 255 240 255 255 240 255 255 240 255 255 240 255 255 240 255 255 240 
255 255 240 255 255 240 255 255 240 255 255 240 255 255 240 255 255 240 
255 255 240 255 255 240 255 255 240 255 255 240 255 255 240 255 255 240 
255 255 240 255 255 240 255 255 240 255 255 240 255 255 240 255 255 240 
255 255 240 255 255 240 234 234 234 0 0 0 80 144 224 127 223 255 223 255 255 
223 255 255 223 255 255 223 255 255 127 223 255 0 0 0 0 0 0 0 0 0 255 255 255 
255 255 255 255 159 127 255 159 127 0 0 0 223 255 255 0 0 0 234 234 234 
234 234 234 255 255 240 255 255 240 255 255 240 255 255 240 255 255 240 
255 255 240 255 255 240 255 255 240 255 255 240 255 255 240 255 255 240 
255 255 240 255 255 240 255 255 240 255 255 240 255 255 240 255 255 240 
255 255 240 255 255 240 255 255 240 255 255 240 255 255 240 255 255 240 
255 255 240 255 255 240 255 255 240 255 255 240 234 234 234 0 0 0 80 144 224 
80 144 224 223 255 255 223 255 255 127 223 255 0 0 0 0 0 0 255 159 127 
255 159 127 255 159 127 255 255 255 255 255 255 255 159 127 255 159 127 
0 0 0 127 223 255 223 255 255 0 0 0 234 234 234 255 255 240 255 255 240 
255 255 240 255 255 240 255 255 240 255 255 240 255 255 240 255 255 240 
255 255 240 255 255 240 255 255 240 255 255 240 255 255 240 255 255 240 
255 255 240 255 255 240 255 255 240 255 255 240 255 255 240 255 255 240 
255 255 240 255 255 240 255 255 240 255 255 240 255 255 240 255 255 240 
255 255 240 234 234 234 234 234 234 0 0 0 80 144 224 127 223 255 223 255 255 
0 0 0 255 255 255 255 255 255 255 159 127 255 159 127 255 159 127 255 255 255 
255 255 255 255 159 127 255 159 127 255 159 127 0 0 0 223 255 255 0 0 0 
234 234 234 234 234 234 255 255 240 255 255 240 255 255 240 255 255 240 
255 255 240 255 255 240 255 255 240 255 255 240 255 255 240 255 255 240 
255 255 240 255 255 240 255 255 240 255 255 240 255 255 240 255 255 240 
255 255 240 255 255 240 255 255 240 255 255 240 255 255 240 255 255 240 
255 255 240 255 255 240 255 255 240 255 255 240 255 255 240 234 234 234 
0 0 0 80 144 224 80 144 224 223 255 255 0 0 0 255 255 255 255 255 255 255 159 127 
255 159 127 255 159 127 255 255 255 255 255 255 255 159 127 255 159 127 
255 159 127 0 0 0 127 223 255 223 255 255 0 0 0 234 234 234 255 255 240 
255 255 240 255 255 240 255 255 240 255 255 240 255 255 240 255 255 240 
255 255 240 255 255 240 255 255 240 255 255 240 255 255 240 255 255 240 
255 255 240 255 255 240 255 255 240 255 255 240 255 255 240 255 255 240 
255 255 240 255 255 240 255 255 240 255 255 240 255 255 240 255 255 240 
255 255 240 255 255 240 234 234 234 234 234 234 0 0 0 80 144 224 127 223 255 
0 0 0 255 255 255 255 255 255 255 159 127 255 159 127 255 159 127 255 255 255 
255 255 255 255 159 127 255 159 127 255 159 127 255 255 255 0 0 0 223 255 255 
0 0 0 234 234 234 234 234 234 255 255 240 255 255 240 255 255 240 255 255 240 
255 255 240 255 255 240 255 255 240 255 255 240 255 255 240 255 255 240 
255 255 240 255 255 240 255 255 240 255 255 240 255 255 240 255 255 240 
255 255 240 255 255 240 255 255 240 255 255 240 255 255 240 255 255 240 
255 255 240 255 255 240 255 255 240 255 255 240 255 255 240 234 234 234 
0 0 0 80 144 224 80 144 224 223 255 255 0 0 0 255 255 255 255 159 127 255 159 127 
255 159 127 255 255 255 255 255 255 255 159 127 255 159 127 255 159 127 
255 255 255 0 0 0 127 223 255 223 255 255 0 0 0 234 234 234 255 255 240 
255 255 240 255 255 240 255 255 240 255 255 240 255 255 240 255 255 240 
255 255 240 255 255 240 255 255 240 255 255 240 255 255 240 255 255 240 
255 255 240 255 255 240 255 255 240 255 255 240 255 255 240 255 255 240 
255 255 240 255 255 240 255 255 240 255 255 240 255 255 240 255 255 240 
255 255 240 255 255 240 234 234 234 234 234 234 0 0 0 80 144 224 127 223 255 
0 0 0 255 255 255 255 159 127 255 159 127 255 255 255 255 255 255 255 255 255 
255 159 127 255 159 127 255 159 127 255 255 255 255 255 255 0 0 0 223 255 255 
0 0 0 234 234 234 234 234 234 255 255 240 255 255 240 255 255 240 255 255 240 
255 255 240 255 255 240 255 255 240 255 255 240 255 255 240 255 255 240 
255 255 240 255 255 240 255 255 240 255 255 240 255 255 240 255 255 240 
255 255 240 255 255 240 255 255 240 255 255 240 255 255 240 255 255 240 
255 255 240 255 255 240 255 255 240 255 255 240 255 255 240 234 234 234 
0 0 0 80 144 224 80 144 224 223 255 255 0 0 0 255 159 127 255 159 127 255 255 255 
255 255 255 255 255 255 255 159 127 255 159 127 255 159 127 255 255 255 
255 255 255 0 0 0 127 223 255 223 255 255 0 0 0 234 234 234 255 255 240 
255 255 240 255 255 240 255 255 240 255 255 240 255 255 240 255 255 240 
255 255 240 255 255 240 255 255 240 255 255 240 255 255 240 255 255 240 
255 255 240 255 255 240 255 255 240 255 255 240 255 255 240 255 255 240 
255 255 240 255 255 240 255 255 240 255 255 240 255 255 240 255 255 240 
255 255 240 255 255 240 234 234 234 234 234 234 0 0 0 80 144 224 127 223 255 
0 0 0 255 159 127 255 159 127 255 255 255 255 255 255 255 255 255 255 159 127 
255 159 127 255 159 127 255 255 255 255 255 255 255 255 255 0 0 0 223 255 255 
0 0 0 234 234 234 234 234 234 255 255 240 255 255 240 255 255 240 255 255 240 
255 255 240 255 255 240 255 255 240 255 255 240 255 255 240 255 255 240 
255 255 240 255 255 240 255 255 240 255 255 240 255 255 240 255 255 240 
255 255 240 255 255 240 255 255 240 255 255 240 255 255 240 255 255 240 
255 255 240 255 255 240 255 255 240 255 255 240 255 255 240 234 234 234 
0 0 0 80 144 224 80 144 224 223 255 255 0 0 0 255 159 127 255 255 255 255 255 255 
255 255 255 255 159 127 255 159 127 255 159 127 255 255 255 255 255 255 
255 255 255 0 0 0 127 223 255 223 255 255 0 0 0 234 234 234 234 234 234 
255 255 240 255 255 240 255 255 240 255 255 240 255 255 240 255 255 240 
255 255 240 255 255 240 255 255 240 255 255 240 255 255 240 255 255 240 
255 255 240 255 255 240 255 255 240 255 255 240 255 255 240 255 255 240 
255 255 240 255 255 240 255 255 240 255 255 240 255 255 240 255 255 240 
255 255 240 255 255 240 234 234 234 234 234 234 0 0 0 80 144 224 127 223 255 
0 0 0 255 159 127 255 255 255 255 255 255 255 255 255 255 255 255 255 159 127 
255 159 127 255 255 255 255 255 255 255 255 255 255 255 255 0 0 0 127 223 255 
223 255 255 0 0 0 234 234 234 255 255 240 255 255 240 255 255 240 255 255 240 
255 255 240 255 255 240 255 255 240 255 255 240 255 255 240 255 255 240 
255 255 240 255 255 240 255 255 240 255 255 240 255 255 240 255 255 240 
255 255 240 255 255 240 255 255 240 255 255 240 255 255 240 255 255 240 
255 255 240 255 255 240 255 255 240 255 255 240 255 255 240 234 234 234 
0 0 0 80 144 224 80 144 224 223 255 255 0 0 0 255 255 255 255 255 255 255 255 255 
255 255 255 255 159 127 255 159 127 255 255 255 255 255 255 0 0 0 0 0 0 
127 223 255 223 255 255 223 255 255 0 0 0 234 234 234 234 234 234 255 255 240 
255 255 240 255 255 240 255 255 240 255 255 240 255 255 240 255 255 240 
255 255 240 255 255 240 255 255 240 255 255 240 255 255 240 255 255 240 
255 255 240 255 255 240 255 255 240 255 255 240 255 255 240 255 255 240 
255 255 240 255 255 240 255 255 240 255 255 240 255 255 240 255 255 240 
255 255 240 234 234 234 234 234 234 0 0 0 80 144 224 127 223 255 0 0 0 
255 255 255 255 255 255 255 255 255 255 255 255 255 159 127 255 159 127 
0 0 0 0 0 0 127 223 255 127 223 255 223 255 255 223 255 255 223 255 255 
0 0 0 0 0 0 234 234 234 234 234 234 255 255 240 255 255 240 255 255 240 
255 255 240 255 255 240 255 255 240 255 255 240 255 255 240 255 255 240 
255 255 240 255 255 240 255 255 240 255 255 240 255 255 240 255 255 240 
255 255 240 255 255 240 255 255 240 255 255 240 255 255 240 255 255 240 
255 255 240 255 255 240 255 255 240 255 255 240 255 255 240 234 234 234 
0 0 0 80 144 224 80 144 224 223 255 255 0 0 0 255 255 255 255 255 255 0 0 0 
0 0 0 0 0 0 127 223 255 127 223 255 223 255 255 223 255 255 0 0 0 0 0 0 
223 255 255 223 255 255 127 223 255 0 0 0 234 234 234 255 255 240 255 255 240 
255 255 240 255 255 240 255 255 240 255 255 240 255 255 240 255 255 240 
255 255 240 255 255 240 255 255 240 255 255 240 255 255 240 255 255 240 
255 255 240 255 255 240 255 255 240 255 255 240 255 255 240 255 255 240 
255 255 240 255 255 240 255 255 240 255 255 240 255 255 240 255 255 240 
234 234 234 234 234 234 0 0 0 80 144 224 127 223 255 223 255 255 0 0 0 
0 0 0 127 223 255 127 223 255 127 223 255 223 255 255 223 255 255 223 255 255 
223 255 255 223 255 255 127 223 255 0 0 0 127 223 255 223 255 255 0 0 0 
234 234 234 234 234 234 255 255 240 255 255 240 255 255 240 255 255 240 
255 255 240 255 255 240 255 255 240 255 255 240 255 255 240 255 255 240 
255 255 240 255 255 240 255 255 240 255 255 240 255 255 240 255 255 240 
255 255 240 255 255 240 255 255 240 255 255 240 255 255 240 255 255 240 
255 255 240 255 255 240 255 255 240 255 255 240 234 234 234 0 0 0 80 144 224 
80 144 224 223 255 255 127 223 255 127 223 255 223 255 255 223 255 255 
223 255 255 223 255 255 223 255 255 223 255 255 127 223 255 127 223 255 
127 223 255 0 0 0 80 144 224 223 255 255 223 255 255 0 0 0 234 234 234 
234 234 234 234 234 234 255 255 240 255 255 240 255 255 240 255 255 240 
255 255 240 255 255 240 255 255 240 255 255 240 255 255 240 255 255 240 
255 255 240 255 255 240 255 255 240 255 255 240 255 255 240 255 255 240 
255 255 240 255 255 240 255 255 240 255 255 240 255 255 240 255 255 240 
255 255 240 255 255 240 234 234 234 234 234 234 0 0 0 80 144 224 127 223 255 
223 255 255 223 255 255 223 255 255 223 255 255 223 255 255 223 255 255 
127 223 255 127 223 255 127 223 255 127 223 255 80 144 224 80 144 224 223 255 255 
223 255 255 223 255 255 223 255 255 0 0 0 0 0 0 234 234 234 234 234 234 
234 234 234 255 255 240 255 255 240 255 255 240 255 255 240 255 255 240 
255 255 240 255 255 240 255 255 240 255 255 240 255 255 240 255 255 240 
255 255 240 255 255 240 255 255 240 255 255 240 255 255 240 255 255 240 
255 255 240 255 255 240 255 255 240 255 255 240 255 255 240 255 255 240 
234 234 234 0 0 0 80 144 224 80 144 224 223 255 255 0 0 0 0 0 0 0 0 0 127 223 255 
127 223 255 127 223 255 127 223 255 80 144 224 80 144 224 223 255 255 223 255 255 
223 255 255 223 255 255 80 144 224 80 144 224 223 255 255 223 255 255 0 0 0 
0 0 0 234 234 234 234 234 234 234 234 234 255 255 240 255 255 240 255 255 240 
255 255 240 255 255 240 255 255 240 255 255 240 255 255 240 255 255 240 
255 255 240 255 255 240 255 255 240 255 255 240 255 255 240 255 255 240 
255 255 240 255 255 240 255 255 240 255 255 240 164 164 164 164 164 164 
164 164 164 164 164 164 0 0 0 0 0 0 80 144 224 127 223 255 223 255 255 
223 255 255 0 0 0 127 223 255 80 144 224 80 144 224 223 255 255 223 255 255 
223 255 255 223 255 255 80 144 224 80 144 224 223 255 255 223 255 255 223 255 255 
223 255 255 223 255 255 223 255 255 0 0 0 0 0 0 234 234 234 234 234 234 
234 234 234 255 255 240 255 255 240 255 255 240 255 255 240 255 255 240 
255 255 240 255 255 240 255 255 240 255 255 240 255 255 240 255 255 240 
255 255 240 255 255 240 255 255 240 255 255 240 164 164 164 164 164 164 
164 164 164 164 164 164 164 164 164 164 164 164 164 164 164 164 164 164 
0 0 0 80 144 224 127 223 255 223 255 255 0 0 0 80 144 224 223 255 255 223 255 255 
223 255 255 223 255 255 223 255 255 223 255 255 127 223 255 127 223 255 
80 144 224 223 255 255 223 255 255 223 255 255 223 255 255 223 255 255 
223 255 255 223 255 255 0 0 0 0 0 0 234 234 234 234 234 234 234 234 234 
255 255 240 255 255 240 255 255 240 255 255 240 255 255 240 255 255 240 
255 255 240 255 255 240 255 255 240 255 255 240 255 255 240 164 164 164 
164 164 164 164 164 164 164 164 164 164 164 164 164 164 164 164 164 164 
164 164 164 164 164 164 164 164 164 0 0 0 80 144 224 127 223 255 127 223 255 
80 144 224 223 255 255 223 255 255 223 255 255 223 255 255 223 255 255 
80 144 224 127 223 255 127 223 255 80 144 224 80 144 224 223 255 255 223 255 255 
223 255 255 31 31 191 80 144 224 127 223 255 223 255 255 223 255 255 223 255 255 
0 0 0 0 0 0 234 234 234 234 234 234 234 234 234 255 255 240 255 255 240 
255 255 240 255 255 240 255 255 240 255 255 240 255 255 240 164 164 164 
164 164 164 164 164 164 164 164 164 164 164 164 164 164 164 164 164 164 
164 164 164 164 164 164 164 164 164 164 164 164 164 164 164 0 0 0 80 144 224 
223 255 255 223 255 255 223 255 255 223 255 255 223 255 255 80 144 224 
80 144 224 223 255 255 80 144 224 80 144 224 80 144 224 223 255 255 223 255 255 
223 255 255 223 255 255 223 255 255 223 255 255 223 255 255 31 31 191 80 144 224 
127 223 255 223 255 255 223 255 255 223 255 255 0 0 0 0 0 0 234 234 234 
234 234 234 234 234 234 255 255 240 255 255 240 255 255 240 255 255 240 
255 255 240 255 255 240 255 255 240 164 164 164 164 164 164 164 164 164 
164 164 164 164 164 164 164 164 164 164 164 164 164 164 164 164 164 164 
164 164 164 0 0 0 80 144 224 80 144 224 80 144 224 127 223 255 223 255 255 
223 255 255 223 255 255 223 255 255 223 255 255 223 255 255 223 255 255 
223 255 255 223 255 255 223 255 255 31 31 191 80 144 224 127 223 255 223 255 255 
223 255 255 223 255 255 223 255 255 31 31 191 80 144 224 127 223 255 223 255 255 
223 255 255 223 255 255 0 0 0 0 0 0 234 234 234 234 234 234 234 234 234 
255 255 240 255 255 240 255 255 240 255 255 240 255 255 240 255 255 240 
255 255 240 164 164 164 164 164 164 164 164 164 164 164 164 164 164 164 
164 164 164 164 164 164 164 164 164 0 0 0 80 144 224 80 144 224 80 144 224 
80 144 224 80 144 224 127 223 255 223 255 255 223 255 255 223 255 255 223 255 255 
31 31 191 80 144 224 127 223 255 223 255 255 223 255 255 223 255 255 31 31 191 
80 144 224 127 223 255 223 255 255 223 255 255 223 255 255 223 255 255 
31 31 191 80 144 224 127 223 255 223 255 255 223 255 255 223 255 255 0 0 0 
0 0 0 234 234 234 234 234 234 234 234 234 255 255 240 255 255 240 255 255 240 
255 255 240 255 255 240 255 255 240 255 255 240 164 164 164 164 164 164 
164 164 164 164 164 164 164 164 164 164 164 164 0 0 0 80 144 224 80 144 224 
31 94 173 31 94 173 80 144 224 80 144 224 80 144 224 127 223 255 223 255 255 
223 255 255 223 255 255 223 255 255 31 31 191 80 144 224 127 223 255 223 255 255 
223 255 255 223 255 255 31 31 191 80 144 224 127 223 255 223 255 255 223 255 255 
223 255 255 223 255 255 223 255 255 223 255 255 223 255 255 223 255 255 
223 255 255 223 255 255 0 0 0 0 0 0 234 234 234 234 234 234 255 255 240 
255 255 240 255 255 240 255 255 240 255 255 240 255 255 240 255 255 240 
255 255 240 164 164 164 164 164 164 164 164 164 164 164 164 0 0 0 31 94 173 
31 94 173 80 144 224 80 144 224 31 94 173 80 144 224 80 144 224 80 144 224 
80 144 224 127 223 255 223 255 255 223 255 255 223 255 255 223 255 255 
31 31 191 80 144 224 127 223 255 223 255 255 223 255 255 223 255 255 31 31 191 
80 144 224 127 223 255 223 255 255 223 255 255 223 255 255 223 255 255 
223 255 255 80 144 224 223 255 255 223 255 255 223 255 255 127 223 255 
0 0 0 234 234 234 255 255 240 255 255 240 255 255 240 255 255 240 255 255 240 
255 255 240 255 255 240 255 255 240 255 255 240 255 255 240 164 164 164 
164 164 164 129 129 129 0 0 0 0 0 0 31 94 173 31 94 173 80 144 224 80 144 224 
80 144 224 80 144 224 80 144 224 80 144 224 80 144 224 127 223 255 223 255 255 
223 255 255 223 255 255 223 255 255 31 31 191 80 144 224 127 223 255 223 255 255 
223 255 255 223 255 255 223 255 255 223 255 255 223 255 255 223 255 255 
80 144 224 80 144 224 223 255 255 223 255 255 223 255 255 223 255 255 127 223 255 
0 0 0 234 234 234 255 255 240 255 255 240 255 255 240 255 255 240 255 255 240 
255 255 240 255 255 240 255 255 240 255 255 240 255 255 240 255 255 240 
164 164 164 164 164 164 129 129 129 129 129 129 0 0 0 0 0 0 31 94 173 31 94 173 
80 144 224 80 144 224 80 144 224 80 144 224 80 144 224 80 144 224 80 144 224 
127 223 255 223 255 255 223 255 255 223 255 255 223 255 255 223 255 255 
223 255 255 223 255 255 223 255 255 223 255 255 223 255 255 80 144 224 
80 144 224 223 255 255 223 255 255 223 255 255 223 255 255 223 255 255 
127 223 255 80 144 224 0 0 0 234 234 234 255 255 240 255 255 240 255 255 240 
255 255 240 255 255 240 255 255 240 255 255 240 255 255 240 255 255 240 
255 255 240 255 255 240 255 255 240 255 255 240 164 164 164 164 164 164 
129 129 129 129 129 129 0 0 0 0 0 0 31 94 173 31 94 173 80 144 224 80 144 224 
80 144 224 80 144 224 80 144 224 80 144 224 80 144 224 127 223 255 223 255 255 
223 255 255 223 255 255 223 255 255 223 255 255 223 255 255 223 255 255 
80 144 224 223 255 255 223 255 255 223 255 255 223 255 255 223 255 255 
127 223 255 80 144 224 80 144 224 80 144 224 0 0 0 234 234 234 255 255 240 
255 255 240 255 255 240 255 255 240 255 255 240 255 255 240 255 255 240 
255 255 240 255 255 240 255 255 240 255 255 240 255 255 240 255 255 240 
255 255 240 255 255 240 164 164 164 164 164 164 129 129 129 129 129 129 
0 0 0 0 0 0 31 94 173 31 94 173 80 144 224 80 144 224 80 144 224 80 144 224 
80 144 224 80 144 224 80 144 224 127 223 255 223 255 255 223 255 255 223 255 255 
223 255 255 223 255 255 223 255 255 223 255 255 223 255 255 223 255 255 
127 223 255 80 144 224 80 144 224 80 144 224 80 144 224 80 144 224 0 0 0 
234 234 234 255 255 240 255 255 240 255 255 240 255 255 240 255 255 240 
255 255 240 255 255 240 255 255 240 255 255 240 255 255 240 255 255 240 
255 255 240 255 255 240 255 255 240 255 255 240 255 255 240 255 255 240 
164 164 164 164 164 164 129 129 129 129 129 129 0 0 0 0 0 0 31 94 173 31 94 173 
80 144 224 80 144 224 80 144 224 80 144 224 80 144 224 80 144 224 80 144 224 
127 223 255 127 223 255 127 223 255 127 223 255 127 223 255 127 223 255 
127 223 255 80 144 224 80 144 224 80 144 224 80 144 224 80 144 224 80 144 224 
80 144 224 0 0 0 234 234 234 255 255 240 255 255 240 255 255 240 255 255 240 
255 255 240 255 255 240 255 255 240 255 255 240 255 255 240 255 255 240 
255 255 240 255 255 240 255 255 240 255 255 240 255 255 240 255 255 240 
255 255 240 255 255 240 255 255 240 164 164 164 164 164 164 129 129 129 
129 129 129 0 0 0 0 0 0 31 94 173 31 94 173 80 144 224 80 144 224 80 144 224 
80 144 224 80 144 224 80 144 224 80 144 224 80 144 224 80 144 224 80 144 224 
80 144 224 80 144 224 80 144 224 80 144 224 80 144 224 80 144 224 80 144 224 
31 94 173 31 94 173 0 0 0 234 234 234 255 255 240 255 255 240 255 255 240 
255 255 240 255 255 240 255 255 240 255 255 240 255 255 240 255 255 240 
255 255 240 255 255 240 255 255 240 255 255 240 255 255 240 255 255 240 
255 255 240 255 255 240 255 255 240 255 255 240 255 255 240 255 255 240 
164 164 164 164 164 164 129 129 129 129 129 129 0 0 0 0 0 0 31 94 173 31 94 173 
80 144 224 80 144 224 80 144 224 80 144 224 80 144 224 80 144 224 80 144 224 
80 144 224 80 144 224 80 144 224 80 144 224 80 144 224 80 144 224 31 94 173 
31 94 173 0 0 0 0 0 0 129 129 129 234 234 234 255 255 240 255 255 240 255 255 240 
255 255 240 255 255 240 255 255 240 255 255 240 255 255 240 255 255 240 
255 255 240 255 255 240 255 255 240 255 255 240 255 255 240 255 255 240 
255 255 240 255 255 240 255 255 240 255 255 240 255 255 240 255 255 240 
255 255 240 255 255 240 164 164 164 164 164 164 129 129 129 129 129 129 
0 0 0 0 0 0 31 94 173 31 94 173 80 144 224 80 144 224 80 144 224 80 144 224 
80 144 224 80 144 224 80 144 224 80 144 224 80 144 224 31 94 173 31 94 173 
0 0 0 0 0 0 129 129 129 129 129 129 164 164 164 255 255 240 255 255 240 
255 255 240 255 255 240 255 255 240 255 255 240 255 255 240 255 255 240 
255 255 240 255 255 240 255 255 240 255 255 240 255 255 240 255 255 240 
255 255 240 255 255 240 255 255 240 255 255 240 255 255 240 255 255 240 
255 255 240 255 255 240 255 255 240 255 255 240 255 255 240 255 255 240 
164 164 164 164 164 164 129 129 129 129 129 129 0 0 0 0 0 0 31 94 173 31 94 173 
31 94 173 31 94 173 31 94 173 31 94 173 31 94 173 31 94 173 31 94 173 0 0 0 
0 0 0 129 129 129 129 129 129 164 164 164 164 164 164 255 255 240 255 255 240 
255 255 240 255 255 240 255 255 240 255 255 240 255 255 240 255 255 240 
255 255 240 255 255 240 255 255 240 255 255 240 255 255 240 255 255 240 
255 255 240 255 255 240 255 255 240 255 255 240 255 255 240 255 255 240 
255 255 240 255 255 240 255 255 240 255 255 240 255 255 240 255 255 240 
255 255 240 255 255 240 255 255 240 164 164 164 164 164 164 129 129 129 
129 129 129 0 0 0 0 0 0 0 0 0 0 0 0 0 0 0 0 0 0 0 0 0 0 0 0 0 0 0 129 129 129 
129 129 129 164 164 164 164 164 164 255 255 240 255 255 240 255 255 240 
255 255 240 255 255 240 255 255 240 255 255 240 255 255 240 255 255 240 
255 255 240 255 255 240 255 255 240 255 255 240 255 255 240 255 255 240 
255 255 240 255 255 240 255 255 240 255 255 240 255 255 240 255 255 240 
255 255 240 255 255 240 255 255 240 255 255 240 255 255 240 255 255 240 
255 255 240 255 255 240 255 255 240 255 255 240 255 255 240 255 255 240 
164 164 164 164 164 164 129 129 129 129 129 129 129 129 129 129 129 129 
129 129 129 129 129 129 129 129 129 129 129 129 129 129 129 164 164 164 
164 164 164 255 255 240 255 255 240 255 255 240 255 255 240 255 255 240 
255 255 240 255 255 240 255 255 240 255 255 240 255 255 240 255 255 240 
255 255 240 255 255 240 255 255 240 255 255 240 255 255 240 255 255 240 
255 255 240 255 255 240 255 255 240 255 255 240 255 255 240 255 255 240 
255 255 240 255 255 240 255 255 240 255 255 240 255 255 240 255 255 240 
255 255 240 255 255 240 255 255 240 255 255 240 255 255 240 255 255 240 
255 255 240 255 255 240 164 164 164 164 164 164 164 164 164 164 164 164 
164 164 164 164 164 164 164 164 164 164 164 164 164 164 164 255 255 240 
255 255 240 255 255 240 255 255 240 255 255 240 255 255 240 255 255 240 
255 255 240 
