P3
# Created by Paint Shop Pro 6
16 16
255
255 255 255 255 255 255 192 192 192 192 192 192 192 192 192 255 255 255 
192 192 192 192 192 192 192 192 192 255 255 255 192 192 192 192 192 192 
192 192 192 255 255 255 255 255 255 255 255 255 255 255 255 192 192 192 
192 192 192 0 0 0 192 192 192 192 192 192 192 192 192 0 0 0 192 192 192 
192 192 192 192 192 192 0 0 0 192 192 192 255 255 255 255 255 255 255 255 255 
255 255 255 192 192 192 0 0 0 192 192 192 0 0 0 192 192 192 192 192 192 
0 0 0 0 0 0 192 192 192 0 0 0 0 0 0 192 192 192 255 255 255 255 255 255 
255 255 255 192 192 192 192 192 192 0 0 0 192 192 192 0 0 0 192 192 192 
192 192 192 0 0 0 0 0 0 0 0 0 0 0 0 0 0 0 192 192 192 255 255 255 255 255 255 
255 255 255 192 192 192 0 0 0 0 0 0 0 0 0 0 0 0 0 0 0 192 192 192 0 0 0 
192 192 192 0 0 0 192 192 192 0 0 0 192 192 192 255 255 255 255 255 255 
255 255 255 192 192 192 0 0 0 192 192 192 192 192 192 192 192 192 0 0 0 
192 192 192 0 0 0 192 192 192 192 192 192 192 192 192 0 0 0 192 192 192 
255 255 255 255 255 255 255 255 255 192 192 192 0 0 0 192 192 192 255 255 255 
192 192 192 0 0 0 192 192 192 0 0 0 192 192 192 255 255 255 192 192 192 
0 0 0 192 192 192 255 255 255 255 255 255 255 255 255 192 192 192 192 192 192 
192 192 192 255 255 255 192 192 192 192 192 192 192 192 192 192 192 192 
192 192 192 255 255 255 192 192 192 192 192 192 192 192 192 255 255 255 
255 255 255 255 255 255 192 192 192 192 192 192 192 192 192 192 192 192 
192 192 192 192 192 192 192 192 192 192 192 192 192 192 192 255 255 255 
192 192 192 192 192 192 192 192 192 255 255 255 255 255 255 255 255 255 
192 192 192 0 0 0 0 0 0 0 0 0 0 0 0 192 192 192 192 192 192 0 0 0 192 192 192 
192 192 192 192 192 192 0 0 0 192 192 192 255 255 255 255 255 255 255 255 255 
192 192 192 0 0 0 192 192 192 192 192 192 192 192 192 0 0 0 192 192 192 
0 0 0 0 0 0 192 192 192 0 0 0 0 0 0 192 192 192 255 255 255 255 255 255 
255 255 255 192 192 192 0 0 0 192 192 192 192 192 192 192 192 192 0 0 0 
192 192 192 0 0 0 0 0 0 0 0 0 0 0 0 0 0 0 192 192 192 255 255 255 255 255 255 
255 255 255 192 192 192 0 0 0 0 0 0 0 0 0 0 0 0 192 192 192 192 192 192 
0 0 0 192 192 192 0 0 0 192 192 192 0 0 0 192 192 192 255 255 255 255 255 255 
255 255 255 192 192 192 0 0 0 192 192 192 192 192 192 192 192 192 192 192 192 
192 192 192 0 0 0 192 192 192 192 192 192 192 192 192 0 0 0 192 192 192 
255 255 255 255 255 255 255 255 255 192 192 192 0 0 0 192 192 192 255 255 255 
255 255 255 255 255 255 192 192 192 0 0 0 192 192 192 255 255 255 192 192 192 
0 0 0 192 192 192 255 255 255 255 255 255 255 255 255 192 192 192 192 192 192 
192 192 192 255 255 255 255 255 255 255 255 255 192 192 192 192 192 192 
192 192 192 255 255 255 192 192 192 192 192 192 192 192 192 255 255 255 
255 255 255 255 255 255 
