P3
# Created by Paint Shop Pro 7
45 96
255
208 208 208 208 208 208 208 208 208 208 208 208 208 208 208 208 208 208 
208 208 208 208 208 208 208 208 208 208 208 208 208 208 208 208 208 208 
208 208 208 208 208 208 208 208 208 208 208 208 208 208 208 209 209 209 
209 209 209 211 211 211 211 211 211 212 212 212 212 212 212 212 212 212 
212 212 212 212 212 212 212 212 212 211 211 211 211 211 211 209 209 209 
209 209 209 208 208 208 208 208 208 208 208 208 208 208 208 208 208 208 
208 208 208 208 208 208 208 208 208 208 208 208 208 208 208 208 208 208 
208 208 208 208 208 208 208 208 208 208 208 208 208 208 208 208 208 208 
208 208 208 208 208 208 208 208 208 208 208 208 208 208 208 208 208 208 
208 208 208 208 208 208 208 208 208 208 208 208 208 208 208 209 209 209 
209 209 209 211 211 211 212 212 212 215 215 215 219 219 219 222 222 222 
223 223 223 223 223 223 223 223 223 223 223 223 223 223 223 223 223 223 
222 222 222 219 219 219 215 215 215 212 212 212 211 211 211 209 209 209 
209 209 209 208 208 208 208 208 208 208 208 208 208 208 208 208 208 208 
208 208 208 208 208 208 208 208 208 208 208 208 208 208 208 208 208 208 
208 208 208 208 208 208 208 208 208 208 208 208 208 208 208 208 208 208 
208 208 208 208 208 208 208 208 208 208 208 208 208 208 208 208 208 208 
209 209 209 209 209 209 211 211 211 215 215 215 219 219 219 223 223 223 
228 228 228 235 235 235 239 239 239 240 240 240 240 240 240 240 240 240 
240 240 240 240 240 240 240 240 240 239 239 239 235 235 235 228 228 228 
223 223 223 219 219 219 215 215 215 211 211 211 209 209 209 209 209 209 
208 208 208 208 208 208 208 208 208 208 208 208 208 208 208 208 208 208 
208 208 208 208 208 208 208 208 208 208 208 208 208 208 208 208 208 208 
208 208 208 208 208 208 208 208 208 208 208 208 208 208 208 208 208 208 
208 208 208 208 208 208 209 209 209 211 211 211 215 215 215 221 221 221 
227 227 227 235 235 235 240 240 240 244 244 244 248 248 248 250 250 250 
251 251 251 251 251 251 251 251 251 251 251 251 251 251 251 251 251 251 
250 250 250 248 248 248 244 244 244 240 240 240 235 235 235 227 227 227 
221 221 221 215 215 215 211 211 211 209 209 209 208 208 208 208 208 208 
208 208 208 208 208 208 208 208 208 208 208 208 208 208 208 208 208 208 
208 208 208 208 208 208 208 208 208 208 208 208 208 208 208 208 208 208 
208 208 208 208 208 208 208 208 208 209 209 209 210 210 210 214 214 214 
220 220 220 227 227 227 236 236 236 242 242 242 248 248 248 251 251 251 
252 252 252 254 254 254 254 254 254 255 255 255 255 255 255 255 255 255 
255 255 255 255 255 255 255 255 255 254 254 254 254 254 254 252 252 252 
251 251 251 248 248 248 242 242 242 236 236 236 227 227 227 220 220 220 
214 214 214 210 210 210 209 209 209 208 208 208 208 208 208 208 208 208 
208 208 208 208 208 208 208 208 208 208 208 208 208 208 208 208 208 208 
208 208 208 208 208 208 208 208 208 208 208 208 208 208 208 209 209 209 
212 212 212 216 216 216 225 225 225 235 235 235 242 242 242 248 248 248 
251 251 251 254 254 254 254 254 254 255 255 255 255 255 255 255 255 255 
255 255 255 255 255 255 255 255 255 255 255 255 255 255 255 255 255 255 
255 255 255 255 255 255 255 255 255 254 254 254 254 254 254 251 251 251 
248 248 248 242 242 242 235 235 235 225 225 225 216 216 216 212 212 212 
209 209 209 208 208 208 208 208 208 208 208 208 208 208 208 208 208 208 
208 208 208 208 208 208 208 208 208 208 208 208 208 208 208 208 208 208 
209 209 209 210 210 210 214 214 214 220 220 220 228 228 228 238 238 238 
247 247 247 251 251 251 254 254 254 254 254 254 255 255 255 255 255 255 
255 255 255 255 255 255 255 255 255 255 255 255 255 255 255 255 255 255 
255 255 255 255 255 255 255 255 255 255 255 255 255 255 255 255 255 255 
255 255 255 255 255 255 254 254 254 254 254 254 251 251 251 247 247 247 
238 238 238 228 228 228 220 220 220 214 214 214 210 210 210 209 209 209 
208 208 208 208 208 208 208 208 208 208 208 208 208 208 208 208 208 208 
208 208 208 208 208 208 208 208 208 210 210 210 215 215 215 225 225 225 
235 235 235 243 243 243 249 249 249 253 253 253 254 254 254 255 255 255 
255 255 255 255 255 255 255 255 255 255 255 255 255 255 255 255 255 255 
255 255 255 255 255 255 255 255 255 255 255 255 255 255 255 255 255 255 
255 255 255 255 255 255 255 255 255 255 255 255 255 255 255 255 255 255 
255 255 255 254 254 254 253 253 253 249 249 249 243 243 243 235 235 235 
225 225 225 215 215 215 210 210 210 208 208 208 208 208 208 208 208 208 
208 208 208 208 208 208 208 208 208 208 208 208 208 208 208 209 209 209 
214 214 214 225 225 225 237 237 237 247 247 247 251 251 251 254 254 254 
0 0 0 0 0 0 0 0 0 0 0 0 0 0 0 0 0 0 0 0 0 0 0 0 0 0 0 0 0 0 0 0 0 0 0 0 
0 0 0 0 0 0 0 0 0 0 0 0 0 0 0 0 0 0 0 0 0 0 0 0 0 0 0 0 0 0 0 0 0 0 0 0 
0 0 0 251 251 251 247 247 247 237 237 237 225 225 225 214 214 214 209 209 209 
208 208 208 208 208 208 208 208 208 208 208 208 208 208 208 208 208 208 
209 209 209 212 212 212 221 221 221 235 235 235 247 247 247 253 253 253 
253 253 253 0 0 0 120 115 115 120 115 115 120 115 115 120 115 115 120 115 115 
120 115 115 120 115 115 120 115 115 120 115 115 120 115 115 120 115 115 
120 115 115 120 115 115 120 115 115 120 115 115 120 115 115 120 115 115 
120 115 115 120 115 115 120 115 115 120 115 115 120 115 115 120 115 115 
120 115 115 120 115 115 0 0 0 252 252 252 247 247 247 235 235 235 221 221 221 
212 212 212 209 209 209 208 208 208 208 208 208 208 208 208 208 208 208 
208 208 208 210 210 210 216 216 216 228 228 228 242 242 242 251 251 251 
253 253 253 251 251 251 0 0 0 120 115 115 41 89 230 41 89 230 41 89 230 
41 89 230 41 89 230 41 89 230 41 89 230 41 89 230 41 89 230 41 89 230 41 89 230 
41 89 230 41 89 230 41 89 230 41 89 230 41 89 230 41 89 230 41 89 230 41 89 230 
41 89 230 41 89 230 41 89 230 41 89 230 120 115 115 0 0 0 250 250 250 250 250 250 
242 242 242 228 228 228 216 216 216 210 210 210 208 208 208 208 208 208 
208 208 208 208 208 208 209 209 209 214 214 214 225 225 225 238 238 238 
249 249 249 253 253 253 251 251 251 246 246 246 0 0 0 120 115 115 41 89 230 
41 89 230 41 89 230 41 89 230 41 89 230 41 89 230 41 89 230 41 89 230 41 89 230 
41 89 230 41 89 230 41 89 230 41 89 230 41 89 230 41 89 230 41 89 230 41 89 230 
41 89 230 41 89 230 41 89 230 41 89 230 41 89 230 41 89 230 120 115 115 
0 0 0 246 246 246 250 250 250 248 248 248 238 238 238 225 225 225 214 214 214 
209 209 209 208 208 208 208 208 208 209 209 209 211 211 211 220 220 220 
235 235 235 247 247 247 253 253 253 253 253 253 248 248 248 239 239 239 
0 0 0 120 115 115 41 89 230 41 89 230 255 255 255 255 255 255 255 255 255 
255 255 255 41 89 230 41 89 230 41 89 230 255 255 255 255 255 255 255 255 255 
41 89 230 255 255 255 255 255 255 255 255 255 255 255 255 41 89 230 255 255 255 
255 255 255 255 255 255 255 255 255 41 89 230 120 115 115 0 0 0 239 239 239 
248 248 248 251 251 251 247 247 247 235 235 235 220 220 220 211 211 211 
208 208 208 208 208 208 209 209 209 215 215 215 227 227 227 242 242 242 
251 251 251 254 254 254 252 252 252 244 244 244 231 231 231 0 0 0 120 115 115 
41 89 230 41 89 230 255 255 255 41 89 230 41 89 230 255 255 255 41 89 230 
41 89 230 41 89 230 41 89 230 255 255 255 41 89 230 41 89 230 255 255 255 
41 89 230 41 89 230 255 255 255 41 89 230 255 255 255 41 89 230 41 89 230 
255 255 255 41 89 230 120 115 115 0 0 0 231 231 231 244 244 244 251 251 251 
251 251 251 242 242 242 227 227 227 215 215 215 208 208 208 209 209 209 
211 211 211 221 221 221 236 236 236 248 248 248 254 254 254 255 255 255 
251 251 251 241 241 241 226 226 226 0 0 0 120 115 115 41 89 230 41 89 230 
255 255 255 41 89 230 41 89 230 255 255 255 41 89 230 41 89 230 41 89 230 
41 89 230 255 255 255 41 89 230 41 89 230 255 255 255 41 89 230 41 89 230 
255 255 255 41 89 230 255 255 255 255 255 255 255 255 255 255 255 255 41 89 230 
120 115 115 0 0 0 226 226 226 241 241 241 251 251 251 254 254 254 248 248 248 
236 236 236 221 221 221 208 208 208 209 209 209 215 215 215 227 227 227 
242 242 242 251 251 251 254 254 254 255 255 255 250 250 250 239 239 239 
223 223 223 0 0 0 120 115 115 41 89 230 41 89 230 255 255 255 41 89 230 
41 89 230 255 255 255 41 89 230 255 255 255 41 89 230 41 89 230 255 255 255 
41 89 230 41 89 230 255 255 255 255 255 255 255 255 255 255 255 255 41 89 230 
255 255 255 41 89 230 41 89 230 41 89 230 41 89 230 120 115 115 0 0 0 223 223 223 
239 239 239 250 250 250 254 254 254 251 251 251 242 242 242 227 227 227 
208 208 208 211 211 211 219 219 219 235 235 235 248 248 248 254 254 254 
255 255 255 255 255 255 250 250 250 239 239 239 222 222 222 0 0 0 120 115 115 
41 89 230 41 89 230 41 89 230 41 89 230 41 89 230 41 89 230 41 89 230 41 89 230 
41 89 230 41 89 230 41 89 230 41 89 230 41 89 230 41 89 230 41 89 230 41 89 230 
41 89 230 41 89 230 41 89 230 41 89 230 41 89 230 41 89 230 41 89 230 120 115 115 
0 0 0 222 222 222 239 239 239 250 250 250 255 255 255 254 254 254 248 248 248 
235 235 235 209 209 209 212 212 212 223 223 223 240 240 240 251 251 251 
254 254 254 255 255 255 255 255 255 250 250 250 239 239 239 222 222 222 
0 0 0 120 115 115 41 89 230 41 89 230 41 89 230 41 89 230 41 89 230 41 89 230 
41 89 230 0 0 0 0 0 0 0 0 0 0 0 0 0 0 0 0 0 0 0 0 0 0 0 0 0 0 0 41 89 230 
41 89 230 41 89 230 41 89 230 41 89 230 41 89 230 41 89 230 120 115 115 
0 0 0 222 222 222 239 239 239 250 250 250 255 255 255 254 254 254 251 251 251 
240 240 240 209 209 209 215 215 215 228 228 228 244 244 244 252 252 252 
255 255 255 255 255 255 255 255 255 250 250 250 239 239 239 222 222 222 
0 0 0 120 115 115 41 89 230 41 89 230 41 89 230 41 89 230 41 89 230 41 89 230 
0 0 0 0 0 0 248 252 222 248 252 222 248 252 222 248 252 222 248 252 222 
248 252 222 248 252 222 0 0 0 0 0 0 41 89 230 41 89 230 41 89 230 41 89 230 
41 89 230 41 89 230 120 115 115 0 0 0 222 222 222 239 239 239 250 250 250 
255 255 255 255 255 255 252 252 252 244 244 244 211 211 211 219 219 219 
235 235 235 248 248 248 254 254 254 255 255 255 255 255 255 255 255 255 
250 250 250 239 239 239 222 222 222 0 0 0 120 115 115 41 89 230 41 89 230 
41 89 230 41 89 230 41 89 230 41 89 230 0 0 0 248 210 77 96 67 25 255 236 149 
255 236 149 255 236 149 255 236 149 255 236 149 96 67 25 248 210 77 0 0 0 
41 89 230 41 89 230 41 89 230 41 89 230 41 89 230 41 89 230 120 115 115 
0 0 0 222 222 222 239 239 239 250 250 250 255 255 255 255 255 255 254 254 254 
248 248 248 211 211 211 222 222 222 239 239 239 250 250 250 254 254 254 
255 255 255 255 255 255 255 255 255 250 250 250 239 239 239 222 222 222 
0 0 0 120 115 115 41 89 230 41 89 230 41 89 230 41 89 230 41 89 230 41 89 230 
0 0 0 255 236 149 248 210 77 96 67 25 255 236 149 255 236 149 255 236 149 
96 67 25 248 210 77 255 236 149 0 0 0 41 89 230 41 89 230 41 89 230 41 89 230 
41 89 230 41 89 230 120 115 115 0 0 0 222 222 222 239 239 239 250 250 250 
255 255 255 255 255 255 254 254 254 250 250 250 212 212 212 223 223 223 
240 240 240 251 251 251 255 255 255 255 255 255 255 255 255 255 255 255 
250 250 250 239 239 239 222 222 222 0 0 0 120 115 115 41 89 230 41 89 230 
41 89 230 41 89 230 41 89 230 41 89 230 0 0 0 255 236 149 255 236 149 248 210 77 
0 0 0 255 236 149 0 0 0 248 210 77 255 236 149 255 236 149 0 0 0 41 89 230 
41 89 230 41 89 230 41 89 230 41 89 230 41 89 230 120 115 115 0 0 0 222 222 222 
239 239 239 250 250 250 255 255 255 255 255 255 255 255 255 251 251 251 
212 212 212 223 223 223 240 240 240 251 251 251 255 255 255 255 255 255 
255 255 255 255 255 255 250 250 250 239 239 239 222 222 222 0 0 0 120 115 115 
41 89 230 41 89 230 41 89 230 41 89 230 41 89 230 41 89 230 0 0 0 255 236 149 
255 236 149 0 0 0 247 183 43 0 0 0 247 183 43 0 0 0 255 236 149 255 236 149 
0 0 0 41 89 230 41 89 230 41 89 230 41 89 230 41 89 230 41 89 230 120 115 115 
0 0 0 222 222 222 239 239 239 250 250 250 255 255 255 255 255 255 255 255 255 
251 251 251 212 212 212 223 223 223 240 240 240 251 251 251 255 255 255 
255 255 255 255 255 255 255 255 255 250 250 250 239 239 239 222 222 222 
0 0 0 120 115 115 41 89 230 41 89 230 41 89 230 41 89 230 41 89 230 41 89 230 
0 0 0 255 236 149 0 0 0 247 183 43 253 211 119 253 211 119 253 211 119 
247 183 43 96 67 25 255 236 149 0 0 0 41 89 230 41 89 230 41 89 230 41 89 230 
41 89 230 41 89 230 120 115 115 0 0 0 222 222 222 239 239 239 250 250 250 
255 255 255 255 255 255 255 255 255 251 251 251 212 212 212 223 223 223 
240 240 240 251 251 251 255 255 255 255 255 255 255 255 255 255 255 255 
250 250 250 239 239 239 222 222 222 0 0 0 120 115 115 41 89 230 41 89 230 
41 89 230 41 89 230 41 89 230 41 89 230 0 0 0 0 0 0 247 183 43 253 211 119 
253 211 119 253 211 119 253 211 119 253 211 119 247 183 43 0 0 0 0 0 0 
41 89 230 41 89 230 41 89 230 41 89 230 41 89 230 41 89 230 120 115 115 
0 0 0 222 222 222 239 239 239 250 250 250 255 255 255 255 255 255 255 255 255 
251 251 251 212 212 212 223 223 223 240 240 240 251 251 251 255 255 255 
255 255 255 255 255 255 255 255 255 250 250 250 239 239 239 222 222 222 
0 0 0 120 115 115 41 89 230 41 89 230 41 89 230 41 89 230 41 89 230 41 89 230 
41 89 230 0 0 0 0 0 0 0 0 0 0 0 0 0 0 0 0 0 0 0 0 0 0 0 0 0 0 0 41 89 230 
41 89 230 41 89 230 41 89 230 41 89 230 41 89 230 41 89 230 120 115 115 
0 0 0 222 222 222 239 239 239 250 250 250 255 255 255 255 255 255 255 255 255 
251 251 251 212 212 212 223 223 223 240 240 240 251 251 251 255 255 255 
255 255 255 255 255 255 255 255 255 250 250 250 239 239 239 222 222 222 
0 0 0 120 115 115 41 89 230 41 89 230 41 89 230 41 89 230 41 89 230 41 89 230 
41 89 230 41 89 230 41 89 230 41 89 230 41 89 230 41 89 230 41 89 230 41 89 230 
41 89 230 41 89 230 41 89 230 41 89 230 41 89 230 41 89 230 41 89 230 41 89 230 
41 89 230 120 115 115 0 0 0 222 222 222 239 239 239 250 250 250 255 255 255 
255 255 255 255 255 255 251 251 251 211 211 211 222 222 222 239 239 239 
250 250 250 254 254 254 255 255 255 255 255 255 255 255 255 250 250 250 
239 239 239 222 222 222 0 0 0 120 115 115 120 115 115 120 115 115 120 115 115 
120 115 115 120 115 115 120 115 115 120 115 115 120 115 115 120 115 115 
120 115 115 120 115 115 120 115 115 120 115 115 120 115 115 120 115 115 
120 115 115 120 115 115 120 115 115 120 115 115 120 115 115 120 115 115 
120 115 115 120 115 115 120 115 115 0 0 0 222 222 222 239 239 239 250 250 250 
255 255 255 255 255 255 254 254 254 250 250 250 211 211 211 219 219 219 
235 235 235 248 248 248 254 254 254 255 255 255 255 255 255 255 255 255 
250 250 250 239 239 239 222 222 222 200 200 200 0 0 0 0 0 0 0 0 0 0 0 0 
0 0 0 0 0 0 0 0 0 0 0 0 0 0 0 0 0 0 0 0 0 0 0 0 0 0 0 0 0 0 0 0 0 0 0 0 
0 0 0 0 0 0 0 0 0 0 0 0 0 0 0 0 0 0 0 0 0 0 0 0 0 0 0 200 200 200 222 222 222 
239 239 239 250 250 250 255 255 255 255 255 255 254 254 254 248 248 248 
209 209 209 215 215 215 228 228 228 244 244 244 252 252 252 255 255 255 
255 255 255 255 255 255 250 250 250 239 239 239 223 223 223 201 201 201 
184 184 184 172 172 172 0 0 0 68 68 68 0 0 0 119 119 119 119 119 119 119 119 119 
119 119 119 119 119 119 119 119 119 119 119 119 119 119 119 119 119 119 
119 119 119 119 119 119 119 119 119 119 119 119 119 119 119 119 119 119 
0 0 0 68 68 68 0 0 0 172 172 172 184 184 184 201 201 201 223 223 223 239 239 239 
250 250 250 255 255 255 255 255 255 252 252 252 244 244 244 209 209 209 
212 212 212 223 223 223 240 240 240 251 251 251 254 254 254 255 255 255 
255 255 255 251 251 251 241 241 241 226 226 226 205 205 205 188 188 188 
176 176 176 0 0 0 0 0 0 0 0 0 0 0 0 0 0 0 0 0 0 0 0 0 0 0 0 0 0 0 0 0 0 
0 0 0 0 0 0 0 0 0 0 0 0 0 0 0 0 0 0 0 0 0 0 0 0 0 0 0 0 0 0 0 0 0 176 176 176 
188 188 188 205 205 205 226 226 226 241 241 241 251 251 251 255 255 255 
254 254 254 251 251 251 240 240 240 208 208 208 211 211 211 219 219 219 
235 235 235 248 248 248 254 254 254 255 255 255 255 255 255 252 252 252 
244 244 244 231 231 231 213 213 213 196 196 196 0 0 0 68 68 68 119 119 119 
119 119 119 119 119 119 119 119 119 119 119 119 119 119 119 119 119 119 
119 119 119 119 119 119 119 119 119 119 119 119 119 119 119 119 119 119 
119 119 119 119 119 119 119 119 119 119 119 119 119 119 119 119 119 119 
68 68 68 0 0 0 196 196 196 213 213 213 231 231 231 244 244 244 252 252 252 
255 255 255 254 254 254 248 248 248 235 235 235 208 208 208 209 209 209 
215 215 215 227 227 227 242 242 242 251 251 251 254 254 254 255 255 255 
253 253 253 248 248 248 238 238 238 223 223 223 0 0 0 119 119 119 119 119 119 
119 119 119 119 119 119 119 119 119 119 119 119 68 68 68 68 68 68 119 119 119 
119 119 119 119 119 119 119 119 119 119 119 119 119 119 119 119 119 119 
119 119 119 68 68 68 68 68 68 119 119 119 119 119 119 119 119 119 119 119 119 
119 119 119 0 0 0 223 223 223 238 238 238 248 248 248 253 253 253 254 254 254 
251 251 251 242 242 242 227 227 227 208 208 208 209 209 209 211 211 211 
221 221 221 236 236 236 248 248 248 254 254 254 255 255 255 254 254 254 
251 251 251 244 244 244 0 0 0 68 68 68 119 119 119 119 119 119 119 119 119 
119 119 119 119 119 119 68 68 68 68 68 68 68 68 68 68 68 68 68 68 68 68 68 68 
68 68 68 68 68 68 68 68 68 68 68 68 68 68 68 68 68 68 68 68 68 68 68 68 
119 119 119 119 119 119 119 119 119 119 119 119 68 68 68 0 0 0 244 244 244 
251 251 251 254 254 254 254 254 254 248 248 248 236 236 236 221 221 221 
208 208 208 208 208 208 209 209 209 215 215 215 227 227 227 242 242 242 
251 251 251 254 254 254 255 255 255 252 252 252 246 246 246 0 0 0 172 171 171 
208 207 207 208 207 207 208 207 207 208 207 207 208 207 207 208 207 207 
208 207 207 208 207 207 208 207 207 208 207 207 208 207 207 208 207 207 
208 207 207 208 207 207 208 207 207 208 207 207 208 207 207 208 207 207 
208 207 207 208 207 207 208 207 207 208 207 207 208 207 207 172 171 171 
0 0 0 246 246 246 252 252 252 254 254 254 251 251 251 242 242 242 227 227 227 
215 215 215 208 208 208 208 208 208 209 209 209 211 211 211 220 220 220 
235 235 235 247 247 247 253 253 253 254 254 254 251 251 251 243 243 243 
0 0 0 68 68 68 119 119 119 119 119 119 119 119 119 119 119 119 119 119 119 
119 119 119 119 119 119 119 119 119 119 119 119 119 119 119 119 119 119 
119 119 119 119 119 119 119 119 119 119 119 119 119 119 119 119 119 119 
119 119 119 119 119 119 119 119 119 119 119 119 119 119 119 119 119 119 
68 68 68 0 0 0 243 243 243 251 251 251 252 252 252 247 247 247 235 235 235 
220 220 220 211 211 211 208 208 208 208 208 208 208 208 208 209 209 209 
214 214 214 225 225 225 238 238 238 249 249 249 252 252 252 248 248 248 
238 238 238 0 0 0 0 0 0 0 0 0 0 0 0 0 0 0 0 0 0 0 0 0 0 0 0 0 0 0 0 0 0 
0 0 0 0 0 0 0 0 0 0 0 0 0 0 0 0 0 0 0 0 0 0 0 0 0 0 0 0 0 0 0 0 0 0 0 0 
0 0 0 0 0 0 0 0 0 0 0 0 0 0 0 238 238 238 247 247 247 247 247 247 238 238 238 
225 225 225 214 214 214 209 209 209 208 208 208 208 208 208 208 208 208 
208 208 208 210 210 210 216 216 216 228 228 228 242 242 242 248 248 248 
243 243 243 231 231 231 212 212 212 194 194 194 180 180 180 171 171 171 
168 168 168 166 166 166 166 166 166 166 166 166 166 166 166 166 166 166 
166 166 166 166 166 166 166 166 166 166 166 166 166 166 166 166 166 166 
166 166 166 166 166 166 166 166 166 166 166 166 166 166 166 166 166 166 
168 168 168 171 171 171 180 180 180 194 194 194 212 212 212 230 230 230 
240 240 240 239 239 239 228 228 228 216 216 216 210 210 210 208 208 208 
208 208 208 208 208 208 208 208 208 208 208 208 209 209 209 212 212 212 
221 221 221 235 235 235 243 243 243 240 240 240 227 227 227 208 208 208 
192 192 192 180 180 180 173 173 173 172 172 172 172 172 172 172 172 172 
172 172 172 172 172 172 172 172 172 172 172 172 172 172 172 172 172 172 
172 172 172 172 172 172 172 172 172 172 172 172 172 172 172 172 172 172 
172 172 172 172 172 172 172 172 172 172 172 172 173 173 173 180 180 180 
192 192 192 207 207 207 226 226 226 234 234 234 231 231 231 221 221 221 
212 212 212 209 209 209 208 208 208 208 208 208 208 208 208 208 208 208 
208 208 208 208 208 208 209 209 209 214 214 214 225 225 225 233 233 233 
234 234 234 225 225 225 210 210 210 197 197 197 188 188 188 183 183 183 
183 183 183 183 183 183 183 183 183 183 183 183 183 183 183 183 183 183 
183 183 183 183 183 183 183 183 183 183 183 183 183 183 183 183 183 183 
183 183 183 183 183 183 183 183 183 183 183 183 183 183 183 183 183 183 
183 183 183 183 183 183 188 188 188 196 196 196 208 208 208 222 222 222 
225 225 225 221 221 221 214 214 214 209 209 209 208 208 208 208 208 208 
208 208 208 208 208 208 208 208 208 208 208 208 208 208 208 208 208 208 
210 210 210 215 215 215 222 222 222 226 226 226 223 223 223 215 215 215 
208 208 208 202 202 202 200 200 200 200 200 200 200 200 200 200 200 200 
200 200 200 200 200 200 200 200 200 200 200 200 200 200 200 200 200 200 
200 200 200 200 200 200 200 200 200 200 200 200 200 200 200 200 200 200 
200 200 200 200 200 200 200 200 200 200 200 200 199 199 199 201 201 201 
205 205 205 210 210 210 216 216 216 216 216 216 212 212 212 210 210 210 
208 208 208 208 208 208 208 208 208 208 208 208 208 208 208 208 208 208 
208 208 208 208 208 208 208 208 208 209 209 209 210 210 210 212 212 212 
215 215 215 217 217 217 218 218 218 221 221 221 221 221 221 221 221 221 
221 221 221 222 222 222 222 222 222 222 222 222 222 222 222 222 222 222 
222 222 222 222 222 222 222 222 222 222 222 222 222 222 222 222 222 222 
222 222 222 222 222 222 222 222 222 222 222 222 222 222 222 221 221 221 
221 221 221 219 219 219 217 217 217 213 213 213 209 209 209 210 210 210 
209 209 209 208 208 208 209 209 209 208 208 208 208 208 208 208 208 208 
208 208 208 208 208 208 208 208 208 208 208 208 208 208 208 208 208 208 
208 208 208 208 208 208 208 208 208 209 209 209 211 211 211 216 216 216 
223 223 223 228 228 228 232 232 232 235 235 235 238 238 238 238 238 238 
239 239 239 239 239 239 239 239 239 239 239 239 239 239 239 239 239 239 
239 239 239 239 239 239 239 239 239 239 239 239 239 239 239 239 239 239 
238 238 238 238 238 238 235 235 235 232 232 232 227 227 227 221 221 221 
214 214 214 208 208 208 207 207 207 207 207 207 207 207 207 208 208 208 
208 208 208 208 208 208 208 208 208 208 208 208 208 208 208 208 208 208 
208 208 208 208 208 208 208 208 208 208 208 208 208 208 208 208 208 208 
208 208 208 208 208 208 211 211 211 217 217 217 223 223 223 231 231 231 
237 237 237 243 243 243 246 246 246 247 247 247 249 249 249 249 249 249 
250 250 250 250 250 250 250 250 250 250 250 250 250 250 250 250 250 250 
249 249 249 249 249 249 247 247 247 246 246 246 243 243 243 237 237 237 
231 231 231 223 223 223 216 216 216 211 211 211 208 208 208 207 207 207 
207 207 207 208 208 208 208 208 208 208 208 208 208 208 208 208 208 208 
208 208 208 208 208 208 208 208 208 208 208 208 208 208 208 208 208 208 
208 208 208 208 208 208 208 208 208 208 208 208 208 208 208 209 209 209 
211 211 211 215 215 215 221 221 221 227 227 227 235 235 235 240 240 240 
244 244 244 248 248 248 250 250 250 251 251 251 251 251 251 251 251 251 
251 251 251 251 251 251 251 251 251 250 250 250 248 248 248 244 244 244 
240 240 240 235 235 235 227 227 227 221 221 221 215 215 215 211 211 211 
209 209 209 208 208 208 208 208 208 208 208 208 208 208 208 208 208 208 
208 208 208 208 208 208 208 208 208 208 208 208 208 208 208 208 208 208 
208 208 208 208 208 208 208 208 208 208 208 208 208 208 208 208 208 208 
208 208 208 208 208 208 208 208 208 209 209 209 209 209 209 211 211 211 
215 215 215 219 219 219 223 223 223 228 228 228 235 235 235 239 239 239 
240 240 240 240 240 240 240 240 240 240 240 240 240 240 240 240 240 240 
239 239 239 235 235 235 228 228 228 223 223 223 219 219 219 215 215 215 
211 211 211 209 209 209 209 209 209 208 208 208 208 208 208 208 208 208 
208 208 208 208 208 208 208 208 208 208 208 208 208 208 208 208 208 208 
208 208 208 208 208 208 208 208 208 208 208 208 208 208 208 208 208 208 
208 208 208 208 208 208 208 208 208 208 208 208 208 208 208 208 208 208 
208 208 208 208 208 208 209 209 209 209 209 209 211 211 211 212 212 212 
215 215 215 219 219 219 222 222 222 223 223 223 223 223 223 223 223 223 
223 223 223 223 223 223 223 223 223 222 222 222 219 219 219 215 215 215 
212 212 212 211 211 211 209 209 209 209 209 209 208 208 208 208 208 208 
208 208 208 208 208 208 208 208 208 208 208 208 208 208 208 208 208 208 
208 208 208 208 208 208 208 208 208 208 208 208 208 208 208 208 208 208 
208 208 208 208 208 208 208 208 208 208 208 208 208 208 208 208 208 208 
208 208 208 208 208 208 208 208 208 208 208 208 208 208 208 208 208 208 
208 208 208 208 208 208 209 209 209 209 209 209 211 211 211 211 211 211 
212 212 212 212 212 212 212 212 212 212 212 212 212 212 212 212 212 212 
211 211 211 211 211 211 209 209 209 209 209 209 208 208 208 208 208 208 
208 208 208 208 208 208 208 208 208 208 208 208 208 208 208 208 208 208 
208 208 208 208 208 208 208 208 208 208 208 208 208 208 208 208 208 208 
208 208 208 208 208 208 208 208 208 208 208 208 208 208 208 208 208 208 
208 208 208 208 208 208 208 208 208 208 208 208 208 208 208 208 208 208 
208 208 208 208 208 208 208 208 208 208 208 208 208 208 208 209 209 209 
209 209 209 211 211 211 211 211 211 212 212 212 212 212 212 212 212 212 
212 212 212 212 212 212 212 212 212 211 211 211 211 211 211 209 209 209 
209 209 209 208 208 208 208 208 208 208 208 208 208 208 208 208 208 208 
208 208 208 208 208 208 208 208 208 208 208 208 208 208 208 208 208 208 
208 208 208 208 208 208 208 208 208 208 208 208 208 208 208 208 208 208 
208 208 208 208 208 208 208 208 208 208 208 208 208 208 208 208 208 208 
208 208 208 208 208 208 208 208 208 208 208 208 208 208 208 209 209 209 
209 209 209 211 211 211 212 212 212 215 215 215 219 219 219 222 222 222 
223 223 223 223 223 223 223 223 223 223 223 223 223 223 223 223 223 223 
222 222 222 219 219 219 215 215 215 212 212 212 211 211 211 209 209 209 
209 209 209 208 208 208 208 208 208 208 208 208 208 208 208 208 208 208 
208 208 208 208 208 208 208 208 208 208 208 208 208 208 208 208 208 208 
208 208 208 208 208 208 208 208 208 208 208 208 208 208 208 208 208 208 
208 208 208 208 208 208 208 208 208 208 208 208 208 208 208 208 208 208 
209 209 209 209 209 209 211 211 211 215 215 215 219 219 219 223 223 223 
228 228 228 235 235 235 239 239 239 240 240 240 240 240 240 240 240 240 
240 240 240 240 240 240 240 240 240 239 239 239 235 235 235 228 228 228 
223 223 223 219 219 219 215 215 215 211 211 211 209 209 209 209 209 209 
208 208 208 208 208 208 208 208 208 208 208 208 208 208 208 208 208 208 
208 208 208 208 208 208 208 208 208 208 208 208 208 208 208 208 208 208 
208 208 208 208 208 208 208 208 208 208 208 208 208 208 208 208 208 208 
208 208 208 208 208 208 209 209 209 211 211 211 215 215 215 221 221 221 
227 227 227 235 235 235 240 240 240 244 244 244 248 248 248 250 250 250 
251 251 251 251 251 251 251 251 251 251 251 251 251 251 251 251 251 251 
250 250 250 248 248 248 244 244 244 240 240 240 235 235 235 227 227 227 
221 221 221 215 215 215 211 211 211 209 209 209 208 208 208 208 208 208 
208 208 208 208 208 208 208 208 208 208 208 208 208 208 208 208 208 208 
208 208 208 208 208 208 208 208 208 208 208 208 208 208 208 208 208 208 
208 208 208 208 208 208 208 208 208 209 209 209 210 210 210 214 214 214 
220 220 220 227 227 227 236 236 236 242 242 242 248 248 248 251 251 251 
252 252 252 254 254 254 254 254 254 255 255 255 255 255 255 255 255 255 
255 255 255 255 255 255 255 255 255 254 254 254 254 254 254 252 252 252 
251 251 251 248 248 248 242 242 242 236 236 236 227 227 227 220 220 220 
214 214 214 210 210 210 209 209 209 208 208 208 208 208 208 208 208 208 
208 208 208 208 208 208 208 208 208 208 208 208 208 208 208 208 208 208 
208 208 208 208 208 208 208 208 208 208 208 208 208 208 208 209 209 209 
212 212 212 216 216 216 225 225 225 235 235 235 242 242 242 248 248 248 
251 251 251 254 254 254 254 254 254 255 255 255 255 255 255 255 255 255 
255 255 255 255 255 255 255 255 255 255 255 255 255 255 255 255 255 255 
255 255 255 255 255 255 255 255 255 254 254 254 254 254 254 251 251 251 
248 248 248 242 242 242 235 235 235 225 225 225 216 216 216 212 212 212 
209 209 209 208 208 208 208 208 208 208 208 208 208 208 208 208 208 208 
208 208 208 208 208 208 208 208 208 208 208 208 208 208 208 208 208 208 
209 209 209 210 210 210 214 214 214 220 220 220 228 228 228 238 238 238 
247 247 247 251 251 251 254 254 254 254 254 254 255 255 255 255 255 255 
255 255 255 255 255 255 255 255 255 255 255 255 255 255 255 255 255 255 
255 255 255 255 255 255 255 255 255 255 255 255 255 255 255 255 255 255 
255 255 255 255 255 255 254 254 254 254 254 254 251 251 251 247 247 247 
238 238 238 228 228 228 220 220 220 214 214 214 210 210 210 209 209 209 
208 208 208 208 208 208 208 208 208 208 208 208 208 208 208 208 208 208 
208 208 208 208 208 208 208 208 208 210 210 210 215 215 215 225 225 225 
235 235 235 243 243 243 249 249 249 253 253 253 254 254 254 255 255 255 
255 255 255 255 255 255 255 255 255 255 255 255 255 255 255 255 255 255 
255 255 255 255 255 255 255 255 255 255 255 255 255 255 255 255 255 255 
255 255 255 255 255 255 255 255 255 255 255 255 255 255 255 255 255 255 
255 255 255 254 254 254 253 253 253 249 249 249 243 243 243 235 235 235 
225 225 225 215 215 215 210 210 210 208 208 208 208 208 208 208 208 208 
208 208 208 208 208 208 208 208 208 208 208 208 208 208 208 209 209 209 
214 214 214 225 225 225 237 237 237 247 247 247 251 251 251 254 254 254 
0 0 0 0 0 0 0 0 0 0 0 0 0 0 0 0 0 0 0 0 0 0 0 0 0 0 0 0 0 0 0 0 0 0 0 0 
0 0 0 0 0 0 0 0 0 0 0 0 0 0 0 0 0 0 0 0 0 0 0 0 0 0 0 0 0 0 0 0 0 0 0 0 
0 0 0 251 251 251 247 247 247 237 237 237 225 225 225 214 214 214 209 209 209 
208 208 208 208 208 208 208 208 208 208 208 208 208 208 208 208 208 208 
209 209 209 212 212 212 221 221 221 235 235 235 247 247 247 253 253 253 
253 253 253 0 0 0 120 115 115 120 115 115 120 115 115 120 115 115 120 115 115 
120 115 115 120 115 115 120 115 115 120 115 115 120 115 115 120 115 115 
120 115 115 120 115 115 120 115 115 120 115 115 120 115 115 120 115 115 
120 115 115 120 115 115 120 115 115 120 115 115 120 115 115 120 115 115 
120 115 115 120 115 115 0 0 0 252 252 252 247 247 247 235 235 235 221 221 221 
212 212 212 209 209 209 208 208 208 208 208 208 208 208 208 208 208 208 
208 208 208 210 210 210 216 216 216 228 228 228 242 242 242 251 251 251 
253 253 253 251 251 251 0 0 0 120 115 115 41 89 230 41 89 230 41 89 230 
41 89 230 41 89 230 41 89 230 41 89 230 41 89 230 41 89 230 41 89 230 41 89 230 
41 89 230 41 89 230 41 89 230 41 89 230 41 89 230 41 89 230 41 89 230 41 89 230 
41 89 230 41 89 230 41 89 230 41 89 230 120 115 115 0 0 0 250 250 250 250 250 250 
242 242 242 228 228 228 216 216 216 210 210 210 208 208 208 208 208 208 
208 208 208 208 208 208 209 209 209 214 214 214 225 225 225 238 238 238 
249 249 249 253 253 253 251 251 251 246 246 246 0 0 0 120 115 115 41 89 230 
41 89 230 41 89 230 41 89 230 41 89 230 41 89 230 41 89 230 41 89 230 41 89 230 
41 89 230 41 89 230 41 89 230 41 89 230 41 89 230 41 89 230 41 89 230 41 89 230 
41 89 230 41 89 230 41 89 230 41 89 230 41 89 230 41 89 230 120 115 115 
0 0 0 246 246 246 250 250 250 248 248 248 238 238 238 225 225 225 214 214 214 
209 209 209 208 208 208 208 208 208 209 209 209 211 211 211 220 220 220 
235 235 235 247 247 247 253 253 253 253 253 253 248 248 248 239 239 239 
0 0 0 120 115 115 41 89 230 41 89 230 255 255 255 255 255 255 255 255 255 
255 255 255 41 89 230 41 89 230 41 89 230 255 255 255 255 255 255 255 255 255 
41 89 230 255 255 255 255 255 255 255 255 255 255 255 255 41 89 230 255 255 255 
255 255 255 255 255 255 255 255 255 41 89 230 120 115 115 0 0 0 239 239 239 
248 248 248 251 251 251 247 247 247 235 235 235 220 220 220 211 211 211 
208 208 208 208 208 208 209 209 209 215 215 215 227 227 227 242 242 242 
251 251 251 254 254 254 252 252 252 244 244 244 231 231 231 0 0 0 120 115 115 
41 89 230 41 89 230 255 255 255 41 89 230 41 89 230 255 255 255 41 89 230 
41 89 230 41 89 230 41 89 230 255 255 255 41 89 230 41 89 230 255 255 255 
41 89 230 41 89 230 255 255 255 41 89 230 255 255 255 41 89 230 41 89 230 
255 255 255 41 89 230 120 115 115 0 0 0 231 231 231 244 244 244 251 251 251 
251 251 251 242 242 242 227 227 227 215 215 215 208 208 208 209 209 209 
211 211 211 221 221 221 236 236 236 248 248 248 254 254 254 255 255 255 
251 251 251 241 241 241 226 226 226 0 0 0 120 115 115 41 89 230 41 89 230 
255 255 255 41 89 230 41 89 230 255 255 255 41 89 230 41 89 230 41 89 230 
41 89 230 255 255 255 41 89 230 41 89 230 255 255 255 41 89 230 41 89 230 
255 255 255 41 89 230 255 255 255 255 255 255 255 255 255 255 255 255 41 89 230 
120 115 115 0 0 0 226 226 226 241 241 241 251 251 251 254 254 254 248 248 248 
236 236 236 221 221 221 208 208 208 209 209 209 215 215 215 227 227 227 
242 242 242 251 251 251 254 254 254 255 255 255 250 250 250 239 239 239 
223 223 223 0 0 0 120 115 115 41 89 230 41 89 230 255 255 255 41 89 230 
41 89 230 255 255 255 41 89 230 255 255 255 41 89 230 41 89 230 255 255 255 
41 89 230 41 89 230 255 255 255 255 255 255 255 255 255 255 255 255 41 89 230 
255 255 255 41 89 230 41 89 230 41 89 230 41 89 230 120 115 115 0 0 0 223 223 223 
239 239 239 250 250 250 254 254 254 251 251 251 242 242 242 227 227 227 
208 208 208 211 211 211 219 219 219 235 235 235 248 248 248 254 254 254 
255 255 255 255 255 255 250 250 250 239 239 239 222 222 222 0 0 0 120 115 115 
41 89 230 41 89 230 41 89 230 41 89 230 41 89 230 41 89 230 41 89 230 41 89 230 
41 89 230 41 89 230 41 89 230 41 89 230 41 89 230 41 89 230 41 89 230 41 89 230 
41 89 230 41 89 230 41 89 230 41 89 230 41 89 230 41 89 230 41 89 230 120 115 115 
0 0 0 222 222 222 239 239 239 250 250 250 255 255 255 254 254 254 248 248 248 
235 235 235 209 209 209 212 212 212 223 223 223 240 240 240 251 251 251 
254 254 254 255 255 255 255 255 255 250 250 250 239 239 239 222 222 222 
0 0 0 120 115 115 41 89 230 41 89 230 41 89 230 41 89 230 41 89 230 41 89 230 
41 89 230 41 89 230 41 89 230 41 89 230 41 89 230 41 89 230 41 89 230 41 89 230 
41 89 230 41 89 230 41 89 230 41 89 230 41 89 230 41 89 230 41 89 230 41 89 230 
41 89 230 120 115 115 0 0 0 222 222 222 239 239 239 250 250 250 255 255 255 
254 254 254 251 251 251 240 240 240 209 209 209 215 215 215 228 228 228 
244 244 244 252 252 252 255 255 255 255 255 255 255 255 255 250 250 250 
239 239 239 222 222 222 0 0 0 120 115 115 41 89 230 41 89 230 41 89 230 
41 89 230 41 89 230 41 89 230 41 89 230 41 89 230 41 89 230 41 89 230 41 89 230 
41 89 230 41 89 230 41 89 230 41 89 230 41 89 230 41 89 230 41 89 230 41 89 230 
41 89 230 41 89 230 41 89 230 41 89 230 120 115 115 0 0 0 222 222 222 239 239 239 
250 250 250 255 255 255 255 255 255 252 252 252 244 244 244 211 211 211 
219 219 219 235 235 235 248 248 248 254 254 254 255 255 255 255 255 255 
255 255 255 250 250 250 239 239 239 222 222 222 0 0 0 120 115 115 41 89 230 
41 89 230 41 89 230 41 89 230 41 89 230 41 89 230 41 89 230 41 89 230 41 89 230 
41 89 230 41 89 230 41 89 230 41 89 230 41 89 230 41 89 230 41 89 230 41 89 230 
41 89 230 41 89 230 41 89 230 41 89 230 41 89 230 41 89 230 120 115 115 
0 0 0 222 222 222 239 239 239 250 250 250 255 255 255 255 255 255 254 254 254 
248 248 248 211 211 211 222 222 222 239 239 239 250 250 250 254 254 254 
255 255 255 255 255 255 255 255 255 250 250 250 239 239 239 222 222 222 
0 0 0 120 115 115 41 89 230 41 89 230 41 89 230 41 89 230 41 89 230 41 89 230 
41 89 230 41 89 230 41 89 230 41 89 230 41 89 230 41 89 230 41 89 230 41 89 230 
41 89 230 41 89 230 41 89 230 41 89 230 41 89 230 41 89 230 41 89 230 41 89 230 
41 89 230 120 115 115 0 0 0 222 222 222 239 239 239 250 250 250 255 255 255 
255 255 255 254 254 254 250 250 250 212 212 212 223 223 223 240 240 240 
251 251 251 255 255 255 255 255 255 255 255 255 255 255 255 250 250 250 
239 239 239 222 222 222 0 0 0 120 115 115 41 89 230 41 89 230 41 89 230 
41 89 230 41 89 230 41 89 230 41 89 230 41 89 230 41 89 230 41 89 230 41 89 230 
41 89 230 41 89 230 41 89 230 41 89 230 41 89 230 41 89 230 41 89 230 41 89 230 
41 89 230 41 89 230 41 89 230 41 89 230 120 115 115 0 0 0 222 222 222 239 239 239 
250 250 250 255 255 255 255 255 255 255 255 255 251 251 251 212 212 212 
223 223 223 240 240 240 251 251 251 255 255 255 255 255 255 255 255 255 
255 255 255 250 250 250 239 239 239 222 222 222 0 0 0 120 115 115 41 89 230 
41 89 230 41 89 230 41 89 230 41 89 230 41 89 230 41 89 230 41 89 230 41 89 230 
41 89 230 41 89 230 41 89 230 41 89 230 41 89 230 41 89 230 41 89 230 41 89 230 
41 89 230 41 89 230 41 89 230 41 89 230 41 89 230 41 89 230 120 115 115 
0 0 0 222 222 222 239 239 239 250 250 250 255 255 255 255 255 255 255 255 255 
251 251 251 212 212 212 223 223 223 240 240 240 251 251 251 255 255 255 
255 255 255 255 255 255 255 255 255 250 250 250 239 239 239 222 222 222 
0 0 0 120 115 115 41 89 230 41 89 230 41 89 230 41 89 230 41 89 230 41 89 230 
41 89 230 41 89 230 41 89 230 41 89 230 41 89 230 41 89 230 41 89 230 41 89 230 
41 89 230 41 89 230 41 89 230 41 89 230 41 89 230 41 89 230 41 89 230 41 89 230 
41 89 230 120 115 115 0 0 0 222 222 222 239 239 239 250 250 250 255 255 255 
255 255 255 255 255 255 251 251 251 212 212 212 223 223 223 240 240 240 
251 251 251 255 255 255 255 255 255 255 255 255 255 255 255 250 250 250 
239 239 239 222 222 222 0 0 0 120 115 115 41 89 230 41 89 230 41 89 230 
41 89 230 41 89 230 41 89 230 41 89 230 41 89 230 41 89 230 41 89 230 41 89 230 
41 89 230 41 89 230 41 89 230 41 89 230 41 89 230 41 89 230 41 89 230 41 89 230 
41 89 230 41 89 230 41 89 230 41 89 230 120 115 115 0 0 0 222 222 222 239 239 239 
250 250 250 255 255 255 255 255 255 255 255 255 251 251 251 212 212 212 
223 223 223 240 240 240 251 251 251 255 255 255 255 255 255 255 255 255 
255 255 255 250 250 250 239 239 239 222 222 222 0 0 0 120 115 115 41 89 230 
41 89 230 41 89 230 41 89 230 41 89 230 41 89 230 41 89 230 41 89 230 41 89 230 
41 89 230 41 89 230 41 89 230 41 89 230 41 89 230 41 89 230 41 89 230 41 89 230 
41 89 230 41 89 230 41 89 230 41 89 230 41 89 230 41 89 230 120 115 115 
0 0 0 222 222 222 239 239 239 250 250 250 255 255 255 255 255 255 255 255 255 
251 251 251 212 212 212 223 223 223 240 240 240 251 251 251 255 255 255 
255 255 255 255 255 255 255 255 255 250 250 250 239 239 239 222 222 222 
0 0 0 120 115 115 41 89 230 41 89 230 41 89 230 41 89 230 41 89 230 41 89 230 
41 89 230 41 89 230 41 89 230 41 89 230 41 89 230 41 89 230 41 89 230 41 89 230 
41 89 230 41 89 230 41 89 230 41 89 230 41 89 230 41 89 230 41 89 230 41 89 230 
41 89 230 120 115 115 0 0 0 222 222 222 239 239 239 250 250 250 255 255 255 
255 255 255 255 255 255 251 251 251 211 211 211 222 222 222 239 239 239 
250 250 250 254 254 254 255 255 255 255 255 255 255 255 255 250 250 250 
239 239 239 222 222 222 0 0 0 120 115 115 120 115 115 120 115 115 120 115 115 
120 115 115 120 115 115 120 115 115 120 115 115 120 115 115 120 115 115 
120 115 115 120 115 115 120 115 115 120 115 115 120 115 115 120 115 115 
120 115 115 120 115 115 120 115 115 120 115 115 120 115 115 120 115 115 
120 115 115 120 115 115 120 115 115 0 0 0 222 222 222 239 239 239 250 250 250 
255 255 255 255 255 255 254 254 254 250 250 250 211 211 211 219 219 219 
235 235 235 248 248 248 254 254 254 255 255 255 255 255 255 255 255 255 
250 250 250 239 239 239 222 222 222 200 200 200 0 0 0 0 0 0 0 0 0 0 0 0 
0 0 0 0 0 0 0 0 0 0 0 0 0 0 0 0 0 0 0 0 0 0 0 0 0 0 0 0 0 0 0 0 0 0 0 0 
0 0 0 0 0 0 0 0 0 0 0 0 0 0 0 0 0 0 0 0 0 0 0 0 0 0 0 200 200 200 222 222 222 
239 239 239 250 250 250 255 255 255 255 255 255 254 254 254 248 248 248 
209 209 209 215 215 215 228 228 228 244 244 244 252 252 252 255 255 255 
255 255 255 255 255 255 250 250 250 239 239 239 223 223 223 201 201 201 
184 184 184 172 172 172 0 0 0 68 68 68 0 0 0 119 119 119 119 119 119 119 119 119 
119 119 119 119 119 119 119 119 119 119 119 119 119 119 119 119 119 119 
119 119 119 119 119 119 119 119 119 119 119 119 119 119 119 119 119 119 
0 0 0 68 68 68 0 0 0 172 172 172 184 184 184 201 201 201 223 223 223 239 239 239 
250 250 250 255 255 255 255 255 255 252 252 252 244 244 244 209 209 209 
212 212 212 223 223 223 240 240 240 251 251 251 254 254 254 255 255 255 
255 255 255 251 251 251 241 241 241 226 226 226 205 205 205 188 188 188 
176 176 176 0 0 0 0 0 0 0 0 0 0 0 0 0 0 0 0 0 0 0 0 0 0 0 0 0 0 0 0 0 0 
0 0 0 0 0 0 0 0 0 0 0 0 0 0 0 0 0 0 0 0 0 0 0 0 0 0 0 0 0 0 0 0 0 176 176 176 
188 188 188 205 205 205 226 226 226 241 241 241 251 251 251 255 255 255 
254 254 254 251 251 251 240 240 240 208 208 208 211 211 211 219 219 219 
235 235 235 248 248 248 254 254 254 255 255 255 255 255 255 252 252 252 
244 244 244 231 231 231 213 213 213 196 196 196 0 0 0 68 68 68 119 119 119 
119 119 119 119 119 119 119 119 119 119 119 119 119 119 119 119 119 119 
119 119 119 119 119 119 119 119 119 119 119 119 119 119 119 119 119 119 
119 119 119 119 119 119 119 119 119 119 119 119 119 119 119 119 119 119 
68 68 68 0 0 0 196 196 196 213 213 213 231 231 231 244 244 244 252 252 252 
255 255 255 254 254 254 248 248 248 235 235 235 208 208 208 209 209 209 
215 215 215 227 227 227 242 242 242 251 251 251 254 254 254 255 255 255 
253 253 253 248 248 248 238 238 238 223 223 223 0 0 0 119 119 119 119 119 119 
119 119 119 119 119 119 119 119 119 119 119 119 68 68 68 68 68 68 119 119 119 
119 119 119 119 119 119 119 119 119 119 119 119 119 119 119 119 119 119 
119 119 119 68 68 68 68 68 68 119 119 119 119 119 119 119 119 119 119 119 119 
119 119 119 0 0 0 223 223 223 238 238 238 248 248 248 253 253 253 254 254 254 
251 251 251 242 242 242 227 227 227 208 208 208 209 209 209 211 211 211 
221 221 221 236 236 236 248 248 248 254 254 254 255 255 255 254 254 254 
251 251 251 244 244 244 0 0 0 68 68 68 119 119 119 119 119 119 119 119 119 
119 119 119 119 119 119 68 68 68 68 68 68 68 68 68 68 68 68 68 68 68 68 68 68 
68 68 68 68 68 68 68 68 68 68 68 68 68 68 68 68 68 68 68 68 68 68 68 68 
119 119 119 119 119 119 119 119 119 119 119 119 68 68 68 0 0 0 244 244 244 
251 251 251 254 254 254 254 254 254 248 248 248 236 236 236 221 221 221 
208 208 208 208 208 208 209 209 209 215 215 215 227 227 227 242 242 242 
251 251 251 254 254 254 255 255 255 252 252 252 246 246 246 0 0 0 172 171 171 
208 207 207 208 207 207 208 207 207 208 207 207 208 207 207 208 207 207 
208 207 207 208 207 207 208 207 207 208 207 207 208 207 207 208 207 207 
208 207 207 208 207 207 208 207 207 208 207 207 208 207 207 208 207 207 
208 207 207 208 207 207 208 207 207 208 207 207 208 207 207 172 171 171 
0 0 0 246 246 246 252 252 252 254 254 254 251 251 251 242 242 242 227 227 227 
215 215 215 208 208 208 208 208 208 209 209 209 211 211 211 220 220 220 
235 235 235 247 247 247 253 253 253 254 254 254 251 251 251 243 243 243 
0 0 0 68 68 68 119 119 119 119 119 119 119 119 119 119 119 119 119 119 119 
119 119 119 119 119 119 119 119 119 119 119 119 119 119 119 119 119 119 
119 119 119 119 119 119 119 119 119 119 119 119 119 119 119 119 119 119 
119 119 119 119 119 119 119 119 119 119 119 119 119 119 119 119 119 119 
68 68 68 0 0 0 243 243 243 251 251 251 252 252 252 247 247 247 235 235 235 
220 220 220 211 211 211 208 208 208 208 208 208 208 208 208 209 209 209 
214 214 214 225 225 225 238 238 238 249 249 249 252 252 252 248 248 248 
238 238 238 0 0 0 0 0 0 0 0 0 0 0 0 0 0 0 0 0 0 0 0 0 0 0 0 0 0 0 0 0 0 
0 0 0 0 0 0 0 0 0 0 0 0 0 0 0 0 0 0 0 0 0 0 0 0 0 0 0 0 0 0 0 0 0 0 0 0 
0 0 0 0 0 0 0 0 0 0 0 0 0 0 0 238 238 238 247 247 247 247 247 247 238 238 238 
225 225 225 214 214 214 209 209 209 208 208 208 208 208 208 208 208 208 
208 208 208 210 210 210 216 216 216 228 228 228 242 242 242 248 248 248 
243 243 243 231 231 231 212 212 212 194 194 194 180 180 180 171 171 171 
168 168 168 166 166 166 166 166 166 166 166 166 166 166 166 166 166 166 
166 166 166 166 166 166 166 166 166 166 166 166 166 166 166 166 166 166 
166 166 166 166 166 166 166 166 166 166 166 166 166 166 166 166 166 166 
168 168 168 171 171 171 180 180 180 194 194 194 212 212 212 230 230 230 
240 240 240 239 239 239 228 228 228 216 216 216 210 210 210 208 208 208 
208 208 208 208 208 208 208 208 208 208 208 208 209 209 209 212 212 212 
221 221 221 235 235 235 243 243 243 240 240 240 227 227 227 208 208 208 
192 192 192 180 180 180 173 173 173 172 172 172 172 172 172 172 172 172 
172 172 172 172 172 172 172 172 172 172 172 172 172 172 172 172 172 172 
172 172 172 172 172 172 172 172 172 172 172 172 172 172 172 172 172 172 
172 172 172 172 172 172 172 172 172 172 172 172 173 173 173 180 180 180 
192 192 192 207 207 207 226 226 226 234 234 234 231 231 231 221 221 221 
212 212 212 209 209 209 208 208 208 208 208 208 208 208 208 208 208 208 
208 208 208 208 208 208 209 209 209 214 214 214 225 225 225 233 233 233 
234 234 234 225 225 225 210 210 210 197 197 197 188 188 188 183 183 183 
183 183 183 183 183 183 183 183 183 183 183 183 183 183 183 183 183 183 
183 183 183 183 183 183 183 183 183 183 183 183 183 183 183 183 183 183 
183 183 183 183 183 183 183 183 183 183 183 183 183 183 183 183 183 183 
183 183 183 183 183 183 188 188 188 196 196 196 208 208 208 222 222 222 
225 225 225 221 221 221 214 214 214 209 209 209 208 208 208 208 208 208 
208 208 208 208 208 208 208 208 208 208 208 208 208 208 208 208 208 208 
210 210 210 215 215 215 222 222 222 226 226 226 223 223 223 215 215 215 
208 208 208 202 202 202 200 200 200 200 200 200 200 200 200 200 200 200 
200 200 200 200 200 200 200 200 200 200 200 200 200 200 200 200 200 200 
200 200 200 200 200 200 200 200 200 200 200 200 200 200 200 200 200 200 
200 200 200 200 200 200 200 200 200 200 200 200 199 199 199 201 201 201 
205 205 205 210 210 210 216 216 216 216 216 216 212 212 212 210 210 210 
208 208 208 208 208 208 208 208 208 208 208 208 208 208 208 208 208 208 
208 208 208 208 208 208 208 208 208 209 209 209 210 210 210 212 212 212 
215 215 215 217 217 217 218 218 218 221 221 221 221 221 221 221 221 221 
221 221 221 222 222 222 222 222 222 222 222 222 222 222 222 222 222 222 
222 222 222 222 222 222 222 222 222 222 222 222 222 222 222 222 222 222 
222 222 222 222 222 222 222 222 222 222 222 222 222 222 222 221 221 221 
221 221 221 219 219 219 217 217 217 213 213 213 209 209 209 210 210 210 
209 209 209 208 208 208 209 209 209 208 208 208 208 208 208 208 208 208 
208 208 208 208 208 208 208 208 208 208 208 208 208 208 208 208 208 208 
208 208 208 208 208 208 208 208 208 209 209 209 211 211 211 216 216 216 
223 223 223 228 228 228 232 232 232 235 235 235 238 238 238 238 238 238 
239 239 239 239 239 239 239 239 239 239 239 239 239 239 239 239 239 239 
239 239 239 239 239 239 239 239 239 239 239 239 239 239 239 239 239 239 
238 238 238 238 238 238 235 235 235 232 232 232 227 227 227 221 221 221 
214 214 214 208 208 208 207 207 207 207 207 207 207 207 207 208 208 208 
208 208 208 208 208 208 208 208 208 208 208 208 208 208 208 208 208 208 
208 208 208 208 208 208 208 208 208 208 208 208 208 208 208 208 208 208 
208 208 208 208 208 208 211 211 211 217 217 217 223 223 223 231 231 231 
237 237 237 243 243 243 246 246 246 247 247 247 249 249 249 249 249 249 
250 250 250 250 250 250 250 250 250 250 250 250 250 250 250 250 250 250 
249 249 249 249 249 249 247 247 247 246 246 246 243 243 243 237 237 237 
231 231 231 223 223 223 216 216 216 211 211 211 208 208 208 207 207 207 
207 207 207 208 208 208 208 208 208 208 208 208 208 208 208 208 208 208 
208 208 208 208 208 208 208 208 208 208 208 208 208 208 208 208 208 208 
208 208 208 208 208 208 208 208 208 208 208 208 208 208 208 209 209 209 
211 211 211 215 215 215 221 221 221 227 227 227 235 235 235 240 240 240 
244 244 244 248 248 248 250 250 250 251 251 251 251 251 251 251 251 251 
251 251 251 251 251 251 251 251 251 250 250 250 248 248 248 244 244 244 
240 240 240 235 235 235 227 227 227 221 221 221 215 215 215 211 211 211 
209 209 209 208 208 208 208 208 208 208 208 208 208 208 208 208 208 208 
208 208 208 208 208 208 208 208 208 208 208 208 208 208 208 208 208 208 
208 208 208 208 208 208 208 208 208 208 208 208 208 208 208 208 208 208 
208 208 208 208 208 208 208 208 208 209 209 209 209 209 209 211 211 211 
215 215 215 219 219 219 223 223 223 228 228 228 235 235 235 239 239 239 
240 240 240 240 240 240 240 240 240 240 240 240 240 240 240 240 240 240 
239 239 239 235 235 235 228 228 228 223 223 223 219 219 219 215 215 215 
211 211 211 209 209 209 209 209 209 208 208 208 208 208 208 208 208 208 
208 208 208 208 208 208 208 208 208 208 208 208 208 208 208 208 208 208 
208 208 208 208 208 208 208 208 208 208 208 208 208 208 208 208 208 208 
208 208 208 208 208 208 208 208 208 208 208 208 208 208 208 208 208 208 
208 208 208 208 208 208 209 209 209 209 209 209 211 211 211 212 212 212 
215 215 215 219 219 219 222 222 222 223 223 223 223 223 223 223 223 223 
223 223 223 223 223 223 223 223 223 222 222 222 219 219 219 215 215 215 
212 212 212 211 211 211 209 209 209 209 209 209 208 208 208 208 208 208 
208 208 208 208 208 208 208 208 208 208 208 208 208 208 208 208 208 208 
208 208 208 208 208 208 208 208 208 208 208 208 208 208 208 208 208 208 
208 208 208 208 208 208 208 208 208 208 208 208 208 208 208 208 208 208 
208 208 208 208 208 208 208 208 208 208 208 208 208 208 208 208 208 208 
208 208 208 208 208 208 209 209 209 209 209 209 211 211 211 211 211 211 
212 212 212 212 212 212 212 212 212 212 212 212 212 212 212 212 212 212 
211 211 211 211 211 211 209 209 209 209 209 209 208 208 208 208 208 208 
208 208 208 208 208 208 208 208 208 208 208 208 208 208 208 208 208 208 
208 208 208 208 208 208 208 208 208 208 208 208 208 208 208 208 208 208 

