P3
# Created by Paint Shop Pro 7
112 29
255
255 255 240 176 122 58 176 122 58 176 122 58 176 122 58 176 122 58 176 122 58 
176 122 58 176 122 58 176 122 58 176 122 58 176 122 58 176 122 58 176 122 58 
176 122 58 176 122 58 176 122 58 176 122 58 176 122 58 176 122 58 176 122 58 
176 122 58 176 122 58 176 122 58 176 122 58 176 122 58 176 122 58 176 122 58 
176 122 58 176 122 58 176 122 58 176 122 58 176 122 58 176 122 58 176 122 58 
176 122 58 176 122 58 176 122 58 176 122 58 176 122 58 176 122 58 176 122 58 
176 122 58 176 122 58 176 122 58 176 122 58 176 122 58 176 122 58 176 122 58 
176 122 58 176 122 58 176 122 58 176 122 58 176 122 58 176 122 58 176 122 58 
176 122 58 176 122 58 176 122 58 176 122 58 176 122 58 176 122 58 176 122 58 
176 122 58 176 122 58 176 122 58 176 122 58 176 122 58 176 122 58 176 122 58 
176 122 58 176 122 58 176 122 58 176 122 58 176 122 58 176 122 58 176 122 58 
176 122 58 176 122 58 176 122 58 176 122 58 176 122 58 176 122 58 176 122 58 
176 122 58 176 122 58 176 122 58 176 122 58 176 122 58 176 122 58 176 122 58 
176 122 58 176 122 58 176 122 58 176 122 58 176 122 58 176 122 58 176 122 58 
176 122 58 176 122 58 176 122 58 176 122 58 176 122 58 176 122 58 176 122 58 
176 122 58 176 122 58 176 122 58 176 122 58 176 122 58 176 122 58 255 255 240 
176 122 58 228 204 114 228 204 114 228 204 114 228 204 114 228 204 114 
228 204 114 228 204 114 228 204 114 228 204 114 228 204 114 228 204 114 
228 204 114 228 204 114 228 204 114 228 204 114 228 204 114 228 204 114 
228 204 114 228 204 114 228 204 114 228 204 114 228 204 114 228 204 114 
228 204 114 228 204 114 228 204 114 228 204 114 228 204 114 228 204 114 
228 204 114 228 204 114 228 204 114 228 204 114 228 204 114 228 204 114 
228 204 114 228 204 114 228 204 114 228 204 114 228 204 114 228 204 114 
228 204 114 228 204 114 228 204 114 228 204 114 228 204 114 228 204 114 
228 204 114 228 204 114 228 204 114 228 204 114 228 204 114 228 204 114 
228 204 114 228 204 114 228 204 114 228 204 114 228 204 114 228 204 114 
228 204 114 228 204 114 228 204 114 228 204 114 228 204 114 228 204 114 
228 204 114 228 204 114 228 204 114 228 204 114 228 204 114 228 204 114 
228 204 114 228 204 114 228 204 114 228 204 114 228 204 114 228 204 114 
228 204 114 228 204 114 228 204 114 228 204 114 228 204 114 228 204 114 
228 204 114 228 204 114 228 204 114 228 204 114 228 204 114 228 204 114 
228 204 114 228 204 114 228 204 114 228 204 114 228 204 114 228 204 114 
228 204 114 228 204 114 228 204 114 228 204 114 228 204 114 228 204 114 
228 204 114 228 204 114 228 204 114 228 204 114 228 204 114 228 204 114 
228 204 114 228 204 114 242 216 120 140 82 14 176 122 58 228 204 114 228 204 114 
228 204 114 228 204 114 228 204 114 228 204 114 228 204 114 228 204 114 
228 204 114 228 204 114 228 204 114 228 204 114 228 204 114 228 204 114 
228 204 114 228 204 114 228 204 114 228 204 114 228 204 114 228 204 114 
228 204 114 228 204 114 228 204 114 228 204 114 228 204 114 228 204 114 
228 204 114 228 204 114 228 204 114 228 204 114 228 204 114 228 204 114 
228 204 114 228 204 114 228 204 114 228 204 114 228 204 114 228 204 114 
228 204 114 228 204 114 228 204 114 228 204 114 228 204 114 228 204 114 
228 204 114 228 204 114 228 204 114 228 204 114 228 204 114 228 204 114 
228 204 114 228 204 114 228 204 114 228 204 114 228 204 114 228 204 114 
228 204 114 228 204 114 228 204 114 228 204 114 228 204 114 228 204 114 
228 204 114 228 204 114 228 204 114 228 204 114 228 204 114 228 204 114 
228 204 114 228 204 114 228 204 114 228 204 114 228 204 114 228 204 114 
228 204 114 228 204 114 228 204 114 228 204 114 228 204 114 228 204 114 
228 204 114 228 204 114 228 204 114 228 204 114 228 204 114 228 204 114 
228 204 114 228 204 114 228 204 114 228 204 114 228 204 114 228 204 114 
228 204 114 228 204 114 228 204 114 228 204 114 228 204 114 228 204 114 
228 204 114 228 204 114 228 204 114 228 204 114 228 204 114 228 204 114 
228 204 114 228 204 114 228 204 114 228 204 114 228 204 114 242 216 120 
140 82 14 176 122 58 228 204 114 228 204 114 255 232 149 255 232 149 255 232 149 
255 232 149 255 232 149 255 232 149 255 232 149 255 232 149 255 232 149 
255 232 149 255 232 149 255 232 149 255 232 149 255 232 149 255 232 149 
255 232 149 255 232 149 255 232 149 255 232 149 255 232 149 255 232 149 
255 232 149 255 232 149 255 232 149 255 232 149 255 232 149 255 232 149 
255 232 149 255 232 149 255 232 149 255 232 149 255 232 149 255 232 149 
255 232 149 255 232 149 255 232 149 255 232 149 255 232 149 255 232 149 
255 232 149 255 232 149 255 232 149 255 232 149 255 232 149 255 232 149 
255 232 149 255 232 149 255 232 149 255 232 149 255 232 149 255 232 149 
255 232 149 255 232 149 255 232 149 255 232 149 255 232 149 255 232 149 
255 232 149 255 232 149 255 232 149 255 232 149 255 232 149 255 232 149 
255 232 149 255 232 149 255 232 149 255 232 149 255 232 149 255 232 149 
255 232 149 255 232 149 255 232 149 255 232 149 255 232 149 255 232 149 
255 232 149 255 232 149 255 232 149 255 232 149 255 232 149 255 232 149 
255 232 149 255 232 149 255 232 149 255 232 149 255 232 149 255 232 149 
255 232 149 255 232 149 255 232 149 255 232 149 255 232 149 255 232 149 
255 232 149 255 232 149 255 232 149 255 232 149 255 232 149 255 232 149 
255 232 149 255 232 149 255 232 149 255 232 149 255 232 149 255 232 149 
255 232 149 255 232 149 255 245 204 140 82 14 176 122 58 228 204 114 228 204 114 
255 232 149 255 232 149 255 232 149 255 232 149 255 232 149 255 232 149 
255 232 149 255 232 149 255 232 149 255 232 149 255 232 149 255 232 149 
255 232 149 255 232 149 255 232 149 255 232 149 255 232 149 255 232 149 
255 232 149 255 232 149 255 232 149 255 232 149 255 232 149 255 232 149 
255 232 149 255 232 149 255 232 149 255 232 149 255 232 149 255 232 149 
255 232 149 255 232 149 255 232 149 255 232 149 255 232 149 255 232 149 
255 232 149 255 232 149 255 232 149 255 232 149 255 232 149 255 232 149 
255 232 149 255 232 149 255 232 149 255 232 149 255 232 149 255 232 149 
255 232 149 255 232 149 255 232 149 255 232 149 255 232 149 255 232 149 
255 232 149 255 232 149 255 232 149 255 232 149 255 232 149 255 232 149 
255 232 149 255 232 149 255 232 149 255 232 149 255 232 149 255 232 149 
255 232 149 255 232 149 255 232 149 255 232 149 255 232 149 255 232 149 
255 232 149 255 232 149 255 232 149 255 232 149 255 232 149 255 232 149 
255 232 149 255 232 149 255 232 149 255 232 149 255 232 149 255 232 149 
255 232 149 255 232 149 255 232 149 255 232 149 255 232 149 255 232 149 
255 232 149 255 232 149 255 232 149 255 232 149 255 232 149 255 232 149 
255 232 149 255 232 149 255 232 149 255 232 149 255 232 149 255 232 149 
255 232 149 255 232 149 255 232 149 255 232 149 255 232 149 255 245 204 
140 82 14 176 122 58 228 204 114 228 204 114 255 232 149 255 232 149 255 232 149 
255 232 149 255 232 149 255 232 149 255 232 149 255 232 149 255 232 149 
255 232 149 255 232 149 255 232 149 255 232 149 255 232 149 255 232 149 
255 232 149 255 232 149 255 232 149 255 232 149 255 232 149 255 232 149 
255 232 149 255 232 149 255 232 149 255 232 149 255 232 149 255 232 149 
255 232 149 255 232 149 255 232 149 255 232 149 255 232 149 255 232 149 
255 232 149 255 232 149 255 232 149 255 232 149 255 232 149 255 232 149 
255 232 149 255 232 149 255 232 149 255 232 149 255 232 149 255 232 149 
255 232 149 255 232 149 255 232 149 255 232 149 255 232 149 255 232 149 
255 232 149 255 232 149 255 232 149 255 232 149 255 232 149 255 232 149 
255 232 149 255 232 149 255 232 149 255 232 149 255 232 149 255 232 149 
255 232 149 255 232 149 255 232 149 255 232 149 255 232 149 255 232 149 
255 232 149 255 232 149 255 232 149 255 232 149 255 232 149 255 232 149 
255 232 149 255 232 149 255 232 149 255 232 149 255 232 149 255 232 149 
255 232 149 255 232 149 255 232 149 255 232 149 255 232 149 255 232 149 
255 232 149 255 232 149 255 232 149 255 232 149 255 232 149 255 232 149 
255 232 149 255 232 149 255 232 149 255 232 149 255 232 149 255 232 149 
255 232 149 255 232 149 255 232 149 255 232 149 255 232 149 255 232 149 
255 232 149 255 232 149 255 245 204 140 82 14 176 122 58 228 204 114 228 204 114 
255 232 149 255 232 149 255 232 149 255 232 149 255 232 149 255 232 149 
255 232 149 255 232 149 255 232 149 255 232 149 255 232 149 255 232 149 
255 232 149 255 232 149 255 232 149 255 232 149 255 232 149 255 232 149 
255 232 149 255 232 149 255 232 149 255 232 149 255 232 149 255 232 149 
255 232 149 255 232 149 255 232 149 255 232 149 255 232 149 255 232 149 
255 232 149 255 232 149 255 232 149 255 232 149 255 232 149 255 232 149 
255 232 149 255 232 149 255 232 149 255 232 149 255 232 149 255 232 149 
255 232 149 255 232 149 255 232 149 255 232 149 255 232 149 255 232 149 
255 232 149 255 232 149 255 232 149 255 232 149 255 232 149 255 232 149 
255 232 149 255 232 149 255 232 149 255 232 149 255 232 149 255 232 149 
255 232 149 255 232 149 255 232 149 255 232 149 255 232 149 255 232 149 
255 232 149 255 232 149 255 232 149 255 232 149 255 232 149 255 232 149 
255 232 149 255 232 149 255 232 149 255 232 149 255 232 149 255 232 149 
255 232 149 255 232 149 255 232 149 255 232 149 255 232 149 255 232 149 
255 232 149 255 232 149 255 232 149 255 232 149 255 232 149 255 232 149 
255 232 149 255 232 149 255 232 149 255 232 149 255 232 149 255 232 149 
255 232 149 255 232 149 255 232 149 255 232 149 255 232 149 255 232 149 
255 232 149 255 232 149 255 232 149 255 232 149 255 232 149 255 245 204 
140 82 14 176 122 58 228 204 114 228 204 114 255 232 149 255 232 149 255 232 149 
255 232 149 255 232 149 255 232 149 255 232 149 255 232 149 255 232 149 
255 232 149 255 232 149 255 232 149 255 232 149 255 232 149 255 232 149 
255 232 149 255 232 149 255 232 149 255 232 149 255 232 149 255 232 149 
255 232 149 255 232 149 255 232 149 255 232 149 255 232 149 255 232 149 
255 232 149 255 232 149 255 232 149 255 232 149 255 232 149 255 232 149 
255 232 149 255 232 149 255 232 149 255 232 149 255 232 149 255 232 149 
255 232 149 255 232 149 255 232 149 255 232 149 255 232 149 255 232 149 
255 232 149 255 232 149 255 232 149 255 232 149 255 232 149 255 232 149 
255 232 149 255 232 149 255 232 149 255 232 149 255 232 149 255 232 149 
255 232 149 255 232 149 255 232 149 255 232 149 255 232 149 255 232 149 
255 232 149 255 232 149 255 232 149 255 232 149 255 232 149 255 232 149 
255 232 149 255 232 149 255 232 149 255 232 149 255 232 149 255 232 149 
255 232 149 255 232 149 255 232 149 255 232 149 255 232 149 255 232 149 
255 232 149 255 232 149 255 232 149 255 232 149 255 232 149 255 232 149 
255 232 149 255 232 149 255 232 149 255 232 149 255 232 149 255 232 149 
255 232 149 255 232 149 255 232 149 255 232 149 255 232 149 255 232 149 
255 232 149 255 232 149 255 232 149 255 232 149 255 232 149 255 232 149 
255 232 149 255 232 149 255 245 204 140 82 14 176 122 58 228 204 114 228 204 114 
255 232 149 255 232 149 255 232 149 255 232 149 255 232 149 255 232 149 
255 232 149 255 232 149 255 232 149 255 232 149 255 232 149 255 232 149 
255 232 149 255 232 149 255 232 149 255 232 149 255 232 149 255 232 149 
255 232 149 255 232 149 255 232 149 255 232 149 255 232 149 255 232 149 
255 232 149 255 232 149 255 232 149 255 232 149 255 232 149 255 232 149 
255 232 149 255 232 149 255 232 149 255 232 149 255 232 149 255 232 149 
255 232 149 255 232 149 255 232 149 255 232 149 255 232 149 255 232 149 
255 232 149 255 232 149 255 232 149 255 232 149 255 232 149 255 232 149 
255 232 149 255 232 149 255 232 149 255 232 149 255 232 149 255 232 149 
255 232 149 255 232 149 255 232 149 255 232 149 255 232 149 255 232 149 
255 232 149 255 232 149 255 232 149 255 232 149 255 232 149 255 232 149 
255 232 149 255 232 149 255 232 149 255 232 149 255 232 149 255 232 149 
255 232 149 255 232 149 255 232 149 255 232 149 255 232 149 255 232 149 
255 232 149 255 232 149 255 232 149 255 232 149 255 232 149 255 232 149 
255 232 149 255 232 149 255 232 149 255 232 149 255 232 149 255 232 149 
255 232 149 255 232 149 255 232 149 255 232 149 255 232 149 255 232 149 
255 232 149 255 232 149 255 232 149 255 232 149 255 232 149 255 232 149 
255 232 149 255 232 149 255 232 149 255 232 149 255 232 149 255 245 204 
140 82 14 176 122 58 228 204 114 228 204 114 255 232 149 255 232 149 255 232 149 
255 232 149 255 232 149 255 232 149 255 232 149 255 232 149 255 232 149 
255 232 149 255 232 149 255 232 149 255 232 149 255 232 149 255 232 149 
255 232 149 255 232 149 255 232 149 255 232 149 255 232 149 255 232 149 
255 232 149 255 232 149 255 232 149 255 232 149 255 232 149 255 232 149 
255 232 149 255 232 149 255 232 149 255 232 149 255 232 149 255 232 149 
255 232 149 255 232 149 255 232 149 255 232 149 255 232 149 255 232 149 
255 232 149 255 232 149 255 232 149 255 232 149 255 232 149 255 232 149 
255 232 149 255 232 149 255 232 149 255 232 149 255 232 149 255 232 149 
255 232 149 255 232 149 255 232 149 255 232 149 255 232 149 255 232 149 
255 232 149 255 232 149 255 232 149 255 232 149 255 232 149 255 232 149 
255 232 149 255 232 149 255 232 149 255 232 149 255 232 149 255 232 149 
255 232 149 255 232 149 255 232 149 255 232 149 255 232 149 255 232 149 
255 232 149 255 232 149 255 232 149 255 232 149 255 232 149 255 232 149 
255 232 149 255 232 149 255 232 149 255 232 149 255 232 149 255 232 149 
255 232 149 255 232 149 255 232 149 255 232 149 255 232 149 255 232 149 
255 232 149 255 232 149 255 232 149 255 232 149 255 232 149 255 232 149 
255 232 149 255 232 149 255 232 149 255 232 149 255 232 149 255 232 149 
255 232 149 255 232 149 255 245 204 140 82 14 176 122 58 228 204 114 228 204 114 
255 232 149 255 232 149 255 232 149 255 232 149 255 232 149 255 232 149 
255 232 149 255 232 149 255 232 149 255 232 149 255 232 149 255 232 149 
255 232 149 255 232 149 255 232 149 255 232 149 255 232 149 255 232 149 
255 232 149 255 232 149 255 232 149 255 232 149 255 232 149 255 232 149 
255 232 149 255 232 149 255 232 149 255 232 149 255 232 149 255 232 149 
255 232 149 255 232 149 255 232 149 255 232 149 255 232 149 255 232 149 
255 232 149 255 232 149 255 232 149 255 232 149 255 232 149 255 232 149 
255 232 149 255 232 149 255 232 149 255 232 149 255 232 149 255 232 149 
255 232 149 255 232 149 255 232 149 255 232 149 255 232 149 255 232 149 
255 232 149 255 232 149 255 232 149 255 232 149 255 232 149 255 232 149 
255 232 149 255 232 149 255 232 149 255 232 149 255 232 149 255 232 149 
255 232 149 255 232 149 255 232 149 255 232 149 255 232 149 255 232 149 
255 232 149 255 232 149 255 232 149 255 232 149 255 232 149 255 232 149 
255 232 149 255 232 149 255 232 149 255 232 149 255 232 149 255 232 149 
255 232 149 255 232 149 255 232 149 255 232 149 255 232 149 255 232 149 
255 232 149 255 232 149 255 232 149 255 232 149 255 232 149 255 232 149 
255 232 149 255 232 149 255 232 149 255 232 149 255 232 149 255 232 149 
255 232 149 255 232 149 255 232 149 255 232 149 255 232 149 255 245 204 
140 82 14 176 122 58 228 204 114 228 204 114 255 232 149 255 232 149 255 232 149 
255 232 149 255 232 149 255 232 149 255 232 149 255 232 149 255 232 149 
255 232 149 255 232 149 255 232 149 255 232 149 255 232 149 255 232 149 
255 232 149 255 232 149 255 232 149 255 232 149 255 232 149 255 232 149 
255 232 149 255 232 149 255 232 149 255 232 149 255 232 149 255 232 149 
255 232 149 255 232 149 255 232 149 255 232 149 255 232 149 255 232 149 
255 232 149 255 232 149 255 232 149 255 232 149 255 232 149 255 232 149 
255 232 149 255 232 149 255 232 149 255 232 149 255 232 149 255 232 149 
255 232 149 255 232 149 255 232 149 255 232 149 255 232 149 255 232 149 
255 232 149 255 232 149 255 232 149 255 232 149 255 232 149 255 232 149 
255 232 149 255 232 149 255 232 149 255 232 149 255 232 149 255 232 149 
255 232 149 255 232 149 255 232 149 255 232 149 255 232 149 255 232 149 
255 232 149 255 232 149 255 232 149 255 232 149 255 232 149 255 232 149 
255 232 149 255 232 149 255 232 149 255 232 149 255 232 149 255 232 149 
255 232 149 255 232 149 255 232 149 255 232 149 255 232 149 255 232 149 
255 232 149 255 232 149 255 232 149 255 232 149 255 232 149 255 232 149 
255 232 149 255 232 149 255 232 149 255 232 149 255 232 149 255 232 149 
255 232 149 255 232 149 255 232 149 255 232 149 255 232 149 255 232 149 
255 232 149 255 232 149 255 245 204 140 82 14 176 122 58 228 204 114 228 204 114 
255 232 149 255 232 149 255 232 149 255 232 149 255 232 149 255 232 149 
255 232 149 255 232 149 255 232 149 255 232 149 255 232 149 255 232 149 
255 232 149 255 232 149 255 232 149 255 232 149 255 232 149 255 232 149 
255 232 149 255 232 149 255 232 149 255 232 149 255 232 149 255 232 149 
255 232 149 255 232 149 255 232 149 255 232 149 255 232 149 255 232 149 
255 232 149 255 232 149 255 232 149 255 232 149 255 232 149 255 232 149 
255 232 149 255 232 149 255 232 149 255 232 149 255 232 149 255 232 149 
255 232 149 255 232 149 255 232 149 255 232 149 255 232 149 255 232 149 
255 232 149 255 232 149 255 232 149 255 232 149 255 232 149 255 232 149 
255 232 149 255 232 149 255 232 149 255 232 149 255 232 149 255 232 149 
255 232 149 255 232 149 255 232 149 255 232 149 255 232 149 255 232 149 
255 232 149 255 232 149 255 232 149 255 232 149 255 232 149 255 232 149 
255 232 149 255 232 149 255 232 149 255 232 149 255 232 149 255 232 149 
255 232 149 255 232 149 255 232 149 255 232 149 255 232 149 255 232 149 
255 232 149 255 232 149 255 232 149 255 232 149 255 232 149 255 232 149 
255 232 149 255 232 149 255 232 149 255 232 149 255 232 149 255 232 149 
255 232 149 255 232 149 255 232 149 255 232 149 255 232 149 255 232 149 
255 232 149 255 232 149 255 232 149 255 232 149 255 232 149 255 245 204 
140 82 14 176 122 58 228 204 114 228 204 114 255 232 149 255 232 149 255 232 149 
255 232 149 255 232 149 255 232 149 255 232 149 255 232 149 255 232 149 
255 232 149 255 232 149 255 232 149 255 232 149 255 232 149 255 232 149 
255 232 149 255 232 149 255 232 149 255 232 149 255 232 149 255 232 149 
255 232 149 255 232 149 255 232 149 255 232 149 255 232 149 255 232 149 
255 232 149 255 232 149 255 232 149 255 232 149 255 232 149 255 232 149 
255 232 149 255 232 149 255 232 149 255 232 149 255 232 149 255 232 149 
255 232 149 255 232 149 255 232 149 255 232 149 255 232 149 255 232 149 
255 232 149 255 232 149 255 232 149 255 232 149 255 232 149 255 232 149 
255 232 149 255 232 149 255 232 149 255 232 149 255 232 149 255 232 149 
255 232 149 255 232 149 255 232 149 255 232 149 255 232 149 255 232 149 
255 232 149 255 232 149 255 232 149 255 232 149 255 232 149 255 232 149 
255 232 149 255 232 149 255 232 149 255 232 149 255 232 149 255 232 149 
255 232 149 255 232 149 255 232 149 255 232 149 255 232 149 255 232 149 
255 232 149 255 232 149 255 232 149 255 232 149 255 232 149 255 232 149 
255 232 149 255 232 149 255 232 149 255 232 149 255 232 149 255 232 149 
255 232 149 255 232 149 255 232 149 255 232 149 255 232 149 255 232 149 
255 232 149 255 232 149 255 232 149 255 232 149 255 232 149 255 232 149 
255 232 149 255 232 149 255 245 204 140 82 14 176 122 58 228 204 114 228 204 114 
255 232 149 255 232 149 255 232 149 255 232 149 255 232 149 255 232 149 
255 232 149 255 232 149 255 232 149 255 232 149 255 232 149 255 232 149 
255 232 149 255 232 149 255 232 149 255 232 149 255 232 149 255 232 149 
255 232 149 255 232 149 255 232 149 255 232 149 255 232 149 255 232 149 
255 232 149 255 232 149 255 232 149 255 232 149 255 232 149 255 232 149 
255 232 149 255 232 149 255 232 149 255 232 149 255 232 149 255 232 149 
255 232 149 255 232 149 255 232 149 255 232 149 255 232 149 255 232 149 
255 232 149 255 232 149 255 232 149 255 232 149 255 232 149 255 232 149 
255 232 149 255 232 149 255 232 149 255 232 149 255 232 149 255 232 149 
255 232 149 255 232 149 255 232 149 255 232 149 255 232 149 255 232 149 
255 232 149 255 232 149 255 232 149 255 232 149 255 232 149 255 232 149 
255 232 149 255 232 149 255 232 149 255 232 149 255 232 149 255 232 149 
255 232 149 255 232 149 255 232 149 255 232 149 255 232 149 255 232 149 
255 232 149 255 232 149 255 232 149 255 232 149 255 232 149 255 232 149 
255 232 149 255 232 149 255 232 149 255 232 149 255 232 149 255 232 149 
255 232 149 255 232 149 255 232 149 255 232 149 255 232 149 255 232 149 
255 232 149 255 232 149 255 232 149 255 232 149 255 232 149 255 232 149 
255 232 149 255 232 149 255 232 149 255 232 149 255 232 149 255 245 204 
140 82 14 176 122 58 228 204 114 228 204 114 255 232 149 255 232 149 255 232 149 
255 232 149 255 232 149 255 232 149 255 232 149 255 232 149 255 232 149 
255 232 149 255 232 149 255 232 149 255 232 149 255 232 149 255 232 149 
255 232 149 255 232 149 255 232 149 255 232 149 255 232 149 255 232 149 
255 232 149 255 232 149 255 232 149 255 232 149 255 232 149 255 232 149 
255 232 149 255 232 149 255 232 149 255 232 149 255 232 149 255 232 149 
255 232 149 255 232 149 255 232 149 255 232 149 255 232 149 255 232 149 
255 232 149 255 232 149 255 232 149 255 232 149 255 232 149 255 232 149 
255 232 149 255 232 149 255 232 149 255 232 149 255 232 149 255 232 149 
255 232 149 255 232 149 255 232 149 255 232 149 255 232 149 255 232 149 
255 232 149 255 232 149 255 232 149 255 232 149 255 232 149 255 232 149 
255 232 149 255 232 149 255 232 149 255 232 149 255 232 149 255 232 149 
255 232 149 255 232 149 255 232 149 255 232 149 255 232 149 255 232 149 
255 232 149 255 232 149 255 232 149 255 232 149 255 232 149 255 232 149 
255 232 149 255 232 149 255 232 149 255 232 149 255 232 149 255 232 149 
255 232 149 255 232 149 255 232 149 255 232 149 255 232 149 255 232 149 
255 232 149 255 232 149 255 232 149 255 232 149 255 232 149 255 232 149 
255 232 149 255 232 149 255 232 149 255 232 149 255 232 149 255 232 149 
255 232 149 255 232 149 255 245 204 140 82 14 176 122 58 228 204 114 228 204 114 
255 232 149 255 232 149 255 232 149 255 232 149 255 232 149 255 232 149 
255 232 149 255 232 149 255 232 149 255 232 149 255 232 149 255 232 149 
255 232 149 255 232 149 255 232 149 255 232 149 255 232 149 255 232 149 
255 232 149 255 232 149 255 232 149 255 232 149 255 232 149 255 232 149 
255 232 149 255 232 149 255 232 149 255 232 149 255 232 149 255 232 149 
255 232 149 255 232 149 255 232 149 255 232 149 255 232 149 255 232 149 
255 232 149 255 232 149 255 232 149 255 232 149 255 232 149 255 232 149 
255 232 149 255 232 149 255 232 149 255 232 149 255 232 149 255 232 149 
255 232 149 255 232 149 255 232 149 255 232 149 255 232 149 255 232 149 
255 232 149 255 232 149 255 232 149 255 232 149 255 232 149 255 232 149 
255 232 149 255 232 149 255 232 149 255 232 149 255 232 149 255 232 149 
255 232 149 255 232 149 255 232 149 255 232 149 255 232 149 255 232 149 
255 232 149 255 232 149 255 232 149 255 232 149 255 232 149 255 232 149 
255 232 149 255 232 149 255 232 149 255 232 149 255 232 149 255 232 149 
255 232 149 255 232 149 255 232 149 255 232 149 255 232 149 255 232 149 
255 232 149 255 232 149 255 232 149 255 232 149 255 232 149 255 232 149 
255 232 149 255 232 149 255 232 149 255 232 149 255 232 149 255 232 149 
255 232 149 255 232 149 255 232 149 255 232 149 255 232 149 255 245 204 
140 82 14 176 122 58 228 204 114 228 204 114 255 232 149 255 232 149 255 232 149 
255 232 149 255 232 149 255 232 149 255 232 149 255 232 149 255 232 149 
255 232 149 255 232 149 255 232 149 255 232 149 255 232 149 255 232 149 
255 232 149 255 232 149 255 232 149 255 232 149 255 232 149 255 232 149 
255 232 149 255 232 149 255 232 149 255 232 149 255 232 149 255 232 149 
255 232 149 255 232 149 255 232 149 255 232 149 255 232 149 255 232 149 
255 232 149 255 232 149 255 232 149 255 232 149 255 232 149 255 232 149 
255 232 149 255 232 149 255 232 149 255 232 149 255 232 149 255 232 149 
255 232 149 255 232 149 255 232 149 255 232 149 255 232 149 255 232 149 
255 232 149 255 232 149 255 232 149 255 232 149 255 232 149 255 232 149 
255 232 149 255 232 149 255 232 149 255 232 149 255 232 149 255 232 149 
255 232 149 255 232 149 255 232 149 255 232 149 255 232 149 255 232 149 
255 232 149 255 232 149 255 232 149 255 232 149 255 232 149 255 232 149 
255 232 149 255 232 149 255 232 149 255 232 149 255 232 149 255 232 149 
255 232 149 255 232 149 255 232 149 255 232 149 255 232 149 255 232 149 
255 232 149 255 232 149 255 232 149 255 232 149 255 232 149 255 232 149 
255 232 149 255 232 149 255 232 149 255 232 149 255 232 149 255 232 149 
255 232 149 255 232 149 255 232 149 255 232 149 255 232 149 255 232 149 
255 232 149 255 232 149 255 245 204 140 82 14 176 122 58 228 204 114 228 204 114 
255 232 149 255 232 149 255 232 149 255 232 149 255 232 149 255 232 149 
255 232 149 255 232 149 255 232 149 255 232 149 255 232 149 255 232 149 
255 232 149 255 232 149 255 232 149 255 232 149 255 232 149 255 232 149 
255 232 149 255 232 149 255 232 149 255 232 149 255 232 149 255 232 149 
255 232 149 255 232 149 255 232 149 255 232 149 255 232 149 255 232 149 
255 232 149 255 232 149 255 232 149 255 232 149 255 232 149 255 232 149 
255 232 149 255 232 149 255 232 149 255 232 149 255 232 149 255 232 149 
255 232 149 255 232 149 255 232 149 255 232 149 255 232 149 255 232 149 
255 232 149 255 232 149 255 232 149 255 232 149 255 232 149 255 232 149 
255 232 149 255 232 149 255 232 149 255 232 149 255 232 149 255 232 149 
255 232 149 255 232 149 255 232 149 255 232 149 255 232 149 255 232 149 
255 232 149 255 232 149 255 232 149 255 232 149 255 232 149 255 232 149 
255 232 149 255 232 149 255 232 149 255 232 149 255 232 149 255 232 149 
255 232 149 255 232 149 255 232 149 255 232 149 255 232 149 255 232 149 
255 232 149 255 232 149 255 232 149 255 232 149 255 232 149 255 232 149 
255 232 149 255 232 149 255 232 149 255 232 149 255 232 149 255 232 149 
255 232 149 255 232 149 255 232 149 255 232 149 255 232 149 255 232 149 
255 232 149 255 232 149 255 232 149 255 232 149 255 232 149 255 245 204 
140 82 14 176 122 58 228 204 114 228 204 114 255 232 149 255 232 149 255 232 149 
255 232 149 255 232 149 255 232 149 255 232 149 255 232 149 255 232 149 
255 232 149 255 232 149 255 232 149 255 232 149 255 232 149 255 232 149 
255 232 149 255 232 149 255 232 149 255 232 149 255 232 149 255 232 149 
255 232 149 255 232 149 255 232 149 255 232 149 255 232 149 255 232 149 
255 232 149 255 232 149 255 232 149 255 232 149 255 232 149 255 232 149 
255 232 149 255 232 149 255 232 149 255 232 149 255 232 149 255 232 149 
255 232 149 255 232 149 255 232 149 255 232 149 255 232 149 255 232 149 
255 232 149 255 232 149 255 232 149 255 232 149 255 232 149 255 232 149 
255 232 149 255 232 149 255 232 149 255 232 149 255 232 149 255 232 149 
255 232 149 255 232 149 255 232 149 255 232 149 255 232 149 255 232 149 
255 232 149 255 232 149 255 232 149 255 232 149 255 232 149 255 232 149 
255 232 149 255 232 149 255 232 149 255 232 149 255 232 149 255 232 149 
255 232 149 255 232 149 255 232 149 255 232 149 255 232 149 255 232 149 
255 232 149 255 232 149 255 232 149 255 232 149 255 232 149 255 232 149 
255 232 149 255 232 149 255 232 149 255 232 149 255 232 149 255 232 149 
255 232 149 255 232 149 255 232 149 255 232 149 255 232 149 255 232 149 
255 232 149 255 232 149 255 232 149 255 232 149 255 232 149 255 232 149 
255 232 149 255 232 149 255 245 204 140 82 14 176 122 58 228 204 114 228 204 114 
255 232 149 255 232 149 255 232 149 255 232 149 255 232 149 255 232 149 
255 232 149 255 232 149 255 232 149 255 232 149 255 232 149 255 232 149 
255 232 149 255 232 149 255 232 149 255 232 149 255 232 149 255 232 149 
255 232 149 255 232 149 255 232 149 255 232 149 255 232 149 255 232 149 
255 232 149 255 232 149 255 232 149 255 232 149 255 232 149 255 232 149 
255 232 149 255 232 149 255 232 149 255 232 149 255 232 149 255 232 149 
255 232 149 255 232 149 255 232 149 255 232 149 255 232 149 255 232 149 
255 232 149 255 232 149 255 232 149 255 232 149 255 232 149 255 232 149 
255 232 149 255 232 149 255 232 149 255 232 149 255 232 149 255 232 149 
255 232 149 255 232 149 255 232 149 255 232 149 255 232 149 255 232 149 
255 232 149 255 232 149 255 232 149 255 232 149 255 232 149 255 232 149 
255 232 149 255 232 149 255 232 149 255 232 149 255 232 149 255 232 149 
255 232 149 255 232 149 255 232 149 255 232 149 255 232 149 255 232 149 
255 232 149 255 232 149 255 232 149 255 232 149 255 232 149 255 232 149 
255 232 149 255 232 149 255 232 149 255 232 149 255 232 149 255 232 149 
255 232 149 255 232 149 255 232 149 255 232 149 255 232 149 255 232 149 
255 232 149 255 232 149 255 232 149 255 232 149 255 232 149 255 232 149 
255 232 149 255 232 149 255 232 149 255 232 149 255 232 149 255 245 204 
140 82 14 176 122 58 228 204 114 228 204 114 255 232 149 255 232 149 255 232 149 
255 232 149 255 232 149 255 232 149 255 232 149 255 232 149 255 232 149 
255 232 149 255 232 149 255 232 149 255 232 149 255 232 149 255 232 149 
255 232 149 255 232 149 255 232 149 255 232 149 255 232 149 255 232 149 
255 232 149 255 232 149 255 232 149 255 232 149 255 232 149 255 232 149 
255 232 149 255 232 149 255 232 149 255 232 149 255 232 149 255 232 149 
255 232 149 255 232 149 255 232 149 255 232 149 255 232 149 255 232 149 
255 232 149 255 232 149 255 232 149 255 232 149 255 232 149 255 232 149 
255 232 149 255 232 149 255 232 149 255 232 149 255 232 149 255 232 149 
255 232 149 255 232 149 255 232 149 255 232 149 255 232 149 255 232 149 
255 232 149 255 232 149 255 232 149 255 232 149 255 232 149 255 232 149 
255 232 149 255 232 149 255 232 149 255 232 149 255 232 149 255 232 149 
255 232 149 255 232 149 255 232 149 255 232 149 255 232 149 255 232 149 
255 232 149 255 232 149 255 232 149 255 232 149 255 232 149 255 232 149 
255 232 149 255 232 149 255 232 149 255 232 149 255 232 149 255 232 149 
255 232 149 255 232 149 255 232 149 255 232 149 255 232 149 255 232 149 
255 232 149 255 232 149 255 232 149 255 232 149 255 232 149 255 232 149 
255 232 149 255 232 149 255 232 149 255 232 149 255 232 149 255 232 149 
255 232 149 255 232 149 255 245 204 140 82 14 176 122 58 228 204 114 228 204 114 
255 232 149 255 232 149 255 232 149 255 232 149 255 232 149 255 232 149 
255 232 149 255 232 149 255 232 149 255 232 149 255 232 149 255 232 149 
255 232 149 255 232 149 255 232 149 255 232 149 255 232 149 255 232 149 
255 232 149 255 232 149 255 232 149 255 232 149 255 232 149 255 232 149 
255 232 149 255 232 149 255 232 149 255 232 149 255 232 149 255 232 149 
255 232 149 255 232 149 255 232 149 255 232 149 255 232 149 255 232 149 
255 232 149 255 232 149 255 232 149 255 232 149 255 232 149 255 232 149 
255 232 149 255 232 149 255 232 149 255 232 149 255 232 149 255 232 149 
255 232 149 255 232 149 255 232 149 255 232 149 255 232 149 255 232 149 
255 232 149 255 232 149 255 232 149 255 232 149 255 232 149 255 232 149 
255 232 149 255 232 149 255 232 149 255 232 149 255 232 149 255 232 149 
255 232 149 255 232 149 255 232 149 255 232 149 255 232 149 255 232 149 
255 232 149 255 232 149 255 232 149 255 232 149 255 232 149 255 232 149 
255 232 149 255 232 149 255 232 149 255 232 149 255 232 149 255 232 149 
255 232 149 255 232 149 255 232 149 255 232 149 255 232 149 255 232 149 
255 232 149 255 232 149 255 232 149 255 232 149 255 232 149 255 232 149 
255 232 149 255 232 149 255 232 149 255 232 149 255 232 149 255 232 149 
255 232 149 255 232 149 255 232 149 255 232 149 255 232 149 255 245 204 
140 82 14 176 122 58 228 204 114 228 204 114 255 232 149 255 232 149 255 232 149 
255 232 149 255 232 149 255 232 149 255 232 149 255 232 149 255 232 149 
255 232 149 255 232 149 255 232 149 255 232 149 255 232 149 255 232 149 
255 232 149 255 232 149 255 232 149 255 232 149 255 232 149 255 232 149 
255 232 149 255 232 149 255 232 149 255 232 149 255 232 149 255 232 149 
255 232 149 255 232 149 255 232 149 255 232 149 255 232 149 255 232 149 
255 232 149 255 232 149 255 232 149 255 232 149 255 232 149 255 232 149 
255 232 149 255 232 149 255 232 149 255 232 149 255 232 149 255 232 149 
255 232 149 255 232 149 255 232 149 255 232 149 255 232 149 255 232 149 
255 232 149 255 232 149 255 232 149 255 232 149 255 232 149 255 232 149 
255 232 149 255 232 149 255 232 149 255 232 149 255 232 149 255 232 149 
255 232 149 255 232 149 255 232 149 255 232 149 255 232 149 255 232 149 
255 232 149 255 232 149 255 232 149 255 232 149 255 232 149 255 232 149 
255 232 149 255 232 149 255 232 149 255 232 149 255 232 149 255 232 149 
255 232 149 255 232 149 255 232 149 255 232 149 255 232 149 255 232 149 
255 232 149 255 232 149 255 232 149 255 232 149 255 232 149 255 232 149 
255 232 149 255 232 149 255 232 149 255 232 149 255 232 149 255 232 149 
255 232 149 255 232 149 255 232 149 255 232 149 255 232 149 255 232 149 
255 232 149 255 232 149 255 245 204 140 82 14 176 122 58 228 204 114 228 204 114 
255 232 149 255 232 149 255 232 149 255 232 149 255 232 149 255 232 149 
255 232 149 255 232 149 255 232 149 255 232 149 255 232 149 255 232 149 
255 232 149 255 232 149 255 232 149 255 232 149 255 232 149 255 232 149 
255 232 149 255 232 149 255 232 149 255 232 149 255 232 149 255 232 149 
255 232 149 255 232 149 255 232 149 255 232 149 255 232 149 255 232 149 
255 232 149 255 232 149 255 232 149 255 232 149 255 232 149 255 232 149 
255 232 149 255 232 149 255 232 149 255 232 149 255 232 149 255 232 149 
255 232 149 255 232 149 255 232 149 255 232 149 255 232 149 255 232 149 
255 232 149 255 232 149 255 232 149 255 232 149 255 232 149 255 232 149 
255 232 149 255 232 149 255 232 149 255 232 149 255 232 149 255 232 149 
255 232 149 255 232 149 255 232 149 255 232 149 255 232 149 255 232 149 
255 232 149 255 232 149 255 232 149 255 232 149 255 232 149 255 232 149 
255 232 149 255 232 149 255 232 149 255 232 149 255 232 149 255 232 149 
255 232 149 255 232 149 255 232 149 255 232 149 255 232 149 255 232 149 
255 232 149 255 232 149 255 232 149 255 232 149 255 232 149 255 232 149 
255 232 149 255 232 149 255 232 149 255 232 149 255 232 149 255 232 149 
255 232 149 255 232 149 255 232 149 255 232 149 255 232 149 255 232 149 
255 232 149 255 232 149 255 232 149 255 232 149 255 232 149 255 245 204 
140 82 14 176 122 58 228 204 114 228 204 114 255 232 149 255 232 149 255 232 149 
255 232 149 255 232 149 255 232 149 255 232 149 255 232 149 255 232 149 
255 232 149 255 232 149 255 232 149 255 232 149 255 232 149 255 232 149 
255 232 149 255 232 149 255 232 149 255 232 149 255 232 149 255 232 149 
255 232 149 255 232 149 255 232 149 255 232 149 255 232 149 255 232 149 
255 232 149 255 232 149 255 232 149 255 232 149 255 232 149 255 232 149 
255 232 149 255 232 149 255 232 149 255 232 149 255 232 149 255 232 149 
255 232 149 255 232 149 255 232 149 255 232 149 255 232 149 255 232 149 
255 232 149 255 232 149 255 232 149 255 232 149 255 232 149 255 232 149 
255 232 149 255 232 149 255 232 149 255 232 149 255 232 149 255 232 149 
255 232 149 255 232 149 255 232 149 255 232 149 255 232 149 255 232 149 
255 232 149 255 232 149 255 232 149 255 232 149 255 232 149 255 232 149 
255 232 149 255 232 149 255 232 149 255 232 149 255 232 149 255 232 149 
255 232 149 255 232 149 255 232 149 255 232 149 255 232 149 255 232 149 
255 232 149 255 232 149 255 232 149 255 232 149 255 232 149 255 232 149 
255 232 149 255 232 149 255 232 149 255 232 149 255 232 149 255 232 149 
255 232 149 255 232 149 255 232 149 255 232 149 255 232 149 255 232 149 
255 232 149 255 232 149 255 232 149 255 232 149 255 232 149 255 232 149 
255 232 149 255 232 149 255 245 204 140 82 14 176 122 58 228 204 114 228 204 114 
255 232 149 255 232 149 255 232 149 255 232 149 255 232 149 255 232 149 
255 232 149 255 232 149 255 232 149 255 232 149 255 232 149 255 232 149 
255 232 149 255 232 149 255 232 149 255 232 149 255 232 149 255 232 149 
255 232 149 255 232 149 255 232 149 255 232 149 255 232 149 255 232 149 
255 232 149 255 232 149 255 232 149 255 232 149 255 232 149 255 232 149 
255 232 149 255 232 149 255 232 149 255 232 149 255 232 149 255 232 149 
255 232 149 255 232 149 255 232 149 255 232 149 255 232 149 255 232 149 
255 232 149 255 232 149 255 232 149 255 232 149 255 232 149 255 232 149 
255 232 149 255 232 149 255 232 149 255 232 149 255 232 149 255 232 149 
255 232 149 255 232 149 255 232 149 255 232 149 255 232 149 255 232 149 
255 232 149 255 232 149 255 232 149 255 232 149 255 232 149 255 232 149 
255 232 149 255 232 149 255 232 149 255 232 149 255 232 149 255 232 149 
255 232 149 255 232 149 255 232 149 255 232 149 255 232 149 255 232 149 
255 232 149 255 232 149 255 232 149 255 232 149 255 232 149 255 232 149 
255 232 149 255 232 149 255 232 149 255 232 149 255 232 149 255 232 149 
255 232 149 255 232 149 255 232 149 255 232 149 255 232 149 255 232 149 
255 232 149 255 232 149 255 232 149 255 232 149 255 232 149 255 232 149 
255 232 149 255 232 149 255 232 149 255 232 149 255 232 149 255 245 204 
140 82 14 176 122 58 242 216 120 242 216 120 255 245 204 255 245 204 255 245 204 
255 245 204 255 245 204 255 245 204 255 245 204 255 245 204 255 245 204 
255 245 204 255 245 204 255 245 204 255 245 204 255 245 204 255 245 204 
255 245 204 255 245 204 255 245 204 255 245 204 255 245 204 255 245 204 
255 245 204 255 245 204 255 245 204 255 245 204 255 245 204 255 245 204 
255 245 204 255 245 204 255 245 204 255 245 204 255 245 204 255 245 204 
255 245 204 255 245 204 255 245 204 255 245 204 255 245 204 255 245 204 
255 245 204 255 245 204 255 245 204 255 245 204 255 245 204 255 245 204 
255 245 204 255 245 204 255 245 204 255 245 204 255 245 204 255 245 204 
255 245 204 255 245 204 255 245 204 255 245 204 255 245 204 255 245 204 
255 245 204 255 245 204 255 245 204 255 245 204 255 245 204 255 245 204 
255 245 204 255 245 204 255 245 204 255 245 204 255 245 204 255 245 204 
255 245 204 255 245 204 255 245 204 255 245 204 255 245 204 255 245 204 
255 245 204 255 245 204 255 245 204 255 245 204 255 245 204 255 245 204 
255 245 204 255 245 204 255 245 204 255 245 204 255 245 204 255 245 204 
255 245 204 255 245 204 255 245 204 255 245 204 255 245 204 255 245 204 
255 245 204 255 245 204 255 245 204 255 245 204 255 245 204 255 245 204 
255 245 204 255 245 204 255 245 204 255 245 204 255 245 204 255 245 204 
255 245 204 255 245 204 255 245 204 140 82 14 255 255 240 140 82 14 140 82 14 
140 82 14 140 82 14 140 82 14 140 82 14 140 82 14 140 82 14 140 82 14 140 82 14 
140 82 14 140 82 14 140 82 14 140 82 14 140 82 14 140 82 14 140 82 14 140 82 14 
140 82 14 140 82 14 140 82 14 140 82 14 140 82 14 140 82 14 140 82 14 140 82 14 
140 82 14 140 82 14 140 82 14 140 82 14 140 82 14 140 82 14 140 82 14 140 82 14 
140 82 14 140 82 14 140 82 14 140 82 14 140 82 14 140 82 14 140 82 14 140 82 14 
140 82 14 140 82 14 140 82 14 140 82 14 140 82 14 140 82 14 140 82 14 140 82 14 
140 82 14 140 82 14 140 82 14 140 82 14 140 82 14 140 82 14 140 82 14 140 82 14 
140 82 14 140 82 14 140 82 14 140 82 14 140 82 14 140 82 14 140 82 14 140 82 14 
140 82 14 140 82 14 140 82 14 140 82 14 140 82 14 140 82 14 140 82 14 140 82 14 
140 82 14 140 82 14 140 82 14 140 82 14 140 82 14 140 82 14 140 82 14 140 82 14 
140 82 14 140 82 14 140 82 14 140 82 14 140 82 14 140 82 14 140 82 14 140 82 14 
140 82 14 140 82 14 140 82 14 140 82 14 140 82 14 140 82 14 140 82 14 140 82 14 
140 82 14 140 82 14 140 82 14 140 82 14 140 82 14 140 82 14 140 82 14 140 82 14 
140 82 14 140 82 14 140 82 14 140 82 14 255 255 240 
