P3
# Created by Paint Shop Pro 6
16 66
255
255 255 255 255 255 255 255 255 255 255 255 255 255 255 255 255 255 255 
255 255 255 255 255 255 255 255 255 255 255 255 255 255 255 255 255 255 
255 255 255 255 255 255 255 255 255 255 255 255 0 0 0 0 0 0 0 0 0 255 255 255 
255 255 255 255 255 255 255 255 255 255 255 255 255 255 255 255 255 255 
255 255 255 255 255 255 255 255 255 255 255 255 255 255 255 255 255 255 
0 0 0 255 255 255 255 255 255 0 0 0 255 255 255 255 255 255 255 255 255 
255 255 255 255 255 255 255 255 255 255 255 255 255 255 255 255 255 255 
255 255 255 255 255 255 255 255 255 0 0 0 255 255 255 255 255 255 0 0 0 
255 255 255 255 255 255 255 255 255 255 255 255 255 255 255 255 255 255 
255 255 255 255 255 255 255 255 255 255 255 255 255 255 255 255 255 255 
0 0 0 255 255 255 255 255 255 0 0 0 255 255 255 255 255 255 255 255 255 
255 255 255 255 255 255 255 255 255 255 255 255 255 255 255 255 255 255 
255 255 255 255 255 255 255 255 255 0 0 0 0 0 0 0 0 0 255 255 255 255 255 255 
255 255 255 255 255 255 255 255 255 255 255 255 255 255 255 255 255 255 
255 255 255 255 255 255 255 255 255 255 255 255 255 255 255 0 0 0 255 255 255 
0 0 0 255 255 255 255 255 255 255 255 255 255 255 255 255 255 255 255 255 255 
255 255 255 255 255 255 255 255 255 255 255 255 255 255 255 255 255 255 
255 255 255 0 0 0 255 255 255 255 255 255 0 0 0 255 255 255 255 255 255 
255 255 255 255 255 255 255 255 255 255 255 255 255 255 255 255 255 255 
255 255 255 255 255 255 255 255 255 255 255 255 0 0 0 255 255 255 255 255 255 
0 0 0 255 255 255 255 255 255 255 255 255 255 255 255 255 255 255 255 255 255 
255 255 255 255 255 255 255 255 255 255 255 255 255 255 255 255 255 255 
0 0 0 255 255 255 255 255 255 0 0 0 255 255 255 255 255 255 255 255 255 
255 255 255 255 255 255 255 255 255 255 255 255 255 255 255 255 255 255 
255 255 255 255 255 255 255 255 255 0 0 0 255 255 255 255 255 255 0 0 0 
255 255 255 255 255 255 255 255 255 255 255 255 255 255 255 255 255 255 
255 255 255 255 255 255 255 255 255 255 255 255 255 255 255 255 255 255 
255 255 255 255 255 255 255 255 255 255 255 255 255 255 255 255 255 255 
255 255 255 255 255 255 255 255 255 255 255 255 255 255 255 255 255 255 
255 255 255 255 255 255 255 255 255 255 255 255 0 0 0 0 0 0 0 0 0 255 255 255 
255 255 255 255 255 255 255 255 255 255 255 255 255 255 255 255 255 255 
255 255 255 255 255 255 255 255 255 255 255 255 255 255 255 255 255 255 
0 0 0 255 255 255 255 255 255 0 0 0 255 255 255 255 255 255 255 255 255 
255 255 255 255 255 255 255 255 255 255 255 255 255 255 255 255 255 255 
255 255 255 255 255 255 255 255 255 0 0 0 255 255 255 255 255 255 0 0 0 
255 255 255 255 255 255 255 255 255 255 255 255 255 255 255 255 255 255 
255 255 255 255 255 255 255 255 255 255 255 255 255 255 255 255 255 255 
0 0 0 255 255 255 255 255 255 0 0 0 255 255 255 255 255 255 255 255 255 
255 255 255 255 255 255 255 255 255 255 255 255 255 255 255 255 255 255 
255 255 255 255 255 255 255 255 255 0 0 0 0 0 0 0 0 0 255 255 255 255 255 255 
255 255 255 255 255 255 255 255 255 255 255 255 255 255 255 255 255 255 
255 255 255 255 255 255 255 255 255 255 255 255 255 255 255 0 0 0 255 255 255 
0 0 0 255 255 255 255 255 255 0 0 0 255 255 255 255 255 255 255 255 255 
255 255 255 255 255 255 255 255 255 255 255 255 255 255 255 255 255 255 
255 255 255 0 0 0 255 255 255 255 255 255 0 0 0 255 255 255 0 0 0 255 255 255 
255 255 255 255 255 255 255 255 255 255 255 255 255 255 255 255 255 255 
255 255 255 255 255 255 255 255 255 0 0 0 255 255 255 255 255 255 0 0 0 
255 255 255 0 0 0 255 255 255 255 255 255 255 255 255 255 255 255 255 255 255 
255 255 255 255 255 255 255 255 255 255 255 255 255 255 255 0 0 0 255 255 255 
255 255 255 0 0 0 255 255 255 0 0 0 255 255 255 255 255 255 255 255 255 
255 255 255 255 255 255 255 255 255 255 255 255 255 255 255 255 255 255 
255 255 255 0 0 0 255 255 255 255 255 255 0 0 0 255 255 255 0 0 0 255 255 255 
255 255 255 255 255 255 255 255 255 255 255 255 255 255 255 255 255 255 
255 255 255 255 255 255 255 255 255 255 255 255 255 255 255 255 255 255 
255 255 255 255 255 255 255 255 255 255 255 255 255 255 255 255 255 255 
255 255 255 255 255 255 255 255 255 255 255 255 255 255 255 255 255 255 
255 255 255 0 0 0 0 0 0 0 0 0 255 255 255 255 255 255 255 255 255 255 255 255 
255 255 255 255 255 255 255 255 255 255 255 255 255 255 255 255 255 255 
255 255 255 255 255 255 255 255 255 0 0 0 255 255 255 255 255 255 0 0 0 
255 255 255 255 255 255 255 255 255 255 255 255 255 255 255 255 255 255 
255 255 255 255 255 255 255 255 255 255 255 255 255 255 255 255 255 255 
0 0 0 255 255 255 255 255 255 0 0 0 255 255 255 255 255 255 255 255 255 
255 255 255 255 255 255 255 255 255 255 255 255 255 255 255 255 255 255 
255 255 255 255 255 255 255 255 255 0 0 0 255 255 255 255 255 255 0 0 0 
255 255 255 255 255 255 255 255 255 255 255 255 255 255 255 255 255 255 
255 255 255 255 255 255 255 255 255 255 255 255 255 255 255 255 255 255 
0 0 0 0 0 0 0 0 0 255 255 255 255 255 255 255 255 255 255 255 255 0 0 0 
255 255 255 255 255 255 255 255 255 255 255 255 255 255 255 255 255 255 
255 255 255 255 255 255 0 0 0 255 255 255 0 0 0 255 255 255 255 255 255 
0 0 0 255 255 255 0 0 0 255 255 255 255 255 255 255 255 255 255 255 255 
255 255 255 255 255 255 255 255 255 255 255 255 0 0 0 255 255 255 255 255 255 
0 0 0 255 255 255 0 0 0 255 255 255 0 0 0 255 255 255 255 255 255 255 255 255 
255 255 255 255 255 255 255 255 255 255 255 255 255 255 255 0 0 0 255 255 255 
255 255 255 0 0 0 255 255 255 0 0 0 255 255 255 0 0 0 255 255 255 255 255 255 
255 255 255 255 255 255 255 255 255 255 255 255 255 255 255 255 255 255 
0 0 0 255 255 255 255 255 255 0 0 0 255 255 255 0 0 0 255 255 255 0 0 0 
255 255 255 255 255 255 255 255 255 255 255 255 255 255 255 255 255 255 
255 255 255 255 255 255 0 0 0 255 255 255 255 255 255 0 0 0 255 255 255 
0 0 0 255 255 255 0 0 0 255 255 255 255 255 255 255 255 255 255 255 255 
255 255 255 255 255 255 255 255 255 255 255 255 255 255 255 255 255 255 
255 255 255 255 255 255 255 255 255 255 255 255 255 255 255 255 255 255 
255 255 255 255 255 255 255 255 255 255 255 255 255 255 255 255 255 255 
255 255 255 255 255 255 0 0 0 0 0 0 0 0 0 255 255 255 255 255 255 255 255 255 
255 255 255 255 255 255 255 255 255 255 255 255 255 255 255 255 255 255 
255 255 255 255 255 255 255 255 255 255 255 255 0 0 0 255 255 255 255 255 255 
0 0 0 255 255 255 255 255 255 255 255 255 255 255 255 255 255 255 255 255 255 
255 255 255 255 255 255 255 255 255 255 255 255 255 255 255 255 255 255 
0 0 0 255 255 255 255 255 255 0 0 0 255 255 255 255 255 255 255 255 255 
255 255 255 255 255 255 255 255 255 255 255 255 255 255 255 255 255 255 
255 255 255 255 255 255 255 255 255 0 0 0 255 255 255 255 255 255 0 0 0 
255 255 255 255 255 255 255 255 255 255 255 255 255 255 255 0 0 0 255 255 255 
255 255 255 255 255 255 255 255 255 255 255 255 255 255 255 0 0 0 0 0 0 
0 0 0 255 255 255 255 255 255 255 255 255 255 255 255 0 0 0 255 255 255 
0 0 0 255 255 255 255 255 255 255 255 255 255 255 255 255 255 255 255 255 255 
0 0 0 255 255 255 0 0 0 255 255 255 255 255 255 0 0 0 255 255 255 0 0 0 
255 255 255 0 0 0 255 255 255 255 255 255 255 255 255 255 255 255 255 255 255 
255 255 255 0 0 0 255 255 255 255 255 255 0 0 0 255 255 255 0 0 0 255 255 255 
0 0 0 255 255 255 0 0 0 255 255 255 255 255 255 255 255 255 255 255 255 
255 255 255 255 255 255 0 0 0 255 255 255 255 255 255 0 0 0 255 255 255 
0 0 0 255 255 255 0 0 0 255 255 255 0 0 0 255 255 255 255 255 255 255 255 255 
255 255 255 255 255 255 255 255 255 0 0 0 255 255 255 255 255 255 0 0 0 
255 255 255 0 0 0 255 255 255 0 0 0 255 255 255 0 0 0 255 255 255 255 255 255 
255 255 255 255 255 255 255 255 255 255 255 255 0 0 0 255 255 255 255 255 255 
0 0 0 255 255 255 0 0 0 255 255 255 0 0 0 255 255 255 0 0 0 255 255 255 
255 255 255 255 255 255 255 255 255 255 255 255 255 255 255 255 255 255 
255 255 255 255 255 255 255 255 255 255 255 255 255 255 255 255 255 255 
255 255 255 255 255 255 255 255 255 255 255 255 255 255 255 255 255 255 
255 255 255 255 255 255 255 255 255 0 0 0 0 0 0 0 0 0 255 255 255 255 255 255 
255 255 255 255 255 255 255 255 255 255 255 255 255 255 255 255 255 255 
255 255 255 255 255 255 255 255 255 255 255 255 255 255 255 0 0 0 255 255 255 
255 255 255 0 0 0 255 255 255 255 255 255 255 255 255 255 255 255 255 255 255 
255 255 255 255 255 255 255 255 255 255 255 255 255 255 255 255 255 255 
255 255 255 0 0 0 255 255 255 255 255 255 0 0 0 255 255 255 255 255 255 
255 255 255 255 255 255 255 255 255 255 255 255 255 255 255 0 0 0 255 255 255 
255 255 255 255 255 255 255 255 255 0 0 0 255 255 255 255 255 255 0 0 0 
255 255 255 255 255 255 255 255 255 255 255 255 255 255 255 0 0 0 255 255 255 
0 0 0 255 255 255 255 255 255 255 255 255 255 255 255 0 0 0 0 0 0 0 0 0 
255 255 255 255 255 255 255 255 255 255 255 255 0 0 0 255 255 255 0 0 0 
255 255 255 0 0 0 255 255 255 255 255 255 255 255 255 255 255 255 0 0 0 
255 255 255 0 0 0 255 255 255 255 255 255 0 0 0 255 255 255 0 0 0 255 255 255 
0 0 0 255 255 255 0 0 0 255 255 255 255 255 255 255 255 255 255 255 255 
0 0 0 255 255 255 255 255 255 0 0 0 255 255 255 0 0 0 255 255 255 0 0 0 
255 255 255 0 0 0 255 255 255 0 0 0 255 255 255 255 255 255 255 255 255 
255 255 255 0 0 0 255 255 255 255 255 255 0 0 0 255 255 255 0 0 0 255 255 255 
0 0 0 255 255 255 0 0 0 255 255 255 0 0 0 255 255 255 255 255 255 255 255 255 
255 255 255 0 0 0 255 255 255 255 255 255 0 0 0 255 255 255 0 0 0 255 255 255 
0 0 0 255 255 255 0 0 0 255 255 255 0 0 0 255 255 255 255 255 255 255 255 255 
255 255 255 0 0 0 255 255 255 255 255 255 0 0 0 255 255 255 0 0 0 255 255 255 
0 0 0 255 255 255 0 0 0 255 255 255 0 0 0 255 255 255 255 255 255 255 255 255 
255 255 255 255 255 255 255 255 255 255 255 255 255 255 255 255 255 255 
255 255 255 255 255 255 255 255 255 255 255 255 255 255 255 255 255 255 
255 255 255 255 255 255 255 255 255 255 255 255 255 255 255 0 0 0 0 0 0 
0 0 0 255 255 255 255 255 255 255 255 255 255 255 255 255 255 255 255 255 255 
255 255 255 255 255 255 255 255 255 255 255 255 255 255 255 255 255 255 
255 255 255 0 0 0 255 255 255 255 255 255 0 0 0 255 255 255 255 255 255 
255 255 255 255 255 255 255 255 255 255 255 255 255 255 255 255 255 255 
255 255 255 0 0 0 255 255 255 255 255 255 0 0 0 255 255 255 255 255 255 
0 0 0 255 255 255 255 255 255 255 255 255 255 255 255 255 255 255 255 255 255 
255 255 255 0 0 0 255 255 255 0 0 0 255 255 255 255 255 255 0 0 0 255 255 255 
255 255 255 0 0 0 255 255 255 255 255 255 255 255 255 255 255 255 255 255 255 
0 0 0 255 255 255 0 0 0 255 255 255 0 0 0 255 255 255 255 255 255 0 0 0 
0 0 0 0 0 0 255 255 255 255 255 255 255 255 255 255 255 255 0 0 0 255 255 255 
0 0 0 255 255 255 0 0 0 255 255 255 0 0 0 255 255 255 255 255 255 0 0 0 
255 255 255 0 0 0 255 255 255 255 255 255 0 0 0 255 255 255 0 0 0 255 255 255 
0 0 0 255 255 255 0 0 0 255 255 255 0 0 0 255 255 255 255 255 255 0 0 0 
255 255 255 255 255 255 0 0 0 255 255 255 0 0 0 255 255 255 0 0 0 255 255 255 
0 0 0 255 255 255 0 0 0 255 255 255 0 0 0 255 255 255 255 255 255 0 0 0 
255 255 255 255 255 255 0 0 0 255 255 255 0 0 0 255 255 255 0 0 0 255 255 255 
0 0 0 255 255 255 0 0 0 255 255 255 0 0 0 255 255 255 255 255 255 0 0 0 
255 255 255 255 255 255 0 0 0 255 255 255 0 0 0 255 255 255 0 0 0 255 255 255 
0 0 0 255 255 255 0 0 0 255 255 255 0 0 0 255 255 255 255 255 255 0 0 0 
255 255 255 255 255 255 0 0 0 255 255 255 0 0 0 255 255 255 0 0 0 255 255 255 
0 0 0 255 255 255 0 0 0 255 255 255 0 0 0 255 255 255 255 255 255 
