P3
# Created by Paint Shop Pro 6
8 33
255
255 255 255 0 0 0 0 0 0 0 0 0 0 0 0 0 0 0 255 255 255 255 255 255 0 0 0 
0 0 0 0 0 0 255 255 255 0 0 0 0 0 0 0 0 0 255 255 255 0 0 0 0 0 0 255 255 255 
0 0 0 255 255 255 0 0 0 0 0 0 255 255 255 0 0 0 255 255 255 0 0 0 0 0 0 
0 0 0 255 255 255 0 0 0 255 255 255 0 0 0 255 255 255 0 0 0 0 0 0 0 0 0 
255 255 255 0 0 0 255 255 255 0 0 0 255 255 255 255 255 255 255 255 255 
255 255 255 255 255 255 0 0 0 255 255 255 0 0 0 255 255 255 0 0 0 0 0 0 
0 0 0 255 255 255 0 0 0 255 255 255 0 0 0 255 255 255 0 0 0 0 0 0 0 0 0 
255 255 255 0 0 0 255 255 255 0 0 0 255 255 255 0 0 0 0 0 0 0 0 0 255 255 255 
0 0 0 255 255 255 0 0 0 0 0 0 0 0 0 0 0 0 0 0 0 0 0 0 0 0 0 255 255 255 
255 255 255 0 0 0 0 0 0 0 0 0 0 0 0 0 0 0 255 255 255 255 255 255 255 255 255 
0 0 0 0 0 0 0 0 0 0 0 0 0 0 0 255 255 255 255 255 255 0 0 0 0 0 0 0 0 0 
0 0 0 0 0 0 0 0 0 0 0 0 255 255 255 0 0 0 255 255 255 255 255 255 255 255 255 
255 255 255 0 0 0 0 0 0 255 255 255 0 0 0 255 255 255 0 0 0 0 0 0 0 0 0 
255 255 255 0 0 0 255 255 255 0 0 0 255 255 255 0 0 0 0 0 0 0 0 0 255 255 255 
0 0 0 255 255 255 0 0 0 255 255 255 255 255 255 255 255 255 255 255 255 
0 0 0 0 0 0 255 255 255 0 0 0 255 255 255 0 0 0 0 0 0 0 0 0 255 255 255 
0 0 0 255 255 255 0 0 0 255 255 255 0 0 0 0 0 0 0 0 0 255 255 255 0 0 0 
255 255 255 0 0 0 255 255 255 255 255 255 255 255 255 255 255 255 0 0 0 
0 0 0 255 255 255 0 0 0 0 0 0 0 0 0 0 0 0 0 0 0 0 0 0 0 0 0 255 255 255 
255 255 255 0 0 0 0 0 0 0 0 0 0 0 0 0 0 0 255 255 255 255 255 255 255 255 240 
255 255 240 255 255 240 255 255 240 255 255 240 255 255 240 255 255 240 
255 255 255 255 255 240 255 255 240 255 255 240 255 255 240 255 255 240 
255 255 240 255 255 240 255 255 255 255 255 240 255 255 240 255 255 240 
255 255 240 255 255 240 255 255 240 255 255 240 255 255 255 255 255 240 
255 255 240 255 255 240 255 255 240 255 255 240 255 255 240 255 255 240 
255 255 255 255 255 240 255 255 240 255 255 240 255 255 240 255 255 240 
255 255 240 255 255 240 255 255 255 255 255 240 255 255 240 255 255 240 
255 255 240 255 255 240 255 255 240 255 255 240 255 255 255 255 255 240 
255 255 240 255 255 240 255 255 240 255 255 240 255 255 240 255 255 240 
255 255 255 255 255 240 255 255 240 255 255 240 255 255 240 255 255 240 
255 255 240 255 255 240 255 255 255 255 255 240 255 255 240 255 255 240 
255 255 240 255 255 240 255 255 240 255 255 240 255 255 255 255 255 240 
255 255 240 255 255 240 255 255 240 255 255 240 255 255 240 255 255 240 
255 255 255 255 255 240 255 255 240 255 255 240 255 255 240 255 255 240 
255 255 240 255 255 240 255 255 255 
