P3
# Created by Paint Shop Pro 6
24 112
255
128 128 128 128 128 128 128 128 128 128 128 128 128 128 128 128 128 128 
128 128 128 128 128 128 128 128 128 128 128 128 128 128 128 128 128 128 
128 128 128 128 128 128 128 128 128 128 128 128 128 128 128 128 128 128 
128 128 128 0 0 0 0 0 0 0 0 0 255 255 255 255 255 255 128 128 128 128 128 128 
128 128 128 128 128 128 128 128 128 128 128 128 128 128 128 128 128 128 
128 128 128 128 128 128 128 128 128 128 128 128 128 128 128 128 128 128 
128 128 128 128 128 128 128 128 128 128 128 128 128 128 128 128 128 128 
0 0 0 0 0 0 255 255 255 255 255 255 192 192 192 192 192 192 192 192 192 
192 192 192 192 192 192 192 192 192 192 192 192 192 192 192 192 192 192 
192 192 192 192 192 192 192 192 192 192 192 192 192 192 192 192 192 192 
192 192 192 192 192 192 192 192 192 192 192 192 192 192 192 128 128 128 
0 0 0 255 255 255 255 255 255 128 128 128 128 128 128 128 128 128 128 128 128 
128 128 128 128 128 128 128 128 128 128 128 128 128 128 128 128 128 128 
128 128 128 128 128 128 128 128 128 128 128 128 128 128 128 128 128 128 
128 128 128 128 128 128 128 128 128 128 128 128 128 128 128 0 0 0 255 255 255 
255 255 255 128 128 128 128 128 128 128 128 128 128 128 128 128 128 128 
128 128 128 128 128 128 128 128 128 128 128 128 128 128 128 128 128 128 
128 128 128 128 128 128 128 128 128 128 128 128 128 128 128 128 128 128 
128 128 128 128 128 128 128 128 128 128 128 128 0 0 0 255 255 255 255 255 255 
128 128 128 128 128 128 128 128 128 128 128 128 128 128 128 128 128 128 
128 128 128 128 128 128 128 128 128 128 128 128 128 128 128 128 128 128 
128 128 128 128 128 128 128 128 128 128 128 128 128 128 128 128 128 128 
128 128 128 128 128 128 128 128 128 0 0 0 255 255 255 255 255 255 128 128 128 
128 128 128 128 128 128 128 128 128 128 128 128 128 128 128 128 128 128 
128 128 128 128 128 128 128 128 128 128 128 128 128 128 128 128 128 128 
128 128 128 128 128 128 128 128 128 128 128 128 128 128 128 128 128 128 
128 128 128 128 128 128 0 0 0 255 255 255 255 255 255 128 128 128 128 128 128 
128 128 128 128 128 128 128 128 128 128 128 128 128 128 128 128 128 128 
128 128 128 128 128 128 128 128 128 128 128 128 128 128 128 128 128 128 
128 128 128 128 128 128 128 128 128 128 128 128 128 128 128 128 128 128 
128 128 128 0 0 0 255 255 255 255 255 255 128 128 128 128 128 128 128 128 128 
128 128 128 128 128 128 128 128 128 128 128 128 128 128 128 128 128 128 
128 128 128 128 128 128 128 128 128 128 128 128 128 128 128 128 128 128 
128 128 128 128 128 128 128 128 128 128 128 128 128 128 128 128 128 128 
0 0 0 255 255 255 255 255 255 128 128 128 128 128 128 128 128 128 128 128 128 
128 128 128 128 128 128 128 128 128 128 128 128 128 128 128 128 128 128 
128 128 128 128 128 128 128 128 128 128 128 128 128 128 128 128 128 128 
128 128 128 128 128 128 128 128 128 128 128 128 128 128 128 0 0 0 255 255 255 
255 255 255 128 128 128 128 128 128 128 128 128 128 128 128 128 128 128 
128 128 128 128 128 128 128 128 128 128 128 128 128 128 128 128 128 128 
128 128 128 128 128 128 128 128 128 128 128 128 128 128 128 128 128 128 
128 128 128 128 128 128 128 128 128 128 128 128 0 0 0 255 255 255 255 255 255 
128 128 128 128 128 128 128 128 128 128 128 128 128 128 128 128 128 128 
128 128 128 128 128 128 128 128 128 128 128 128 128 128 128 128 128 128 
128 128 128 128 128 128 128 128 128 128 128 128 128 128 128 128 128 128 
128 128 128 128 128 128 128 128 128 0 0 0 255 255 255 255 255 255 128 128 128 
128 128 128 128 128 128 128 128 128 128 128 128 128 128 128 128 128 128 
128 128 128 128 128 128 128 128 128 128 128 128 128 128 128 128 128 128 
128 128 128 128 128 128 128 128 128 128 128 128 128 128 128 128 128 128 
128 128 128 128 128 128 0 0 0 255 255 255 255 255 255 128 128 128 128 128 128 
128 128 128 128 128 128 128 128 128 128 128 128 128 128 128 128 128 128 
128 128 128 128 128 128 128 128 128 128 128 128 128 128 128 128 128 128 
128 128 128 128 128 128 128 128 128 128 128 128 128 128 128 128 128 128 
128 128 128 0 0 0 255 255 255 255 255 255 128 128 128 128 128 128 128 128 128 
128 128 128 128 128 128 128 128 128 128 128 128 128 128 128 128 128 128 
128 128 128 128 128 128 128 128 128 128 128 128 128 128 128 128 128 128 
128 128 128 128 128 128 128 128 128 128 128 128 128 128 128 128 128 128 
0 0 0 255 255 255 255 255 255 128 128 128 128 128 128 128 128 128 128 128 128 
128 128 128 128 128 128 128 128 128 128 128 128 128 128 128 128 128 128 
128 128 128 128 128 128 128 128 128 128 128 128 128 128 128 128 128 128 
128 128 128 128 128 128 128 128 128 128 128 128 128 128 128 0 0 0 255 255 255 
255 255 255 128 128 128 128 128 128 128 128 128 128 128 128 128 128 128 
128 128 128 128 128 128 128 128 128 128 128 128 128 128 128 128 128 128 
128 128 128 128 128 128 128 128 128 128 128 128 128 128 128 128 128 128 
128 128 128 128 128 128 0 0 0 0 0 0 0 0 0 255 255 255 255 255 255 128 128 128 
128 128 128 128 128 128 128 128 128 128 128 128 128 128 128 128 128 128 
128 128 128 128 128 128 128 128 128 128 128 128 128 128 128 128 128 128 
128 128 128 128 128 128 128 128 128 128 128 128 128 128 128 128 128 128 
128 128 128 0 0 0 0 0 0 255 255 255 255 255 255 192 192 192 192 192 192 
192 192 192 192 192 192 192 192 192 192 192 192 192 192 192 192 192 192 
192 192 192 192 192 192 192 192 192 192 192 192 192 192 192 192 192 192 
192 192 192 192 192 192 192 192 192 192 192 192 192 192 192 192 192 192 
128 128 128 0 0 0 255 255 255 255 255 255 128 128 128 128 128 128 128 128 128 
128 128 128 128 128 128 128 128 128 128 128 128 128 128 128 128 128 128 
128 128 128 128 128 128 128 128 128 128 128 128 128 128 128 128 128 128 
128 128 128 128 128 128 128 128 128 128 128 128 128 128 128 128 128 128 
0 0 0 255 255 255 255 255 255 128 128 128 128 128 128 128 128 128 128 128 128 
128 128 128 128 128 128 128 128 128 128 128 128 128 128 128 128 128 128 
128 128 128 128 128 128 128 128 128 128 128 128 128 128 128 128 128 128 
128 128 128 128 128 128 128 128 128 128 128 128 128 128 128 0 0 0 255 255 255 
255 255 255 128 128 128 128 128 128 128 128 128 255 255 255 128 128 128 
128 128 128 128 128 128 255 255 255 128 128 128 128 128 128 255 255 255 
255 255 255 128 128 128 128 128 128 255 255 255 128 128 128 255 255 255 
128 128 128 128 128 128 128 128 128 128 128 128 0 0 0 255 255 255 255 255 255 
128 128 128 128 128 128 128 128 128 255 255 255 128 128 128 128 128 128 
128 128 128 255 255 255 128 128 128 128 128 128 128 128 128 128 128 128 
128 128 128 128 128 128 255 255 255 128 128 128 255 255 255 128 128 128 
128 128 128 128 128 128 128 128 128 0 0 0 255 255 255 255 255 255 128 128 128 
128 128 128 255 255 255 128 128 128 255 255 255 128 128 128 128 128 128 
255 255 255 128 128 128 255 255 255 255 255 255 255 255 255 255 255 255 
128 128 128 255 255 255 128 128 128 255 255 255 128 128 128 128 128 128 
128 128 128 128 128 128 0 0 0 255 255 255 255 255 255 128 128 128 255 255 255 
128 128 128 128 128 128 128 128 128 255 255 255 128 128 128 255 255 255 
128 128 128 128 128 128 255 255 255 255 255 255 128 128 128 128 128 128 
255 255 255 255 255 255 255 255 255 128 128 128 128 128 128 128 128 128 
128 128 128 0 0 0 255 255 255 255 255 255 128 128 128 128 128 128 128 128 128 
128 128 128 128 128 128 128 128 128 128 128 128 255 255 255 128 128 128 
255 255 255 128 128 128 128 128 128 255 255 255 128 128 128 255 255 255 
128 128 128 255 255 255 128 128 128 128 128 128 128 128 128 128 128 128 
0 0 0 255 255 255 255 255 255 128 128 128 128 128 128 255 255 255 255 255 255 
255 255 255 255 255 255 255 255 255 128 128 128 128 128 128 128 128 128 
255 255 255 255 255 255 128 128 128 128 128 128 255 255 255 128 128 128 
255 255 255 128 128 128 128 128 128 128 128 128 128 128 128 0 0 0 255 255 255 
255 255 255 128 128 128 128 128 128 128 128 128 128 128 128 128 128 128 
128 128 128 128 128 128 255 255 255 128 128 128 128 128 128 128 128 128 
128 128 128 128 128 128 128 128 128 128 128 128 128 128 128 128 128 128 
128 128 128 128 128 128 128 128 128 128 128 128 0 0 0 255 255 255 255 255 255 
128 128 128 128 128 128 128 128 128 255 255 255 255 255 255 255 255 255 
255 255 255 128 128 128 128 128 128 128 128 128 128 128 128 255 255 255 
255 255 255 255 255 255 255 255 255 255 255 255 128 128 128 128 128 128 
128 128 128 128 128 128 128 128 128 0 0 0 255 255 255 255 255 255 128 128 128 
128 128 128 255 255 255 128 128 128 128 128 128 128 128 128 128 128 128 
128 128 128 128 128 128 128 128 128 255 255 255 128 128 128 128 128 128 
128 128 128 128 128 128 128 128 128 255 255 255 128 128 128 128 128 128 
128 128 128 128 128 128 0 0 0 255 255 255 255 255 255 128 128 128 128 128 128 
128 128 128 255 255 255 255 255 255 255 255 255 255 255 255 255 255 255 
128 128 128 128 128 128 128 128 128 255 255 255 255 255 255 255 255 255 
255 255 255 255 255 255 128 128 128 128 128 128 128 128 128 128 128 128 
128 128 128 0 0 0 255 255 255 255 255 255 128 128 128 128 128 128 128 128 128 
128 128 128 128 128 128 128 128 128 128 128 128 128 128 128 128 128 128 
128 128 128 128 128 128 128 128 128 128 128 128 128 128 128 128 128 128 
128 128 128 128 128 128 128 128 128 128 128 128 128 128 128 128 128 128 
0 0 0 255 255 255 255 255 255 128 128 128 128 128 128 128 128 128 128 128 128 
128 128 128 128 128 128 128 128 128 128 128 128 128 128 128 128 128 128 
128 128 128 128 128 128 128 128 128 128 128 128 128 128 128 128 128 128 
128 128 128 128 128 128 128 128 128 0 0 0 0 0 0 0 0 0 255 255 255 255 255 255 
128 128 128 128 128 128 128 128 128 128 128 128 128 128 128 128 128 128 
128 128 128 128 128 128 128 128 128 128 128 128 128 128 128 128 128 128 
128 128 128 128 128 128 128 128 128 128 128 128 128 128 128 128 128 128 
128 128 128 128 128 128 0 0 0 0 0 0 255 255 255 255 255 255 192 192 192 
192 192 192 192 192 192 192 192 192 192 192 192 192 192 192 192 192 192 
192 192 192 192 192 192 192 192 192 192 192 192 192 192 192 192 192 192 
192 192 192 192 192 192 192 192 192 192 192 192 192 192 192 192 192 192 
192 192 192 128 128 128 0 0 0 255 255 255 255 255 255 128 128 128 128 128 128 
128 128 128 128 128 128 128 128 128 128 128 128 128 128 128 128 128 128 
128 128 128 128 128 128 128 128 128 128 128 128 128 128 128 128 128 128 
128 128 128 128 128 128 128 128 128 128 128 128 128 128 128 128 128 128 
128 128 128 0 0 0 255 255 255 255 255 255 128 128 128 128 128 128 128 128 128 
128 128 128 128 128 128 128 128 128 128 128 128 128 128 128 128 128 128 
128 128 128 128 128 128 128 128 128 128 128 128 128 128 128 128 128 128 
128 128 128 128 128 128 128 128 128 128 128 128 128 128 128 128 128 128 
0 0 0 255 255 255 255 255 255 128 128 128 128 128 128 255 255 255 255 255 255 
128 128 128 128 128 128 128 128 128 255 255 255 128 128 128 128 128 128 
255 255 255 255 255 255 255 255 255 128 128 128 128 128 128 128 128 128 
255 255 255 128 128 128 128 128 128 128 128 128 128 128 128 0 0 0 255 255 255 
255 255 255 128 128 128 255 255 255 128 128 128 128 128 128 255 255 255 
255 255 255 255 255 255 255 255 255 128 128 128 128 128 128 128 128 128 
128 128 128 255 255 255 128 128 128 255 255 255 255 255 255 255 255 255 
128 128 128 128 128 128 128 128 128 128 128 128 0 0 0 255 255 255 255 255 255 
128 128 128 255 255 255 128 128 128 128 128 128 255 255 255 128 128 128 
128 128 128 255 255 255 128 128 128 128 128 128 128 128 128 128 128 128 
255 255 255 128 128 128 128 128 128 128 128 128 255 255 255 128 128 128 
128 128 128 128 128 128 128 128 128 0 0 0 255 255 255 255 255 255 128 128 128 
255 255 255 128 128 128 128 128 128 255 255 255 128 128 128 128 128 128 
255 255 255 128 128 128 128 128 128 128 128 128 128 128 128 255 255 255 
128 128 128 255 255 255 255 255 255 255 255 255 128 128 128 128 128 128 
128 128 128 128 128 128 0 0 0 255 255 255 255 255 255 128 128 128 255 255 255 
128 128 128 128 128 128 255 255 255 255 255 255 255 255 255 255 255 255 
128 128 128 128 128 128 255 255 255 255 255 255 128 128 128 128 128 128 
128 128 128 128 128 128 255 255 255 128 128 128 128 128 128 128 128 128 
128 128 128 0 0 0 255 255 255 255 255 255 128 128 128 128 128 128 255 255 255 
255 255 255 128 128 128 128 128 128 128 128 128 255 255 255 128 128 128 
128 128 128 128 128 128 255 255 255 255 255 255 255 255 255 255 255 255 
255 255 255 128 128 128 128 128 128 128 128 128 128 128 128 128 128 128 
0 0 0 255 255 255 255 255 255 128 128 128 128 128 128 128 128 128 128 128 128 
128 128 128 128 128 128 128 128 128 255 255 255 128 128 128 128 128 128 
128 128 128 128 128 128 128 128 128 128 128 128 128 128 128 128 128 128 
255 255 255 128 128 128 128 128 128 128 128 128 128 128 128 0 0 0 255 255 255 
255 255 255 128 128 128 128 128 128 255 255 255 128 128 128 128 128 128 
128 128 128 128 128 128 128 128 128 128 128 128 128 128 128 128 128 128 
128 128 128 255 255 255 255 255 255 255 255 255 255 255 255 128 128 128 
128 128 128 128 128 128 128 128 128 128 128 128 0 0 0 255 255 255 255 255 255 
128 128 128 128 128 128 255 255 255 128 128 128 128 128 128 128 128 128 
128 128 128 128 128 128 128 128 128 128 128 128 128 128 128 255 255 255 
128 128 128 128 128 128 128 128 128 128 128 128 128 128 128 128 128 128 
128 128 128 128 128 128 128 128 128 0 0 0 255 255 255 255 255 255 128 128 128 
128 128 128 128 128 128 255 255 255 255 255 255 255 255 255 255 255 255 
255 255 255 128 128 128 128 128 128 128 128 128 128 128 128 255 255 255 
255 255 255 255 255 255 255 255 255 255 255 255 128 128 128 128 128 128 
128 128 128 128 128 128 0 0 0 255 255 255 255 255 255 128 128 128 128 128 128 
128 128 128 128 128 128 128 128 128 128 128 128 128 128 128 128 128 128 
128 128 128 128 128 128 128 128 128 128 128 128 128 128 128 128 128 128 
128 128 128 128 128 128 128 128 128 128 128 128 128 128 128 128 128 128 
128 128 128 0 0 0 255 255 255 255 255 255 128 128 128 128 128 128 128 128 128 
128 128 128 128 128 128 128 128 128 128 128 128 128 128 128 128 128 128 
128 128 128 128 128 128 128 128 128 128 128 128 128 128 128 128 128 128 
128 128 128 128 128 128 128 128 128 128 128 128 0 0 0 0 0 0 0 0 0 255 255 255 
255 255 255 128 128 128 128 128 128 128 128 128 128 128 128 128 128 128 
128 128 128 128 128 128 128 128 128 128 128 128 128 128 128 128 128 128 
128 128 128 128 128 128 128 128 128 128 128 128 128 128 128 128 128 128 
128 128 128 128 128 128 128 128 128 0 0 0 0 0 0 255 255 255 255 255 255 
192 192 192 192 192 192 192 192 192 192 192 192 192 192 192 192 192 192 
192 192 192 192 192 192 192 192 192 192 192 192 192 192 192 192 192 192 
192 192 192 192 192 192 192 192 192 192 192 192 192 192 192 192 192 192 
192 192 192 192 192 192 128 128 128 0 0 0 255 255 255 255 255 255 128 128 128 
128 128 128 128 128 128 128 128 128 128 128 128 128 128 128 128 128 128 
128 128 128 128 128 128 128 128 128 128 128 128 128 128 128 128 128 128 
128 128 128 128 128 128 128 128 128 128 128 128 128 128 128 128 128 128 
128 128 128 128 128 128 0 0 0 255 255 255 255 255 255 128 128 128 128 128 128 
128 128 128 128 128 128 128 128 128 128 128 128 128 128 128 128 128 128 
128 128 128 128 128 128 128 128 128 128 128 128 128 128 128 128 128 128 
128 128 128 128 128 128 128 128 128 128 128 128 128 128 128 128 128 128 
128 128 128 0 0 0 255 255 255 255 255 255 128 128 128 128 128 128 255 255 255 
255 255 255 128 128 128 128 128 128 128 128 128 255 255 255 128 128 128 
128 128 128 255 255 255 255 255 255 255 255 255 255 255 255 128 128 128 
128 128 128 255 255 255 128 128 128 128 128 128 128 128 128 128 128 128 
0 0 0 255 255 255 255 255 255 128 128 128 255 255 255 128 128 128 128 128 128 
255 255 255 128 128 128 128 128 128 255 255 255 128 128 128 128 128 128 
128 128 128 128 128 128 128 128 128 128 128 128 255 255 255 255 255 255 
255 255 255 128 128 128 128 128 128 128 128 128 128 128 128 0 0 0 255 255 255 
255 255 255 128 128 128 255 255 255 128 128 128 128 128 128 255 255 255 
128 128 128 128 128 128 255 255 255 128 128 128 128 128 128 128 128 128 
255 255 255 255 255 255 255 255 255 128 128 128 128 128 128 255 255 255 
128 128 128 128 128 128 128 128 128 128 128 128 0 0 0 255 255 255 255 255 255 
128 128 128 255 255 255 128 128 128 128 128 128 255 255 255 128 128 128 
128 128 128 255 255 255 128 128 128 128 128 128 255 255 255 128 128 128 
128 128 128 128 128 128 255 255 255 255 255 255 255 255 255 128 128 128 
128 128 128 128 128 128 128 128 128 0 0 0 255 255 255 255 255 255 128 128 128 
128 128 128 255 255 255 255 255 255 128 128 128 128 128 128 128 128 128 
255 255 255 128 128 128 128 128 128 255 255 255 128 128 128 128 128 128 
128 128 128 128 128 128 128 128 128 255 255 255 128 128 128 128 128 128 
128 128 128 128 128 128 0 0 0 255 255 255 255 255 255 128 128 128 128 128 128 
128 128 128 128 128 128 128 128 128 128 128 128 128 128 128 128 128 128 
128 128 128 128 128 128 128 128 128 255 255 255 255 255 255 255 255 255 
255 255 255 128 128 128 255 255 255 128 128 128 128 128 128 128 128 128 
128 128 128 0 0 0 255 255 255 255 255 255 128 128 128 128 128 128 255 255 255 
128 128 128 128 128 128 128 128 128 128 128 128 255 255 255 128 128 128 
128 128 128 128 128 128 128 128 128 128 128 128 128 128 128 128 128 128 
128 128 128 128 128 128 128 128 128 128 128 128 128 128 128 128 128 128 
0 0 0 255 255 255 255 255 255 128 128 128 128 128 128 255 255 255 255 255 255 
255 255 255 255 255 255 255 255 255 255 255 255 128 128 128 128 128 128 
128 128 128 255 255 255 255 255 255 255 255 255 255 255 255 255 255 255 
128 128 128 128 128 128 128 128 128 128 128 128 128 128 128 0 0 0 255 255 255 
255 255 255 128 128 128 128 128 128 255 255 255 128 128 128 128 128 128 
128 128 128 128 128 128 255 255 255 128 128 128 128 128 128 128 128 128 
128 128 128 128 128 128 128 128 128 128 128 128 128 128 128 255 255 255 
128 128 128 128 128 128 128 128 128 128 128 128 0 0 0 255 255 255 255 255 255 
128 128 128 128 128 128 128 128 128 255 255 255 255 255 255 255 255 255 
255 255 255 128 128 128 128 128 128 128 128 128 128 128 128 128 128 128 
128 128 128 128 128 128 128 128 128 128 128 128 255 255 255 128 128 128 
128 128 128 128 128 128 128 128 128 0 0 0 255 255 255 255 255 255 128 128 128 
128 128 128 128 128 128 128 128 128 128 128 128 128 128 128 128 128 128 
128 128 128 128 128 128 128 128 128 128 128 128 128 128 128 128 128 128 
128 128 128 128 128 128 128 128 128 128 128 128 128 128 128 128 128 128 
128 128 128 128 128 128 0 0 0 255 255 255 255 255 255 128 128 128 128 128 128 
128 128 128 128 128 128 128 128 128 128 128 128 128 128 128 128 128 128 
128 128 128 128 128 128 128 128 128 128 128 128 128 128 128 128 128 128 
128 128 128 128 128 128 128 128 128 128 128 128 128 128 128 0 0 0 0 0 0 
0 0 0 255 255 255 255 255 255 128 128 128 128 128 128 128 128 128 128 128 128 
128 128 128 128 128 128 128 128 128 128 128 128 128 128 128 128 128 128 
128 128 128 128 128 128 128 128 128 128 128 128 128 128 128 128 128 128 
128 128 128 128 128 128 128 128 128 128 128 128 0 0 0 0 0 0 255 255 255 
255 255 255 192 192 192 192 192 192 192 192 192 192 192 192 192 192 192 
192 192 192 192 192 192 192 192 192 192 192 192 192 192 192 192 192 192 
192 192 192 192 192 192 192 192 192 192 192 192 192 192 192 192 192 192 
192 192 192 192 192 192 192 192 192 128 128 128 0 0 0 255 255 255 255 255 255 
128 128 128 128 128 128 128 128 128 128 128 128 128 128 128 128 128 128 
128 128 128 128 128 128 128 128 128 128 128 128 128 128 128 128 128 128 
128 128 128 128 128 128 128 128 128 128 128 128 128 128 128 128 128 128 
128 128 128 128 128 128 128 128 128 0 0 0 255 255 255 255 255 255 128 128 128 
128 128 128 128 128 128 128 128 128 128 128 128 128 128 128 128 128 128 
128 128 128 128 128 128 128 128 128 128 128 128 128 128 128 128 128 128 
128 128 128 128 128 128 128 128 128 128 128 128 128 128 128 128 128 128 
128 128 128 128 128 128 0 0 0 255 255 255 255 255 255 128 128 128 128 128 128 
128 128 128 255 255 255 128 128 128 128 128 128 128 128 128 255 255 255 
128 128 128 128 128 128 128 128 128 255 255 255 255 255 255 128 128 128 
255 255 255 128 128 128 255 255 255 128 128 128 128 128 128 128 128 128 
128 128 128 0 0 0 255 255 255 255 255 255 128 128 128 128 128 128 128 128 128 
255 255 255 128 128 128 128 128 128 128 128 128 255 255 255 128 128 128 
128 128 128 255 255 255 128 128 128 128 128 128 128 128 128 255 255 255 
128 128 128 255 255 255 128 128 128 128 128 128 128 128 128 128 128 128 
0 0 0 255 255 255 255 255 255 128 128 128 128 128 128 128 128 128 255 255 255 
128 128 128 255 255 255 255 255 255 255 255 255 128 128 128 128 128 128 
255 255 255 255 255 255 255 255 255 128 128 128 255 255 255 255 255 255 
255 255 255 128 128 128 128 128 128 128 128 128 128 128 128 0 0 0 255 255 255 
255 255 255 128 128 128 128 128 128 255 255 255 128 128 128 255 255 255 
128 128 128 128 128 128 255 255 255 128 128 128 128 128 128 255 255 255 
128 128 128 128 128 128 128 128 128 255 255 255 128 128 128 255 255 255 
128 128 128 128 128 128 128 128 128 128 128 128 0 0 0 255 255 255 255 255 255 
128 128 128 128 128 128 255 255 255 128 128 128 255 255 255 128 128 128 
128 128 128 255 255 255 128 128 128 128 128 128 255 255 255 128 128 128 
128 128 128 128 128 128 255 255 255 128 128 128 255 255 255 128 128 128 
128 128 128 128 128 128 128 128 128 0 0 0 255 255 255 255 255 255 128 128 128 
255 255 255 128 128 128 128 128 128 128 128 128 255 255 255 128 128 128 
255 255 255 128 128 128 128 128 128 128 128 128 255 255 255 255 255 255 
128 128 128 255 255 255 128 128 128 255 255 255 128 128 128 128 128 128 
128 128 128 128 128 128 0 0 0 255 255 255 255 255 255 128 128 128 128 128 128 
128 128 128 128 128 128 128 128 128 128 128 128 128 128 128 255 255 255 
128 128 128 128 128 128 128 128 128 128 128 128 128 128 128 128 128 128 
128 128 128 128 128 128 128 128 128 128 128 128 128 128 128 128 128 128 
128 128 128 0 0 0 255 255 255 255 255 255 128 128 128 128 128 128 255 255 255 
128 128 128 128 128 128 128 128 128 128 128 128 128 128 128 128 128 128 
128 128 128 128 128 128 255 255 255 255 255 255 255 255 255 255 255 255 
255 255 255 128 128 128 128 128 128 128 128 128 128 128 128 128 128 128 
0 0 0 255 255 255 255 255 255 128 128 128 128 128 128 255 255 255 128 128 128 
128 128 128 128 128 128 128 128 128 128 128 128 128 128 128 128 128 128 
128 128 128 128 128 128 128 128 128 128 128 128 128 128 128 128 128 128 
255 255 255 128 128 128 128 128 128 128 128 128 128 128 128 0 0 0 255 255 255 
255 255 255 128 128 128 128 128 128 128 128 128 255 255 255 255 255 255 
255 255 255 255 255 255 255 255 255 128 128 128 128 128 128 128 128 128 
128 128 128 128 128 128 128 128 128 128 128 128 128 128 128 255 255 255 
128 128 128 128 128 128 128 128 128 128 128 128 0 0 0 255 255 255 255 255 255 
128 128 128 128 128 128 128 128 128 128 128 128 128 128 128 128 128 128 
128 128 128 128 128 128 128 128 128 128 128 128 128 128 128 128 128 128 
128 128 128 128 128 128 128 128 128 128 128 128 128 128 128 128 128 128 
128 128 128 128 128 128 128 128 128 0 0 0 255 255 255 255 255 255 128 128 128 
128 128 128 128 128 128 128 128 128 128 128 128 128 128 128 128 128 128 
128 128 128 128 128 128 128 128 128 128 128 128 128 128 128 128 128 128 
128 128 128 128 128 128 128 128 128 128 128 128 128 128 128 128 128 128 
0 0 0 0 0 0 0 0 0 255 255 255 255 255 255 128 128 128 128 128 128 128 128 128 
128 128 128 128 128 128 128 128 128 128 128 128 128 128 128 128 128 128 
128 128 128 128 128 128 128 128 128 128 128 128 128 128 128 128 128 128 
128 128 128 128 128 128 128 128 128 128 128 128 128 128 128 0 0 0 0 0 0 
255 255 255 255 255 255 192 192 192 192 192 192 192 192 192 192 192 192 
192 192 192 192 192 192 192 192 192 192 192 192 192 192 192 192 192 192 
192 192 192 192 192 192 192 192 192 192 192 192 192 192 192 192 192 192 
192 192 192 192 192 192 192 192 192 192 192 192 128 128 128 0 0 0 255 255 255 
255 255 255 128 128 128 128 128 128 128 128 128 128 128 128 128 128 128 
128 128 128 128 128 128 128 128 128 128 128 128 128 128 128 128 128 128 
128 128 128 128 128 128 128 128 128 128 128 128 128 128 128 128 128 128 
128 128 128 128 128 128 128 128 128 128 128 128 0 0 0 255 255 255 255 255 255 
128 128 128 128 128 128 128 128 128 128 128 128 128 128 128 128 128 128 
128 128 128 128 128 128 128 128 128 128 128 128 128 128 128 128 128 128 
128 128 128 128 128 128 128 128 128 128 128 128 128 128 128 128 128 128 
128 128 128 128 128 128 128 128 128 0 0 0 255 255 255 255 255 255 128 128 128 
128 128 128 128 128 128 128 128 128 128 128 128 128 128 128 255 255 255 
255 255 255 128 128 128 128 128 128 255 255 255 128 128 128 255 255 255 
128 128 128 128 128 128 128 128 128 128 128 128 128 128 128 128 128 128 
128 128 128 128 128 128 0 0 0 255 255 255 255 255 255 128 128 128 128 128 128 
128 128 128 128 128 128 128 128 128 255 255 255 128 128 128 128 128 128 
255 255 255 128 128 128 255 255 255 128 128 128 255 255 255 128 128 128 
128 128 128 128 128 128 128 128 128 128 128 128 128 128 128 128 128 128 
128 128 128 0 0 0 255 255 255 255 255 255 128 128 128 128 128 128 128 128 128 
128 128 128 128 128 128 255 255 255 128 128 128 128 128 128 255 255 255 
255 255 255 255 255 255 128 128 128 255 255 255 128 128 128 128 128 128 
128 128 128 128 128 128 128 128 128 128 128 128 128 128 128 128 128 128 
0 0 0 255 255 255 255 255 255 128 128 128 128 128 128 128 128 128 128 128 128 
128 128 128 255 255 255 128 128 128 128 128 128 255 255 255 128 128 128 
255 255 255 128 128 128 255 255 255 128 128 128 128 128 128 128 128 128 
128 128 128 128 128 128 128 128 128 128 128 128 128 128 128 0 0 0 255 255 255 
255 255 255 128 128 128 128 128 128 128 128 128 128 128 128 128 128 128 
255 255 255 128 128 128 128 128 128 255 255 255 128 128 128 255 255 255 
128 128 128 255 255 255 128 128 128 128 128 128 128 128 128 128 128 128 
128 128 128 128 128 128 128 128 128 128 128 128 0 0 0 255 255 255 255 255 255 
128 128 128 128 128 128 128 128 128 128 128 128 128 128 128 255 255 255 
128 128 128 128 128 128 255 255 255 128 128 128 255 255 255 128 128 128 
255 255 255 128 128 128 128 128 128 128 128 128 128 128 128 128 128 128 
128 128 128 128 128 128 128 128 128 0 0 0 255 255 255 255 255 255 128 128 128 
128 128 128 128 128 128 128 128 128 128 128 128 255 255 255 128 128 128 
128 128 128 255 255 255 255 255 255 255 255 255 128 128 128 255 255 255 
128 128 128 128 128 128 128 128 128 128 128 128 128 128 128 128 128 128 
128 128 128 128 128 128 0 0 0 255 255 255 255 255 255 128 128 128 128 128 128 
128 128 128 128 128 128 128 128 128 255 255 255 128 128 128 128 128 128 
255 255 255 128 128 128 255 255 255 128 128 128 255 255 255 128 128 128 
128 128 128 128 128 128 128 128 128 128 128 128 128 128 128 128 128 128 
128 128 128 0 0 0 255 255 255 255 255 255 128 128 128 128 128 128 128 128 128 
128 128 128 128 128 128 128 128 128 255 255 255 255 255 255 128 128 128 
128 128 128 255 255 255 128 128 128 255 255 255 128 128 128 128 128 128 
128 128 128 128 128 128 128 128 128 128 128 128 128 128 128 128 128 128 
0 0 0 255 255 255 255 255 255 128 128 128 128 128 128 128 128 128 128 128 128 
128 128 128 128 128 128 128 128 128 128 128 128 128 128 128 128 128 128 
255 255 255 128 128 128 255 255 255 128 128 128 128 128 128 128 128 128 
128 128 128 128 128 128 128 128 128 128 128 128 128 128 128 0 0 0 255 255 255 
255 255 255 128 128 128 128 128 128 128 128 128 128 128 128 128 128 128 
128 128 128 128 128 128 128 128 128 128 128 128 128 128 128 128 128 128 
128 128 128 128 128 128 128 128 128 128 128 128 128 128 128 128 128 128 
128 128 128 128 128 128 128 128 128 128 128 128 0 0 0 255 255 255 255 255 255 
128 128 128 128 128 128 128 128 128 128 128 128 128 128 128 128 128 128 
128 128 128 128 128 128 128 128 128 128 128 128 128 128 128 128 128 128 
128 128 128 128 128 128 128 128 128 128 128 128 128 128 128 128 128 128 
128 128 128 0 0 0 0 0 0 0 0 0 255 255 255 255 255 255 128 128 128 128 128 128 
128 128 128 128 128 128 128 128 128 128 128 128 128 128 128 128 128 128 
128 128 128 128 128 128 128 128 128 128 128 128 128 128 128 128 128 128 
128 128 128 128 128 128 128 128 128 128 128 128 128 128 128 128 128 128 
0 0 0 0 0 0 255 255 255 255 255 255 192 192 192 192 192 192 192 192 192 
192 192 192 192 192 192 192 192 192 192 192 192 192 192 192 192 192 192 
192 192 192 192 192 192 192 192 192 192 192 192 192 192 192 192 192 192 
192 192 192 192 192 192 192 192 192 192 192 192 192 192 192 128 128 128 
0 0 0 255 255 255 255 255 255 128 128 128 128 128 128 128 128 128 128 128 128 
128 128 128 128 128 128 128 128 128 128 128 128 128 128 128 128 128 128 
128 128 128 128 128 128 128 128 128 128 128 128 128 128 128 128 128 128 
128 128 128 128 128 128 128 128 128 128 128 128 128 128 128 0 0 0 255 255 255 
255 255 255 128 128 128 128 128 128 128 128 128 128 128 128 128 128 128 
128 128 128 128 128 128 128 128 128 128 128 128 128 128 128 128 128 128 
128 128 128 128 128 128 128 128 128 128 128 128 128 128 128 128 128 128 
128 128 128 128 128 128 128 128 128 128 128 128 0 0 0 255 255 255 255 255 255 
128 128 128 128 128 128 128 128 128 255 255 255 128 128 128 128 128 128 
128 128 128 255 255 255 128 128 128 128 128 128 128 128 128 255 255 255 
255 255 255 128 128 128 128 128 128 128 128 128 255 255 255 128 128 128 
128 128 128 128 128 128 128 128 128 0 0 0 255 255 255 255 255 255 128 128 128 
255 255 255 255 255 255 255 255 255 255 255 255 255 255 255 128 128 128 
255 255 255 128 128 128 128 128 128 255 255 255 128 128 128 128 128 128 
255 255 255 128 128 128 128 128 128 255 255 255 128 128 128 128 128 128 
128 128 128 128 128 128 0 0 0 255 255 255 255 255 255 128 128 128 128 128 128 
255 255 255 128 128 128 255 255 255 128 128 128 128 128 128 255 255 255 
128 128 128 128 128 128 255 255 255 128 128 128 128 128 128 255 255 255 
128 128 128 128 128 128 255 255 255 128 128 128 128 128 128 128 128 128 
128 128 128 0 0 0 255 255 255 255 255 255 128 128 128 255 255 255 128 128 128 
128 128 128 128 128 128 255 255 255 128 128 128 255 255 255 128 128 128 
128 128 128 255 255 255 128 128 128 128 128 128 255 255 255 128 128 128 
128 128 128 255 255 255 128 128 128 128 128 128 128 128 128 128 128 128 
0 0 0 255 255 255 255 255 255 128 128 128 128 128 128 255 255 255 255 255 255 
255 255 255 128 128 128 128 128 128 255 255 255 255 255 255 128 128 128 
255 255 255 128 128 128 128 128 128 255 255 255 128 128 128 128 128 128 
255 255 255 128 128 128 128 128 128 128 128 128 128 128 128 0 0 0 255 255 255 
255 255 255 128 128 128 128 128 128 128 128 128 255 255 255 128 128 128 
128 128 128 128 128 128 255 255 255 128 128 128 128 128 128 128 128 128 
255 255 255 255 255 255 128 128 128 128 128 128 128 128 128 255 255 255 
128 128 128 128 128 128 128 128 128 128 128 128 0 0 0 255 255 255 255 255 255 
128 128 128 255 255 255 255 255 255 255 255 255 255 255 255 255 255 255 
128 128 128 255 255 255 128 128 128 128 128 128 128 128 128 128 128 128 
128 128 128 128 128 128 128 128 128 128 128 128 255 255 255 128 128 128 
128 128 128 128 128 128 128 128 128 0 0 0 255 255 255 255 255 255 128 128 128 
128 128 128 128 128 128 128 128 128 128 128 128 128 128 128 128 128 128 
128 128 128 128 128 128 128 128 128 128 128 128 255 255 255 128 128 128 
128 128 128 128 128 128 128 128 128 128 128 128 128 128 128 128 128 128 
128 128 128 128 128 128 0 0 0 255 255 255 255 255 255 128 128 128 255 255 255 
255 255 255 255 255 255 255 255 255 255 255 255 255 255 255 255 255 255 
128 128 128 128 128 128 128 128 128 255 255 255 128 128 128 128 128 128 
128 128 128 128 128 128 128 128 128 128 128 128 128 128 128 128 128 128 
128 128 128 0 0 0 255 255 255 255 255 255 128 128 128 128 128 128 128 128 128 
128 128 128 128 128 128 128 128 128 128 128 128 255 255 255 128 128 128 
128 128 128 128 128 128 128 128 128 255 255 255 255 255 255 255 255 255 
255 255 255 255 255 255 128 128 128 128 128 128 128 128 128 128 128 128 
0 0 0 255 255 255 255 255 255 128 128 128 128 128 128 128 128 128 128 128 128 
128 128 128 128 128 128 128 128 128 128 128 128 128 128 128 128 128 128 
128 128 128 128 128 128 128 128 128 128 128 128 128 128 128 128 128 128 
128 128 128 128 128 128 128 128 128 128 128 128 128 128 128 0 0 0 255 255 255 
255 255 255 
