P3
# Created by Paint Shop Pro 6
12 64
255
0 0 0 0 0 0 0 0 0 128 128 128 128 128 128 128 128 128 128 128 128 128 128 128 
128 128 128 128 128 128 128 128 128 128 128 128 0 0 0 0 0 0 128 128 128 
128 128 128 128 128 128 128 128 128 128 128 128 128 128 128 128 128 128 
128 128 128 128 128 128 128 128 128 0 0 0 128 128 128 192 192 192 192 192 192 
192 192 192 192 192 192 192 192 192 192 192 192 192 192 192 192 192 192 
192 192 192 192 192 192 0 0 0 128 128 128 128 128 128 128 128 128 128 128 128 
128 128 128 128 128 128 128 128 128 128 128 128 128 128 128 128 128 128 
128 128 128 0 0 0 128 128 128 128 128 128 128 128 128 128 128 128 128 128 128 
128 128 128 128 128 128 128 128 128 128 128 128 128 128 128 128 128 128 
0 0 0 128 128 128 128 128 128 128 128 128 128 128 128 128 128 128 128 128 128 
128 128 128 128 128 128 128 128 128 128 128 128 128 128 128 0 0 0 128 128 128 
128 128 128 128 128 128 128 128 128 128 128 128 128 128 128 128 128 128 
128 128 128 128 128 128 128 128 128 128 128 128 0 0 0 128 128 128 128 128 128 
128 128 128 128 128 128 128 128 128 128 128 128 128 128 128 128 128 128 
128 128 128 128 128 128 128 128 128 0 0 0 128 128 128 128 128 128 128 128 128 
128 128 128 128 128 128 128 128 128 128 128 128 128 128 128 128 128 128 
128 128 128 128 128 128 0 0 0 128 128 128 128 128 128 128 128 128 128 128 128 
128 128 128 128 128 128 128 128 128 128 128 128 128 128 128 128 128 128 
128 128 128 0 0 0 128 128 128 128 128 128 128 128 128 128 128 128 128 128 128 
128 128 128 128 128 128 128 128 128 128 128 128 128 128 128 128 128 128 
0 0 0 128 128 128 128 128 128 128 128 128 128 128 128 128 128 128 128 128 128 
128 128 128 128 128 128 128 128 128 128 128 128 128 128 128 0 0 0 128 128 128 
128 128 128 128 128 128 128 128 128 128 128 128 128 128 128 128 128 128 
128 128 128 128 128 128 128 128 128 128 128 128 0 0 0 128 128 128 128 128 128 
128 128 128 128 128 128 128 128 128 128 128 128 128 128 128 128 128 128 
128 128 128 128 128 128 128 128 128 0 0 0 128 128 128 128 128 128 128 128 128 
128 128 128 128 128 128 128 128 128 128 128 128 128 128 128 128 128 128 
128 128 128 128 128 128 0 0 0 128 128 128 128 128 128 128 128 128 128 128 128 
128 128 128 128 128 128 128 128 128 128 128 128 128 128 128 128 128 128 
128 128 128 0 0 0 0 0 0 0 0 0 128 128 128 128 128 128 128 128 128 128 128 128 
128 128 128 128 128 128 128 128 128 128 128 128 128 128 128 0 0 0 0 0 0 
128 128 128 128 128 128 128 128 128 128 128 128 128 128 128 128 128 128 
128 128 128 128 128 128 128 128 128 128 128 128 0 0 0 128 128 128 192 192 192 
192 192 192 192 192 192 192 192 192 192 192 192 192 192 192 192 192 192 
192 192 192 192 192 192 192 192 192 0 0 0 128 128 128 128 128 128 128 128 128 
128 128 128 128 128 128 128 128 128 128 128 128 128 128 128 128 128 128 
128 128 128 128 128 128 0 0 0 128 128 128 128 128 128 128 128 128 128 128 128 
128 128 128 128 128 128 128 128 128 128 128 128 128 128 128 128 128 128 
128 128 128 0 0 0 128 128 128 128 128 128 128 128 128 128 128 128 128 128 128 
128 128 128 255 255 255 255 255 255 128 128 128 128 128 128 128 128 128 
0 0 0 128 128 128 128 128 128 128 128 128 128 128 128 128 128 128 255 255 255 
255 255 255 255 255 255 255 255 255 128 128 128 128 128 128 0 0 0 128 128 128 
128 128 128 128 128 128 128 128 128 255 255 255 255 255 255 255 255 255 
255 255 255 255 255 255 255 255 255 128 128 128 0 0 0 128 128 128 128 128 128 
128 128 128 128 128 128 255 255 255 255 255 255 255 255 255 255 255 255 
255 255 255 255 255 255 128 128 128 0 0 0 128 128 128 128 128 128 128 128 128 
128 128 128 128 128 128 128 128 128 128 128 128 128 128 128 128 128 128 
128 128 128 128 128 128 0 0 0 128 128 128 128 128 128 128 128 128 128 128 128 
128 128 128 128 128 128 128 128 128 128 128 128 128 128 128 128 128 128 
128 128 128 0 0 0 128 128 128 128 128 128 128 128 128 128 128 128 255 255 255 
255 255 255 255 255 255 255 255 255 255 255 255 255 255 255 128 128 128 
0 0 0 128 128 128 128 128 128 128 128 128 128 128 128 255 255 255 255 255 255 
255 255 255 255 255 255 255 255 255 255 255 255 128 128 128 0 0 0 128 128 128 
128 128 128 128 128 128 128 128 128 128 128 128 255 255 255 255 255 255 
255 255 255 255 255 255 128 128 128 128 128 128 0 0 0 128 128 128 128 128 128 
128 128 128 128 128 128 128 128 128 128 128 128 255 255 255 255 255 255 
128 128 128 128 128 128 128 128 128 0 0 0 128 128 128 128 128 128 128 128 128 
128 128 128 128 128 128 128 128 128 128 128 128 128 128 128 128 128 128 
128 128 128 128 128 128 0 0 0 0 0 0 0 0 0 128 128 128 128 128 128 128 128 128 
128 128 128 128 128 128 128 128 128 128 128 128 128 128 128 128 128 128 
0 0 0 0 0 0 128 128 128 128 128 128 128 128 128 128 128 128 128 128 128 
128 128 128 128 128 128 128 128 128 128 128 128 128 128 128 0 0 0 128 128 128 
192 192 192 192 192 192 192 192 192 192 192 192 192 192 192 192 192 192 
192 192 192 192 192 192 192 192 192 192 192 192 0 0 0 128 128 128 128 128 128 
128 128 128 128 128 128 128 128 128 128 128 128 128 128 128 128 128 128 
128 128 128 128 128 128 128 128 128 0 0 0 128 128 128 128 128 128 128 128 128 
128 128 128 128 128 128 128 128 128 128 128 128 128 128 128 128 128 128 
128 128 128 128 128 128 0 0 0 128 128 128 128 128 128 128 128 128 128 128 128 
128 128 128 128 128 128 128 128 128 128 128 128 128 128 128 128 128 128 
128 128 128 0 0 0 128 128 128 128 128 128 128 128 128 128 128 128 128 128 128 
128 128 128 255 255 255 255 255 255 128 128 128 128 128 128 128 128 128 
0 0 0 128 128 128 128 128 128 128 128 128 128 128 128 128 128 128 255 255 255 
255 255 255 255 255 255 255 255 255 128 128 128 128 128 128 0 0 0 128 128 128 
128 128 128 128 128 128 128 128 128 255 255 255 255 255 255 255 255 255 
255 255 255 255 255 255 255 255 255 128 128 128 0 0 0 128 128 128 128 128 128 
128 128 128 128 128 128 255 255 255 255 255 255 255 255 255 255 255 255 
255 255 255 255 255 255 128 128 128 0 0 0 128 128 128 128 128 128 128 128 128 
128 128 128 128 128 128 128 128 128 128 128 128 128 128 128 128 128 128 
128 128 128 128 128 128 0 0 0 128 128 128 128 128 128 128 128 128 128 128 128 
128 128 128 128 128 128 128 128 128 128 128 128 128 128 128 128 128 128 
128 128 128 0 0 0 128 128 128 128 128 128 128 128 128 128 128 128 128 128 128 
128 128 128 128 128 128 128 128 128 128 128 128 128 128 128 128 128 128 
0 0 0 128 128 128 128 128 128 128 128 128 128 128 128 128 128 128 128 128 128 
128 128 128 128 128 128 128 128 128 128 128 128 128 128 128 0 0 0 128 128 128 
128 128 128 128 128 128 128 128 128 128 128 128 128 128 128 128 128 128 
128 128 128 128 128 128 128 128 128 128 128 128 0 0 0 128 128 128 128 128 128 
128 128 128 128 128 128 128 128 128 128 128 128 128 128 128 128 128 128 
128 128 128 128 128 128 128 128 128 0 0 0 0 0 0 0 0 0 128 128 128 128 128 128 
128 128 128 128 128 128 128 128 128 128 128 128 128 128 128 128 128 128 
128 128 128 0 0 0 0 0 0 128 128 128 128 128 128 128 128 128 128 128 128 
128 128 128 128 128 128 128 128 128 128 128 128 128 128 128 128 128 128 
0 0 0 128 128 128 192 192 192 192 192 192 192 192 192 192 192 192 192 192 192 
192 192 192 192 192 192 192 192 192 192 192 192 192 192 192 0 0 0 128 128 128 
128 128 128 128 128 128 128 128 128 128 128 128 128 128 128 128 128 128 
128 128 128 128 128 128 128 128 128 128 128 128 0 0 0 128 128 128 128 128 128 
128 128 128 128 128 128 128 128 128 128 128 128 128 128 128 128 128 128 
128 128 128 128 128 128 128 128 128 0 0 0 128 128 128 128 128 128 128 128 128 
128 128 128 128 128 128 128 128 128 128 128 128 128 128 128 128 128 128 
128 128 128 128 128 128 0 0 0 128 128 128 128 128 128 128 128 128 128 128 128 
128 128 128 128 128 128 128 128 128 128 128 128 128 128 128 128 128 128 
128 128 128 0 0 0 128 128 128 128 128 128 128 128 128 128 128 128 128 128 128 
128 128 128 128 128 128 128 128 128 128 128 128 128 128 128 128 128 128 
0 0 0 128 128 128 128 128 128 128 128 128 128 128 128 128 128 128 128 128 128 
128 128 128 128 128 128 128 128 128 128 128 128 128 128 128 0 0 0 128 128 128 
128 128 128 128 128 128 128 128 128 128 128 128 128 128 128 128 128 128 
128 128 128 128 128 128 128 128 128 128 128 128 0 0 0 128 128 128 128 128 128 
128 128 128 128 128 128 255 255 255 255 255 255 255 255 255 255 255 255 
255 255 255 255 255 255 128 128 128 0 0 0 128 128 128 128 128 128 128 128 128 
128 128 128 255 255 255 255 255 255 255 255 255 255 255 255 255 255 255 
255 255 255 128 128 128 0 0 0 128 128 128 128 128 128 128 128 128 128 128 128 
128 128 128 255 255 255 255 255 255 255 255 255 255 255 255 128 128 128 
128 128 128 0 0 0 128 128 128 128 128 128 128 128 128 128 128 128 128 128 128 
128 128 128 255 255 255 255 255 255 128 128 128 128 128 128 128 128 128 
0 0 0 128 128 128 128 128 128 128 128 128 128 128 128 128 128 128 128 128 128 
128 128 128 128 128 128 128 128 128 128 128 128 128 128 128 0 0 0 128 128 128 
128 128 128 128 128 128 128 128 128 128 128 128 128 128 128 128 128 128 
128 128 128 128 128 128 128 128 128 128 128 128 
