P3
# Created by Paint Shop Pro 7
14 14
255
255 255 240 255 255 240 255 255 240 255 255 240 255 255 240 157 46 4 255 255 240 
157 46 4 255 255 240 157 46 4 255 255 240 255 255 240 255 255 240 255 255 240 
255 255 240 255 255 240 255 255 240 157 46 4 255 255 240 255 255 240 255 255 240 
255 255 240 255 255 240 255 255 240 255 255 240 255 255 240 255 255 240 
255 255 240 255 255 240 255 255 240 255 255 240 255 255 240 255 255 240 
208 80 32 208 80 32 208 80 32 208 80 32 255 255 240 255 255 240 157 46 4 
255 255 240 255 255 240 255 255 240 157 46 4 255 255 240 208 80 32 208 80 32 
255 218 17 255 218 17 255 218 17 255 218 17 208 80 32 208 80 32 255 255 240 
255 255 240 255 255 240 255 255 240 255 255 240 255 255 240 208 80 32 255 218 17 
255 218 17 255 218 17 255 218 17 255 218 17 255 218 17 208 80 32 255 255 240 
255 255 240 157 46 4 157 46 4 255 255 240 208 80 32 255 218 17 255 218 17 
157 46 4 255 218 17 255 218 17 157 46 4 255 218 17 255 218 17 208 80 32 
255 255 240 255 255 240 255 255 240 255 255 240 208 80 32 255 218 17 255 218 17 
157 46 4 255 218 17 255 218 17 157 46 4 255 218 17 255 218 17 208 80 32 
255 255 240 157 46 4 157 46 4 255 255 240 208 80 32 255 218 17 255 218 17 
255 218 17 255 218 17 255 218 17 255 218 17 255 218 17 255 218 17 208 80 32 
255 255 240 255 255 240 255 255 240 255 255 240 208 80 32 255 218 17 255 218 17 
157 46 4 255 218 17 255 218 17 157 46 4 255 218 17 255 218 17 208 80 32 
255 255 240 157 46 4 157 46 4 255 255 240 255 255 240 208 80 32 255 218 17 
255 218 17 157 46 4 157 46 4 255 218 17 255 218 17 208 80 32 255 255 240 
255 255 240 255 255 240 255 255 240 255 255 240 255 255 240 208 80 32 208 80 32 
255 218 17 255 218 17 255 218 17 255 218 17 208 80 32 208 80 32 255 255 240 
157 46 4 255 255 240 255 255 240 255 255 240 157 46 4 255 255 240 255 255 240 
208 80 32 208 80 32 208 80 32 208 80 32 255 255 240 255 255 240 255 255 240 
255 255 240 255 255 240 255 255 240 255 255 240 255 255 240 255 255 240 
255 255 240 255 255 240 255 255 240 255 255 240 255 255 240 255 255 240 
157 46 4 255 255 240 255 255 240 255 255 240 255 255 240 255 255 240 255 255 240 
255 255 240 157 46 4 255 255 240 157 46 4 255 255 240 157 46 4 255 255 240 
255 255 240 255 255 240 255 255 240 255 255 240 
