P3
# Created by Paint Shop Pro 7
13 14
255
255 255 240 255 255 240 255 255 240 255 255 240 255 255 240 255 255 240 
255 255 240 6 68 140 255 255 240 255 255 240 255 255 240 255 255 240 255 255 240 
255 255 240 255 255 240 255 255 240 255 255 240 255 255 240 255 255 240 
255 255 240 255 255 240 6 68 140 6 68 140 255 255 240 255 255 240 255 255 240 
255 255 240 255 255 240 255 255 240 255 255 240 255 255 240 255 255 240 
255 255 240 255 255 240 6 68 140 151 199 255 6 68 140 255 255 240 255 255 240 
255 255 240 255 255 240 255 255 240 255 255 240 255 255 240 255 255 240 
255 255 240 255 255 240 6 68 140 151 199 255 151 199 255 6 68 140 255 255 240 
255 255 240 255 255 240 255 255 240 255 255 240 255 255 240 255 255 240 
255 255 240 255 255 240 6 68 140 151 199 255 151 199 255 151 199 255 6 68 140 
255 255 240 255 255 240 255 255 240 255 255 240 255 255 240 255 255 240 
255 255 240 255 255 240 6 68 140 151 199 255 151 199 255 151 199 255 6 68 140 
255 255 240 255 255 240 255 255 240 255 255 240 255 255 240 255 255 240 
255 255 240 255 255 240 6 68 140 151 199 255 151 199 255 151 199 255 6 68 140 
255 255 240 255 255 240 255 255 240 255 255 240 255 255 240 6 68 140 6 68 140 
6 68 140 151 199 255 6 68 140 151 199 255 151 199 255 6 68 140 255 255 240 
255 255 240 255 255 240 255 255 240 255 255 240 6 68 140 151 199 255 151 199 255 
151 199 255 151 199 255 6 68 140 151 199 255 6 68 140 255 255 240 255 255 240 
255 255 240 255 255 240 255 255 240 6 68 140 151 199 255 151 199 255 151 199 255 
151 199 255 151 199 255 151 199 255 6 68 140 6 68 140 255 255 240 6 68 140 
6 68 140 6 68 140 151 199 255 151 199 255 151 199 255 151 199 255 151 199 255 
151 199 255 6 68 140 255 255 240 255 255 240 6 68 140 151 199 255 151 199 255 
151 199 255 151 199 255 151 199 255 151 199 255 151 199 255 151 199 255 
6 68 140 255 255 240 255 255 240 255 255 240 255 255 240 6 68 140 151 199 255 
151 199 255 151 199 255 151 199 255 151 199 255 151 199 255 6 68 140 255 255 240 
255 255 240 255 255 240 255 255 240 255 255 240 255 255 240 6 68 140 6 68 140 
6 68 140 6 68 140 6 68 140 6 68 140 255 255 240 255 255 240 255 255 240 
255 255 240 
